/* XPM */
static char *shpimp006[] = {
/* width height num_colors chars_per_pixel */
"    40    40       25            1",
/* colors */
". c None",
"# c #000800",
"a c #001000",
"b c #001800",
"c c #002100",
"d c #082100",
"e c #082900",
"f c #083100",
"g c #083900",
"h c #084200",
"i c #084a00",
"j c #105200",
"k c #105a00",
"l c #106b00",
"m c #107300",
"n c #187300",
"o c #187b00",
"p c #188c00",
"q c #189400",
"r c #189c00",
"s c #18a500",
"t c #219c00",
"u c #21a500",
"v c #21ad00",
"w c #21b500",
/* pixels */
"............#####..#f...#...............",
".........#.######g.ffe..#...............",
"........#..##hhffefdeddbec.e............",
".......#.#.jgfgdebddadbddadddd..........",
".......##hhfgedddaaaaaaaaadadddc........",
"......##.hgfeeddaaaa#a#aaaaaadbcc.......",
"......#jhgefebdda##a#######aaaabde......",
"......jjffedddaa#############aaaabd#....",
"....kkjhfeddaaa###.###...######aaade....",
"....kjjffcdaaaa###..##...##.###aaadd.#.#",
"...kkjggebdaa###.#..#....##.####aaddee##",
"...kjhgeebaa###...#.#....#....####addf..",
"..lkkggfcaa#a#..........#....#..#aaddd#.",
"..nkhgffdaa####.#............##.#aaddde.",
".nnkhhfedaaa###.#..............###aaddf.",
"..nkjgfedda####................####addef",
".nnjjgfddaa####.................###addeg",
"#olkhhgdddaa###.................##aaddef",
"#onkjjfeddaa###..............#.#####ddef",
"#olkjhfeddaa####.................#aaddeh",
"polkkhhedddaa####.............#.###addeh",
"qpokkhgfdddaa##..#.........#.#..##aaddfg",
".polnjjfeddaaa##...#........#.####aadefg",
"tqonljjgfedaaaa####.........#####aaddfgg",
"troolnjhfeddaaaa###.........#####daddfgj",
"#uppnnjjgfedaaaa#a##.###...####aaaddfggh",
".vtoonkkhhfeddaaaa#########a#aaadddffgj.",
"#vttookljhggeebdadaa##aa#aaaaaacddefghi.",
"#vutpoolkhhggeedddaaa#aaaadadadcedgfghk.",
"..#ttpolkkjhhffddbcdbadaddadbdecefghji..",
"###ustpookkjjhgffeeddbcdcddceeefghjhkk..",
"#.#wstpoonkkjjggffeedecccedeefeggjjkk...",
"..##vuttoonnkkjjhhggfgfffgfgfghhjkjlk...",
".....wuutqoonlkkjjhhhjghghghjjjkknnn....",
"....#.vvrtpqoolmknkkjjjjjkjkjkkllon.....",
".......vvttqqoomnnlknjkjkkkklkmloo......",
".......wwvvrrppoooolmmmlnknnnnpo#o......",
".........wwvvtrqtppppopooopopptp........",
"...........wwvvustspqptotprp.t.##.......",
"............wwvvsusuquttttru.#.##......."
};
