/* XPM */
static char *shpimp015[] = {
/* width height num_colors chars_per_pixel */
"    40    40       25            1",
/* colors */
". c None",
"# c #000800",
"a c #001000",
"b c #001800",
"c c #002100",
"d c #082100",
"e c #082900",
"f c #083100",
"g c #083900",
"h c #084200",
"i c #084a00",
"j c #105200",
"k c #105a00",
"l c #106b00",
"m c #107300",
"n c #187300",
"o c #187b00",
"p c #188c00",
"q c #189400",
"r c #189c00",
"s c #18a500",
"t c #219c00",
"u c #21a500",
"v c #21ad00",
"w c #21b500",
/* pixels */
".......##.#.urttttuqususvvww............",
".......##.t.prptotpqpstsuvvww...........",
"........ptppopooopopppptqrtvvww.........",
"......o#opnnnnknlmmmloooopprrvvww.......",
"......oolmklkkkkjkjnklnnmooqqttvv.......",
".....nollkkjkjkjjjjjkknkmlooqptrvv.#....",
"....nnnkkjjjhghghgjhhhjjkklnooqtuuw.....",
"...kljkjhhgfgfgfffgfgghhjjkknnoottuv##..",
"...kkjjggefeedecccedeeffggjjkknooptsw#.#",
"..kkhjhgfeeecddcdcbddeeffghjjkkooptsu###",
"..ijhgfecedbdaddadabdcbddffhhjkkloptt#..",
".khgfgdecdadadaaaa#aaadddeegghhklooptuv#",
".ihgfeddcaaaaaa#aa##aadadbeegghjlkoottv#",
".jgffdddaaa#a#########aaaaddefhhkknootv.",
"hggfddaaa####...###.##a#aaaadefgjjnnppu#",
"jgfddad#####.........###aaaaddefhjnloort",
"ggfddaa#####.........####aaaadefgjjlnoqt",
"gfedaa####.#........#...##aaaddefjjnlop.",
"gfddaa##..#.#.........#..##aadddfghkkopq",
"hedda###.#.............####aadddehhkklop",
"heddaa#.................####aaddefhjklo#",
"fedd#####.#..............###aaddefjjkno#",
"feddaa##.................###aadddghhklo#",
"gedda###.................####aaddfgjjnn.",
"fedda####................####addefgjkn..",
".fddaa###..............#.###aaadefhhknn.",
".edddaa#.##............#.####aadffghkn..",
".#dddaa#..#....#..........#a#aacfggkkl..",
"..fdda####....#....#.#...###aabeeghjk...",
"##eeddaa####.##....#..#.###aadbeggjkk...",
"#.#.ddaaa###.##...##..###aaaadcffjjk....",
"....edaaa######...###.###aaaddefhjkk....",
"....#dbaaaa#############aadddeffjj......",
"......edbaaaa#######a##addbefeghj#......",
".......ccbdaaaaaa#a#aaaaddeefgh.##......",
"........cdddadaaaaaaaaadddegfhh##.......",
"..........ddddaddbdaddbedgfgj.#.#.......",
"............e.cebddedfeffhh##..#........",
"...............#..eff.g######.#.........",
"...............#...f#..#####............"
};
