/* XPM */
static char *shplas004[] = {
/* width height num_colors chars_per_pixel */
"    34    34        2            1",
/* colors */
". c None",
"# c #dd7777",
/* pixels */
"..................................",
"..................................",
"..................................",
"..................................",
"..................................",
"..................................",
"..................................",
"..................................",
"..................................",
"..................................",
"..................................",
"..................................",
"..................................",
"..................................",
"..................................",
"..................................",
"..................................",
"..................................",
"..................................",
"..............................#...",
".............................#....",
"..................................",
"..................................",
"...#..............................",
"..#..#........................#...",
".....#...............#.......#....",
".............................#....",
"....#..................#...#......",
".....#...................#..#.#...",
"......#.................#.#..#....",
".........#....#........#..#.#.....",
".......#........#....#..##.#......",
".........#...#..#.#.#.##.##.......",
"............#.##.#.#.#.##........."
};
