/* XPM */
static char *stnimp000[] = {
/* width height num_colors chars_per_pixel */
"    68    68        2            1",
/* colors */
". c None",
"# c #99cc99",
/* pixels */
"....................................................................",
"....................................................................",
"....................................................................",
"............................................#...#...................",
"..............................................#..#..................",
"................................................#..#................",
"...............................................#.##...#.............",
"...................................................##.#.............",
".................................................#.#.#.##...........",
"................................................#..#..##.#..........",
"...................................................#.####.#.........",
"..................................................#..#.####.........",
".....................................................#..####........",
"....................................................#.###.###.......",
"...................................................#...#.####.......",
".....................................................##.##.####.....",
".......................................................#.######.....",
"......................................................#.#.#.##.#....",
"........................................................########....",
"........................................................#.#.#####...",
"..........................................................#######...",
".........................................................#..#.####..",
".......................................................#..########..",
"............................................................##.###..",
".........................................................#.##.#####.",
"..........................................................#..######.",
"...........................................................########.",
"..............................................................#####.",
"..........................................................#.#.#.####",
"...........................................................#.#######",
"............................................................#.######",
".............................................................#######",
"...........................................................#.#.#####",
"..............................................................######",
"............................................................########",
"..........................................................#....#####",
"............................................................########",
".............................................................#.#####",
"...........................................................#.#######",
".............................................................##.####",
"............................................................#.######",
"............................................................#.#####.",
"...........................................................#.######.",
"...........................................................#.#.####.",
"..........................................................#.#######.",
"............................................................#.####..",
"..........................................................##.#####..",
".......................................................#.#.###.###..",
"..........................................................#.#####...",
"........................................................#.##.####...",
".......................................................#.#######....",
"......................................................#..#..###.....",
".....................................................#..#####.#.....",
"....................................................#..#..####......",
"......................................................#.##.###......",
"....................................................#.###.###.......",
"...................................................#.#..##.#........",
".................................................#...#.####.........",
"...................................................##.#.##..........",
"..................................................#...##............",
"...............................................#.#..#.##............",
".................................................#.#..#.............",
"....................................................................",
"................................................#.#.................",
"....................................................................",
".............................................#......................",
"....................................................................",
"...................................................................."
};
