/* XPM */
static char *t1shr008[] = {
/* width height num_colors chars_per_pixel */
"    32    32       31            1",
/* colors */
". c #4a4a4a",
"# c #de3931",
"a c #bd3121",
"b c #5a3121",
"c c #9c6342",
"d c #8c5a39",
"e c #6b4229",
"f c #ce8452",
"g c #422918",
"h c #94735a",
"i c #de945a",
"j c #bd7b4a",
"k c #ffad6b",
"l c #f7a563",
"m c #634a31",
"n c #312110",
"o c #ffbd73",
"p c #635a18",
"q c #dece00",
"r c #080800",
"s c #7b7b00",
"t c #a5a500",
"u c #639cc6",
"v c #5284ad",
"w c #426384",
"x c #6ba5de",
"y c #293952",
"z c #7384ad",
"A c #9c949c",
"B c #6b5a63",
"C c None",
/* pixels */
"CCCCCCCCCCCCCCCCCCCCCCCCCCCCCCCC",
"CCCCCCCCCCCCCCCCCCCCCCCCCCCCCCCC",
"CCCCCCCCCCCCCCCCnyCCCCCCCCCCCCCC",
"CCCCCCCCCCCCCCCCgzyCCCCCCCCCCCCC",
"CCCCCCCCCCCCnefok#wCCCCCCCCCCCCC",
"CCCCrCCCnnfikklifeyCCCCCCgnCCCCC",
"CCCCgnndkkliifloonCCCCgilomCCCCC",
"CCCrbsnpfcenhooooCCCCglkoiCCCCCC",
"CCCCnsgnnrCmoookonnjlhkoomCCCCCC",
"CCCCrsnCCCCioolklllolooooCCCCCCC",
"CCCCCnCCCCmkllllkooooooomCCCCCCC",
"CCCCCCCrnhzzvwBoooooooooCCCCCCCC",
"CCCCCCjkzxxuuvwioookkkkhCCCCCCCC",
"CCCCCckAxxxuvwyokkkkllidCCCCCCCC",
"CCCCnooxxxvvwyfkkllifffeCCCCCCCC",
"CCCCioooAzwB.flliffjjcdgCCCCCCCC",
"CCCcoookklllliifjjcdeggrCCCCCCCC",
"CCgooookliiffjcccclofnCCCCCCCCCC",
"CCgflkklifjjcccloooooinCCCCptsrC",
"CCCCgefijddegfooookoooigrwsqqqgC",
"CCCCCCCgdggCCCgjokooooofawzsqqsC",
"CCCCCCCCCCCCCCCCgdloliloo#uptttC",
"CCCCCCCCCCCCCCCCCndllokllawyrrnC",
"CCCCCCCCCCCCCCrbjlkokijdrnyrCCCC",
"CCCCCCCCCCCCCnkooklfdnCCCCCCCCCC",
"CCCCCCCCCCCCgiilfdnrCCCCCCCCCCCC",
"CCCCCCCCCCCCmgbgrCCCCCCCCCCCCCCC",
"CCCCCCCCCCCCCCCCCCCCCCCCCCCCCCCC",
"CCCCCCCCCCCCCCCCCCCCCCCCCCCCCCCC",
"CCCCCCCCCCCCCCCCCCCCCCCCCCCCCCCC",
"CCCCCCCCCCCCCCCCCCCCCCCCCCCCCCCC",
"CCCCCCCCCCCCCCCCCCCCCCCCCCCCCCCC"
};
