/* XPM */
static char *t1shr011[] = {
/* width height num_colors chars_per_pixel */
"    32    32       31            1",
/* colors */
". c #181818",
"# c #8c6b6b",
"a c #735252",
"b c #942100",
"c c #5a3121",
"d c #e78c5a",
"e c #945a39",
"f c #b57b52",
"g c #634229",
"h c #9c6b42",
"i c #ffad6b",
"j c #7b5231",
"k c #efa563",
"l c #ffbd7b",
"m c #312110",
"n c #ce9c63",
"o c #847300",
"p c #9c8c00",
"q c #736b00",
"r c #dece00",
"s c #101008",
"t c #424200",
"u c #bdbd00",
"v c #213142",
"w c #73adef",
"x c #6394ce",
"y c #395a84",
"z c #395273",
"A c #5273a5",
"B c #848c9c",
"C c None",
/* pixels */
"CCCCCCCCCCCCCCCCCCCCCCCCCCCCCCCC",
"CCCCCCCCCCCCCCCCssCCCCCCCCCCCCCC",
"CCCCCCCCCCCCCCCmqtCCCCCCCCCCCCCC",
"CCCCCCCCCCCCCCCppqsCCCCCCCCCCCCC",
"CCCCCCCCCCCCCCtrpqpgCCCCCCCCCCCC",
"CCCCCCCCCCCCCCtqotllfmCCCCCCCCCC",
"CCCCCCCCmcfemCCCCCjilijCCCCCCCCC",
"CCCCCChiknxB#gCCCCCmnllfcCCCCCCC",
"CCCCCCdklxwwxyjmmgjhhillljC.CCCC",
"CCCCCCeilwwwxxzhflllililllnAvCCC",
"CCCCCCjlllxwxxAadfklliliid#AsCCC",
"CCCCCCglllBAxxA#kdffillkjaAmCCCC",
"CCCCCCmdilllnBnllkkfffjsC..CCCCC",
"CCCCCCCgdiilllllllllkngCCCCCCCCC",
"CCCCCCCCmdkllllllllllllhCCCCCCCC",
"CCCCCCCCChkkilllllllllllimCCCCCC",
"CCCCCCCCChlikillllllllllnmCCCCCC",
"CCCgCCCCChliidklllllllnmCCCCCCCC",
"CCCgifmCChlillkkillnngCCCCCCCCCC",
"CCCmlldcChililiekilgsCCCCCCCCCCC",
"CCCCgllkghlllifCgdesCCCCCCCCCCCC",
"CCCCCcilifkilljCCmcCCCCCCCCCCCCC",
"CCCCCCmnlifklisCCCCCCCCCCCCCCCCC",
"CCCCCCCsfllddhCCCCCCCCCCCCCCCCCC",
"CCCCCCCCChllnevsCCCCCCCCCCCCCCCC",
"CCCCCCCCCCjldxytCCCCCCCCCCCCCCCC",
"CCCCCCCCCCCcBAoruomCCCCCCCCCCCCC",
"CCCCCCCCCCCvxgurrotCCCCCCCCCCCCC",
"CCCCCCCCCCCC.srrppbCCCCCCCCCCCCC",
"CCCCCCCCCCCCCCtupbCCCCCCCCCCCCCC",
"CCCCCCCCCCCCCCCqbmCCCCCCCCCCCCCC",
"CCCCCCCCCCCCCCCCCCCCCCCCCCCCCCCC"
};
