/* XPM */
static char *t1shr004[] = {
/* width height num_colors chars_per_pixel */
"    32    32       31            1",
/* colors */
". c #9c9494",
"# c #bd2118",
"a c #842100",
"b c #211008",
"c c #9c6342",
"d c #8c5a39",
"e c #b5734a",
"f c #c67b4a",
"g c #ce8452",
"h c #422918",
"i c #634229",
"j c #de945a",
"k c #de9c63",
"l c #ffad6b",
"m c #7b5231",
"n c #deb58c",
"o c #634a31",
"p c #9c734a",
"q c #ffbd73",
"r c #634a00",
"s c #947b00",
"t c #b59c00",
"u c #bdb529",
"v c #cece00",
"w c #293131",
"x c #426b8c",
"y c #6bade7",
"z c #6ba5de",
"A c #638cc6",
"B c #21314a",
"C c None",
/* pixels */
"CCCCCCCCCCCCCcCCCCCCCCCCCCCCCCCC",
"CCCCCCCCCCCCCqCCCCCCCCCCCCCCCCCC",
"CCCCCCCCCCCCoqiCCCCCCCCCCCCCCCCC",
"CCCCCCCCCCCCoqiCCCCCCCCrCCCCCCCC",
"CCCCCCCCCCCCpqchCCCCCsvtrCCCCCCC",
"CCCCCCCCCCCCpqghCCCCCvtvrCCCCCCC",
"CCCCCCCCCCCCqqphhbCCCruAABCCCCCC",
"CCCCCCCCCChkqqkhdmCCCCAa#wCCCCCC",
"CCCbbCCCCCgqqqqhgdbCCCikqhCCCCCC",
"CCAAxBCCCCqqqqqejchCChqqqdCCCCCC",
"CCB##hCCCCgqqqqejehhgqqqqjCCCCCC",
"CCbqkgpooCgqqqqqkfocqqlqqqbCCCCC",
"CCCqkpqqqqlqqqn.ggdiqqqqqqdCCCCC",
"CCCklpqqqqlqqqzAxBchqqlpfqgCCCCC",
"CCCkldlqlqqqnnyyAxiikqkChqlbCCCC",
"CCCklcgqqqqqqnyyAxwidqhCbqqoCCCC",
"CCCpqmbcqlqlqnyyzxwdihCCCgqoCCCC",
"CCCpqdCChkqlqnzyzxwcbCCCCCkoCCCC",
"CCCcqcCCCCdkqq.zAxcehCCCCChmCCCC",
"CCCoqebCCCCdqqnn..keiCCCCCCoCCCC",
"CCCCssbCCCCiqqqqkffcibCCCCCCCCCC",
"CCCrrssCCCCbllkkkgfcibCCCCCCCCCC",
"CCbrssrrCCCbfjlllkfdbCCCCCCCCCCC",
"CCbhahhrCCCChgklljfibCCCCCCCCCCC",
"CCCbabaCCCCCCbelllchCCCCCCCCCCCC",
"CCCCCCCCCCCCCCCcllmCCCCCCCCCCCCC",
"CCCCCCCCCCCCCCCCmlbCCCCCCCCCCCCC",
"CCCCCCCCCCCCCCCCChCCCCCCCCCCCCCC",
"CCCCCCCCCCCCCCCCCCCCCCCCCCCCCCCC",
"CCCCCCCCCCCCCCCCCCCCCCCCCCCCCCCC",
"CCCCCCCCCCCCCCCCCCCCCCCCCCCCCCCC",
"CCCCCCCCCCCCCCCCCCCCCCCCCCCCCCCC"
};
