/* XPM */
static char *t1shf011[] = {
/* width height num_colors chars_per_pixel */
"    32    32       30            1",
/* colors */
". c #ff6b42",
"# c #c63100",
"a c #7b2100",
"b c #735242",
"c c #b59c8c",
"d c #8c5a39",
"e c #6b4229",
"f c #ce8452",
"g c #5a3921",
"h c #392110",
"i c #de945a",
"j c #9c6b42",
"k c #b57b4a",
"l c #f7a563",
"m c #ffb573",
"n c #181008",
"o c #ffbd73",
"p c #ffc67b",
"q c #634a18",
"r c #948c00",
"s c #cec600",
"t c #b5b500",
"u c #182931",
"v c #84a5c6",
"w c #52739c",
"x c #6394ce",
"y c #395273",
"z c #8c848c",
"A c #ad638c",
"B c None",
/* pixels */
"BBBBBBBBBBBBBBBBBBBBBBBBBBBBBBBB",
"BBBBBBBBBBBBBBBBBBBBBBBBBBBBBBBB",
"BBBBBBBBBBBBBBBBBBBBBBBBBBBBBBBB",
"BBBBBBBBBBBBBBBBBBBBBBBBBBBBBBBB",
"BBBBBBBBBBBBBBBBhddeBBBBBBBBBBBB",
"BBBBBBBBBBBBBBBBBhppknBBBBBBBBBB",
"BBBBBBBBhgkdhBBBBBblpmdBBBBBBBBB",
"BBBBBBjllcvwzeBBBBBhfppfhBBBBBBB",
"BBBBBBflpxvxxybhheejjmmppdBnBBBB",
"BBBBBBdmpvxvxxyjkppommmmopfwuBBB",
"BBBBBBdpppxxxxwbfklmoommm.AwnBBB",
"BBBBBBemppzxxxwbmikkmmolbbwnBBBB",
"BBBBBBhimmpmczpppllfkkbnBnuBBBBB",
"BBBBBBBeimmppppppppmlieBBBBBBBBB",
"BBBBBBBBhilmpppppppppppkBBBBBBBB",
"BBBBBBBBBjllmpppppppppppmhBBBBBB",
"BBBBBBBBBjmlllmppppppppplhBBBBBB",
"BBBeBBBBBjpmlilmpppppplqhhhBBBBB",
"BBBemfhBBjmmpmilmpploqhhqqhBBBBB",
"BBBhppigBjmmmmpdilogrrqqha#nBBBB",
"BBBBemplejoommkBeijhssraaaBBBBBB",
"BBBBBgmplfipmobBBhgntrsa#nBBBBBB",
"BBBBBBnipmklmmnBBBBBntqhaBBBBBBB",
"BBBBBBBnfppfijBBBBBBBqBhBBBBBBBB",
"BBBBBBBBBdppidyBBBBBBBBBBBBBBBBB",
"BBBBBBBBBBdp.xynBBBBBBBBBBBBBBBB",
"BBBBBBBBBBBhvwnBBBBBBBBBBBBBBBBB",
"BBBBBBBBBBBuxnBBBBBBBBBBBBBBBBBB",
"BBBBBBBBBBBBuBBBBBBBBBBBBBBBBBBB",
"BBBBBBBBBBBBBBBBBBBBBBBBBBBBBBBB",
"BBBBBBBBBBBBBBBBBBBBBBBBBBBBBBBB",
"BBBBBBBBBBBBBBBBBBBBBBBBBBBBBBBB"
};
