/* XPM */
static char *t1shl007[] = {
/* width height num_colors chars_per_pixel */
"    32    32       31            1",
/* colors */
". c #a57b7b",
"# c #bd3131",
"a c #de6b42",
"b c #523121",
"c c #843100",
"d c #6b4229",
"e c #845231",
"f c #ce8452",
"g c #de945a",
"h c #bd7b4a",
"i c #9c6b42",
"j c #ffad6b",
"k c #f7a563",
"l c #735231",
"m c #312110",
"n c #422910",
"o c #ffbd73",
"p c #634a29",
"q c #8c8400",
"r c #101008",
"s c #c6c600",
"t c #84a5b5",
"u c #29425a",
"v c #6ba5de",
"w c #5a8cbd",
"x c #395a7b",
"y c #21314a",
"z c #525273",
"A c #7b739c",
"B c #844263",
"C c None",
/* pixels */
"CCCCCCCCCCCCCCCCCCCCCCCCCCCCCCCC",
"CCCCCCCCCCCCCCCsqrCCCCCCCCCCCCCC",
"CCCCCCCCCCCCrxqqscCCCCCCCCCCCCCC",
"CCCCCCCCCCCCuAtqpqCCCCmgmCCCCCCC",
"CCCCCCCCCCCmo#znnmCCClooCCCCCCCC",
"CCCCCCCCCmgjfdurCCCCloogCCCCCCCC",
"CCCCCCCCiogfkgCCCCmmoooiCCCCCCCC",
"CCCCCCmgkfhooomCmhjoooopCCCCCCCC",
"CCCCCfogipoooogmfooooooCCCCCCCCC",
"CCCCnjfpCdojojkkooooojjCCCCCCCCC",
"CCCmgemCCpoojkjooojjjkhCCCCCCCCC",
"CCCCCCCCCioggkgojjjkkfhrCCCCCCCC",
"CCCCCCCCCigtwwxgjjkgfhemCCCCCCCC",
"CCCCCCCCe.vvwwxljkgfieprCCCCCCCC",
"CCCCCCmfjvvvwxuigfhilbrCCCCCCCCC",
"CCCCCCkotvvwxxlgfhedhlCCCCrrCCCC",
"CCCCCpoktvwAxlgfieekoooiCyBwuCCC",
"CCCCCiooo...hfhieloooooooia#wrCC",
"CCCCCjooojkgfhidhoooojookjoazyCC",
"CCCCCooojkgfiebfoojojookjjfnuCCC",
"CCCCpoojjkfilbmrmmbplhkokhrCCCCC",
"CCCCiokgffflnrCCCCCCmfokerCCCCCC",
"CCCCbnbbbbbprCCCCCCbjjklrCCCCCCC",
"CCCCCCCCCCCCCCCCCCeojgpCCCCCCCCC",
"CCCCCCCCCCCCCCCCCmgjfmCCCCCCCCCC",
"CCCCCCCCCCCCCCqpnnehmCCCCCCCCCCC",
"CCCCCCCCCCCCCCCcnqqCCCCCCCCCCCCC",
"CCCCCCCCCCCCCCncqqnCCCCCCCCCCCCC",
"CCCCCCCCCCCCCCCCcqrCCCCCCCCCCCCC",
"CCCCCCCCCCCCCCCCCnCCCCCCCCCCCCCC",
"CCCCCCCCCCCCCCCCCCCCCCCCCCCCCCCC",
"CCCCCCCCCCCCCCCCCCCCCCCCCCCCCCCC"
};
