/* XPM */
static char *t1ship011[] = {
/* width height num_colors chars_per_pixel */
"    32    32       31            1",
/* colors */
". c #080808",
"# c #7b5a52",
"a c #e76b42",
"b c #c6846b",
"c c #8c7363",
"d c #8c5a39",
"e c #ef9c63",
"f c #ce8452",
"g c #e7945a",
"h c #422918",
"i c #de945a",
"j c #bd7b4a",
"k c #c68c5a",
"l c #9c6b42",
"m c #ffad6b",
"n c #ad7b4a",
"o c #ffbd73",
"p c #deb584",
"q c #634a29",
"r c #949c8c",
"s c #101810",
"t c #21394a",
"u c #5a94c6",
"v c #6ba5de",
"w c #4a73a5",
"x c #294263",
"y c #7b8ca5",
"z c #8c8cbd",
"A c #5a3952",
"B c #ad638c",
"C c None",
/* pixels */
"CCCCCCCCCCCCCCCCCCCCCCCCCCCCCCCC",
"CCCCCCCCCCCCCCCCCCCCCCCCCCCCCCCC",
"CCCCCCCCCCCCCCCCCCCCCCCCCCCCCCCC",
"CCCCCCCCCCCCCCCCCCCCCCCCCCCCCCCC",
"CCCCCCCCCCCCCCCChddqCCCCCCCCCCCC",
"CCCCCCCCCCCCCCCCChoofsCCCCCCCCCC",
"CCCCCCCChhjdhCCCCCdmoodCCCCCCCCC",
"CCCCCClmmpzycqCCCCChiookhCCCCCCC",
"CCCCCCkoovvvuxlhhqqllmooodCsCCCC",
"CCCCCCloovvvvuxlkooooooooobwtCCC",
"CCCCCCdoopvvvvw#fnmoomoomaBysCCC",
"CCCCCCqoooruuuwcmgjjoooiqAwdCCCC",
"CCCCCCseoooprrpommefnnqCC.xCCCCC",
"CCCCCCCqemooooooommmgfqCCCCCCCCC",
"CCCCCCCChfeooooooommmmmnCCCCCCCC",
"CCCCCCCCClmeooooooommmmmohCCCCCC",
"CCCCCCCCClomemoooooommmmfhCCCCCC",
"CCCqCCCCCloomimooooommfhCCCCCCCC",
"CCCqojhCClooooeeooopkhCCCCCCCCCC",
"CCChooiqCloomoolgmoh..CCCCCCCCCC",
"CCCCqooeqloooonCqilsCCCCCCCCCCCC",
"CCCCCqoomjeomoq.ChqCCCCCCCCCCCCC",
"CCCCCCskoojeoosCCCCCCCCCCCCCCCCC",
"CCCCCCCskoofilCCCCCCCCCCCCCCCCCC",
"CCCCCCCCClooilx.CCCCCCCCCCCCCCCC",
"CCCCCCCCCCdoavw.CCCCCCCCCCCCCCCC",
"CCCCCCCCCCChzyhCCCCCCCCCCCCCCCCC",
"CCCCCCCCCCCtuhCCCCCCCCCCCCCCCCCC",
"CCCCCCCCCCCCs.CCCCCCCCCCCCCCCCCC",
"CCCCCCCCCCCCCCCCCCCCCCCCCCCCCCCC",
"CCCCCCCCCCCCCCCCCCCCCCCCCCCCCCCC",
"CCCCCCCCCCCCCCCCCCCCCCCCCCCCCCCC"
};
