/* XPM */
static char *t1shr007[] = {
/* width height num_colors chars_per_pixel */
"    32    32       31            1",
/* colors */
". c #080808",
"# c #a57b7b",
"a c #bd3131",
"b c #de6b42",
"c c #ce8452",
"d c #634229",
"e c #de945a",
"f c #bd7b4a",
"g c #9c6b42",
"h c #ffad6b",
"i c #f7a563",
"j c #7b5231",
"k c #523921",
"l c #735231",
"m c #312110",
"n c #4a3118",
"o c #ffbd73",
"p c #9c9400",
"q c #cec600",
"r c #7b7b00",
"s c #84a5b5",
"t c #6ba5de",
"u c #426b94",
"v c #5a84b5",
"w c #6394ce",
"x c #31425a",
"y c #21314a",
"z c #7b739c",
"A c #635273",
"B c #844263",
"C c None",
/* pixels */
"CCCCCCCCCCCCCCCCCCCCCCCCCCCCCCCC",
"CCCCCCCCCCCCCCCCCCCCCCCCCCCCCCCC",
"CCCCCCCCCCCC.uCCCCCCCCCCCCCCCCCC",
"CCCCCCCCCCCCxzuCCCCCCCmemCCCCCCC",
"CCCCCCCCCCCmoaA.CCCCClooCCCCCCCC",
"CCCCCCCCCmehcdx.CCCClooeCCCCCCCC",
"CCCCCCCCgoecie.CCCmmooogCCCCCCCC",
"CCCCCCmeicfooomCmfhoooodCCCCCCCC",
"CCCCCcoegdoooocmchoooooCCCCCCCCC",
"C.mmmcfdClohooihooooohhCCCCCCCCC",
"Cmknpnn.CdoohhhooohhhifCCCCCCCCC",
"CCrpmCCCCgoeeieohhhiicf.CCCCCCCC",
"CCarnCCCCgeswvuehhiecfgmCCCCCCCC",
"CCCm.CCCj#twwuulhiecgjk.CCCCmmCC",
"CCCCCCmchtttvuxgecfgjk.CCCCCrqrC",
"CCCCCCiosttwuxlecfgdfjCCCC.rqqpC",
"CCCCCdoistvuxAecgjjeooogCyBwAppp",
"CCCCCgooo###ccfgjjooooooogbavkn.",
"CCCCChooohiecfglfoooohooihofAyCC",
"CCCCCooohiefgjkcooohoooihhcny.CC",
"CCCCdoohhiegjkm.mmndjfioif.CCCCC",
"CCCCgoiecccjn.CCCCCCmcoij.CCCCCC",
"CCCCknnkkkkk.CCCCCCkhhij.CCCCCCC",
"CCCCCCCCCCCCCCCCCCjhhedCCCCCCCCC",
"CCCCCCCCCCCCCCCCC.ihcmCCCCCCCCCC",
"CCCCCCCCCCCCCCCCCghgmCCCCCCCCCCC",
"CCCCCCCCCCCCCCCCmd.CCCCCCCCCCCCC",
"CCCCCCCCCCCCCCCCCCCCCCCCCCCCCCCC",
"CCCCCCCCCCCCCCCCCCCCCCCCCCCCCCCC",
"CCCCCCCCCCCCCCCCCCCCCCCCCCCCCCCC",
"CCCCCCCCCCCCCCCCCCCCCCCCCCCCCCCC",
"CCCCCCCCCCCCCCCCCCCCCCCCCCCCCCCC"
};
