/* XPM */
static char *t1shf004[] = {
/* width height num_colors chars_per_pixel */
"    32    32       30            1",
/* colors */
". c #949494",
"# c #9c9c9c",
"a c #942921",
"b c #bd2118",
"c c #b5846b",
"d c #845231",
"e c #c67b4a",
"f c #ce8452",
"g c #422918",
"h c #845a39",
"i c #634229",
"j c #de945a",
"k c #de9c63",
"l c #f7ad6b",
"m c #8c6339",
"n c #a57342",
"o c #ffbd73",
"p c #ffb563",
"q c #deb584",
"r c #634a29",
"s c #211808",
"t c #8c5a00",
"u c #cece00",
"v c #4a739c",
"w c #639cd6",
"x c #5284b5",
"y c #315273",
"z c #21314a",
"A c #392939",
"B c None",
/* pixels */
"BBBBBBBBBBBBBnBBBBBBBBBBBBBBBBBB",
"BBBBBBBBBBBBBoBBBBBBBBBBBBBBBBBB",
"BBBBBBBBBBBBroiBBBBBBBBBBBBBBBBB",
"BBBBBBBBBBBBroiBBBBBBBBBBBBBBBBB",
"BBBBBBBBBBBtpomggBBBBBBBBBBBBBBB",
"BBBBBBBBBBsupofggsBBBBBBBBBBBBBB",
"BBBBBBBBBBuuoonggsBBBBsxxzBBBBBB",
"BBBBBBBBBBuoooqgddBBBBxaaABBBBBB",
"BBBssBBBBBfoooogfmsBBBikogBBBBBB",
"BBxwyzBBBBoooooejngBBgooomBBBBBB",
"BBybbABBBBkoooonknggfoooojBBBBBB",
"BBsokfnrrBfoooookedhooooolsBBBBB",
"BBBoknooooloooq.cfhioooooomBBBBB",
"BBBklnoooolooowwvAngoooneofBBBBB",
"BBBklmoooooooqwwwyiikofBgolsBBBB",
"BBBklmfoooooo#wwwvAihogBsqodBBBB",
"BBBnohsmoooooqwwwvAdigBBBfoiBBBB",
"BBBnomBBgkoooqwwwvAmsBBBBBkiBBBB",
"BBBhonsBBBhloo#wwvmngBBBBBghBBBB",
"BBBroeBBBBBhoooq#ckeiBBBBBBrBBBB",
"BBBBnhBBBBBioooqkeenisBBBBBBBBBB",
"BBBBiiBBBBBsollpkjemisBBBBBBBBBB",
"BBBBgiBBBBBsejkppkemsBBBBBBBBBBB",
"BBBBBBBBBBBBgfpllkeiBBBBBBBBBBBB",
"BBBBBBBBBBBBBsellpngBBBBBBBBBBBB",
"BBBBBBBBBBBBBBBnoldBBBBBBBBBBBBB",
"BBBBBBBBBBBBBBBBdlsBBBBBBBBBBBBB",
"BBBBBBBBBBBBBBBBBgBBBBBBBBBBBBBB",
"BBBBBBBBBBBBBBBBBBBBBBBBBBBBBBBB",
"BBBBBBBBBBBBBBBBBBBBBBBBBBBBBBBB",
"BBBBBBBBBBBBBBBBBBBBBBBBBBBBBBBB",
"BBBBBBBBBBBBBBBBBBBBBBBBBBBBBBBB"
};
