/* XPM */
static char *t1shb012[] = {
/* width height num_colors chars_per_pixel */
"    32    32       30            1",
/* colors */
". c #180808",
"# c #e74242",
"a c #422921",
"b c #524239",
"c c #b5734a",
"d c #d68452",
"e c #b5845a",
"f c #de9c63",
"g c #ffad6b",
"h c #f7a563",
"i c #ce8c52",
"j c #946339",
"k c #6b4a29",
"l c #ffbd73",
"m c #bdad94",
"n c #847b6b",
"o c #5a3900",
"p c #ffce63",
"q c #cea500",
"r c #f7ce00",
"s c #b59c00",
"t c #948c00",
"u c #fff718",
"v c #f7f700",
"w c #5a94bd",
"x c #29394a",
"y c #395a7b",
"z c #6ba5e7",
"A c #6b6b8c",
"B c None",
/* pixels */
"BBBBBBBBBBBBBBBBBBBBBBBBBBBBBBBB",
"BBBBBBBBBBBBBBBBBBBBBBBBBBBBBBBB",
"BBBBBBBBBBBBBBBBBBBBo.BBBBBBBBBB",
"BBBBBBBBBBBBBBBBBBBtvvoBBBBBBBBB",
"BBBBBBBBBBBBBBBBBBBvrroBBBBBBBBB",
"BBBBBBBBBjijjkoBBBotqvtBBBBBBBBB",
"BBBBBBBBBhlwwnjoBBBotplaBBBBBBBB",
"BBBBBBBBklmzzwAj.BBBBclh.BBBBBBB",
"BBBBBBBBjlmzzzwxc.BBB.gli.BBBBBB",
"BBBBBBBBlllzzzwyjjjkkB.llcBBBBBB",
"BBBBBBBBcllmwzwyejclllllllkBBBBB",
"BBBstBBB.hllmwwAgicflllllllaBBBB",
"BtrrsBBBBcllllllggcjfllllglha.BB",
"osqrsBBBBcflllllhghcjlglllh#zwBB",
".vrusBBBBlllllllghhdjcjkaakweaBB",
"BBolhkBBkllflllllgggej.BBByb.BBB",
"BBBflcBBclgghllllggghiaBBBBBBBBB",
"BBBalhballllglllllgggf.BBBBBBBBB",
"BBBBfljclglllhllllggggaBBBBBBBBB",
"BBBBalhjllllcalllfica.BBBBBBBBBB",
"BBBBBflcflgfBBclaa...BBBBBBBBBBB",
"BBBBBalgilf.BB.k...BBBBBBBBBBBBB",
"BBBBBBflfiaBBBB..BBBBBBBBBBBBBBB",
"BBBBBBal#AxBBBBBBBBBBBBBBBBBBBBB",
"BBBBBBBwzwb.BBBBBBBBBBBBBBBBBBBB",
"BBBBBB.wna.BBBBBBBBBBBBBBBBBBBBB",
"BBBBBBBxaBBBBBBBBBBBBBBBBBBBBBBB",
"BBBBBBBBBBBBBBBBBBBBBBBBBBBBBBBB",
"BBBBBBBBBBBBBBBBBBBBBBBBBBBBBBBB",
"BBBBBBBBBBBBBBBBBBBBBBBBBBBBBBBB",
"BBBBBBBBBBBBBBBBBBBBBBBBBBBBBBBB",
"BBBBBBBBBBBBBBBBBBBBBBBBBBBBBBBB"
};
