/* XPM */
static char *t1shf003[] = {
/* width height num_colors chars_per_pixel */
"    32    32       31            1",
/* colors */
". c #7b3939",
"# c #523121",
"a c #73635a",
"b c #c6845a",
"c c #734a31",
"d c #b5734a",
"e c #6b4229",
"f c #d68c5a",
"g c #ce8452",
"h c #de945a",
"i c #ffad6b",
"j c #f7a563",
"k c #946339",
"l c #ffb573",
"m c #312110",
"n c #ffbd73",
"o c #ffc67b",
"p c #bdb59c",
"q c #8c7310",
"r c #f7ce00",
"s c #e7d618",
"t c #c6bd18",
"u c #101008",
"v c #7b9ca5",
"w c #425a73",
"x c #4a739c",
"y c #639cd6",
"z c #73adef",
"A c #73849c",
"B c #42394a",
"C c None",
/* pixels */
"CCCCCCCCCCCCCCCCCCCCCCCCCCCCCCCC",
"CCCCCCCCCkmCCCCCCCCCCCCCCCCCCCCC",
"CCCCCCCCCcfCCCCCCCCCCCCCCCCCCCCC",
"CCCCCCCCCeogCCCCCCCCCCCCCCCCCCCC",
"CCCCCCCCCcnlqCCCCCCuywCCCCCCCCCC",
"CCCCCCCCeqoodmCCCCCxB.uCCCCCCCCC",
"CCCCCCCmrsoojmuCCCu.dokCCCCCCCCC",
"CCCCCCC#rtoooe#mCCC#loo#CCCCCCCC",
"CCCCCCCqrsooodmdmCmollojmCCCCCCC",
"CCCCCCCmtooooiefkuflollofuCCCCCC",
"CCCCCCCCfoooooijg.flloflodCCCCCC",
"CCCCCCCCdloooooihd.nlld#nokCCCCC",
"CuxwCCCCmjoooooAAakcnleCdolmCCCC",
"uyBmmCCCmdlooopzyywcfnCCugf#CCCC",
"BBkj#ffloljooopyzyxB#cCCCC#bCCCC",
"uujldfnnllljoooyzzyx#mCCCCCmCCCC",
"CCmojcolllljloovzyyxBkuCCCCCCCCC",
"CCCfodhlnllliloovzyxadeCCCCCCCCC",
"CCCmojkkhlnlllooovAAbdcmCCCCCCCC",
"CCCCfoguCmmkffloooofdkcuCCCCCCCC",
"CCCCmojeCCCCCmjooofggdcuCCCCCCCC",
"CCCCCfobuCCCCCdlfgfhggcuCCCCCCCC",
"CCCCCmoleCCCCCuhdghjhgkCCCCCCCCC",
"CCCCCCdjeCCCCCC#kdghjjkCCCCCCCCC",
"CCCCCCC#bCCCCCCCCmedhikCCCCCCCCC",
"CCCCCCCC#uCCCCCCCCCCmceCCCCCCCCC",
"CCCCCCCCCCCCCCCCCCCCCCCCCCCCCCCC",
"CCCCCCCCCCCCCCCCCCCCCCCCCCCCCCCC",
"CCCCCCCCCCCCCCCCCCCCCCCCCCCCCCCC",
"CCCCCCCCCCCCCCCCCCCCCCCCCCCCCCCC",
"CCCCCCCCCCCCCCCCCCCCCCCCCCCCCCCC",
"CCCCCCCCCCCCCCCCCCCCCCCCCCCCCCCC"
};
