/* XPM */
static char *t1shl014[] = {
/* width height num_colors chars_per_pixel */
"    32    32       31            1",
/* colors */
". c #ad8c8c",
"# c #210808",
"a c #634a42",
"b c #523121",
"c c #b53900",
"d c #ad734a",
"e c #ce8452",
"f c #422918",
"g c #c68452",
"h c #de945a",
"i c #946339",
"j c #734a29",
"k c #f7ad6b",
"l c #ffbd73",
"m c #423118",
"n c #ce8400",
"o c #cead31",
"p c #5a5200",
"q c #d6c600",
"r c #737300",
"s c #949400",
"t c #bdbd00",
"u c #a5ad94",
"v c #396384",
"w c #5a94c6",
"x c #182129",
"y c #6b7b8c",
"z c #314a63",
"A c #6ba5de",
"B c #a55a6b",
"C c None",
/* pixels */
"CCCCCCCCCCCCCCCCCCCCCCCCCCCCCCCC",
"CCCCCCCCCCCCCCCCCCCCCCCCCCCCCCCC",
"CCCCCCCCCCCCCCCCCCCCCCCCCCCCCCCC",
"CCCCCCCCCCCCCCCCCCCCCCCCCCCCCCCC",
"CCCCCCCCCCCCCCCC#i#CCCCCCCCCCCCC",
"CCCCCmsppCCCCfd.yid#CCCCCCCCCCCC",
"CCCCCrqtr#CCCglwwvgd#CCCCCCCCCCC",
"CCCCCsstrmCCCluAAvagjCCCCCCCCCCC",
"CCCCCmlrmCCCjlAAwvadb#CCCCCCCCCC",
"CCCCCdhbCCCCikAAwvaibCCCCCCCCCCC",
"CCCCClh#CCfhklAAwzdibCCCCCj#CCCC",
"CCCCali#CfgllluwyggiffCCCjkiCCCC",
"CCCCdkjfhlllllllkhdjihfCCildCCCC",
"CCCClegllllllllhkhdjilhCCiliCCCC",
"CCCjldlllllklllfkhdbdllhCgljCCCC",
"CCCdkglllllllldfeeibglllhkljCCCC",
"CCClhgllhhdllljfjeibhllklllbCCCC",
"CxwBBjb#C#illhfffjifllllllkfCCCC",
"Cxz.vxCCCClhkefffjjfihllllkfCCCC",
"C##ffxCCCCjbkifffij#C#ikklk#CCCC",
"CCCCC#CCCC#bfbf###b#CCCfB.e#CCCC",
"CCCCCCCCCCC#fffff###CCCzwAwzCCCC",
"CCCCCCCCCCCCC#####CCCCCxroozCCCC",
"CCCCCCCCCCCCCCCCCCCCCCCmttrCCCCC",
"CCCCCCCCCCCCCCCCCCCCCCCpsrtmCCCC",
"CCCCCCCCCCCCCCCCCCCCCCCpnnrrCCCC",
"CCCCCCCCCCCCCCCCCCCCCCCp#ccrCCCC",
"CCCCCCCCCCCCCCCCCCCCCCCC#pCCCCCC",
"CCCCCCCCCCCCCCCCCCCCCCCCCCCCCCCC",
"CCCCCCCCCCCCCCCCCCCCCCCCCCCCCCCC",
"CCCCCCCCCCCCCCCCCCCCCCCCCCCCCCCC",
"CCCCCCCCCCCCCCCCCCCCCCCCCCCCCCCC"
};
