/* XPM */
static char *t1shr012[] = {
/* width height num_colors chars_per_pixel */
"    32    32       31            1",
/* colors */
". c #7b5252",
"# c #100808",
"a c #e74242",
"b c #4a2921",
"c c #b52900",
"d c #734a31",
"e c #b57b52",
"f c #5a3921",
"g c #392110",
"h c #d68c52",
"i c #de9c63",
"j c #bd8452",
"k c #9c6b42",
"l c #d6945a",
"m c #423931",
"n c #f7ad6b",
"o c #ffbd7b",
"p c #ffb56b",
"q c #292110",
"r c #635200",
"s c #c6a500",
"t c #847300",
"u c #a59c00",
"v c #cece00",
"w c #7b8c94",
"x c #395a73",
"y c #5a94c6",
"z c #293139",
"A c #426384",
"B c #6ba5e7",
"C c None",
/* pixels */
"CCCCCCCCCCCCCCCCCCCCCCCCCCCCCCCC",
"CCCCCCCCCCCCCCCCCCCCCCCCCCCCCCCC",
"CCCCCCCCCCCCCCCCCCCCq#CCCCCCCCCC",
"CCCCCCCCCCCCCCCCCCCrut#CCCCCCCCC",
"CCCCCCCCCCCCCCCCCCCvsrqCCCCCCCCC",
"CCCCCCCCCkekddfCCCguuurCCCCCCCCC",
"CCCCCCCCClnwywkbCCCqtnogCCCCCCCC",
"CCCCCCCCbooBByxd#CCCCeonqCCCCCCC",
"CCCCCCCCkooBBByzkCCCCqioj#CCCCCC",
"CCCCCCCCnooyBByxkkdddCqnoeCCCCCC",
"CCCCCCCCeoowyByAkkdooponoodCCCCC",
"CCCCCCCCqioonyyAnhkepoppoopgCCCC",
"CCCCCCCCCkpooooppijdipopoponz#CC",
"CCCqCCCCCknooooooplkdopopoiaBA#C",
"CCCjfCCCCppnoooooollkfkkdb.ym#CC",
"CCConbCCdopiooooooopkd#CCCAz##CC",
"CCCioeCCkpoppoooooooidbCCCC#CCCC",
"CCCqonfqopopppoooooooj#CCCCCCCCC",
"CCCClojepopopnooooooopbCCCCCCCCC",
"CCCCqopkopopegnoonikb#CCCCCCCCCC",
"CCCCClolipol#Cepmg###CCCCCCCCCCC",
"CCCCCqopepi#CCqf#q#CCCCCCCCCCCCC",
"CCCCCClollgCCCCq#CCCCCCCCCCCCCCC",
"CCCCCCqoaAz#CCCCCCCCCCCCCCCCCCCC",
"CCCCCCCwBwd#CCCCCCCCCCCCCCCCCCCC",
"CCCCCC#ywtvqCCCCCCCCCCCCCCCCCCCC",
"CCCCCCCztvrtrCCCCCCCCCCCCCCCCCCC",
"CCCCCCCCqurrrqCCCCCCCCCCCCCCCCCC",
"CCCCCCCCqvrgcCCCCCCCCCCCCCCCCCCC",
"CCCCCCCCCgrgCCCCCCCCCCCCCCCCCCCC",
"CCCCCCCCCCgCCCCCCCCCCCCCCCCCCCCC",
"CCCCCCCCCCCCCCCCCCCCCCCCCCCCCCCC"
};
