/* XPM */
static char *t1ship016[] = {
/* width height num_colors chars_per_pixel */
"    32    32       31            1",
/* colors */
". c #a5a5a5",
"# c #100808",
"a c #de4242",
"b c #ad4239",
"c c #523121",
"d c #7b4a31",
"e c #945a39",
"f c #9c735a",
"g c #b5734a",
"h c #c67b4a",
"i c #f7a56b",
"j c #ef9c63",
"k c #a56b42",
"l c #e7945a",
"m c #ce8c5a",
"n c #634229",
"o c #de9c63",
"p c #734a29",
"q c #635a52",
"r c #ffb573",
"s c #312110",
"t c #5a94c6",
"u c #314a63",
"v c #6ba5de",
"w c #4a739c",
"x c #527bad",
"y c #849cbd",
"z c #395273",
"A c #847394",
"B c #392131",
"C c None",
/* pixels */
"CCCCCCCCCCCCCCCCCCCCCCCCCCCCCCCC",
"CCCCCCCCCCCCCCCCCCCCCCCCCCCCCCCC",
"CCCCCCCCCCCCCCCCCCCCCCCCCCCCCCCC",
"CCCCCCCCCCCCCCCCCCCCCCCCCCCCCCCC",
"CCCCCCCCCCCCCssCCCCCCCCCCCCCCCCC",
"CCCCCCCCCCsmieCCCCCCCCCCCCCCCCCC",
"CCCCCCCCCnilksCCCCCsp#CCCCCCCCCC",
"CCCCCCCsmrmc#CCCCsfA.fgdn#CCCCCC",
"CCCCCCmilhdcCCCCnyvtxziedCCCCCCC",
"CC#zsmrmirrrrrimyvvxwujmnCCCCCCC",
"C##yAhhirrrrrri.vvtxufjlcCCCCCCC",
"CC#Bwpgrrrrriir.vtwzqjmgpCCCCCCC",
"CCC#q#Csgrririrr.AfmjhkesCCCCCCC",
"CCCC##CCshgkepmriijmgkdcsCCCCCCC",
"CCCCCCCmkdnnnhrijllgkncCCCCCCCCC",
"CCCCCsgennnnkrjjlhkeehCCCCCCCCCC",
"CCCCCcnnnnnkijjmgkedrmCCCCCCCCCC",
"CCCCCCCsnneijllgknhrrmCCCCCsnCCC",
"CCCCCCCC#cnhjhkeeorrrmCCshihCCCC",
"CCCCCCCCC#cdgkecirrrrmCsmripCCCC",
"CCCCCCCCCCscedcCmrrrrmsirld#CCCC",
"CCCCCCCCCCCscs#CsrrrriirlpCCCCCC",
"CCCCCCCCCCCC#CCCCirrjrilsCCCCCCC",
"CCCCCCCCCCCCCCCCCmiirigsCCCCCCCC",
"CCCCCCCCCCCCCCCCubrrik#CCCCCCCCC",
"CCCCCCCCCCCCCCC#xvale#CCCCCCCCCC",
"CCCCCCCCCCCCCCCCnyAp#CCCCCCCCCCC",
"CCCCCCCCCCCCCCCC#BxBCCCCCCCCCCCC",
"CCCCCCCCCCCCCCCCC#z#CCCCCCCCCCCC",
"CCCCCCCCCCCCCCCCCCCCCCCCCCCCCCCC",
"CCCCCCCCCCCCCCCCCCCCCCCCCCCCCCCC",
"CCCCCCCCCCCCCCCCCCCCCCCCCCCCCCCC"
};
