/* XPM */
static char *t1ship010[] = {
/* width height num_colors chars_per_pixel */
"    32    32       31            1",
/* colors */
". c #080808",
"# c #737373",
"a c #b52110",
"b c #ef5a39",
"c c #312118",
"d c #c67b52",
"e c #4a3121",
"f c #ffa56b",
"g c #8c5a39",
"h c #de8c5a",
"i c #ef9c63",
"j c #634229",
"k c #9c6339",
"l c #c68c5a",
"m c #9c6b42",
"n c #d6945a",
"o c #ffb573",
"p c #312110",
"q c #423929",
"r c #5a6b73",
"s c #7b94ad",
"t c #4a739c",
"u c #5a8cbd",
"v c #081018",
"w c #6b9cde",
"x c #21314a",
"y c #636b7b",
"z c #314263",
"A c #7b4a63",
"B c #9c637b",
"C c None",
/* pixels */
"CCCCCCCCCCCCCCCCCCCCCCCCCCCCCCCC",
"CCCCCCCCCCCCCCCCCCCCCCCCCCCCCCCC",
"CCCCCCCCCCCCCCCCCCCCCCCCCCCCCCCC",
"CCCCCCCCCCCCCCCCCCCCCCCCCCCCCCCC",
"CCCCCCCCCCCCpdlomjeCCCCCCCCCCCCC",
"CCCCCCCCCCCCCClioooigjCCCvCCCCCC",
"CCCCCCCCCCCCCCCcjdioooomAyCCCCCC",
"CCCCCCCCpeCCCCCCcmioooobBrCCCCCC",
"CCCCCCpdlBBqqCpnoooooonaujCCCCCC",
"CCCCplfowwwwt#hfooooone.xCCCCCCC",
"CCCcoooowwwwuuyihmniicCCCCCCCCCC",
"CCCCnooosuwwuutnffihlmmmjCCCCCCC",
"CCCCcoooosutttyoooffffffffopCCCC",
"CCCCCdooooolooooooofffffffkCCCCC",
"CCCCCphiffoooooooooofffffjCCCCCC",
"CCCCCCgddhifooooooooofffpCCCCCCC",
"CCCCCCCpjkhdnifooooooolpCCCCCCCC",
"CCCCCCCCCCnoindhifooonpCCCCCCCCC",
"CCCCCCCCCCcooooihdhifjCCCCCCCCCC",
"CCCCCCCCCCCnoooookmddCCCCCCCCCCC",
"CCCCCCC.CCCgooooocCpcCCCCCCCCCCC",
"CCCCelnimeC.ooooojCCCCCCCCCCCCCC",
"CCCCCpnoooikioooojCCCCCCCCCCCCCC",
"CCCCCCegiooooiffoj.CCCCCCCCCCCCC",
"CCCCCCCCCegoooooibAxCCCCCCCCCCCC",
"CCCCCCCCCCC.glooolwvCCCCCCCCCCCC",
"CCCCCCCCCCCCCCegfBsCCCCCCCCCCCCC",
"CCCCCCCCCCCCCCCCCyzCCCCCCCCCCCCC",
"CCCCCCCCCCCCCCCCCxvCCCCCCCCCCCCC",
"CCCCCCCCCCCCCCCCCCCCCCCCCCCCCCCC",
"CCCCCCCCCCCCCCCCCCCCCCCCCCCCCCCC",
"CCCCCCCCCCCCCCCCCCCCCCCCCCCCCCCC"
};
