/* XPM */
static char *t1shl004[] = {
/* width height num_colors chars_per_pixel */
"    32    32       30            1",
/* colors */
". c #9c9494",
"# c #bd2118",
"a c #942100",
"b c #9c6342",
"c c #8c5a39",
"d c #b5734a",
"e c #6b4229",
"f c #c67b4a",
"g c #5a3921",
"h c #ce8c5a",
"i c #de9c63",
"j c #ffad6b",
"k c #7b5231",
"l c #deb58c",
"m c #9c734a",
"n c #312110",
"o c #ffbd73",
"p c #634a29",
"q c #8c7b00",
"r c #ceb500",
"s c #847b00",
"t c #080800",
"u c #c6d629",
"v c #426b8c",
"w c #6bade7",
"x c #6ba5de",
"y c #5a8cc6",
"z c #21314a",
"A c #393139",
"B c None",
/* pixels */
"BBBBBBBBBBBBBbBBBBBBBBBBBBBBBBBB",
"BBBBBBBBBBBBBotBBBBBBBBBBBBBBBBB",
"BBBBBBBBBBBBpogBBBBBBBBBBBBBBBBB",
"BBBBBBBBBBBBpoptBBBBBBBBBBBBBBBB",
"BBBBBBBBBBBBmobnBBBBBBBBBBBBBBBB",
"BBBttBBBBBBBmohntBBBBBBBBBBBBBBB",
"BBsqqnBBBBBBoomgntBBBBnyyzBBBBBB",
"BBrrqnBBBBniooincktBBByk#ABBBBBB",
"BBrugsBBBBhooooghctBBBpijnBBBBBB",
"BByyvzBBBBjoooodhbntBnjoobBBBBBB",
"BBA##ABBBBhoooodidgnhoooohtBBBBB",
"BBnoifmepBhoooojifkcooooojnBBBBB",
"BBBoimoooojoool.hfcpojoooocBBBBB",
"BBBijboooojoooxyvAbgoojmfohBBBBB",
"BBBijcoojooollwwyvggiohtnojtBBBB",
"BBBijbhjooooolwwyvAeconBnookBBBB",
"BBBmokncojojolwwxvAcpnBBBhoeBBBB",
"BBBmocBBgiojolxwxvAcnBBBBtqqtBBB",
"BBBbobtBBBcioo.xyvmbgBBBBnqrrsBB",
"BBBpodtBBBBcooll.hidpBBBBnsegsnB",
"BBBtdctBBBBgooooiddbetBBBnaaaaBB",
"BBBBppBBBBBnjjiiiifbptBBBBntBBBB",
"BBBBngBBBBBnfhjjjhfcnBBBBBttBBBB",
"BBBBBBBBBBBBgfjjjifptBBBBBBBBBBB",
"BBBBBBBBBBBBBnbjjjbnBBBBBBBBBBBB",
"BBBBBBBBBBBBBBBbjjkBBBBBBBBBBBBB",
"BBBBBBBBBBBBBBBBkjnBBBBBBBBBBBBB",
"BBBBBBBBBBBBBBBBBnBBBBBBBBBBBBBB",
"BBBBBBBBBBBBBBBBBBBBBBBBBBBBBBBB",
"BBBBBBBBBBBBBBBBBBBBBBBBBBBBBBBB",
"BBBBBBBBBBBBBBBBBBBBBBBBBBBBBBBB",
"BBBBBBBBBBBBBBBBBBBBBBBBBBBBBBBB"
};
