/* XPM */
static char *t1ship003[] = {
/* width height num_colors chars_per_pixel */
"    32    32       31            1",
/* colors */
". c #942121",
"# c #633929",
"a c #9c6342",
"b c #734a31",
"c c #ffa56b",
"d c #8c5a39",
"e c #f79c63",
"f c #c67b4a",
"g c #d68c5a",
"h c #e7945a",
"i c #ce8c5a",
"j c #9c6b42",
"k c #ad7342",
"l c #bdad9c",
"m c #5a524a",
"n c #312110",
"o c #100800",
"p c #ffbd73",
"q c #5a6363",
"r c #102129",
"s c #738ca5",
"t c #7b9cbd",
"u c #213142",
"v c #6ba5de",
"w c #5284b5",
"x c #73adef",
"y c #4a73a5",
"z c #314a6b",
"A c #52394a",
"B c #843142",
"C c None",
/* pixels */
"CCCCCCCCCCCCCCCCCCCCCCCCCCCCCCCC",
"CCCCCCCCCanCCCCCCCCCCCCCCCCCCCCC",
"CCCCCCCCC#ioCCCCCCCCCCCCCCCCCCCC",
"CCCCCCCCC#ciCCCCCCCCCCCCCCCCCCCC",
"CCCCCCCCC#cenCCCCCCrwyCCCCCCCCCC",
"CCCCCCCCC#cejoCCCCCwBfnCCCCCCCCC",
"CCCCCCCCCnccgn#CCCrBhpaCCCCCCCCC",
"CCCCCCCCCnccc#f#CCC#ppp#CCCCCCCC",
"CCCCCCCCCjpcciianCnppppcoCCCCCCC",
"CCCCCCCCbppppekij#ipppppenCCCCCC",
"CCCCCCCCipppppecfaeppppppkCCCCCC",
"CCCCCCCCfppppppcekdpppa#ppdCCCCC",
"CryzCCCCneppppptsqaepp#CjppnCCCC",
"rvA.nCCCnfpppplvvwqdgpCCoig#CCCC",
"uBfebiipppcppplvxvwAajCCCC#iCCCC",
"rrepkepppppppppvxvvzdbCCCCCnCCCC",
"CCnpcdpppppcpppsvxwwmjoCCCCCCCCC",
"CCCipkgpppppeppltvvyqf#CCCCCCCCC",
"CCCnpcddgpppppppplwsgfdnCCCCCCCC",
"CCCCipkoCnndiipppppcgidoCCCCCCCC",
"CCCCnpc#CCCCCnpppppcgfdoCCCCCCCC",
"CCCCCipkoCCCCCkpgpceegdoCCCCCCCC",
"CCCCCnppbCCCCCnhheecegaCCCCCCCCC",
"CCCCCCjpbCCCCCC#aihecedCCCCCCCCC",
"CCCCCCC#fCCCCCCCCn#khcdCCCCCCCCC",
"CCCCCCCC#oCCCCCCCCCCnb#CCCCCCCCC",
"CCCCCCCCCCCCCCCCCCCCCCCCCCCCCCCC",
"CCCCCCCCCCCCCCCCCCCCCCCCCCCCCCCC",
"CCCCCCCCCCCCCCCCCCCCCCCCCCCCCCCC",
"CCCCCCCCCCCCCCCCCCCCCCCCCCCCCCCC",
"CCCCCCCCCCCCCCCCCCCCCCCCCCCCCCCC",
"CCCCCCCCCCCCCCCCCCCCCCCCCCCCCCCC"
};
