/* XPM */
static char *t1ship005[] = {
/* width height num_colors chars_per_pixel */
"    32    32       30            1",
/* colors */
". c #948484",
"# c #100808",
"a c #ad4239",
"b c #f74a29",
"c c #ce5239",
"d c #63524a",
"e c #7b4a31",
"f c #9c6342",
"g c #8c5a39",
"h c #6b4229",
"i c #d68c5a",
"j c #ce8452",
"k c #5a3921",
"l c #634229",
"m c #bd7b4a",
"n c #9c6b42",
"o c #f7ad6b",
"p c #312110",
"q c #ffbd73",
"r c #314a52",
"s c #639cce",
"t c #182939",
"u c #6ba5de",
"v c #213952",
"w c #5a84b5",
"x c #101821",
"y c #4a73a5",
"z c #395273",
"A c #5a2939",
"B c None",
/* pixels */
"BBBBBBBBBBBBBBBBppBBBBBBBBBBBBBB",
"BBBBBBBBBBBBBBBBnfBBBBBBBBBBBBBB",
"BBBBBBBBBBBBBBBBqkBBBBBBBBBBBBBB",
"BBBBBBBBBBBBBBBlok#BBBBBBBBBBBBB",
"BBBBBBBBBBBBBBBfmkpBBBBBBBBBBBBB",
"BBBBBxxBBBBBBBBojkkBBBBBBBBBBBBB",
"BBBBvwyz#BBBBiionkkBBBBBBBBBBBBB",
"BBBBtabexBBBnqqonknlBBBBBBBBBBBB",
"BBBBBqiexBBBqqqqemjg#BBBBBxBBBBB",
"BBBBlqnqilBBqqqqeijepBBBvsswxBBB",
"BBBBnojqqqifqqqqiijh#BBBpcbAxBBB",
"BBBBqijqqqqqqqqqojme#ppniqohxBBB",
"BBBlqfiqqqqqqqw.ojfkqqqqqqopBBBB",
"BBBnoepoqqqqqssyrmgkqqqqqqopBBBB",
"BBBqipBkqqqq.sswrjgnqqqqqqi#BBBB",
"BBlqm#BBnqqquusyrfhnqqqimqiBBBBB",
"BB#ilBBBBiqquuuyvjhmqqipgqjBBBBB",
"BBpi#BBBBpqquuszdfhiokBBnqmBBBBB",
"BBpkBBBBBlqqsuwznnklBBBBiqfBBBBB",
"BB#BBBBBBfqoq..jjgkBBBBBoqeBBBBB",
"BBBBBBBBBoqqqqqijgpBBBBBgjkBBBBB",
"BBBBBBBBBmqqqqqijepBBBBBpnBBBBBB",
"BBBBBBBBBpoqqoojfepBBBBBplBBBBBB",
"BBBBBBBBBBmqqoinepBBBBBBBBBBBBBB",
"BBBBBBBBBBpoqomh#BBBBBBBBBBBBBBB",
"BBBBBBBBBBBmqik#BBBBBBBBBBBBBBBB",
"BBBBBBBBBBBpolBBBBBBBBBBBBBBBBBB",
"BBBBBBBBBBBBBBBBBBBBBBBBBBBBBBBB",
"BBBBBBBBBBBBBBBBBBBBBBBBBBBBBBBB",
"BBBBBBBBBBBBBBBBBBBBBBBBBBBBBBBB",
"BBBBBBBBBBBBBBBBBBBBBBBBBBBBBBBB",
"BBBBBBBBBBBBBBBBBBBBBBBBBBBBBBBB"
};
