/* XPM */
static char *t1shl002[] = {
/* width height num_colors chars_per_pixel */
"    32    32       31            1",
/* colors */
". c #ce2921",
"# c #7b1808",
"a c #a57b63",
"b c #9c6342",
"c c #945a39",
"d c #c67b4a",
"e c #f7a56b",
"f c #ce8452",
"g c #5a3921",
"h c #6b4a31",
"i c #ce8c5a",
"j c #9c6b42",
"k c #ad7342",
"l c #946b42",
"m c #ffb56b",
"n c #312110",
"o c #d66b00",
"p c #ffbd73",
"q c #bdb594",
"r c #6b6300",
"s c #101008",
"t c #848400",
"u c #b5b500",
"v c #cece00",
"w c #395a73",
"x c #5a94c6",
"y c #29425a",
"z c #949ca5",
"A c #6ba5e7",
"B c #4a6b94",
"C c None",
/* pixels */
"CCCCCCCCCCCCCCCCCCCCCCCCCCCCCCCC",
"CCCCCCCCCCCCCCCCCCCCCCCCCCCCCCCC",
"CCCCCCCCCCCCCCCCCCCCCCCCCCCCCCCC",
"CCCCCCcgCCCCCCCCwBCCCCCCCCCCCCCC",
"CCCCCCnpdnCCCCCyx.hCCCCCCCCCCCCC",
"CCCCCCnppiCCCCCybapdnCCCCCCCCCCC",
"CCCCCCCfppfCCCCsspppphCCCCCCCCCC",
"CCCCCCCbeppbssCChpppppfnCCCCCCCC",
"CCCCCCCnpppphcnCjppppeppcCCCCCCC",
"CCCCCCCCppppphfjepppinippjCCCCCC",
"CCCCCCCCpppppeeibipppCChptvuuCCC",
"CCCCCCCjppppppmeiadppnCCstvrnsCC",
"CCCCCCCipppppppzxxBhinCCCnu##CCC",
"CnCCCCCkeppppppzAAAxwhCCCstnCCCC",
"gnCCCCCsbepppppqAAAAxwhsCCsCCCCC",
"rtnsCCCCCkepppppzAAAxBddnCCCCCCC",
"ouxwsCnnippeepppqzxxxBacnCCCCCCC",
"uqB##ippppppeeppppqqzelchsCCCCCC",
"CA#eejpppppppeeppppppikbcsCCCCCC",
"CygppedippppppeeepppekkdknCCCCCC",
"CCCnippkieilcggnfeppckdifhCCCCCC",
"CCCCnippdnCCCCCCskejbkdfifsCCCCC",
"CCCCCClppigCCCCCCCchhhcbbknCCCCC",
"CCCCCCCcppegCCCCCCCCCCCCCCCCCCCC",
"CCCCCCCChppesCCCCCCCCCCCCCCCCCCC",
"CCCCCCCCCnpikCCCCCCCCCCCCCCCCCCC",
"CCCCCCCCCCCnlcCCCCCCCCCCCCCCCCCC",
"CCCCCCCCCCCCCCCCCCCCCCCCCCCCCCCC",
"CCCCCCCCCCCCCCCCCCCCCCCCCCCCCCCC",
"CCCCCCCCCCCCCCCCCCCCCCCCCCCCCCCC",
"CCCCCCCCCCCCCCCCCCCCCCCCCCCCCCCC",
"CCCCCCCCCCCCCCCCCCCCCCCCCCCCCCCC"
};
