/* XPM */
static char *t1shb007[] = {
/* width height num_colors chars_per_pixel */
"    32    32       31            1",
/* colors */
". c #e73900",
"# c #633929",
"a c #733921",
"b c #734a31",
"c c #b5734a",
"d c #a56b42",
"e c #dea57b",
"f c #845a39",
"g c #de945a",
"h c #ffad6b",
"i c #f7a563",
"j c #847b73",
"k c #635a52",
"l c #9c734a",
"m c #312110",
"n c #b57331",
"o c #c66300",
"p c #ffbd73",
"q c #635231",
"r c #d6a542",
"s c #635a00",
"t c #101008",
"u c #949400",
"v c #b5b500",
"w c #4a7394",
"x c #182939",
"y c #6ba5de",
"z c #5a8cc6",
"A c #31425a",
"B c #bd3142",
"C c None",
/* pixels */
"CCCCCCCCCCCCCCCCCCCCCCCCCCCCCCCC",
"CCCCCCCCCCCCCCCCCCCCCCCCCCCCCCCC",
"CCCCCCCCCCCCxACCCCCCCCCCCCCCCCCC",
"CCCCCCCCCCCCkjwCCCCCCCmctCCCCCCC",
"CCCCCCCCCCCmhBktCCCCC#idCCCCCCCC",
"CCCCCCCCCmghgbAtCCCCqgdbCCCCCCCC",
"CCCCCCCCdiggigtCCCmmedd#CCCCCCCC",
"CCCCCCmgiglhppmCmchhdddmCCCCCCCC",
"CCCCCghglbppppgmghpddddCCCCCCCCC",
"Csuusrc#C#pphpiippcdddcCCCCCCCCC",
"CsvuvumCCqhpphippgcggicCCCCCCCCC",
"CC.usmCCClpgeeepiihgigctCCCCCCCC",
"CC.osCCCCdezzwwghigigdfmCCCCCCCC",
"CCCmmCCCfezyzzAkigicdd#tCCCCCCCC",
"CCCCCCtgeyyyzwAcigcd##tCCCCCCCCC",
"CCCCCChhyyyzwAkigdf#cbCCCCttCCCC",
"CCCCC#ppzyzwAkicdffipppdCxjzACCC",
"CCCCCdpppejjggcdfbpppppppdBBztCC",
"CCCCCppppigicdf#cpppphpphhhgkACC",
"CCCCCppppiicdd#gppphpppihhg#ACCC",
"CCCCqpppiggdfmmtmm#qfgipictCCCCC",
"CCCClpigggca#tCCCCCCmghiftCCCCCC",
"CCCC#mm#mm##CCCCCCC#ihgftCCCCCCC",
"CCCCCCCCCCCCCCCCCCfphg#CCCCCCCCC",
"CCCCCCCCCCCCCCCmmsghgmCCCCCCCCCC",
"CCCCCCCCCCCCCCuvvvrnmCCCCCCCCCCC",
"CCCCCCCCCCCCCCmovvvCCCCCCCCCCCCC",
"CCCCCCCCCCCCCCm.ovsCCCCCCCCCCCCC",
"CCCCCCCCCCCCCCCm.usCCCCCCCCCCCCC",
"CCCCCCCCCCCCCCCCCuCCCCCCCCCCCCCC",
"CCCCCCCCCCCCCCCCCCCCCCCCCCCCCCCC",
"CCCCCCCCCCCCCCCCCCCCCCCCCCCCCCCC"
};
