/* XPM */
static char *t1shf009[] = {
/* width height num_colors chars_per_pixel */
"    32    32       30            1",
/* colors */
". c #847373",
"# c #9c4229",
"a c #ff6b42",
"b c #8c5a39",
"c c #b5734a",
"d c #845231",
"e c #f7a56b",
"f c #e7945a",
"g c #634229",
"h c #9c6339",
"i c #d69c6b",
"j c #ce9463",
"k c #ffb573",
"l c #b59473",
"m c #312110",
"n c #4a3118",
"o c #deb584",
"p c #8c6b42",
"q c #7b7300",
"r c #181808",
"s c #b5b500",
"t c #182918",
"u c #21394a",
"v c #395a73",
"w c #6ba5d6",
"x c #4a7ba5",
"y c #a5adb5",
"z c #7b7ba5",
"A c #635273",
"B c None",
/* pixels */
"BBBBBBBBBBBBBBBBBBBBBBBBBBBBBBBB",
"BBBBBBBBBBBBBBBBBBBBBBBBBBBBBBBB",
"BBBBBBBBBBBBBBBBBBBBBBBBBBBBBBBB",
"BBBBBBBBBBBBBBBBBBBBButBBBBBBBBB",
"BBBBBBBBBBBggggggggggztBBBBBBBBB",
"BBBBBBBBBcjkkkkkkkkkfzuBBBBBBBBB",
"BBBBBBBBBBnddddcekkehAtBBBBBBBBB",
"BBBBBBBBBBBBBBgkkkkfBtBBBBBBBBBB",
"BBBBBBBBBBBBBjkkkkkdBBBmmmmBBBBB",
"BBBBBBBrmrmrceeeeeemrmikkkkcBBBB",
"BBBBBBbezzwxx.jeeeeekkkkkkeBBBBB",
"BBBBBjkywwwwwxvjkkkkkkkkkorBBBBB",
"BBBmjkkywwwwxxukkkkkkkkkkqmmBBBB",
"BBmjkkkozxxxvAokkkkkkkkkpmqmBBBB",
"BBpkkkkkkll.okkkkkkkkkkpqsnmBBBB",
"BBBgeeeekkeeeeeeekekkkkqsssBBBBB",
"BBBBnffffffffffffffffffqsssBBBBB",
"BBBBBrccccccccccccccccbrnqqBBBBB",
"BBBBBBrnnnnjkkkkkkkdnnmBBrBBBBBB",
"BBBBBBBBBBBBckkkkkkjBBBBBBBBBBBB",
"BBBBBBBBBBBBBckkkkkkmBBBBBBBBBBB",
"BBBBBBBBBBBBBBckkkkkjBBBBBBBBBBB",
"BBBBBBBBBBBBBBBckkkkknAtBBBBBBBB",
"BBBBBBBBBmfefefeefeffazvBBBBBBBB",
"BBBBBBBmpkkkkkkkkkkkka.vBBBBBBBB",
"BBBBBBBBBBphhhphhhhhh#.vBBBBBBBB",
"BBBBBBBBBBBBBBBBBBBBBBvuBBBBBBBB",
"BBBBBBBBBBBBBBBBBBBBBBBBBBBBBBBB",
"BBBBBBBBBBBBBBBBBBBBBBBBBBBBBBBB",
"BBBBBBBBBBBBBBBBBBBBBBBBBBBBBBBB",
"BBBBBBBBBBBBBBBBBBBBBBBBBBBBBBBB",
"BBBBBBBBBBBBBBBBBBBBBBBBBBBBBBBB"
};
