/* XPM */
static char *t1shf005[] = {
/* width height num_colors chars_per_pixel */
"    32    32       31            1",
/* colors */
". c #8c8484",
"# c #b53931",
"a c #a53129",
"b c #ff4a29",
"c c #ce7b4a",
"d c #633921",
"e c #ffa56b",
"f c #b5734a",
"g c #a56b42",
"h c #422918",
"i c #5a3921",
"j c #bd7b4a",
"k c #d68c52",
"l c #7b5231",
"m c #946339",
"n c #ce945a",
"o c #ffbd73",
"p c #ffb563",
"q c #634a29",
"r c #735221",
"s c #cea500",
"t c #181810",
"u c #9c9c00",
"v c #29425a",
"w c #182939",
"x c #6394c6",
"y c #6ba5de",
"z c #4a739c",
"A c #527bad",
"B c #292131",
"C c None",
/* pixels */
"CCCCCCCCCCCCCCCChhCCCCCCCCCCCCCC",
"CCCCCCCCCCCCCCCCflCCCCCCCCCCCCCC",
"CCCCCCCCCCCCCCCCohCCCCCCCCCCCCCC",
"CCCCCCCCCCCCCCCmohCCCCCCCCCCCCCC",
"CCCCCCCCCCCCCCupnhttCCCCCCCCCCCC",
"CCCCCBtCCCCCChsonhhhtCCCCCCCCCCC",
"CCCCvAAvtCCCCnoofiihtCCCCCCCCCCC",
"CCCCwa#hBCCCgoooeekrtCCCCCCCCCCC",
"CCCCConltCCCeooopncmCCCCCCBCCCCC",
"CCCCqogonqCCooooeejltCCCvxxAtCCC",
"CCCCfejooonmooooekfltCCCB#bBBCCC",
"CCCConnoooooooooekfdtthgnooitCCC",
"CCCqogfooooeooA.kkgifoooooehCCCC",
"CCCfelBeoooooxxzvkmhnooooontCCCC",
"CCConhCioooo.yxAvgmhoooooontCCCC",
"CCqoftCCfoeoyyyAvllhooonfokCCCCC",
"CCtkdCCCCneoyyyzvlqmoonhmonCCCCC",
"CChntCCCCtooyyxzBgdmniCCmofCCCCC",
"CCBdCCCCCqooxyxvggihCCCCjomCCCCC",
"CCCCCCCCCgooo..njmhCCCCCoolCCCCC",
"CCCCCCCCCkeoeoekjlhCCCCCmjhCCCCC",
"CCCCCCCCCfeoeenkjmtCCCCChfCCCCCC",
"CCCCCCCCCteooeecgltCCCCCtqCCCCCC",
"CCCCCCCCCCgooekflhCCCCCCCCCCCCCC",
"CCCCCCCCCCteoejqCCCCCCCCCCCCCCCC",
"CCCCCCCCCCCjokiCCCCCCCCCCCCCCCCC",
"CCCCCCCCCCCtodCCCCCCCCCCCCCCCCCC",
"CCCCCCCCCCCCCCCCCCCCCCCCCCCCCCCC",
"CCCCCCCCCCCCCCCCCCCCCCCCCCCCCCCC",
"CCCCCCCCCCCCCCCCCCCCCCCCCCCCCCCC",
"CCCCCCCCCCCCCCCCCCCCCCCCCCCCCCCC",
"CCCCCCCCCCCCCCCCCCCCCCCCCCCCCCCC"
};
