/* XPM */
static char *t1shb002[] = {
/* width height num_colors chars_per_pixel */
"    32    32       31            1",
/* colors */
". c #949494",
"# c #d62918",
"a c #bd2900",
"b c #734229",
"c c #9c6342",
"d c #8c5a39",
"e c #b5734a",
"f c #7b3100",
"g c #a56b42",
"h c #ce8452",
"i c #e7945a",
"j c #422918",
"k c #5a3921",
"l c #bd7b4a",
"m c #d68c52",
"n c #f7a563",
"o c #de6b00",
"p c #ffbd73",
"q c #b5a58c",
"r c #211808",
"s c #d6ad29",
"t c #e7ce00",
"u c #bdb500",
"v c #fff700",
"w c #5284ad",
"x c #4a739c",
"y c #6b9cd6",
"z c #314a6b",
"A c #5a6373",
"B c #bd314a",
"C c None",
/* pixels */
"CCCCCCCCCCCCCCCCCCCCCCCCCCCCCCCC",
"CCCCCCCCCCCCCCCCCCCCCCCCCCCCCCCC",
"CCCCCCCCCCCCCCCCCCCCCCCCCCCCCCCC",
"CCCCCCcbCCCCCCCCAxCCCCCCCCCCCCCC",
"CCCCCCrnhjCCCCCzw#bCCCCCCCCCCCCC",
"CCCCCCjnngCCCCCzBpphrCCCCCCCCCCC",
"CCCCCCClnieCCCCCjppppdCCCCCCCCCC",
"CCCCCCCdnnigbrCCbppppphrCCCCCCCC",
"CCCCCCCrnnniegjCcppppnppdCCCCCCC",
"CCCCCCCCnnnniihenppphjipplCCCCCC",
"CCCCCCCCpppnninhchpppCCbpsvturCC",
"CCCCCCCeppppppnpiehppjCCruvoaCCC",
"CCCCCCCippppppp.yyxAmjCCCrtffCCC",
"CCCCCCCgnppppppyyyywAdCCCrtaCCCC",
"CCCCCCCrcipppppqyyyywAbrCCrCCCCC",
"CCCCCCCCCeipppppyyyyyxhljCCCCCCC",
"CCxxrCjjippippppp.yywx.lkCCCCCCC",
"CxA##hppppppnippppqq.pmldCCCCCCC",
"Cy#pnhppppppppippppppiilgrCCCCCC",
"CzkpppeipppppppipppppiimljCCCCCC",
"CCCrippihihdckkjhnppeiiimbCCCCCC",
"CCCCrhppljCCCCCCrciihhhmilrCCCCC",
"CCCCCCcppikCCCCCCrcdddgccgrCCCCC",
"CCCCCCCcppnkCCCCCCCCCCCCCCCCCCCC",
"CCCCCCCCkpppfrCCCCCCCCCCCCCCCCCC",
"CCCCCCCCCjpvtvvtjCCCCCCCCCCCCCCC",
"CCCCCCCCCCCuvvufjCCCCCCCCCCCCCCC",
"CCCCCCCCCCCrttofCCCCCCCCCCCCCCCC",
"CCCCCCCCCCCCvofCCCCCCCCCCCCCCCCC",
"CCCCCCCCCCCCufCCCCCCCCCCCCCCCCCC",
"CCCCCCCCCCCCCCCCCCCCCCCCCCCCCCCC",
"CCCCCCCCCCCCCCCCCCCCCCCCCCCCCCCC"
};
