/* XPM */
static char *t1shf013[] = {
/* width height num_colors chars_per_pixel */
"    32    32       31            1",
/* colors */
". c #a55a42",
"# c #631800",
"a c #ad2900",
"b c #9c2900",
"c c #523121",
"d c #211008",
"e c #946342",
"f c #f7a56b",
"g c #422918",
"h c #5a3921",
"i c #de945a",
"j c #bd7b4a",
"k c #9c6b42",
"l c #ffb573",
"m c #ffbd7b",
"n c #ce945a",
"o c #6b4a29",
"p c #734200",
"q c #c6ad84",
"r c #524a00",
"s c #737300",
"t c #adad00",
"u c #9ca5a5",
"v c #426b8c",
"w c #6bade7",
"x c #5a94c6",
"y c #314252",
"z c #212931",
"A c #737b84",
"B c #c66373",
"C c None",
/* pixels */
"CCCCCCCCCCCCCCCCCCCCCCCCCCCCCCCC",
"CCCCCCCCCCCCCCCCCCCCCCCCCCCCCCCC",
"CCCCCCCCCCCCCCCCCCCCCCCCCCCCCCCC",
"CCCCCCCCCCCCCCCCCCCCCCCCCCCCCCCC",
"CCCCCCCCCCCCCkodCCCCCCCCCCCCCCCC",
"CCCCCCCCCCCCkqAnogCCCCCCCCCCCCCC",
"CCCCCCCCCCCnmwxvjeCCCCCCCCCCCCCC",
"CCCCCCCCCCkmqwwxyegCCCCCeCCCCCCC",
"CCCCCCCCCCjmuwwxyocCCCCdmjCCCCCC",
"CCCCCCCCCCelqwwxvooCCCCgmfdCCCCC",
"CCCCoCCCCChmqxwxyjeooCCCfmoCCCCC",
"CCCgfhCCCColmmuAni.gmnoCjmjCCCCC",
"CCColeCCColfmmmmmijhimlnemfdCCCC",
"CCChmjCColllmmmmffjojllllmloCCCC",
"CCCgmjCgmllfmmmlnjjeolllllmjCCCC",
"CCCdmnclllllmmmmfhjkglllllmfdCCC",
"CCCgmijmlllflmmmloheckillllihCCC",
"CCCCminllllnlmmllkgchCCdcoBuxvCC",
"CCCCmfkllljglmmllngdcdCCCzxyhzCC",
"CCCCnfjlngCdffnlffgdddCCCCzdzCCC",
"CCCCji.cCCCCkcsnesgrdCCCCCCCCCCC",
"CCCywxvzCCCCgdtsrrrsrdCCCCCCCCCC",
"CCCvyezzCCCCCgtrgsptttCCCCCCCCCC",
"CCCCdddCCCCCCrtgp#brstCCCCCCCCCC",
"CCCCCCCCCCCCCgr#a####rCCCCCCCCCC",
"CCCCCCCCCCCCCdrpab#bdCCCCCCCCCCC",
"CCCCCCCCCCCCCCCd#bddCCCCCCCCCCCC",
"CCCCCCCCCCCCCCCCCCCCCCCCCCCCCCCC",
"CCCCCCCCCCCCCCCCCCCCCCCCCCCCCCCC",
"CCCCCCCCCCCCCCCCCCCCCCCCCCCCCCCC",
"CCCCCCCCCCCCCCCCCCCCCCCCCCCCCCCC",
"CCCCCCCCCCCCCCCCCCCCCCCCCCCCCCCC"
};
