/* XPM */
static char *t1shf012[] = {
/* width height num_colors chars_per_pixel */
"    32    32       31            1",
/* colors */
". c #080808",
"# c #422929",
"a c #e74242",
"b c #ce3100",
"c c #633929",
"d c #9c2900",
"e c #732100",
"f c #9c6342",
"g c #b5734a",
"h c #ad734a",
"i c #c68452",
"j c #de9c63",
"k c #d6945a",
"l c #7b5231",
"m c #f7ad6b",
"n c #ffbd7b",
"o c #ffb56b",
"p c #312110",
"q c #4a2900",
"r c #6b5a00",
"s c #9c9c00",
"t c #d6d600",
"u c #425a5a",
"v c #182931",
"w c #426b84",
"x c #7b94a5",
"y c #5a94c6",
"z c #6ba5e7",
"A c #31394a",
"B c #6b6384",
"C c None",
/* pixels */
"CCCCCCCCCCCCCCCCCCCCCCCCCCCCCCCC",
"CCCCCCCCCCCCCCCCCCCCCCCCCCCCCCCC",
"CCCCCCCCCCCCCCCCCCCCCCCCCCCCCCCC",
"CCCCCCCCCCCCCCCCCCCCCCCCCCCCCCCC",
"CCCCCCCCCCCCCCCCCCCCCCCCCCCCCCCC",
"CCCCCCCCCfgfllcCCCCCpfpCCCCCCCCC",
"CCCCCCCCCjmxyBfqCCCCCnopCCCCCCCC",
"CCCCCCCC#nnzzywf.CCCCinmpCCCCCCC",
"CCCCCCCCfnnzzzxvfCCCC.mni.CCCCCC",
"CCCCCCCCmnnyzzywfllclCpmngCCCCCC",
"CCCCCCCCgnnxyzywfhlnnonmnnlCCCCC",
"CCCCCCCCpjnnmyyBmkliooonnnopCCCC",
"CCCCCCCCChonnnnoojiljnnooonm#.CC",
"CCCpCCCCCfmnnnnnnokgloononjazw.C",
"CCCic.CCCnmmnnnnnnkkfchfl#lyA.CC",
"CCCnmqCCcoojnnnnnnnofl.CCCwA..CC",
"CCCjnh.Chnooonnnnnnnjc#CCCC.CCCC",
"CCCpnmcpnonooonnnnnnni.CCCCCCCCC",
"CCCCknihononomnnnnnnnocCCCCCCCCC",
"CCCCpnmfonongpmnnmjgrqqq.CCCCCCC",
"CCCCCknkmonk.Cgo#trrrrssrCCCCCCC",
"CCCCCpnmhoj.CCpcpstqqrrrsCCCCCCC",
"CCCCCCknji#CCCC..strdqqdqCCCCCCC",
"CCCCCCpnaBA.CCCC.rsebdeeCCCCCCCC",
"CCCCCCCxzxv.CCCCCrqqdeqCCCCCCCCC",
"CCCCCCvyu#pCCCCCCCqq.eCCCCCCCCCC",
"CCCCCCCv#CCCCCCCCCCCCCCCCCCCCCCC",
"CCCCCCCCCCCCCCCCCCCCCCCCCCCCCCCC",
"CCCCCCCCCCCCCCCCCCCCCCCCCCCCCCCC",
"CCCCCCCCCCCCCCCCCCCCCCCCCCCCCCCC",
"CCCCCCCCCCCCCCCCCCCCCCCCCCCCCCCC",
"CCCCCCCCCCCCCCCCCCCCCCCCCCCCCCCC"
};
