/* XPM */
static char *t1shr017[] = {
/* width height num_colors chars_per_pixel */
"    32    32       31            1",
/* colors */
". c #e74242",
"# c #a52110",
"a c #734a42",
"b c #7b4a31",
"c c #7b2900",
"d c #dea584",
"e c #c67b4a",
"f c #ce8452",
"g c #e7945a",
"h c #5a3921",
"i c #9c6b42",
"j c #f7a563",
"k c #ffb573",
"l c #f7ad6b",
"m c #291808",
"n c #947352",
"o c #634a29",
"p c #423118",
"q c #7b6b00",
"r c #a59400",
"s c #dece00",
"t c #080800",
"u c #ffff00",
"v c #525a5a",
"w c #29425a",
"x c #6ba5de",
"y c #5a84b5",
"z c #7b94b5",
"A c #4a638c",
"B c #21314a",
"C c None",
/* pixels */
"CCCCCCCCCCCCCCCCCCCCCCCCCCCCCCCC",
"CCCCCCCCCCCCCCCCCCCCCCCCCCCCCCCC",
"CCCCCCCCCCCCCCCCCCCCCCCCCCCCCCCC",
"CCCCCCCCCCCCCCCCCCCCCCCCCCCCCCCC",
"CCCCCCCCCCCCCCmohmCCCCCCCCCCCCCC",
"CCCCCCCCCCCmfgklghtCCCCCCCCCCCCC",
"CCCCCBmmofkklgebpCCCCCCCCCCCCCCC",
"CCmpmnyjllgggptCCCCCCCCCCCCCCCCC",
"Ctcrrry#klkkkkioCCCtanemCCCCCCCC",
"CCcqrsvmbkkkkkkkknyxyyAihmCCCCCC",
"CCcmqmCCCbkkkgjjzxxxyyAaobbmCCCC",
"CCCmCCphhmfjjlldxxxyyAvkbbbmCCCC",
"CCCmiffebfgellgdzxyAAvllgpmCCCCC",
"CCCmieffgggggkkkkdfdfjjgeptCCCCC",
"CCCCCbffffglkkkkllljggffnmCCCCCC",
"CCCCCCpffgkkllljjggfeeiibtCCCCCC",
"CCCCCCChgklljjggfeeiibomttCCCCCC",
"CCCCCCCCmgjggfeeiiigktttCCCCCCCC",
"CCCCCCCCCbfeeibigkkkiCCCCCmmCCCC",
"CCCCCCCCCmibbokkkkkkpCCCCqusmCCC",
"CCCCCCCCCCoptpkkkkkiCCCCmuuuqtCC",
"CCCCCCCCCCtCCpkkkkkoCmhfqusuqmCC",
"CCCCCCCCCCCCCokkkklpelkkkrussCCC",
"CCCCCCCCCCCCCoklkjlkkljfbmpqqCCC",
"CCCCCCCCCCCwAojgkkljfimtCCCCCCCC",
"CCCCCCCCCCCax.kkjgiptCCCCCCCCCCC",
"CCCCCCCCCCCpyoeiotCCCCCCCCCCCCCC",
"CCCCCCCCCCCCAAtCCCCCCCCCCCCCCCCC",
"CCCCCCCCCCCCtwCCCCCCCCCCCCCCCCCC",
"CCCCCCCCCCCCCCCCCCCCCCCCCCCCCCCC",
"CCCCCCCCCCCCCCCCCCCCCCCCCCCCCCCC",
"CCCCCCCCCCCCCCCCCCCCCCCCCCCCCCCC"
};
