/* XPM */
static char *t1shl003[] = {
/* width height num_colors chars_per_pixel */
"    32    32       31            1",
/* colors */
". c #100808",
"# c #bd5231",
"a c #523121",
"b c #7b4a31",
"c c #4a2918",
"d c #73635a",
"e c #734a31",
"f c #6b4229",
"g c #a56b42",
"h c #c68452",
"i c #d6945a",
"j c #f7a563",
"k c #ffbd7b",
"l c #b58452",
"m c #312110",
"n c #8c4a00",
"o c #634a29",
"p c #debd73",
"q c #bdb59c",
"r c #736300",
"s c #debd00",
"t c #b5ad00",
"u c #394a52",
"v c #5a8cb5",
"w c #425a73",
"x c #6ba5de",
"y c #73849c",
"z c #5273a5",
"A c #21314a",
"B c #423139",
"C c None",
/* pixels */
"CCCCCCCCCCCCCCCCCCCCCCCCCCCCCCCC",
"CCCCCCCCCgmCCCCCCCCCCCCCCCCCCCCC",
"CCCCCCCCCoiCCCCCCCCCCCCCCCCCCCCC",
"CCCCCCCCCokhCCCCCCCCCCCCCCCCCCCC",
"CCCCCCCCCokkmCCCCCCmvzCCCCCCCCCC",
"CCCCCCCCCokkgCCCCCCvBa.CCCCCCCCC",
"CCCCCCCCCmkkjmmCCC.bhkgCCCCCCCCC",
"CCCCCCCCCmkkkommCCCBkkkaCCCCCCCC",
"CCCCCCCCClkkklcgmCmkkkkjmCCCCCCC",
"CmCCCCCCokkkkpoig.ikkkkki.CCCCCC",
"nrr.CCCCikkkkkjjhbikjkikklCCCCCC",
"nsrmCCCClkkkkkkjilbkkkgckkbCCCCC",
"stzwCCCC.jkkkkkyydgfkkoCgkkmCCCC",
"oxBcmCCCcgkkkkqxxvwfikCC.hhrcCCC",
"AA#jciikkkjkkkqxxxvuaeCCCCrtttrC",
"..jkgikkkkjkkkpxxxvwBcCCCCrrarmC",
"C.mkjbkkjkkjkkkxxxxzBb.CCCracCCC",
"CCCiklikkkkkjkkpxxxzdhoCCCmcCCCC",
"CCCmkjgbikjkkkkkkqvyhgbmCCCCCCCC",
"CCCCikl.Cmcbiikkkkkhlgb.CCCCCCCC",
"CCCCmkjeCCCCCmjkkkihhgb.CCCCCCCC",
"CCCCCikh.CCCCClkihiihhb.CCCCCCCC",
"CCCCCmkkfCCCCC.ilhhjjhgCCCCCCCCC",
"CCCCCCgjfCCCCCCabhhijjgCCCCCCCCC",
"CCCCCCCohCCCCCCCCmagjjbCCCCCCCCC",
"CCCCCCCCa.CCCCCCCCCCmbfCCCCCCCCC",
"CCCCCCCCCCCCCCCCCCCCCCCCCCCCCCCC",
"CCCCCCCCCCCCCCCCCCCCCCCCCCCCCCCC",
"CCCCCCCCCCCCCCCCCCCCCCCCCCCCCCCC",
"CCCCCCCCCCCCCCCCCCCCCCCCCCCCCCCC",
"CCCCCCCCCCCCCCCCCCCCCCCCCCCCCCCC",
"CCCCCCCCCCCCCCCCCCCCCCCCCCCCCCCC"
};
