/* XPM */
static char *t1ship013[] = {
/* width height num_colors chars_per_pixel */
"    32    32       31            1",
/* colors */
". c #c66b6b",
"# c #8c7b73",
"a c #a57352",
"b c #845231",
"c c #ad734a",
"d c #634229",
"e c #bd7b4a",
"f c #9c6b42",
"g c #d6945a",
"h c #f7a563",
"i c #523921",
"j c #634a31",
"k c #312110",
"l c #ffbd73",
"m c #debd84",
"n c #bdb59c",
"o c #080800",
"p c #000808",
"q c #6bade7",
"r c #4a525a",
"s c #29394a",
"t c #213142",
"u c #314a63",
"v c #6394ce",
"w c #42638c",
"x c #7b8ca5",
"y c #848cbd",
"z c #a5a5ad",
"A c #8c848c",
"B c #290810",
"C c None",
/* pixels */
"CCCCCCCCCCCCCCCCCCCCCCCCCCCCCCCC",
"CCCCCCCCCCCCCCCCCCCCCCCCCCCCCCCC",
"CCCCCCCCCCCCCCCCCCCCCCCCCCCCCCCC",
"CCCCCCCCCCCCCCCCCCCCCCCCCCCCCCCC",
"CCCCCCCCCCCCCcdkCCCCCCCCCCCCCCCC",
"CCCCCCCCCCCCemAgbkCCCCCCCCCCCCCC",
"CCCCCCCCCCCglvvwafpCCCCCCCCCCCCC",
"CCCCCCCCCCclnqvvrfiCCCCCfCCCCCCC",
"CCCCCCCCCCelzqqvufiCCCCBleCCCCCC",
"CCCCCCCCCCflnqqvufjoCCCklhBCCCCC",
"CCCCdCCCCCilmvqvugbhdCCCllbCCCCC",
"CCCkhiCCCCdllmzxggcflgdCalcCCCCC",
"CCCjlfoCCdlllllllhcblllgflhBCCCC",
"CCCdlcpCdlllllllhhejhllllllbCCCC",
"CCCklepklllhlllhghefgllllllcCCCC",
"CCCkleillllhlllhggeffllllllhBCCC",
"CCCklgglllllllllhbhedcghlllhiCCC",
"CCCplggllllglllhheeedoCpkj.yvwCC",
"CCCplhclllaklllhhgjbbpCoCty#jupC",
"CCCCghalgkCBlgghhlkBBBCCCpsBkpCC",
"CCCCegcipCCCfijbbdBBBpoCCCCCppCC",
"CCCuqvwtoCCCkBBBBBBBpoCCCCCCCCCC",
"CCCw#bkuCCCoppBBpppCCCCCCCCCCCCC",
"CCCpBBtpCCCCCoCCoooCCCCCCCCCCCCC",
"CCCCppCCCCCCCCCCCCCCCCCCCCCCCCCC",
"CCCCCCCCCCCCCCCCCCCCCCCCCCCCCCCC",
"CCCCCCCCCCCCCCCCCCCCCCCCCCCCCCCC",
"CCCCCCCCCCCCCCCCCCCCCCCCCCCCCCCC",
"CCCCCCCCCCCCCCCCCCCCCCCCCCCCCCCC",
"CCCCCCCCCCCCCCCCCCCCCCCCCCCCCCCC",
"CCCCCCCCCCCCCCCCCCCCCCCCCCCCCCCC",
"CCCCCCCCCCCCCCCCCCCCCCCCCCCCCCCC"
};
