/* XPM */
static char *t1stat007[] = {
/* width height num_colors chars_per_pixel */
"    64    64       32            1",
/* colors */
". c #ffffff",
"# c #bd3918",
"a c #5a3918",
"b c #cebd6b",
"c c #637b42",
"d c #526b39",
"e c #394a29",
"f c #315231",
"g c #00ce18",
"h c #638c6b",
"i c #008418",
"j c #297339",
"k c #294a31",
"l c #a5e7bd",
"m c #426b52",
"n c #005221",
"o c #8cc6a5",
"p c #086331",
"q c #7bad94",
"r c #4a9c73",
"s c #004221",
"t c #6b9c84",
"u c #183929",
"v c #c6ffe7",
"w c #6bf7de",
"x c #4affef",
"y c #299c9c",
"z c #007b8c",
"A c #00a5d6",
"B c #0094c6",
"C c #00b5ef",
"D c None",
/* pixels */
"DDDDDDDDDDDDDDDDDDDDDDDDDDDDDDDDDDDDDDDDDDDDDDDDDDDDDDDDDDDDDDDD",
"DDDDDDDDDDDDDDDDDDDDDDDDDDDsssnssssssDDDDDDDDDDDDDDDDDDDDDDDDDDD",
"DDDDDDDDDDDDDDDDDDDDDDDsspnnnnnnnnssnnnsDDDDDDDDDDDDDDDDDDDDDDDD",
"DDDDDDDDDDDDDDDDDDDDsppppnnpnpnpnnnnnnnsnssDDDDDDDDDDDDDDDDDDDDD",
"DDDDDDDDDDDDDDDDDDnppnpnnpnnpnnnnnnnnnnnnnsnsDDDDDDDDDDDDDDDDDDD",
"DDDDDDDDDDDDDDDDnpnnpnppnnpnnpnnpnnnnnnnnnnsnnsDDDDDDDDDDDDDDDDD",
"DDDDDDDDDDDDDDspnnppnpnnppnpnnpnnnnppBzzznsnssssDDDDDDDDDDDDDDDD",
"DDDDDDDDDDDDDspnpppnpnppnnpnnpnnnppACCCCACAzsnssnDDDDDDDDDDDDDDD",
"DDDDDDDDDDDDspnpnnnpnpnppnnpnnnpnpCCCCCCCCAABzsssssDDDDDDDDDDDDD",
"DDDDDDDDDDDsnppnpppnpppppppnpnnnpCCCCCCCCCAABBBpsssDDDDDDDDDDDDD",
"DDDDDDDDDDsnpnnppnpppppppppppppnzCCCCCCCCCAAABBzzssnDDDDDDDDDDDD",
"DDDDDDDDDsnnpnppnpppjjjjjjjjpnpnzCCCCCCCCAAABBBBBpsssDDDDDDDDDDD",
"DDDDDDDDDpnpnpnnppprrqolwlorpppnyCCxCCCCCCAABBBzzzzsssDDDDDDDDDD",
"DDDDDDDsnpnpnppppjovvvv.vvllotrjCCCxxCCCCAAABBBBBzznsssDDDDDDDDD",
"DDDDDDDnpnpnpnnprvvvv...vvlooqttyCCxxxCCCAAABBBzBzzzssssDDDDDDDD",
"DDDDDDsnnnpnnnntllvv..v.vvloqrrryCCxxxCCAAAABBBBBzzznsssDDDDDDDD",
"DDDDDDnnpnpnppwwlvvv.v.vvloqrhhmrACCxxCCCAABBBBzzzzzzsssDDDDDDDD",
"DDDDDDpnnpnnjxwvlvvv.vvvlvoqrmmjmBBACxCCAAABBBBBzBzzzssssDDDDDDD",
"DDDDDpnpnnnpywwwlvv.vvvlvlotrmjmjjBAACCCAAABBzBzzzzzzzsssDDDDDDD",
"DDDDDnnnnnpnxxwlllvvvvlvloorhmmpjmzBBAAAAABBBBBzBzzzzsssssDDDDDD",
"DDDDnpnnpnnyxwwllllllllloothmjhhcjmzzBBBBBBBzBzzzzzzszssssDDDDDD",
"DDDDnnnnnpnywwwlllllooooqtrhjhbbbfmrzzBBBBzBBzzzzzzzzssssssDDDDD",
"DDDsnnnpnnnoxllllllootttrrmmmcvbbhbbmzzzzzBzzzzzzzszszsssssDDDDD",
"DDDsnnpnnnnxolllloooqrrjhhjpjhbbbbbbbmnzzzzzzzzzzszzsssssssDDDDD",
"DDDsnnnnnnyooolvoooqthhhvbjppcbbbbbbccpszzzzzzzzszsssssssssDDDDD",
"DDDnnnnnnnrooolvlooqrhhbbbjpprbbbbbcccmusssszsszszsszssssssDDDDD",
"DDDnnnnnnnjooolvvoqqtmccchbcjjbbbbhccfffkszsszsssszsssssssssDDDD",
"DDsnnnnnnnptqoovvoottrmccccchbbbbbccdeefrqyssssszsssssssssssDDDD",
"DDssnnnnnne#coovvlqqtrhjfcccccbbhccdeefmttovqyszssssssnsssssDDDD",
"DDssnnnnnnkahoolwvoqqthmffedccbhccdeefjhttqlvlotmunsnnssssssDDDD",
"DDDsggccjsnmqqowwwlqqtrhchefeecbcdefefdhhqqovvoqtmnnnnsnssssDDDD",
"DDDngichhcdptqwxxxloqttrmbbhcchbcdeedhchhtqolloqtrpnnsnsssssDDDD",
"DDDnincccchctwxxxwwoqqthrhbbbcbbbbefddccbcbtoloqqhmsnnssnsssDDDD",
"DDDssnnkddccqxxxxxxwqqtthhmhbcbbbhdeeedddcccqoooqhmpsnnsssssDDDD",
"DDDsnsnnsnefrxxxwxxxoqqttrhcccbbbbfjfeaeadcmbooqqtmunssnssnDDDDD",
"DDDsssssnsnnpyxxxxxxxqtttthhmdbbbbfjjrmfeeacooooqhmknnnsnsnDDDDD",
"DDDssnsnssnsnjxxxxxxxwtttththmtbbbfrrrrrmmdooooqtthusnsnsssDDDDD",
"DDDsssssnsnsnnyxxxxxxxtttthhhhhqbbdrtqqtrrtooooqthmesnnsnsnDDDDD",
"DDDDsssssssnsnnyxxxxxthtthththhhmcctqwqwtrqooqqtthmksnnsnssDDDDD",
"DDDDssssssnsnnnpxxxxqrthhththhhrhhhttqoqtqqqqqtthhmksnsnsnDDDDDD",
"DDDDDssssssnsnnnzxxyrhhhhhhhhhhhhrhhrrtqttttttthhmeusnnnssDDDDDD",
"DDDDDssssssnsnsnnyyhmhrhrhrhrhrhhhmhhhrtthhthhhhhmkusnsnssDDDDDD",
"DDDDDssssssssnnnnpjmmmmmrmhmhmhmhmhhhhhhhhhhhhhmmeuunnnnsDDDDDDD",
"DDDDDDssssssnsnsnnnkmfukmhmrmhmhmhmmmhmmmhmhmmmefuksnnsssDDDDDDD",
"DDDDDDsssssssnsnnnnnpusDfmmmmmmmmmmmmmmmmmmmmmekuuusnnnsDDDDDDDD",
"DDDDDDDDssssssnsnsnsssDkmfmmmmmmmmmmmmmmmemeeekukyknnsnDDDDDDDDD",
"DDDDDDDDsssssssnsnnnnnnukkffryrmemmememefmffkkuyyyunnnnDDDDDDDDD",
"DDDDDDDDDsssssnssnsnnnnnmukmAyAyymkfkfkfkuuuuuyyypnnnsDDDDDDDDDD",
"DDDDDDDDDDssssssnsnnsnndbcmyyyyyyyzmuukuukukukyzpsnssDDDDDDDDDDD",
"DDDDDDDDDDDssssssssnsnndbbfjzyyyyyyyymuuuuuuuzjpspsnDDDDDDDDDDDD",
"DDDDDDDDDDDDssssssssnsndbbdnnjzyyyyyymuuuuuukpnnnnnDDDDDDDDDDDDD",
"DDDDDDDDDDDDDssssssssnsdbbfsnnnnjzyyuuuDDuupnnnnsnDDDDDDDDDDDDDD",
"DDDDDDDDDDDDDDsssssssssdbbeunsnsnnssnnssDsnsnnnssDDDDDDDDDDDDDDD",
"DDDDDDDDDDDDDDDDsssssssdbbfnnnnnnnnnnnsnpnnnnsnsDDDDDDDDDDDDDDDD",
"DDDDDDDDDDDDDDDDDssssssddgesssnsnnnnnnnnnnnsnsDDDDDDDDDDDDDDDDDD",
"DDDDDDDDDDDDDDDDDDDsssssggnnnnsnnnsnsnnsnsnsDDDDDDDDDDDDDDDDDDDD",
"DDDDDDDDDDDDDDDDDDDDDsssiissssnssnnnnnsnnsDDDDDDDDDDDDDDDDDDDDDD",
"DDDDDDDDDDDDDDDDDDDDDDDsssssnsnsnssssnssDDDDDDDDDDDDDDDDDDDDDDDD",
"DDDDDDDDDDDDDDDDDDDDDDDDDDDDDssssssDDDDDDDDDDDDDDDDDDDDDDDDDDDDD",
"DDDDDDDDDDDDDDDDDDDDDDDDDDDDDDDDDDDDDDDDDDDDDDDDDDDDDDDDDDDDDDDD",
"DDDDDDDDDDDDDDDDDDDDDDDDDDDDDDDDDDDDDDDDDDDDDDDDDDDDDDDDDDDDDDDD",
"DDDDDDDDDDDDDDDDDDDDDDDDDDDDDDDDDDDDDDDDDDDDDDDDDDDDDDDDDDDDDDDD",
"DDDDDDDDDDDDDDDDDDDDDDDDDDDDDDDDDDDDDDDDDDDDDDDDDDDDDDDDDDDDDDDD",
"DDDDDDDDDDDDDDDDDDDDDDDDDDDDDDDDDDDDDDDDDDDDDDDDDDDDDDDDDDDDDDDD"
};
