/* XPM */
static char *t1stat005[] = {
/* width height num_colors chars_per_pixel */
"    64    64       32            1",
/* colors */
". c #ffffff",
"# c #8c7b42",
"a c #9c8c52",
"b c #c6b563",
"c c #737b42",
"d c #6b7339",
"e c #294a29",
"f c #00bd10",
"g c #008c10",
"h c #b5e7bd",
"i c #296339",
"j c #638c73",
"k c #9cdeb5",
"l c #31734a",
"m c #c6ffde",
"n c #006329",
"o c #8cd6ad",
"p c #004a21",
"q c #005a29",
"r c #7bad94",
"s c #52846b",
"t c #6b9c84",
"u c #008473",
"v c #4affef",
"w c #31c6bd",
"x c #299c9c",
"y c #004242",
"z c #006b6b",
"A c #006373",
"B c #0084a5",
"C c #00ade7",
"D c None",
/* pixels */
"DDDDDDDDDDDDDDDDDDDDDDDDDDDDDDDDDDDDDDDDDDDDDDDDDDDDDDDDDDDDDDDD",
"DDDDDDDDDDDDDDDDDDDDDDDDDDDDppppppDDDDDDDDDDDDDDDDDDDDDDDDDDDDDD",
"DDDDDDDDDDDDDDDDDDDDDDDDppnqppppppnnpppDDDDDDDDDDDDDDDDDDDDDDDDD",
"DDDDDDDDDDDDDDDDDDDDpqnnnqqqqqqqpqqpqppqppDDDDDDDDDDDDDDDDDDDDDD",
"DDDDDDDDDDDDDDDDDDpnqnqqqqqqqqpqqqpqpqppppppDDDDDDDDDDDDDDDDDDDD",
"DDDDDDDDDDDDDDDDDnnqqqqnqqqqqqqqpqqqppqppppqppDDDDDDDDDDDDDDDDDD",
"DDDDDDDDDDDDDDDpnqqqnqqqqqqqqqpqqqpqnCCBuzppppppDDDDDDDDDDDDDDDD",
"DDDDDDDDDDDDDDnnqnqnqqqqqqqqqqqqpqnCCCCCCCCuzppppDDDDDDDDDDDDDDD",
"DDDDDDDDDDDDpnnqqqqqqnqnqqqqqqqqqBCCCCCCCCCCBuyppppDDDDDDDDDDDDD",
"DDDDDDDDDDDpnnqnqnqnqnqnnnqqqqqpqCvCvCCCCCCCCBBzpppDDDDDDDDDDDDD",
"DDDDDDDDDDpqqqqqqqnqniniininqqqnuCCCCCCCCCCBCCBBzpppDDDDDDDDDDDD",
"DDDDDDDDDpqqqnqqqnnnlnllllninqqqBvCvvCCCCCCCCBCBBApppDDDDDDDDDDD",
"DDDDDDDDDqqqqqqnnnilrkkkkkottlnqCCCvCCCCCCCCBCBBBBApppDDDDDDDDDD",
"DDDDDDDDnqqqqqqqnlkmmmmmmkkorrrsxCCvvvCCCCCCCBCBBBBzpppDDDDDDDDD",
"DDDDDDDpqqqqqqqickmmmm.mmhoortttxCCvvvvCCCCCBCBCBBBAyppDDDDDDDDD",
"DDDDDDpnqqqqqnzkvmmm..m.mhorttssxCCCvvCCCCBCBCBBBBBBApppDDDDDDDD",
"DDDDDDpqqqqqqlvvmmm...mmmmorjslslBCCCvvCCCCCBCBBBBBAAzppDDDDDDDD",
"DDDDDDnqqqqqqxvvmmm..mmmmkortslllsBCCCCCCCBCBBBBBBBBAApppDDDDDDD",
"DDDDDpqqqqqqnvvmhmmm.mmhmhktsslllluBCCCCCCCBCCBBBBBAAAyppDDDDDDD",
"DDDDDqqqpqqqxvvkkmmmmmmmmkhtjsliiilBBBBCCBBCBBBBBBABAAypppDDDDDD",
"DDDDpqpqqqpqxmkhmmmmmhkkhm.bslliiiiABBCBBCBBBBBBBABAAAypppDDDDDD",
"DDDDpqqpqqqlvkkkkkhhkkooh..btlliyilblABBBBBBBBBBBBAAAAyyppDDDDDD",
"DDDDqpqqqpqsokkhhkkkortrhb.hbliiiibbalAABBBBBBBBAAAAAzyypppDDDDD",
"DDDpqqqpqqqrokkmkkkortslcbbbbaiiybbbbjyAAABABAAAAAAAyyyypppDDDDD",
"DDDpppqqpqprookhmoorrjlllrbbhbcqabbbacdyzzzAAAAAAAzyyyyypppDDDDD",
"DDDpqppqpqppsokmmorrtjlnniabbbbabbbacdieeyyyzzzyzyyyyyypppppDDDD",
"DDDppqqpqpppsoommkorttlinnnbbbbbbbaadieeelyyyyyyyyyyyyypppppDDDD",
"DDDqqppqpppqrrohvhorttsiqqnibbhbbaacieeeicrryyyyyyyyyyppppppDDDD",
"DDppppqpqppirokvvmkrrtjlqqqqcbbbbacieeeeidrkmtlyyyyypppppppDDDDD",
"DDDpqppppqpitovvvvhorttsiqqibbbaacieeeeeesrkmmortlqqppppppppDDDD",
"DDpppqpqppppwvvvvvhorttjlaabbaaccdeeeeelstrrhmkrtsqpqpppppppDDDD",
"DDDppppppqppwvvvvvvkrrttjsaacdiiieeeeinistrrkhkrtjlpppppppppDDDD",
"DDDpppppppppwvvvvvvvrrttjssieieeedba#gnnltrrkkorrjspppppppppDDDD",
"DDDppppppppplvvvvvvvortttjsleeeedabbbcniijrrooorrtseqpppppppDDDD",
"DDDppppppppppxvvvvvvvrrtttjjcddeiabbballnsrrorhortsippppppppDDDD",
"DDDppppppppppqwvvvvvkttttttjsleeedabbballltrrhrrrjsepppppppDDDDD",
"DDDpppppppppppnvvvvvjtttttjtjssieecabbbaxltrhrhrrjseyppppppDDDDD",
"DDDppppppppppqqwvvvttttttttjjjsssllabbbacstrrorratsepppppppDDDDD",
"DDDDppppppppppqnwvtjtjtjtjjjjjjjssss#bbbasrrrrrrrssepppppppDDDDD",
"DDDDppppppppppppwxsssjjjjjjjjjjsjsjsjjabbarrrrttsslepppppppDDDDD",
"DDDDDpppppppppiacclssssjjjjjjjsjsjsssjjjjjtttt#tdseeypppppDDDDDD",
"DDDDDppppppidabacdill#csssssssssssssssjjjjjjjjjjsleeppppppDDDDDD",
"DDDDDDpppeabb#cieeee#D#llssswwjsssssssssssjdssslleeepppppDDDDDDD",
"DDDDDDppnfacieeepqppe#DlsslsvvvwsssdssdssssssleleeepqppppDDDDDDD",
"DDDDDDppffcieeppppqppeedlllxvwwvwxsllllllllleleeeeypppppDDDDDDDD",
"DDDDDDDpggdepppppppqppeyelswwwwwvwwxsllllelleeeeDeppppppDDDDDDDD",
"DDDDDDDDppppppppppppqppeelwwwwwwwwwwwleleeeeeeyelDpppppDDDDDDDDD",
"DDDDDDDDDpppppppppppppqqyuxxxwxwxwwwAeeeeeeeeeeexypppppDDDDDDDDD",
"DDDDDDDDDpDppppppppppppqqqquxxxxxxxxleeeeeDyeyAxypppppDDDDDDDDDD",
"DDDDDDDDDDpppppppppppppppqpqquxxxxxxeeeDeeeeAxippppppDDDDDDDDDDD",
"DDDDDDDDDDDpDppppppppppqpppppppuxxxyeyDDeyeyipqpqpppDDDDDDDDDDDD",
"DDDDDDDDDDDDppppppppppppppqppqppp###dDDpyepqqqpppppDDDDDDDDDDDDD",
"DDDDDDDDDDDDDDppppppppppppppppppqeabaippppppppqpppDDDDDDDDDDDDDD",
"DDDDDDDDDDDDDDDpppppppppppppppppppeabfeqpqqqpppppDDDDDDDDDDDDDDD",
"DDDDDDDDDDDDDDDDDppppppppppppppqpqpdfgpqpppppppDDDDDDDDDDDDDDDDD",
"DDDDDDDDDDDDDDDDDDDpppppppppppppppppqqpppppppDDDDDDDDDDDDDDDDDDD",
"DDDDDDDDDDDDDDDDDDDpDppppppppppppppppppppppDDDDDDDDDDDDDDDDDDDDD",
"DDDDDDDDDDDDDDDDDDDDDDDDpppppppppppppppppDDDDDDDDDDDDDDDDDDDDDDD",
"DDDDDDDDDDDDDDDDDDDDDDDDDDDpppppppppDDDDDDDDDDDDDDDDDDDDDDDDDDDD",
"DDDDDDDDDDDDDDDDDDDDDDDDDDDDDDDDDDDDDDDDDDDDDDDDDDDDDDDDDDDDDDDD",
"DDDDDDDDDDDDDDDDDDDDDDDDDDDDDDDDDDDDDDDDDDDDDDDDDDDDDDDDDDDDDDDD",
"DDDDDDDDDDDDDDDDDDDDDDDDDDDDDDDDDDDDDDDDDDDDDDDDDDDDDDDDDDDDDDDD",
"DDDDDDDDDDDDDDDDDDDDDDDDDDDDDDDDDDDDDDDDDDDDDDDDDDDDDDDDDDDDDDDD",
"DDDDDDDDDDDDDDDDDDDDDDDDDDDDDDDDDDDDDDDDDDDDDDDDDDDDDDDDDDDDDDDD"
};
