/* XPM */
static char *t1stat012[] = {
/* width height num_colors chars_per_pixel */
"    64    64       31            1",
/* colors */
". c #ad2910",
"# c #6b2910",
"a c #d6c673",
"b c #949452",
"c c #526331",
"d c #315231",
"e c #00ce08",
"f c #42734a",
"g c #008c21",
"h c #5a8c6b",
"i c #6b947b",
"j c #9cdeb5",
"k c #94d6ad",
"l c #398c5a",
"m c #184229",
"n c #7bb594",
"o c #003918",
"p c #004a21",
"q c #005a29",
"r c #b5f7d6",
"s c #426352",
"t c #4a8c6b",
"u c #428463",
"v c #527363",
"w c #106b42",
"x c #63f7e7",
"y c #007373",
"z c #29b5c6",
"A c #08ceef",
"B c #0094ad",
"C c None",
/* pixels */
"CCCCCCCCCCCCCCCCCCCCCCCCCCCCCCCCCCCCCCCCCCCCCCCCCCCCCCCCCCCCCCCC",
"CCCCCCCCCCCCCCCCCCCCCCCCCCCCoCopopoCCCCCCCCCCCCCCCCCCCCCCCCCCCCC",
"CCCCCCCCCCCCCCCCCCCCCCCopqqqqqpqqpqqqpooCCCCCCCCCCCCCCCCCCCCCCCC",
"CCCCCCCCCCCCCCCCCCCCopqqqqqqqqqqqqpqpqppqpoCCCCCCCCCCCCCCCCCCCCC",
"CCCCCCCCCCCCCCCCCCoqqqqqqqqqqqqqpqqqpqpqppqpoCCCCCCCCCCCCCCCCCCC",
"CCCCCCCCCCCCCCCCCpqqqqqqqqqqqqqqqpwwyywqppppppoCCCCCCCCCCCCCCCCC",
"CCCCCCCCCCCCCCCoqqqqqqqqqqqqqqqpyzAAAAAAByyppppoCCCCCCCCCCCCCCCC",
"CCCCCCCCCCCCCCpqqqqqqqqqqqqqqqqwAAAAAAAABAByqppppoCCCCCCCCCCCCCC",
"CCCCCCCCCCCCoqqqqqqqqqqqqqqqqqqzAAAAAAABABBABypppooCCCCCCCCCCCCC",
"CCCCCCCCCCCopqqqqqqqqqqwqwqqqqyAAAAAAAAAAABBBBBpppooCCCCCCCCCCCC",
"CCCCCCCCCCoqqqqqqqqqqwwwwwwwqqBAAAAAAAAAABAABBBBqppooCCCCCCCCCCC",
"CCCCCCCCCCpqqqqqqqwwninthtlwwqBAAxAAAAAABABBBBBBBqppooCCCCCCCCCC",
"CCCCCCCCCpqqqqqqwnjjjjrrjrkkhlBAAxxAABAAABABBBBBBBpopoCCCCCCCCCC",
"CCCCCCCCoqqqqqwnjjkjjrrrrjkknnzAAAxxAAABABBABBBBByBopopCCCCCCCCC",
"CCCCCCCoqqqqqnjjjkjjjrrrrjkkninBAAxxAAAABAABBBBBBByypoooCCCCCCCC",
"CCCCCCCppqqqnjjjkkjjrrrrrrknniiBAAAAAAABABBBBBBBByByppoooCCCCCCC",
"CCCCCCoqqqqtxjjkkkjrrrrrrrjniittBBAAzABABBABBBBByByyyopooCCCCCCC",
"CCCCCCqqqqqkjjkkkkkjrrrrrrjkituuBBBBABABABBBBBBBByByyopooCCCCCCC",
"CCCCCoqqqqyjjkkkkkkkrrrrrrjnitlfsBBBBABBBBBBBBByByyyyyppooCCCCCC",
"CCCCCqpqqqjjjkkkknkkkrrrrjkniufsfyyBBBBBBBBBBBByByyyyoopooCCCCCC",
"CCCCCqqqqtjjjjknnknnnkjjjknitlsuibuyBBBBBBBBByyByyyyyoyopooCCCCC",
"CCCCoqpqqkkkkjkknnnnnknnnnitufiaaaasyyyBBByByByyyyyyoyoopooCCCCC",
"CCCCpqqpptkkjjkknnitiaantlllfwkaaaabwoyyyyyyyyyyyyyoyooppooCCCCC",
"CCCopqpqookkjrknnnithajantfgwwaaaabbbyoyoyyyyyyyoyoyooppopooCCCC",
"CCCopqqpofkkjrjknnitubbabahfgqaaaabbccdoyoyoyoyoyoooyopppoooCCCC",
"CCCoppqpqtnkxxrknnntffhbbbbahhaaabbfcdddsooyoyoyoyyooyopppooCCCC",
"CCCoqpqpqikxxxrjnniiucdffbbbbaaabbfcdddsnkuoyoooyooyooppopooCCCC",
"CCCopqqgpixxxxxrknnitwmdcfcfbaabbfcddddiikrrvsyyoopopppppppoCCCC",
"CCCoqgelbkxxxxxrjnnitfqqqdccbabbbccdddhnnkrrknivmpqppppppoopCCCC",
"CCCopqgcbzxxxxxxrnnnitfqqabdbbbbcddddfhinnrrjnnisqpqqppppppooCCC",
"CCCoppqfctxxxxxxjknniivwfaaaaabbddddbfvinnkrrnniupqpqppppopoCCCC",
"CCCoppppqdxAxxxxxknniihtfaaabaaacddcbbbhnnnjjknivmqqppppppppCCCC",
"CCCopppppqwxxxxxxkniniihuabbaaabcdccfbbbbikkknnihdqppqpppppoCCCC",
"CCCopppppppzxxxxxnnnniiithbbaaabcmddcccbbbbkkknnispqppppppppCCCC",
"CCCoppppppqwxAxziinniniiihufaaabdqqdddcccbbkkkniisqppppppppoCCCC",
"CCCCoppppppqzxxninnininiihhhiaabdwwwffmcccbnknnnvsdpppppppooCCCC",
"CCCCpppppppplAntiiiiiiiiiihhhhbfdwwlttiumcjjnnnivsmpqppppppoCCCC",
"CCCCpoppppppwnlhiiiiiiiiiiiihhhvdwltnnnnnnnknnnivsmpppppppooCCCC",
"CCCCopopoppppquvvhiiiiiiiihhihhhhtttixkknnnnnnivvdmppqpppppCCCCC",
"CCCCCopoppppppdf..vttitihhhihhhhhhhhniininniiivvsdmpqpppppoCCCCC",
"CCCCCopppopppppm.#svhthhhhhhhhhhhhhihiiiiiiiivvssmmpppppppCCCCCC",
"CCCCCCooppoppppqmmfuvvthvhvvhvhvhvhhhhhhvvvvvvssdmmpqppppoCCCCCC",
"CCCCCCoooopppppppddsvsuntvvvvvvvvvvvvvvvvvvvsssdmmpqpqpppCCCCCCC",
"CCCCCCCpopopppppppwdssnAztfvfvvvvvsvsvsvvssssddmmmqppppppCCCCCCC",
"CCCCCCCooppopppppppmdBzzxAzussssssssssssssddddmmmpppqpppCCCCCCCC",
"CCCCCCCCooppoppppppqwzzzzzzzzdssdssdsddddddmmmydmpqpppppCCCCCCCC",
"CCCCCCCCoooopppppppppaizzzzzzzyddddddddddmsuBtB#oqpqppqCCCCCCCCC",
"CCCCCCCCCooopoppppppdaacltBnBnzzsmdmmmmmdBBBBBt#qpqppqCCCCCCCCCC",
"CCCCCCCCCCooopopppppfabdpytBzBBlmmmmmmmmmtBtztwpqppppoCCCCCCCCCC",
"CCCCCCCCCCCooopoppppbabdpqqwzttmmmoodmdmyBztqqpqpqqpoCCCCCCCCCCC",
"CCCCCCCCCCCCoooppopoaabmpppppqpmmoCCmmmmuwqqqpqqpppoCCCCCCCCCCCC",
"CCCCCCCCCCCCCooooopoaacopppppppppoopmmmpqqpqpqppppoCCCCCCCCCCCCC",
"CCCCCCCCCCCCCCooopodhccopppppppqppppqppqqpqpqpqppoCCCCCCCCCCCCCC",
"CCCCCCCCCCCCCCCCoopoeempppppppppqqqppqqpqppqpppoCCCCCCCCCCCCCCCC",
"CCCCCCCCCCCCCCCCCoopegpopppppppppppppppqpqppppCCCCCCCCCCCCCCCCCC",
"CCCCCCCCCCCCCCCCCCCoooopppppppppppppqppppppoCCCCCCCCCCCCCCCCCCCC",
"CCCCCCCCCCCCCCCCCCCCCoooopppppppppppppppppoCCCCCCCCCCCCCCCCCCCCC",
"CCCCCCCCCCCCCCCCCCCCCCCCooopopppppppppooCCCCCCCCCCCCCCCCCCCCCCCC",
"CCCCCCCCCCCCCCCCCCCCCCCCCCCCooooCoCCCCCCCCCCCCCCCCCCCCCCCCCCCCCC",
"CCCCCCCCCCCCCCCCCCCCCCCCCCCCCCCCCCCCCCCCCCCCCCCCCCCCCCCCCCCCCCCC",
"CCCCCCCCCCCCCCCCCCCCCCCCCCCCCCCCCCCCCCCCCCCCCCCCCCCCCCCCCCCCCCCC",
"CCCCCCCCCCCCCCCCCCCCCCCCCCCCCCCCCCCCCCCCCCCCCCCCCCCCCCCCCCCCCCCC",
"CCCCCCCCCCCCCCCCCCCCCCCCCCCCCCCCCCCCCCCCCCCCCCCCCCCCCCCCCCCCCCCC",
"CCCCCCCCCCCCCCCCCCCCCCCCCCCCCCCCCCCCCCCCCCCCCCCCCCCCCCCCCCCCCCCC"
};
