/* XPM */
static char *t2shb000[] = {
/* width height num_colors chars_per_pixel */
"    32    32       31            1",
/* colors */
". c #632118",
"# c #844a00",
"a c #c66b00",
"b c #5a4200",
"c c #ffbd00",
"d c #080800",
"e c #292900",
"f c #737300",
"g c #cece00",
"h c #ffff00",
"i c #a5bd00",
"j c #526b4a",
"k c #000800",
"l c #004a31",
"m c #007352",
"n c #008c63",
"o c #00c68c",
"p c #002118",
"q c #219484",
"r c #189c9c",
"s c #319cad",
"t c #29637b",
"u c #63a5ce",
"v c #4a739c",
"w c #527bad",
"x c #182131",
"y c #4a4263",
"z c #7b6b94",
"A c #843952",
"B c #c6425a",
"C c None",
/* pixels */
"CCCCCCCCCCCCCCCCCCCCCCCCCCCCCCCC",
"CCCCCCCCCCCCCCCCCCCCCCCCCCCCCCCC",
"CCCCCCCCCCCCCCCCCCCCCCCCCCCCCCCC",
"CCCCCCCCCCCCCCCCCCCCCCCCCCCCCCCC",
"CCCCCCCCptdCCCCCCCCCCegCCCCCCCCC",
"CCCCCCCCxwjoooooooooicc#CCCCCCCC",
"CCCCCCCdxzqonoonnnnogag#CCCCCCCC",
"CCCCCCCCpy.ooooolpppbgabCCCCCCCC",
"CCCCCCCCdddnoooonpkCkkfdCCCCCCCC",
"CCCnnonlpCCpoooooolCCCCCCCCCCCCC",
"CCCpmmnmnmmnnonoqssvttmnkCCCCCCC",
"CCCCpmnmnmmmnnoouuuuuuwtmpCCCCCC",
"CCCCCpnmmnmnnooruuuuuwwqmmpCCCCC",
"CCCCCCmmnooooooosuuuwvvonmmlCCCC",
"CCCCCCCmooooooooooqqtooonmmmlCCC",
"CCCCCCCpoooooooooooooooonmllCCCC",
"CCCCCCCpnnnonnonnnnnnnnnmlpCCCCC",
"CCCCCCCCnnnnnnnnnnnnnnnnlpCCCCCC",
"CCCCCCCClmmmononononmmmmkCCCCCCC",
"CCCCCCCCCkCloooooonpkCkCCCCCCCCC",
"CCCCCCCCCCCooooooopCCCCCCCCCCCCC",
"CCCCCCCCCClooooonCCCCCCCCCCCCCCC",
"CCCCCCCxxCooooookCCCCCegidCCCCCC",
"CCCCCCCvAjooooomlmmlmghhcdCCCCCC",
"CCCCCCCuBooooooooooooichieCCCCCC",
"CCCCCCCwAnqnnnnonnonohhcgeCCCCCC",
"CCCCCCCtydkkpkkCkkCkCCfhheCCCCCC",
"CCCCCCCdpCCCCCCCCCCCCCCdeCCCCCCC",
"CCCCCCCCCCCCCCCCCCCCCCCdCCCCCCCC",
"CCCCCCCCCCCCCCCCCCCCCCCCCCCCCCCC",
"CCCCCCCCCCCCCCCCCCCCCCCCCCCCCCCC",
"CCCCCCCCCCCCCCCCCCCCCCCCCCCCCCCC"
};
