/* XPM */
static char *t2shb010[] = {
/* width height num_colors chars_per_pixel */
"    32    32       31            1",
/* colors */
". c #632100",
"# c #7b5a00",
"a c #ceb500",
"b c #e7ce00",
"c c #313100",
"d c #525200",
"e c #6b6b00",
"f c #949400",
"g c #a5b500",
"h c #5a634a",
"i c #8cde39",
"j c #5ace52",
"k c #18844a",
"l c #18c673",
"m c #00a573",
"n c #00c68c",
"o c #002118",
"p c #007b5a",
"q c #08b58c",
"r c #089c7b",
"s c #004a39",
"t c #218c84",
"u c #317384",
"v c #4294ad",
"w c #527ba5",
"x c #639cd6",
"y c #18314a",
"z c #080810",
"A c #7b4a63",
"B c #a56384",
"C c None",
/* pixels */
"CCCCCCCCCCCCCCCCCCCCCCCCCCCCCCCC",
"CCCCCCCCCCCCcCCCCCCCCCCCCCCCCCCC",
"CCCCCCCCCCCdbdCCCCCCCCCCCCCCCCCC",
"CCCCCCCCCCC#abdCCCCCCCCCCCCCCCCC",
"CCCCCCCCCCCfaainpsoCCCCCCCCCCCCC",
"CCCCCCCCCCCaffkmnnnqssCCCzCCCCCC",
"CCCCCCCCCCCccCCospmnnnnpAuCCCCCC",
"CCCCCCCCooCCCCCCopqnnnnhBuCCCCCC",
"CCCCCCoprttysComnnnnnnm.xsCCCCCC",
"CCCComnqxxxxwummnnnnnmozyCCCCCCC",
"CCConnnnxxxxxwummpmmmoCCCCCCCCCC",
"CCCCrnnnvxxxvxurqmmrmpppsCCCCCCC",
"CCCConnnnvwwwwunnnnmqmmqmnnoCCCC",
"CCCCCpnnnnnqqqnnnnnqmqqmqmpCCCCC",
"CCCCCommqnqqnnnnnnnnmqmqmsCCCCCC",
"CCCCCCsppmmqqnnnnnnnnnmqoCCCCCCC",
"CCCCCCCospmpmmqnnnnnnnmoCCCCCCCC",
"CCCCCCCCCCmnmmpmrqnnnroCCCCCCCCC",
"CCCCeCCCCConnnnmmpmmqsCCCCCCCCCC",
"CCC#beCCCCCrnnnnnppppCCCCCCCCCCC",
"CC.ebacCCCCsnnnnnoCooCCCCCCCCCCC",
"CC#abgjqpoConnnnnsCCCCCCCCCCCCCC",
"CCcgaalnnnmsmnnnnsCCCCCCCCCCCCCC",
"CCcedcssmnnnnmqmnszCCCCCCCCCCCCC",
"CCCCCCCCCssnnnnnmhAyCCCCCCCCCCCC",
"CCCCCCCCCCCzsmnnnwxzCCCCCCCCCCCC",
"CCCCCCCCCCCCCCssmBvCCCCCCCCCCCCC",
"CCCCCCCCCCCCCCCCzhACCCCCCCCCCCCC",
"CCCCCCCCCCCCCCCCCyoCCCCCCCCCCCCC",
"CCCCCCCCCCCCCCCCCCCCCCCCCCCCCCCC",
"CCCCCCCCCCCCCCCCCCCCCCCCCCCCCCCC",
"CCCCCCCCCCCCCCCCCCCCCCCCCCCCCCCC"
};
