/* XPM */
static char *t2ship016[] = {
/* width height num_colors chars_per_pixel */
"    32    32       31            1",
/* colors */
". c #6b2929",
"# c #ad4242",
"a c #100000",
"b c #297b5a",
"c c #084231",
"d c #008c63",
"e c #00a573",
"f c #00c68c",
"g c #002118",
"h c #004231",
"i c #00634a",
"j c #087b63",
"k c #108473",
"l c #10635a",
"m c #102121",
"n c #39a5a5",
"o c #000808",
"p c #52a5c6",
"q c #314a63",
"r c #6ba5de",
"s c #4a739c",
"t c #081018",
"u c #5a8cc6",
"v c #527bad",
"w c #395273",
"x c #21314a",
"y c #7b73a5",
"z c #312131",
"A c #421821",
"B c #310810",
"C c None",
/* pixels */
"CCCCCCCCCCCCCCCCCCCCCCCCCCCCCCCC",
"CCCCCCCCCCCCCCCCCCCCCCCCCCCCCCCC",
"CCCCCCCCCCCCCCCCCCCCCCCCCCCCCCCC",
"CCCCCCCCCCCCCCCCCCCCCCCCCCCCCCCC",
"CCCCCCCCCCCCCggCCCCCCCCCCCCCCCCC",
"CCCCCCCCCCgefiCCCCCCCCCCCCCCCCCC",
"CCCCCCCCChfeigCCCCCghoCCCCCCCCCC",
"CCCCCCCgefdhoCCCCgknnkdhhoCCCCCC",
"CCCCCCdfedigCCCCipuusweiiCCCCCCC",
"CCmwgefdeffffffdurrusqedhCCCCCCC",
"CCtpybdfffffffenrruvwjeehCCCCCCC",
"CCCzs.jffffffffpruswleejhCCCCCCC",
"CCCaqmCgjffefeffnnkdediigCCCCCCC",
"CCCCtoCCodjjihefeeeejiihoCCCCCCC",
"CCCCCCCejhhhhdffeedjihgCCCCCCCCC",
"CCCCCgdihhhhjfeeedjiidoCCCCCCCCC",
"CCCCCghhhhhjfeeejiiifeCCCCCCCCCC",
"CCCCCCCghhieeeelihdffeCCCCCghCCC",
"CCCCCCCComckediiiefffeCCgdfdCCCC",
"CCCCCCCCCa.AjiihfffffeCgdfehCCCC",
"CCCCCCCCCCB.ihhCeffffegffeioCCCC",
"CCCCCCCCCCCBAgoCgfffffefehCCCCCC",
"CCCCCCCCCCCCtCCCCfffeffegCCCCCCC",
"CCCCCCCCCCCCCCCCCdfeffigCCCCCCCC",
"CCCCCCCCCCCCCCCCq#ffeigCCCCCCCCC",
"CCCCCCCCCCCCCCCtvp#eioCCCCCCCCCC",
"CCCCCCCCCCCCCCCCzpycoCCCCCCCCCCC",
"CCCCCCCCCCCCCCCCozsxCCCCCCCCCCCC",
"CCCCCCCCCCCCCCCCCmwoCCCCCCCCCCCC",
"CCCCCCCCCCCCCCCCCCCCCCCCCCCCCCCC",
"CCCCCCCCCCCCCCCCCCCCCCCCCCCCCCCC",
"CCCCCCCCCCCCCCCCCCCCCCCCCCCCCCCC"
};
