/* XPM */
static char *t2ship014[] = {
/* width height num_colors chars_per_pixel */
"    32    32       31            1",
/* colors */
". c #42846b",
"# c #006342",
"a c #00a573",
"b c #00c68c",
"c c #002118",
"d c #003929",
"e c #00946b",
"f c #00b584",
"g c #008463",
"h c #089c7b",
"i c #10bd9c",
"j c #108473",
"k c #087363",
"l c #183131",
"m c #105252",
"n c #001010",
"o c #31949c",
"p c #316b73",
"q c #31525a",
"r c #528494",
"s c #4a5a63",
"t c #639cce",
"u c #182129",
"v c #29394a",
"w c #5a8cbd",
"x c #426b94",
"y c #395273",
"z c #180810",
"A c #a55a7b",
"B c #421018",
"C c None",
/* pixels */
"CCCCCCCCCCCCCCCCCCCCCCCCCCCCCCCC",
"CCCCCCCCCCCCCCCCCCCCCCCCCCCCCCCC",
"CCCCCCCCCCCCCCCCCCCCCCCCCCCCCCCC",
"CCCCCCCCCCCCCCCCCCCCCCCCCCCCCCCC",
"CCCCCCCCCCCCCCCCn#nCCCCCCCCCCCCC",
"CCCCCCCCCCCCCcghokgnCCCCCCCCCCCC",
"CCCCCCCCCCCCCeittxggnCCCCCCCCCCC",
"CCCCCCcdCCCCCbtttrmg#CCCCCCCCCCC",
"CCCCCcecCCCCdbtttxmgdCCCCCCCCCCC",
"CCCCCgadCCCCkitttymkdCCCCCCCCCCC",
"CCCCCbacCCcabbttryg#dCCCCCdnCCCC",
"CCCC#b#nCcabbbitojg##cCCCdb#CCCC",
"CCCCga#cabbbbbbbfag#eacCCkbgCCCC",
"CCCCbaebbbbbbbbffegdgbaCCkb#CCCC",
"CCC#b#bbbbbbbbadfegdabbaCeb#CCCC",
"CCCkfebbbbbbbb#dfgkdbbbbafbdCCCC",
"CCCbeebbfaebba#dag##bbbbbbbdCCCC",
"CuwAs#dcCC#bbfccag##bbbbbbfcCCCC",
"ClpoylCCCCbfaadcag#d#abbbbfcCCCC",
"CzzBvvCCCCllegcdlkdcCn#ffbacCCCC",
"CCCCnnCCCCBBBvuBBBlnCCCdjr.CCCCC",
"CCCCCCCCCCCzBBBBBBBCCCCywttynCCC",
"CCCCCCCCCCCCCzzzzzCCCCClqvvxnCCC",
"CCCCCCCCCCCCCCCCCCCCCCCCuuvuCCCC",
"CCCCCCCCCCCCCCCCCCCCCCCCCCCCCCCC",
"CCCCCCCCCCCCCCCCCCCCCCCCCCCCCCCC",
"CCCCCCCCCCCCCCCCCCCCCCCCCCCCCCCC",
"CCCCCCCCCCCCCCCCCCCCCCCCCCCCCCCC",
"CCCCCCCCCCCCCCCCCCCCCCCCCCCCCCCC",
"CCCCCCCCCCCCCCCCCCCCCCCCCCCCCCCC",
"CCCCCCCCCCCCCCCCCCCCCCCCCCCCCCCC",
"CCCCCCCCCCCCCCCCCCCCCCCCCCCCCCCC"
};
