/* XPM */
static char *t2shl016[] = {
/* width height num_colors chars_per_pixel */
"    32    32       31            1",
/* colors */
". c #291818",
"# c #844242",
"a c #b53100",
"b c #c64200",
"c c #100800",
"d c #7b4a00",
"e c #524221",
"f c #ad8400",
"g c #393100",
"h c #8c7b00",
"i c #d6ce00",
"j c #525200",
"k c #9cad00",
"l c #001008",
"m c #006342",
"n c #00ad7b",
"o c #00c68c",
"p c #009c73",
"q c #004231",
"r c #008463",
"s c #008c6b",
"t c #106b5a",
"u c #102121",
"v c #214a5a",
"w c #4a849c",
"x c #63a5ce",
"y c #315273",
"z c #5a739c",
"A c #421821",
"B c #310810",
"C c None",
/* pixels */
"CCCCCCCCCCCCCCCCCCCCCCCCCCCCCCCC",
"CCCCCCCCCCCCCCCCCCCCCCCCCCCCCCCC",
"CCCCCCCCCCCCCggCCCCCCCCCCCCCCCCC",
"CCCCCCCCCCCCCkihCCCCCCCCCCCCCCCC",
"CCCCCCCCCCCCgiiigCCCCCCCCCCCCCCC",
"CCCCCCCCCCupokdhjCCCCCCCCCCCCCCC",
"CCCCCCCCCqonmqgccCCuqlCCCCCCCCCC",
"CCCCCCCuporqlCCCCuswwsmqqlCCCCCC",
"CCCCCCsoprquCCCCmwxxwynqqlCCCCCC",
"CCuyupnrooooooorxxxxwvnsuCCCCCCC",
"CClxztrnooooonnxxxxwymppqCCCCCCC",
"CCCAwAmooooonooxxxzyvpsrqCCCCCCC",
"CCCcvuCumoonoooonwssprrmuCCCCCCC",
"CCCCuCCCusnpppnoonpprmqqlCCCCCCC",
"CCCCCCCmmqrssnonnpsrmmuCCCCCCCCC",
"CCCCClmrrmrrponpprtmmrCCCCCCCCCC",
"CCCCCqrrrrrponpprmmmopCCCCCCCCCC",
"CCCCCCCurrrnnpsrmmroopCCCCClqCCC",
"CCCCCCCCcqtrpsmmmnooopCClrnrCCCC",
"CCCCCCCCCcAermmqnoooopCusonqCCCC",
"CCCCCCCCCCBAmmulpoooopunonmlCCCC",
"CCCCCCCCCCCBAulCuoooonoopqCCCCCC",
"CCCCCCCCCCCCcCCCCnoonoosuCCCCCCC",
"CCCCCCCCCCCCCCCCCrooonrlCCCCCCCC",
"CCCCCCCCCCCCCCCCveponmlCCCCCCCCC",
"CCCCCCCCCCCCCCCuzx#nmlCCCCCCCCCC",
"CCCCCCCCCCCCCcgjkxzuCCCCCCCCCCCC",
"CCCCCCCCCCCCcjhkiewvCCCCCCCCCCCC",
"CCCCCCCCCCCCgbfhk.vCCCCCCCCCCCCC",
"CCCCCCCCCCCCCabijCCCCCCCCCCCCCCC",
"CCCCCCCCCCCCCgdhcCCCCCCCCCCCCCCC",
"CCCCCCCCCCCCCCcCCCCCCCCCCCCCCCCC"
};
