/* XPM */
static char *t2shr003[] = {
/* width height num_colors chars_per_pixel */
"    32    32       31            1",
/* colors */
". c #7b2900",
"# c #291000",
"a c #5a3100",
"b c #7b4a00",
"c c #e7b500",
"d c #313129",
"e c #181800",
"f c #4a4a00",
"g c #5a5a00",
"h c #8c8c00",
"i c #bdbd00",
"j c #d6de29",
"k c #001810",
"l c #004a31",
"m c #007352",
"n c #00ad7b",
"o c #00ce94",
"p c #00946b",
"q c #21bdad",
"r c #316363",
"s c #216b6b",
"t c #214a5a",
"u c #102129",
"v c #6394b5",
"w c #4a84ad",
"x c #6ba5de",
"y c #5a8cbd",
"z c #426b94",
"A c #633142",
"B c #7b394a",
"C c None",
/* pixels */
"CCCCCCCCCCCCCCCCCCCCCCCCCCCCCCCC",
"CCCCCCCCCmkCCCCCCCCCCCCCCCCCCCCC",
"CCCCCCCCClpCCCCCC#hhCCCCCCCCCCCC",
"CCCCCCCCClopCCCCCgcifCCCCCCCCCCC",
"CCCCCCCCClookCCCChcjvzCCCCCCCCCC",
"CCCCCCCCCloomCCCC#fvAdeCCCCCCCCC",
"CCCCCCCCCkoonkkCCCuBromCCCCCCCCC",
"CCCCCCCCCkooolkkCCClooouCCCCCCCC",
"CCCCCCCCCpooopumkCkoooonkCCCCCCC",
"CCCCCCCCloooonlpmknooooonkCCCCCC",
"CCCCCCCCpoooooonplnnoonoomCCCCCC",
"CCCCCCCCpoooooonpmlooomkoomCCCCC",
"CuzrCCCCknooooowwsmloolCmookCCCC",
"uvA.#CCCkpooooqxxyslnoCCkpplCCCC",
"ttAplnpooonoooqxxxwtulCCCClpCCCC",
"kkoompoooonoooqxxxyzlkCCCCCkCCCC",
"CCkonmoonoonoooyxxxztmCCCCCCCCCC",
"CCCnompooooonoooxxxwtmlCCCCCCCCC",
"CCCkonmmponooooooqyzpplkCCCCCCCC",
"CCCCnopCCkklppooooopmmlkCCCCCCCC",
"CCCCkonlCCCCCknooonppmlkCCCCCCCC",
"CCCCCnopkCCCCCmonppppplCCCCCCCCC",
"CCCCCkoolCCCCCkpmppnppmCCCCCCCCC",
"CCCCCCphhgCCCCCummppnnmCCCCCCCCC",
"CCCCCCehiiieCCCCCklmnnlCCCCCCCCC",
"CCCCCCeihbbaCCCCCCCCkllCCCCCCCCC",
"CCCCCCei.a#CCCCCCCCCCCCCCCCCCCCC",
"CCCCCCea###CCCCCCCCCCCCCCCCCCCCC",
"CCCCCCCCCCCCCCCCCCCCCCCCCCCCCCCC",
"CCCCCCCCCCCCCCCCCCCCCCCCCCCCCCCC",
"CCCCCCCCCCCCCCCCCCCCCCCCCCCCCCCC",
"CCCCCCCCCCCCCCCCCCCCCCCCCCCCCCCC"
};
