/* XPM */
static char *t2ship004[] = {
/* width height num_colors chars_per_pixel */
"    32    32       31            1",
/* colors */
". c #212121",
"# c #522121",
"a c #942929",
"b c #080000",
"c c #ce2918",
"d c #5a5239",
"e c #215242",
"f c #003121",
"g c #007352",
"h c #00c68c",
"i c #002118",
"j c #00946b",
"k c #00b584",
"l c #00d69c",
"m c #00634a",
"n c #004a39",
"o c #086352",
"p c #189484",
"q c #21bdad",
"r c #105252",
"s c #000808",
"t c #298c94",
"u c #5a94c6",
"v c #213142",
"w c #5284b5",
"x c #426b94",
"y c #6ba5e7",
"z c #395273",
"A c #101018",
"B c #63425a",
"C c None",
/* pixels */
"CCCCCCCCCCCCCgCCCCCCCCCCCCCCCCCC",
"CCCCCCCCCCCCChCCCCCCCCCCCCCCCCCC",
"CCCCCCCCCCCCnknCCCCCCCCCCCCCCCCC",
"CCCCCCCCCCCCnknCCCCCCCCCCCCCCCCC",
"CCCCCCCCCCCCmkmiCCCCCCCCCCCCCCCC",
"CCCCCCCCCCCCmkgfCCCCCCCCCCCCCCCC",
"CCCCCCCCCCCCkkjfniCCCCAuwvCCCCCC",
"CCCCCCCCCCiklkjfgnsCCCuaavCCCCCC",
"CCCAACCCCCjllkknjgsCCCelh.CCCCCC",
"CCwuxvsCCCkllhkgjgfCCihhlgCCCCCC",
"CCBcd#sCCCjhllhjkgnijhhhljsCCCCC",
"CCAljjgnnCjhlllkkgnkhhhhhkiCCCCC",
"CCClkjhhhhkhllqtpjmkhhhhlhmCCCCC",
"CCCjkghhhhhhlluuwegghhhgjljCCCCC",
"CCCkkmhhhhhhlqyyuzgnhhjsilkiCCCC",
"CCCjkgkhhhhhlqyyuxonkhfCshhnCCCC",
"CCCghnsmhhhhllyyyxrnkfCCCjlnCCCC",
"CCCghgsCfkhkhquyuwegiCCCCbknCCCC",
"CCCghgCCCCmkhlqyuxogfCCCCCimCCCC",
"CCCnlgsCCCCmhlhqqpkgnCCCCCCnCCCC",
"CCCbjesCCCCnhllhkjjgnsCCCCCCCCCC",
"CCCCnnCCCCCihhhhhjjgnsCCCCCCCCCC",
"CCCCinCCCCCijkkhhkjmiCCCCCCCCCCC",
"CCCCCCCCCCCCfjkhhjjfCCCCCCCCCCCC",
"CCCCCCCCCCCCCijkhkgiCCCCCCCCCCCC",
"CCCCCCCCCCCCCCCgkknCCCCCCCCCCCCC",
"CCCCCCCCCCCCCCCCnkiCCCCCCCCCCCCC",
"CCCCCCCCCCCCCCCCCiCCCCCCCCCCCCCC",
"CCCCCCCCCCCCCCCCCCCCCCCCCCCCCCCC",
"CCCCCCCCCCCCCCCCCCCCCCCCCCCCCCCC",
"CCCCCCCCCCCCCCCCCCCCCCCCCCCCCCCC",
"CCCCCCCCCCCCCCCCCCCCCCCCCCCCCCCC"
};
