/* XPM */
static char *t2ship013[] = {
/* width height num_colors chars_per_pixel */
"    32    32       30            1",
/* colors */
". c #105239",
"# c #316352",
"a c #001810",
"b c #007352",
"c c #008c63",
"d c #00ad7b",
"e c #00c68c",
"f c #089c73",
"g c #086b52",
"h c #004231",
"i c #00634a",
"j c #428c7b",
"k c #004a39",
"l c #08a584",
"m c #10bda5",
"n c #21847b",
"o c #182121",
"p c #39adb5",
"q c #215263",
"r c #29394a",
"s c #426384",
"t c #6ba5de",
"u c #5a8cbd",
"v c #5284b5",
"w c #426b94",
"x c #315273",
"y c #8c8cbd",
"z c #946b7b",
"A c #210810",
"B c None",
/* pixels */
"BBBBBBBBBBBBBBBBBBBBBBBBBBBBBBBB",
"BBBBBBBBBBBBBBBBBBBBBBBBBBBBBBBB",
"BBBBBBBBBBBBBBBBBBBBBBBBBBBBBBBB",
"BBBBBBBBBBBBBBBBBBBBBBBBBBBBBBBB",
"BBBBBBBBBBBBBbkaBBBBBBBBBBBBBBBB",
"BBBBBBBBBBBBcmjlkaBBBBBBBBBBBBBB",
"BBBBBBBBBBBdetuscbBBBBBBBBBBBBBB",
"BBBBBBBBBBbepttuqbhBBBBBbBBBBBBB",
"BBBBBBBBBBcepttuxghBBBBaecBBBBBB",
"BBBBBBBBBBiemttuxghBBBBaedaBBBBB",
"BBBBhBBBBBkemttuxcidkBBBeekBBBBB",
"BBBaehBBBBheempvlcbbefkBcmbBBBBB",
"BBBkeiBBBkeeemeeedbieeefbeeaBBBB",
"BBBkecBBkeeeemeeddchdeeeeeekBBBB",
"BBBoecaaeeeeemedfdcideeeeeebBBBB",
"BBBoecheeeedeemdcfcbbeeeeemdaBBB",
"BBBaedceeeeeemeedifbkbddeeedhBBB",
"BBBBedfeeeefemeedccchBBaokzyusBB",
"BBBBedceeecaemeddfh..BBBBrunqraB",
"BBBBddbedoBaeddddeoAAaBBBBrAoaBB",
"BBBB#j#hBBBBgro..oAAAABBBBBBBBBB",
"BBBqttwrBBBBoAAAAAAAABBBBBBBBBBB",
"BBBwn#oqBBBBBAAAAAABBBBBBBBBBBBB",
"BBBaoAoBBBBBBBBBBBBBBBBBBBBBBBBB",
"BBBBBBBBBBBBBBBBBBBBBBBBBBBBBBBB",
"BBBBBBBBBBBBBBBBBBBBBBBBBBBBBBBB",
"BBBBBBBBBBBBBBBBBBBBBBBBBBBBBBBB",
"BBBBBBBBBBBBBBBBBBBBBBBBBBBBBBBB",
"BBBBBBBBBBBBBBBBBBBBBBBBBBBBBBBB",
"BBBBBBBBBBBBBBBBBBBBBBBBBBBBBBBB",
"BBBBBBBBBBBBBBBBBBBBBBBBBBBBBBBB",
"BBBBBBBBBBBBBBBBBBBBBBBBBBBBBBBB"
};
