/* XPM */
static char *t2shl010[] = {
/* width height num_colors chars_per_pixel */
"    32    32       31            1",
/* colors */
". c #7b2118",
"# c #6b1800",
"a c #9c5a00",
"b c #c69c00",
"c c #5a5a42",
"d c #212100",
"e c #4a4a00",
"f c #5a5a00",
"g c #848400",
"h c #bdbd00",
"i c #efef00",
"j c #9cb55a",
"k c #637352",
"l c #219452",
"m c #005239",
"n c #00c68c",
"o c #002118",
"p c #009c73",
"q c #08b594",
"r c #108c7b",
"s c #081010",
"t c #109ca5",
"u c #427394",
"v c #5a94c6",
"w c #426384",
"x c #6ba5e7",
"y c #6b9cd6",
"z c #4a73a5",
"A c #294263",
"B c #a56384",
"C c None",
/* pixels */
"CCCCCCCCCCCCCCCCCCCCCCCCCCCCCCCC",
"CCCCCCCCCCCCCCCCCCCCCCCCCCCCCCCC",
"CCCCCCCCCCCCCCCCCCCCCCCCCCCCCCCC",
"CCCCCCCCCCCCCCCCCCCCCCCCCCCCCCCC",
"CCCCCCCCCCCCoppnmmoCCCCCCCCCCCCC",
"CCCCCCCCCCCCCCpnnnnnmmCCCsCCCCCC",
"CCCCCCCCCCCCCCComppqnnnmkwCddCCC",
"CCCCCCCCsoCCCCCCompnnnnkBjiiiCCC",
"CCCCCCsprrrAoCopnnnnnqp.vgihbCCC",
"CCCCoppqyxyvzrppnnnnnpooAdbi#CCC",
"CCConnnqxxxyyzwppppppoCCCCdgCCCC",
"CCCCpnnnvyyyvvwpnpppppmpmCCCCCCC",
"CCCConnnntzzzuwnnnnnnnnnnnnoCCCC",
"CCCCCmnnnnqqnqnnnnnnnnnnnnpCCCCC",
"CCCCCopppnnnqnnnnnnnnnnnnmCCCCCC",
"CCCCCCmpppppnnnnnnnnnnnnmCCCCCCC",
"CCCCCCCsomppppnnnnnnnnnmCCCCCCCC",
"CCCCCCCCCCpnpppppnqnnpoCCCCCCCCC",
"CCCCdCCCCConnnnpppppnmCCCCCCCCCC",
"CCCdedCCCCCpnnnnnmmppCCCCCCCCCCC",
"CCdfeedCCCCmnnnnnoCssCCCCCCCCCCC",
"CCfafelpmoConnnnnmCCCCCCCCCCCCCC",
"CCdghfqnnnpmpnnnnmCCCCCCCCCCCCCC",
"CCdeddmmqnnnnpppnmsCCCCCCCCCCCCC",
"CCCCCCCCCmmnnnnnpckACCCCCCCCCCCC",
"CCCCCCCCCCCCmpnnnzysCCCCCCCCCCCC",
"CCCCCCCCCCCCCCompBzCCCCCCCCCCCCC",
"CCCCCCCCCCCCCCCCCkACCCCCCCCCCCCC",
"CCCCCCCCCCCCCCCCCAsCCCCCCCCCCCCC",
"CCCCCCCCCCCCCCCCCCCCCCCCCCCCCCCC",
"CCCCCCCCCCCCCCCCCCCCCCCCCCCCCCCC",
"CCCCCCCCCCCCCCCCCCCCCCCCCCCCCCCC"
};
