/* XPM */
static char *t2shb005[] = {
/* width height num_colors chars_per_pixel */
"    32    32       31            1",
/* colors */
". c #734a42",
"# c #9c2900",
"a c #f74a00",
"b c #ce4a00",
"c c #ce9c00",
"d c #312908",
"e c #efd600",
"f c #a59c00",
"g c #424200",
"h c #5a5a00",
"i c #636300",
"j c #7b7b00",
"k c #636b4a",
"l c #6b8c18",
"m c #7bce39",
"n c #395239",
"o c #004229",
"p c #001810",
"q c #006b4a",
"r c #00c68c",
"s c #008463",
"t c #29a59c",
"u c #102129",
"v c #4a94c6",
"w c #426384",
"x c #527ba5",
"y c #314a63",
"z c #6ba5de",
"A c #213952",
"B c #6394ce",
"C c None",
/* pixels */
"CCCCCCCCCCCCCCCCpoCCCCCCCCCCCCCC",
"CCCCCCCCCCCCCCCCqqCCCCCCCCCCCCCC",
"CCCCCCCCCCCCCCCCroCCCCCCCCCCCCCC",
"CCCCCCCCCCCCCCCoroCCCCCCCCCCCCCC",
"CCCCCCCCCCCCCCCqsopCCCCCCCCCCCCC",
"CCCCCuuCCCCCCCCrsooCCCCCCCCCCCCC",
"CCCCAxxwCCCCCrsrqooCCCCCCCCCCCCC",
"CCCCA.knuCCCqrrrqoqoCCCCCCCCCCCC",
"CCCCCrsouCCCrrrrqqsqCCCCCCuCCCCC",
"CCCCorqrsqCCrrrrorsqpCCCABBxpCCC",
"CCCCsrsrrrsqrrrrsssopCCCd...uCCC",
"CCCCrssrrrrrrrrrrssopppqrrrdpCCC",
"CCCorqrrrrrrrrvtrsqorrrrrrruCCCC",
"CCCsroprrrrrrBvxAsqorrrrrrspCCCC",
"CCCrspCorrrrtzBxysqqrrrrrrrpCCCC",
"CCqrspCCsrrrzzBxyqoqrrrrsrsCCCCC",
"CCdluCCCCsrrzzzxAsosrrspqrsCCCCC",
"CicljCCCCprrzzBwAqqrsoCCqrsCCCCC",
"jfffhCCCCqrrvzvysqoopCCCsrqCCCCC",
"fb#bedCCCqrrrttssqoCCCCCrrqCCCCC",
"CC#aegCCCrrrrrrssqpCCCCCllgCCCCC",
"CCCCCCCCCqrrrrrssqpCCCChemfCCCCC",
"CCCCCCCCCprrrrrsqopCCChcccfdCCCC",
"CCCCCCCCCCsrrrsqqpCCCCic#bffCCCC",
"CCCCCCCCCCprrrqqCCCCCCC#aabgCCCC",
"CCCCCCCCCCCsrsoCCCCCCCCCCCCCCCCC",
"CCCCCCCCCCCproCCCCCCCCCCCCCCCCCC",
"CCCCCCCCCCCCCCCCCCCCCCCCCCCCCCCC",
"CCCCCCCCCCCCCCCCCCCCCCCCCCCCCCCC",
"CCCCCCCCCCCCCCCCCCCCCCCCCCCCCCCC",
"CCCCCCCCCCCCCCCCCCCCCCCCCCCCCCCC",
"CCCCCCCCCCCCCCCCCCCCCCCCCCCCCCCC"
};
