/* XPM */
static char *t2shb001[] = {
/* width height num_colors chars_per_pixel */
"    32    32       31            1",
/* colors */
". c #8c4a39",
"# c #942100",
"a c #312118",
"b c #6b3100",
"c c #9c6300",
"d c #e7c600",
"e c #181800",
"f c #424200",
"g c #636300",
"h c #7b7b00",
"i c #c6d610",
"j c #84bd18",
"k c #637352",
"l c #63ce4a",
"m c #001810",
"n c #004a31",
"o c #087352",
"p c #008c63",
"q c #00c68c",
"r c #21b5a5",
"s c #187b73",
"t c #294a5a",
"u c #427394",
"v c #6bade7",
"w c #6ba5de",
"x c #5a8cbd",
"y c #6394ce",
"z c #7b6b94",
"A c #c6425a",
"B c #841821",
"C c None",
/* pixels */
"CCCCCCCCCCCCCCCCCCCCCCCCCCCCCCCC",
"CCCCCCCCCCCCCCCCCCCCCCCCCCCCCCCC",
"CCCCCCCCCCCCCCCCCCCCCCCCCCCCCCCC",
"CCCCCCCCCCCCtuCCCCCCCCCCCCCCCCCC",
"CCCCCCCCCCCCuAonmCCCCCCCCCCCCCCC",
"CCCCmCCCCCCCx.qqqqnnCCCCCCCCCCCC",
"CCCCpqonCCCCtBqqqqqqqonCCCfCCCCC",
"CCCCmpppnCCCCmqqqqppqqqjddfCCCCC",
"CCCCCoppponnCmqqqqpCnnojid#CCCCC",
"CCCCCmppppppppqqqqqmCCChddeCCCCC",
"CCCCCCpppppppppppqqpCCCChcCCCCCC",
"CCCCCCmpqqqqppqqrxxrsmCCCfCCCCCC",
"CCCCCCCpqqqqqqqrvvwwxusnmCCCCCCC",
"CCCCCCCoqqqqqqqrwvvwwxupoCCCCCCC",
"CCCCCCCqqqqqqqqqrxyyxxusonCCCCCC",
"CCCCCCCppqqqqqqqqrruuuuqoomCCCCC",
"CCCCCCCnopppqqqqqqqqqqqpppnmCCCC",
"CCCCCCCCCmqqpppqqqqqqqqppppnCCCC",
"CCCCCCCCCpqqqqqpppqqqqqopoopmCCC",
"CCCCmmCmpqqqqqqqqppppqpoonnCCCCC",
"CCCayBBqqqqqqqqqnCmnopnnCCCCCCCC",
"CCCuz.pqqqqqqqnCCCCCCmCCCCCCCCCC",
"CCCx.kqqqpqqmCCCCCCCCCCCCCCCCCCC",
"CCCuanoqqqqqpnnCCCCCCCCCCCCCCCCC",
"CCCCmCCCnpqqqqqpnegdgCCCCCCCCCCC",
"CCCCCCCCCCnnqqqqliddcCCCCCCCCCCC",
"CCCCCCCCCCCCCnnqdidd#CCCCCCCCCCC",
"CCCCCCCCCCCCCCCCeiddeCCCCCCCCCCC",
"CCCCCCCCCCCCCCCCCedbeCCCCCCCCCCC",
"CCCCCCCCCCCCCCCCCCgaCCCCCCCCCCCC",
"CCCCCCCCCCCCCCCCCCCCCCCCCCCCCCCC",
"CCCCCCCCCCCCCCCCCCCCCCCCCCCCCCCC"
};
