/* XPM */
static char *t2shl001[] = {
/* width height num_colors chars_per_pixel */
"    32    32       31            1",
/* colors */
". c #100800",
"# c #312100",
"a c #4a3100",
"b c #c68c00",
"c c #5a5200",
"d c #636300",
"e c #9c9c00",
"f c #c6ce00",
"g c #849408",
"h c #638c18",
"i c #a5c68c",
"j c #001810",
"k c #004a31",
"l c #007352",
"m c #00c68c",
"n c #009c73",
"o c #08a58c",
"p c #10635a",
"q c #10b5a5",
"r c #319ca5",
"s c #396b84",
"t c #4a8cad",
"u c #6bade7",
"v c #5a94c6",
"w c #6ba5de",
"x c #4a739c",
"y c #293952",
"z c #4a4a52",
"A c #9c425a",
"B c #631829",
"C c None",
/* pixels */
"CCCCCCCCCCCCCCCCCCCCCCCCCCCCCCCC",
"CCCCCCCCCCCCCCCCCCCCCCCCCCCCCCCC",
"CCCCCCCCCCCCCCCCCCCCCCCCCCCCCCCC",
"CCCCCCCCCCCCysCCCCCCCCCCCCCCCCCC",
"CCCCCCCCCCCCsAlkjCCCCCCCCCCCCCCC",
"CCCCjCCCCCCCvBmmmolkCCCCCCCCCCCC",
"CCCClnkkCCCCyammmmmmmlkCC.cCCCCC",
"CCCCjnmolCCCCjmmmmlnmmmeeeaCCCCC",
"CCCCCnnnmnkjCkmmmmnCjklhfb.CCCCC",
"CCCCCjmnmnmlllnmmmmjCCCdge.CCCCC",
"CCCCCClmnmmmnnnnnomnCCCCccCCCCCC",
"CCCCCCjmmmmmmmmoottrpjCCC.CCCCCC",
"CCCCCCCnmmmmmmmquuuwvxpkjCCCCCCC",
"CCCCCCClmmmmmmmqwuuwwvsnkCCCCCCC",
"CCCCCCCmmmmmmmmmqvvvvvxpkkCCCCCC",
"CCCCCCCnnommmmmmmqrxxxsnlkCCCCCC",
"CCCCCCCkllnnommmmmmmmmmnkllCCCCC",
"CCCCCCCCCjmnnnnommmmmmmlllllCCCC",
"#d#CCCCCCnmmmmnnnnnmmmnklllnjCCC",
"cda##jCjnmmmmmmmmlnnnnlkkkkCCCCC",
"gffgvB.nmmmmmmmnkCjklnjkCCCCCCCC",
"bbfixznmnmmmmokCCCCCCjCCCCCCCCCC",
"egdtzzmmmnnojCCCCCCCCCCCCCCCCCCC",
"CCCzyklmmmmmnljCCCCCCCCCCCCCCCCC",
"CCCCjCCCknmmmmmnkCCCCCCCCCCCCCCC",
"CCCCCCCCCCjlnmmmlkCCCCCCCCCCCCCC",
"CCCCCCCCCCCCCjloklkCCCCCCCCCCCCC",
"CCCCCCCCCCCCCCCCCCCCCCCCCCCCCCCC",
"CCCCCCCCCCCCCCCCCCCCCCCCCCCCCCCC",
"CCCCCCCCCCCCCCCCCCCCCCCCCCCCCCCC",
"CCCCCCCCCCCCCCCCCCCCCCCCCCCCCCCC",
"CCCCCCCCCCCCCCCCCCCCCCCCCCCCCCCC"
};
