/* XPM */
static char *t2shl012[] = {
/* width height num_colors chars_per_pixel */
"    32    32       31            1",
/* colors */
". c #ad4242",
"# c #180808",
"a c #631800",
"b c #f74200",
"c c #734200",
"d c #b58c00",
"e c #7b6b00",
"f c #635a00",
"g c #d6c600",
"h c #424200",
"i c #f7f700",
"j c #84ad08",
"k c #4a7342",
"l c #296329",
"m c #001810",
"n c #005239",
"o c #00ce94",
"p c #007b5a",
"q c #103129",
"r c #086b52",
"s c #00a57b",
"t c #21b5a5",
"u c #101818",
"v c #31738c",
"w c #5a94bd",
"x c #21394a",
"y c #395a73",
"z c #6ba5e7",
"A c #6b6384",
"B c #5a5263",
"C c None",
/* pixels */
"CCCCCCCCCCCCCCCCCCCCCCCCCCCCCCCC",
"CCCCCCCCCCCCCCCCCCCCCCCCCCCCCCCC",
"CCCCCCCCCCCCCCCCCCCCCCCCCCCCCCCC",
"CCCCCCCCCCCCCCCCCCCCCCCCCCCCCCCC",
"CCCCCCCCCCCCCCCCCCCCCCCCCCCCCCCC",
"CCCCCCCCCrprnnqCCCCCmrmCCCCCCCCC",
"CCCCCCCCCsowwvrqCCCCCoomCCCCCCCC",
"CCCCCCCCqotzzwynmCCCCposmCCCCCCC",
"CCCCCCCCroozzzwxnCCCCmsosCCCCCCC",
"CCCCCCCCsotwzzwyprnnnCmoopCCCCCC",
"CCCCCCCCpootwzwyrrnoooosoonCCCCC",
"CCChhCCCmsootwwvssrpooooooomCCCC",
"CfefhCCCCpooooooospnsoooooosxmCC",
"hddehCCCCrsoooooosspnosooos.zvCC",
"hggjlCCCCosooooooossrnprnuBwkjCC",
"CCuosqCCnoosooooooosrnCCCCykdigf",
"CCCsopCCroossooooooosnmCCCC#cigd",
"CCCmosnmooooooooooooop#CCCCCecba",
"CCCCsopposooosooooooooqCCCCCfaaa",
"CCCCmooroooopmsoosspq#CCCCCCCCCC",
"CCCCCsossoosCCpoqq###CCCCCCCCCCC",
"CCCCCmosposCCCmn###CCCCCCCCCCCCC",
"CCCCCCsospqCCCC##CCCCCCCCCCCCCCC",
"CCCCCCmo.AxCCCCCCCCCCCCCCCCCCCCC",
"CCCCCCCwzwquCCCCCCCCCCCCCCCCCCCC",
"CCCCCCuwrquCCCCCCCCCCCCCCCCCCCCC",
"CCCCCCCxqCCCCCCCCCCCCCCCCCCCCCCC",
"CCCCCCCCCCCCCCCCCCCCCCCCCCCCCCCC",
"CCCCCCCCCCCCCCCCCCCCCCCCCCCCCCCC",
"CCCCCCCCCCCCCCCCCCCCCCCCCCCCCCCC",
"CCCCCCCCCCCCCCCCCCCCCCCCCCCCCCCC",
"CCCCCCCCCCCCCCCCCCCCCCCCCCCCCCCC"
};
