/* XPM */
static char *t2ship006[] = {
/* width height num_colors chars_per_pixel */
"    32    32       31            1",
/* colors */
". c #7b4a4a",
"# c #5a2929",
"a c #392118",
"b c #63634a",
"c c #001008",
"d c #007352",
"e c #00ad7b",
"f c #00c68c",
"g c #00ce94",
"h c #002118",
"i c #005a42",
"j c #00946b",
"k c #009c73",
"l c #004a39",
"m c #10bd9c",
"n c #08846b",
"o c #10ad94",
"p c #084a42",
"q c #183942",
"r c #398cad",
"s c #294252",
"t c #396384",
"u c #6ba5de",
"v c #4a739c",
"w c #5284b5",
"x c #6394ce",
"y c #101829",
"z c #9c526b",
"A c #633142",
"B c #b52131",
"C c None",
/* pixels */
"CCCCCCCCCCCCCCCCCCCCCCCCCCCCCCCC",
"CCCCCCCCCCCCCCCCCCCCdcCCCCCCCCCC",
"CCCCCCCCCCCCCCCCCCClncCCCCCCCCCC",
"CCCCCCCCysCCCCCCCCCjicCCCCCCCCCC",
"CCCCCCCCszvhCCCCCCddlcCCCCCCCCCC",
"CCCCCCCCnbAqCCCCCckiicCCCCCCCCCC",
"CCCCCCClfnayCCClkkjlicCCCCCCCCCC",
"CCCCCChfjjkhCClfgklilcCCCCCCCCCC",
"CCCCChkkjfgkhhefgjlijcCCCCCCCCCC",
"CCCCCkedgffgkjgggldkjicCCCCCCCCC",
"CCCCdedlfgfgefggeeejdicCCCCCCCCC",
"CCClfjhCkfgefggffejjilcCCCCCCCCC",
"CCCejhcCkgfemrvnfkjilcCCCCvtsCCC",
"CCheqCCChffoxxvsnjdiilhCCy.BwsCC",
"CCihCCCCheouuxvsjjilkggfgkff#sCC",
"CChCCCCChfruuwtsjdldgffgfffjqhCC",
"CCCCCCCCjguuxvspdiifffgfffelCCCC",
"CCCCCCCdfguuwtsjiljffgffffncCCCC",
"CCCCCCCfgfmwvnjdiiffeeldgelCCCCC",
"CCCCCCCfggmfkjdilllhcCCjgdCCCCCC",
"CCCCCCCkgggfkjdlcCCCCClgehcCCCCC",
"CCCCCCCkggfekdilCCCCCCefdcCCCCCC",
"CCCCCCCdggekjdlcCCCCClnehCCCCCCC",
"CCCCCCCdgejdlllCCCCCClfqCCCCCCCC",
"CCCCCCClfdlccCCCCCCCCdlCCCCCCCCC",
"CCCCCCChhcCCCCCCCCCCCcCCCCCCCCCC",
"CCCCCCCCCCCCCCCCCCCCCCCCCCCCCCCC",
"CCCCCCCCCCCCCCCCCCCCCCCCCCCCCCCC",
"CCCCCCCCCCCCCCCCCCCCCCCCCCCCCCCC",
"CCCCCCCCCCCCCCCCCCCCCCCCCCCCCCCC",
"CCCCCCCCCCCCCCCCCCCCCCCCCCCCCCCC",
"CCCCCCCCCCCCCCCCCCCCCCCCCCCCCCCC"
};
