/* XPM */
static char *t2shr017[] = {
/* width height num_colors chars_per_pixel */
"    32    32       31            1",
/* colors */
". c #ad4242",
"# c #6b1818",
"a c #7b2900",
"b c #7b7300",
"c c #dece00",
"d c #a5a521",
"e c #080800",
"f c #313100",
"g c #4a4a00",
"h c #949400",
"i c #ffff00",
"j c #526b5a",
"k c #298463",
"l c #08a56b",
"m c #086b4a",
"n c #001810",
"o c #00a573",
"p c #00c68c",
"q c #214239",
"r c #108c6b",
"s c #003929",
"t c #005a42",
"u c #008463",
"v c #21635a",
"w c #10ad9c",
"x c #6bade7",
"y c #4a7ba5",
"z c #528cbd",
"A c #6394ce",
"B c #42638c",
"C c None",
/* pixels */
"CCCCCCCCCCCCCCCCCCCCCCCCCCCCCCCC",
"CCCCCCCCCCCCCCCCCCCCCCCCCCCCCCCC",
"CCCCCCCCCCCCCCCCCCCCCCCCCCCCCCCC",
"CCCCCCCCCCCCCCCCCCCCCCCCCCCCCCCC",
"CCCCCCCCCCCCCCnssnCCCCCCCCCCCCCC",
"CCCCCCCCCCCnropposCCCCCCCCCCCCCC",
"CCCCCqsnslppooumnCCCCCCCCCCCCCCC",
"CCfffkykpoooonCCCCCCCCCCCCCCCCCC",
"Ceahhdz#pppppputCCCnmmrnCCCCCCCC",
"CCabhcjnmppppppppryAAyBmsnCCCCCC",
"CCaggfeeCtpppooozxxAAyBmsttnCCCC",
"CCeeeCnssnoooopwxxAAyBvpmstnCCCC",
"CCCnmrlutuouopowAAzyBvpoosnCCCCC",
"CCCnmuurlrooopppporooooousCCCCCC",
"CCCCCtuurropppppppwoooluunCCCCCC",
"CCCCCCsuloppppoooolruumttCCCCCCC",
"CCCCCCCsopooooooruummtssCCCCCCCC",
"CCCCCCCCnrooouuummmopCCCCCCCCCCC",
"CCCCCCCCCqruummmopppuCCCCCffCCCC",
"CCCCCCCCCnmttsppppppsCCCCgicfCCC",
"CCCCCCCCCCssCspppppuCCCCfiiibeCC",
"CCCCCCCCCCCCCnppppptCnsuqicibeeC",
"CCCCCCCCCCCCCtpppposupppkhicceCC",
"CCCCCCCCCCCCCtpopoppppoutfgbgCCC",
"CCCCCCCCCCCvBsopppportnnCCCCCCCC",
"CCCCCCCCCCCvA.ppootsCCCCCCCCCCCC",
"CCCCCCCCCCCnA#umsnCCCCCCCCCCCCCC",
"CCCCCCCCCCCCyBCCCCCCCCCCCCCCCCCC",
"CCCCCCCCCCCCnvCCCCCCCCCCCCCCCCCC",
"CCCCCCCCCCCCeCCCCCCCCCCCCCCCCCCC",
"CCCCCCCCCCCCCCCCCCCCCCCCCCCCCCCC",
"CCCCCCCCCCCCCCCCCCCCCCCCCCCCCCCC"
};
