/* XPM */
static char *t2shl008[] = {
/* width height num_colors chars_per_pixel */
"    32    32       31            1",
/* colors */
". c #100000",
"# c #a53931",
"a c #633929",
"b c #732100",
"c c #4a2900",
"d c #312900",
"e c #635200",
"f c #736b00",
"g c #393931",
"h c #cece00",
"i c #dede00",
"j c #738c52",
"k c #397b18",
"l c #00845a",
"m c #00c68c",
"n c #002118",
"o c #009c73",
"p c #004a39",
"q c #10736b",
"r c #107373",
"s c #429cb5",
"t c #294a5a",
"u c #5284ad",
"v c #426b8c",
"w c #426384",
"x c #6394c6",
"y c #6ba5de",
"z c #081018",
"A c #101821",
"B c #5a5a7b",
"C c None",
/* pixels */
"CCCCCCCCCCCCCCCCCCCCCCCCCCCCCCCC",
"CCCCCCCCCCCCCCCCCCCC.CCCCCCCCCCC",
"CCCCCCCCCCCCCCCCAtChibCCCCCCCCCC",
"CCCCCCCCCCCCCCCCAujiih.CCCCCCCCC",
"CCCCCCCCCCCCnpomm#vfffCCCCCCCCCC",
"CCCCCCCCnnlommoolgwcddCCCnnCCCCC",
"CCCCCCCpmmmoolmmmzCCCCnommpCCCCC",
"CCCCCnoooppnlmmmmCCCCnmmmoCCCCCC",
"CCCCCCCCnCCpmmmmmnnlmlmmmpCCCCCC",
"CCCCCCCCCCCommmooommommmmCCCCCCC",
"CCCCCCCCCCpmooommmmmmmmmpCCCCCCC",
"CCCCCCCnnqusuvrmmmmmmmmmCCCCCCCC",
"CCCCCClosyyxxuwommmmmmmlCCCCCCCC",
"CCCCClmsyyyxuvtmmmmoooopCCCCCCCC",
"CCCCnmmxyyuuwtomoooooolpCCCCCCCC",
"CCCCommmsuwrtoooooolllpnCCCCCCCC",
"CCClmmmmmoooooolllpppnnzCCCCCCCC",
"CCnmmmmmoooolllllpmmonCCCCCCCCCC",
"CCnoomoooollllpommmmmonCCCCCCCCC",
"CCCCnplollppnommmmmmmmon.vACCCCC",
"CCCCCCCnlnnCCCnommmmmmmogBuCCCCC",
"CCCCCCCCCCCCCCCCnlommommm#xACCCC",
"CCCCCCCCCCCCCCCCCClommmmoavgCCCC",
"CCCCCCCCCCCCCCnnlmmmmolpzztzCCCC",
"CCCCCCCCCCedd.ommmolpzCCCCCCCCCC",
"CCCCCCCCCCccekomlpnzCCCCCCCCCCCC",
"CCCCCCCCCCefdcknzCCCCCCCCCCCCCCC",
"CCCCCCCCCCbfedCCCCCCCCCCCCCCCCCC",
"CCCCCCCCCCCedCCCCCCCCCCCCCCCCCCC",
"CCCCCCCCCCCdCCCCCCCCCCCCCCCCCCCC",
"CCCCCCCCCCCCCCCCCCCCCCCCCCCCCCCC",
"CCCCCCCCCCCCCCCCCCCCCCCCCCCCCCCC"
};
