/* XPM */
static char *t2ship001[] = {
/* width height num_colors chars_per_pixel */
"    32    32       31            1",
/* colors */
". c #5a2921",
"# c #5a2118",
"a c #9c4231",
"b c #637352",
"c c #001008",
"d c #00c68c",
"e c #002118",
"f c #009c73",
"g c #00b584",
"h c #10bd94",
"i c #004231",
"j c #00634a",
"k c #008463",
"l c #10736b",
"m c #29a5a5",
"n c #184a5a",
"o c #102129",
"p c #4a8cad",
"q c #426384",
"r c #4a739c",
"s c #5a8cbd",
"t c #081018",
"u c #6ba5e7",
"v c #6394ce",
"w c #293952",
"x c #7b6b94",
"y c #312939",
"z c #8c4a63",
"A c #c6425a",
"B c #841821",
"C c None",
/* pixels */
"CCCCCCCCCCCCCCCCCCCCCCCCCCCCCCCC",
"CCCCCCCCCCCCCCCCCCCCCCCCCCCCCCCC",
"CCCCCCCCCCCCCCCCCCCCCCCCCCCCCCCC",
"CCCCCCCCCCCCwrCCCCCCCCCCCCCCCCCC",
"CCCCCCCCCCCCqAkicCCCCCCCCCCCCCCC",
"CCCCeCCCCCCCsadddgjiCCCCCCCCCCCC",
"CCCCkgkiCCCCn.dddddddkiCCCCCCCCC",
"CCCCekffiCCCCeddddkfgddjCCCCCCCC",
"CCCCCkkffjiiCeddddfCiijjjCCCCCCC",
"CCCCCcfkffkkkkgddddeCCCCCCCCCCCC",
"CCCCCCkfkffkfffffgdfCCCCCCCCCCCC",
"CCCCCCcfgfgffkgghppmncCCCCCCCCCC",
"CCCCCCCkdddddddmuuuuvrlieCCCCCCC",
"CCCCCCCkdddddddhuuuuusrfjcCCCCCC",
"CCCCCCCgdddddddhhsvvssrljiCCCCCC",
"CCCCCCCffgdddddddhmrrrqgkjcCCCCC",
"CCCCCCCijkffgddddddddddgkkjcCCCC",
"CCCCCCCCCeggfffgdgdddddkkkkjCCCC",
"CCCCCCCCCfddddgfffgdddfkkkkkcCCC",
"CCCCtoCefddddddddkkffgkjjiicCCCC",
"CCCovB#fdddddddficeijkiicCCCCCCC",
"CCCqxagggddddficCCCCCccCCCCCCCCC",
"CCCpzbdddfggecCCCCCCCCCCCCCCCCCC",
"CCCqyijdddddfjiCCCCCCCCCCCCCCCCC",
"CCCCtCCCjkddddgfiCCCCCCCCCCCCCCC",
"CCCCCCCCCCejgdddfiCCCCCCCCCCCCCC",
"CCCCCCCCCCCCCijgjkicCCCCCCCCCCCC",
"CCCCCCCCCCCCCCCCCCCCCCCCCCCCCCCC",
"CCCCCCCCCCCCCCCCCCCCCCCCCCCCCCCC",
"CCCCCCCCCCCCCCCCCCCCCCCCCCCCCCCC",
"CCCCCCCCCCCCCCCCCCCCCCCCCCCCCCCC",
"CCCCCCCCCCCCCCCCCCCCCCCCCCCCCCCC"
};
