/* XPM */
static char *t2shf003[] = {
/* width height num_colors chars_per_pixel */
"    32    32       31            1",
/* colors */
". c #6b2121",
"# c #ffd600",
"a c #313100",
"b c #636300",
"c c #ceef18",
"d c #526300",
"e c #8cad10",
"f c #636b5a",
"g c #5ab539",
"h c #317b31",
"i c #083118",
"j c #001810",
"k c #007352",
"l c #009c73",
"m c #00bd8c",
"n c #00d69c",
"o c #004231",
"p c #089c7b",
"q c #10c6a5",
"r c #102121",
"s c #216b6b",
"t c #316b73",
"u c #4294ad",
"v c #184252",
"w c #315a6b",
"x c #6ba5de",
"y c #5284b5",
"z c #4a73a5",
"A c #52314a",
"B c #843142",
"C c None",
/* pixels */
"CCCCCCCCCCCCCCCCCCCCCCCCCCCCCCCC",
"CCCCCCCCCkjCCCCCCCCCCCCCCCCCCCCC",
"CCCCCCCCColCCCCCCCCCCCCCCCCCCCCC",
"CCCCCCCCComlCCCCCCCCCCCCCCCCCCCC",
"CCCCCCCCComleaCCCCCryzCCCCCCCCCC",
"CCCCCCCCahmpkdCCCCCyBfjCCCCCCCCC",
"CCCCCCCa#cmmlioCCCrBtnkCCCCCCCCC",
"CCCCCCCb#epmpokoCCConnmoCCCCCCCC",
"CCCCCCCb#gnmmllkrCimmmnmjCCCCCCC",
"CCCCCCCagnnnmlklkipnmmnnljCCCCCC",
"CCCCCCCCpnnnnmlmkkpmmmmmnkCCCCCC",
"CCCCCCCClmnnnnmmpkkmnmkomnkCCCCC",
"CrzwCCCCjlnnnnnuuskpmmoCknmjCCCC",
"rxA.aCCCikmnnnqxxytkpnCCjlpoCCCC",
"vAfmollmnmmmnnqxxxyvkkCCCColCCCC",
"rrpnkpmnmmmmnnqxxxxwkoCCCCCjCCCC",
"CCinmkmmmmmmmnnuxxxzvkjCCCCCCCCC",
"CCClmkpmnmmmpmnqyxxzskoCCCCCCCCC",
"CCCinmkklnmmmmnnnuyullkjCCCCCCCC",
"CCCClmkCCjikllmnnnnmlkojCCCCCCCC",
"CCCCinmoCCCCCjmnnnmlllkjCCCCCCCC",
"CCCCClmkCCCCCCkmlmlmlloCCCCCCCCC",
"CCCCCinmoCCCCCjllllmllkCCCCCCCCC",
"CCCCCCknoCCCCCCoklllmlkCCCCCCCCC",
"CCCCCCColCCCCCCCCjoklpkCCCCCCCCC",
"CCCCCCCCoCCCCCCCCCCCjooCCCCCCCCC",
"CCCCCCCCCCCCCCCCCCCCCCCCCCCCCCCC",
"CCCCCCCCCCCCCCCCCCCCCCCCCCCCCCCC",
"CCCCCCCCCCCCCCCCCCCCCCCCCCCCCCCC",
"CCCCCCCCCCCCCCCCCCCCCCCCCCCCCCCC",
"CCCCCCCCCCCCCCCCCCCCCCCCCCCCCCCC",
"CCCCCCCCCCCCCCCCCCCCCCCCCCCCCCCC"
};
