/* XPM */
static char *t2ship011[] = {
/* width height num_colors chars_per_pixel */
"    32    32       31            1",
/* colors */
". c #080808",
"# c #7b4242",
"a c #311810",
"b c #637352",
"c c #001008",
"d c #004229",
"e c #102921",
"f c #00845a",
"g c #00d694",
"h c #007352",
"i c #00c68c",
"j c #002118",
"k c #009c73",
"l c #103129",
"m c #08c69c",
"n c #004a39",
"o c #398c7b",
"p c #106b5a",
"q c #219c9c",
"r c #4a8ca5",
"s c #529cc6",
"t c #397394",
"u c #21394a",
"v c #6ba5de",
"w c #5a8cbd",
"x c #6394ce",
"y c #294263",
"z c #8c8cbd",
"A c #524252",
"B c #ad638c",
"C c None",
/* pixels */
"CCCCCCCCCCCCCCCCCCCCCCCCCCCCCCCC",
"CCCCCCCCCCCCCCCCCCCCCCCCCCCCCCCC",
"CCCCCCCCCCCCCCCCCCCCCCCCCCCCCCCC",
"CCCCCCCCCCCCCCCCCCCCCCCCCCCCCCCC",
"CCCCCCCCCCCCCCCCjhhdCCCCCCCCCCCC",
"CCCCCCCCCCCCCCCCCjgmfcCCCCCCCCCC",
"CCCCCCCCjdfnjCCCCCnigmnCCCCCCCCC",
"CCCCCChiiqsspdCCCCCekggkeCCCCCCC",
"CCCCCCkiivvvxtpjjnnhhiiginCjCCCC",
"CCCCCChggsvvvwypkiigiiiiggoruCCC",
"CCCCCCnmgmxvvxrpkfiiiiiiibBreCCC",
"CCCCCCnigmqwwwrpkkffiiikdArnCCCC",
"CCCCCCckiigmqqmmiikfffdCC.y.CCCC",
"CCCCCCCnkiigggmgiiiikknCCCCCCCCC",
"CCCCCCCCekkiigggmiikiiifCCCCCCCC",
"CCCCCCCCChikiimggmiiikiiijCCCCCC",
"CCCCCCCCChiikiimgggikiikkjCCCCCC",
"CCCnCCCCChiiikiiiggmiifeCCCCCCCC",
"CCCngfjCChiiiikkiimiflCCCCCCCCCC",
"CCCjgmkdChiiiiifkiiea.CCCCCCCCCC",
"CCCCdigknfiiiifCnkh.CCCCCCCCCCCC",
"CCCCCdigifkiiinCCel.CCCCCCCCCCCC",
"CCCCCCjkmmfiimcCCCCCCCCCCCCCCCCC",
"CCCCCCCckgifkhCCCCCCCCCCCCCCCCCC",
"CCCCCCCCChmmk#y.CCCCCCCCCCCCCCCC",
"CCCCCCCCCCngbvtcCCCCCCCCCCCCCCCC",
"CCCCCCCCCCCazseCCCCCCCCCCCCCCCCC",
"CCCCCCCCCCCuweCCCCCCCCCCCCCCCCCC",
"CCCCCCCCCCCCl.CCCCCCCCCCCCCCCCCC",
"CCCCCCCCCCCCCCCCCCCCCCCCCCCCCCCC",
"CCCCCCCCCCCCCCCCCCCCCCCCCCCCCCCC",
"CCCCCCCCCCCCCCCCCCCCCCCCCCCCCCCC"
};
