/* XPM */
static char *t2shl000[] = {
/* width height num_colors chars_per_pixel */
"    32    32       30            1",
/* colors */
". c #5a1800",
"# c #7b4a00",
"a c #312100",
"b c #846b00",
"c c #ffd600",
"d c #4a4200",
"e c #cec600",
"f c #212118",
"g c #636300",
"h c #a5a500",
"i c #637352",
"j c #081000",
"k c #008c63",
"l c #00c68c",
"m c #003929",
"n c #005a42",
"o c #00a57b",
"p c #105a4a",
"q c #188c7b",
"r c #21a59c",
"s c #000808",
"t c #52a5ce",
"u c #316384",
"v c #4a739c",
"w c #6384ad",
"x c #6b9cde",
"y c #294263",
"z c #101829",
"A c #734252",
"B c None",
/* pixels */
"BBBBBBBBBBBBBBBBBBBBBBBBBBBBBBBB",
"BBBBBBBBBBBBBBBBBBBBBBBBBBBBBBBB",
"BBBBBBBBBBBBBBBBBBBBBBBBBBBBBBBB",
"BBBBBBBBBBBBBBBBBBBBBBBBBBBBBBBB",
"BBBBBBBBzuBBBBBBBBBBBaeBBBBBBBBB",
"BBBBBBBBpwiololololobchdBBBBBBBB",
"BBBBBBBBzvploloooooohbe#BBBBBBBB",
"BBBBBBBBzy.llllomsssdhdaBBBBBBBB",
"BBBBBBBBBBsollllomBsBBdBBBBBBBBB",
"BBBnkoknmBBfllllllnBBBBBBBBBBBBB",
"BBBfokooookkoooooqtvuupkBBBBBBBB",
"BBBBskoooooooolotxxxxwvpnsBBBBBB",
"BBBBBmokoooolllrxxxxtwvqnnsBBBBB",
"BBBBBBkoolllllllrtwwwvulknnmBBBB",
"BBBBBBBkllllllllllrqqlllnnnkmBBB",
"BBBBBBBfllllllllllllllllknnmsBBB",
"BBBBBBBfoooooooooooooooonmfBBBBB",
"BBBBBBBBkkkkkkkkkkkkkkkkmsBBBBBB",
"BBBBBBBBnnnnoooooooknnnnsBBBBBBB",
"BBBBBBBBBBsnllllllofssssBBBBBBBB",
"BBBBBBBBBBBllllllofBBBBBBBBBBBBB",
"BBBBBBBBBBnllllloBBBBBBBBBBBBBBB",
"BBBjaajzfBlllllosBBBBBBBBBBBBBBB",
"BB.#gggwyiooooonnnnnnBBBBBBBBBBB",
"BBa#heetAolllllllllllnnfBBBBBBBB",
"BB.hbhewAkooooooooooomsBBBBBBBBB",
"BBBghgduyjssssssssssBBBBBBBBBBBB",
"BBBBBBBBjBBBBBBBBBBBBBBBBBBBBBBB",
"BBBBBBBBBBBBBBBBBBBBBBBBBBBBBBBB",
"BBBBBBBBBBBBBBBBBBBBBBBBBBBBBBBB",
"BBBBBBBBBBBBBBBBBBBBBBBBBBBBBBBB",
"BBBBBBBBBBBBBBBBBBBBBBBBBBBBBBBB"
};
