/* XPM */
static char *t2shf007[] = {
/* width height num_colors chars_per_pixel */
"    32    32       30            1",
/* colors */
". c #8c3131",
"# c #d66b00",
"a c #8c7300",
"b c #313100",
"c c #9c9c00",
"d c #dede00",
"e c #636b21",
"f c #636b52",
"g c #31b55a",
"h c #217352",
"i c #001810",
"j c #007352",
"k c #00a573",
"l c #00c68c",
"m c #004231",
"n c #21b594",
"o c #08a584",
"p c #10635a",
"q c #081010",
"r c #216373",
"s c #4a94b5",
"t c #293942",
"u c #6ba5de",
"v c #4a739c",
"w c #101821",
"x c #5a8cc6",
"y c #314a6b",
"z c #5a5273",
"A c #b53142",
"B c None",
/* pixels */
"BBBBBBBBBBBBBBBBBBBBBBBBBBBBBBBB",
"BBBBBBBBBBBBBBBBBBBBBBBBBBBBBBBB",
"BBBBBBBBBBBBwrBBBBBBBBBBBBBBBBBB",
"BBBBBBBBBBBBrvvBBBBBBBwjiBBBBBBB",
"BBBBBBBBBBBilAzqBBBBBmkjBBBBBBBB",
"BBBBBBBBBiklkttqBBBBmkjmBBBBBBBB",
"BBBBBBBBjlkjkkqBBBimojjtbBBBBBBB",
"BBBBBBikokjlllwBijoljjjeaBBBBBBB",
"BBBBBklkjmllllkiklljjjjd#aBBBBBB",
"BBBBwojmBmllllollljjjjjdd#BBBBBB",
"BBBwkmmBBmllllollkjkkkg#dcBBBBBB",
"BBBBBBBBBjlkoolloolkkkjcabBBBBBB",
"BBBBBBBBBjnsxxzolokkkjjiqBBBBBBB",
"BBBBBBBBmnuuxsypkkkjjjmiBBBBBBBB",
"BBBBBBiknuuxxvyjkkjjmwiBBBBBBBBB",
"BBBBBBolsuuxvypkkjjmjjBBBBwwBBBB",
"BBBBBmllsuxvypkjjjmollljBt.xtBBB",
"BBBBBjlllnrojkjjmmlllllllhfAxwBB",
"BBBBBllllokkkjjmklllllllollhztBB",
"BBBBBllllokjjjmkllllllloloktyBBB",
"BBBBmllllkkjmmiBwimmjkolojiBBBBB",
"BBBBjllkkjjmmBBBBBBBiklkjBBBBBBB",
"BBBBmwmwmmmmBBBBBBBmolkmBBBBBBBB",
"BBBBBBBBBBBBBBBBBBmllkmBBBBBBBBB",
"BBBBBBBBBBBBBBBBBqoljwBBBBBBBBBB",
"BBBBBBBBBBBBBBBBBjkjiBBBBBBBBBBB",
"BBBBBBBBBBBBBBBBimiBBBBBBBBBBBBB",
"BBBBBBBBBBBBBBBBBBBBBBBBBBBBBBBB",
"BBBBBBBBBBBBBBBBBBBBBBBBBBBBBBBB",
"BBBBBBBBBBBBBBBBBBBBBBBBBBBBBBBB",
"BBBBBBBBBBBBBBBBBBBBBBBBBBBBBBBB",
"BBBBBBBBBBBBBBBBBBBBBBBBBBBBBBBB"
};
