/* XPM */
static char *t2shl007[] = {
/* width height num_colors chars_per_pixel */
"    32    32       31            1",
/* colors */
". c #9c3131",
"# c #9c3100",
"a c #633900",
"b c #9c8c00",
"c c #8c8400",
"d c #393910",
"e c #101000",
"f c #424200",
"g c #c6c600",
"h c #637352",
"i c #103100",
"j c #187b52",
"k c #001810",
"l c #008c63",
"m c #00c68c",
"n c #003929",
"o c #005a42",
"p c #00b584",
"q c #08a584",
"r c #21a594",
"s c #105a52",
"t c #7b949c",
"u c #4294b5",
"v c #21394a",
"w c #6ba5de",
"x c #5a8cbd",
"y c #395a7b",
"z c #4a6b94",
"A c #525273",
"B c #634263",
"C c None",
/* pixels */
"CCCCCCCCCCCCCCCCCCCCCCCCCCCCCCCC",
"CCCCCCCCCCCCCCCgceCCCCCCCCCCCCCC",
"CCCCCCCCCCCCkycbgaCCCCCCCCCCCCCC",
"CCCCCCCCCCCCvttbcaCCCCkpkCCCCCCC",
"CCCCCCCCCCCkm.AdifCCCommCCCCCCCC",
"CCCCCCCCCkqmlvveCCCCommqCCCCCCCC",
"CCCCCCCCjpqlplkCCCknmmmjCCCCCCCC",
"CCCCCCnlpllmmmkCklmmmmmoCCCCCCCC",
"CCCCClmqoommmmqklmmmmmmCCCCCCCCC",
"CCCCnplnCommmmqpmmmmmmmCCCCCCCCC",
"CCCnlonCCommmppmmmmmpllCCCCCCCCC",
"CCCCCCCCCjmlqqpmmmpqqllkCCCCCCCC",
"CCCCCCCCCsquxxyqmpqlllokCCCCCCCC",
"CCCCCCCCorwwxxysplqljonkCCCCCCCC",
"CCCCCCklrwwwxzvjqlloonkCCCCCCCCC",
"CCCCCCpmuwwxzyslllooloCCCCkkCCCC",
"CCCCCnmpuwxzyolllooqmmmjCvBwvCCC",
"CCCCCjmmmrrjlllsoommmmmmmjh.xkCC",
"CCCCCmmmmpqlllonlmmmmmmmpppjAvCC",
"CCCCCmmmmplllonlmmmmmmmpmplnvkCC",
"CCCCommmplllnnkknknnolpmplkCeCCC",
"CCCClmpllllonCCCCCCCklmqoCCCCCCC",
"CCCCnnnnnnnnCCCCCCCnmmqoCCCCCCCC",
"CCCCCCCCCCCCCCCCCCommlnCCCCCCCCC",
"CCCCCCCCCCCCCCCCeeqplnCCCCCCCCCC",
"CCCCCCCCCCCCCCaaffjjkCCCCCCCCCCC",
"CCCCCCCCCCCCCCeafccCCCCCCCCCCCCC",
"CCCCCCCCCCCCCCf##cfCCCCCCCCCCCCC",
"CCCCCCCCCCCCCCCe#ceCCCCCCCCCCCCC",
"CCCCCCCCCCCCCCCCCfCCCCCCCCCCCCCC",
"CCCCCCCCCCCCCCCCCCCCCCCCCCCCCCCC",
"CCCCCCCCCCCCCCCCCCCCCCCCCCCCCCCC"
};
