/* XPM */
static char *t2shr013[] = {
/* width height num_colors chars_per_pixel */
"    32    32       31            1",
/* colors */
". c #f74200",
"# c #180800",
"a c #421800",
"b c #7b5a00",
"c c #524a08",
"d c #bdad00",
"e c #948c00",
"f c #737300",
"g c #d6d600",
"h c #083100",
"i c #428c4a",
"j c #001008",
"k c #183929",
"l c #006b4a",
"m c #186b52",
"n c #00c68c",
"o c #003929",
"p c #00d69c",
"q c #008c6b",
"r c #088c73",
"s c #10b59c",
"t c #21424a",
"u c #428cb5",
"v c #395a73",
"w c #426b94",
"x c #73adef",
"y c #6394ce",
"z c #314a6b",
"A c #946373",
"B c #210810",
"C c None",
/* pixels */
"CCCCCCCCCCCCCCCCCCCCCCCCCCCCCCCC",
"CCCCCCCCCCCCCCCCCCCCCCCCCCCCCCCC",
"CCCCCCCCCCCCCCCCCCCCCCCCCCCCCCCC",
"CCCCCCCCCCCCCCCCCCCCCCCCCCCCCCCC",
"CCCCCCCCCCCCClojCCCCCCCha#CCCCCC",
"CCCCCCCCCCCClswrljCCCCaedfCCCCCC",
"CCCCCCCCCCCnpyywqljCCCdggf#CCCCC",
"CCCCCCCCCClpsxxutloCCCdgdfCCCCCC",
"CCCCCCCCCCqnuxxuvtoCCCCcnqCCCCCC",
"CCCCCCCCCClnsxxyzoojCCChpnjCCCCC",
"CCCCoCCCCConnyxuzrlooCCCnpoCCCCC",
"CCCjnoCCCConpssurqlonnoCqnqCCCCC",
"CCClnljCConnpppnnrqonnnrlpnjCCCC",
"CCCopljCopnnnppnnrqoqnnnnnnoCCCC",
"CCCopqConnnnpppnqqqlonnnnnpqCCCC",
"CCCjnqonnnnnnppnnollonnnnnnnjCCC",
"CCCoprqnnnnnnppnnoololnnnnnroCCC",
"CCCCprqnnnnrnppnnloooCCjolAyyvCC",
"CCCCnnqnnnqjnppnnqojojCCCtutkkBC",
"CCCCrnlnnjCjnrrnnnjBB#CCCBkBBCCC",
"CCCCivmkCCCCmkktkkBBBCCCCCCCCCCC",
"CCCtxywkCCCCkBBBBBB#CCCCCCCCCCCC",
"CCCwtickCCCCC#BB#CCCCCCCCCCCCCCC",
"CCCjcgdfCCCCCCCCCCCCCCCCCCCCCCCC",
"CCCCfdef#CCCCCCCCCCCCCCCCCCCCCCC",
"CCCCefbbhCCCCCCCCCCCCCCCCCCCCCCC",
"CCC#b.aa#CCCCCCCCCCCCCCCCCCCCCCC",
"CCCCaaa#CCCCCCCCCCCCCCCCCCCCCCCC",
"CCCCCCCCCCCCCCCCCCCCCCCCCCCCCCCC",
"CCCCCCCCCCCCCCCCCCCCCCCCCCCCCCCC",
"CCCCCCCCCCCCCCCCCCCCCCCCCCCCCCCC",
"CCCCCCCCCCCCCCCCCCCCCCCCCCCCCCCC"
};
