/* XPM */
static char *t2ship007[] = {
/* width height num_colors chars_per_pixel */
"    32    32       31            1",
/* colors */
". c #9c3131",
"# c #080000",
"a c #637352",
"b c #001008",
"c c #103121",
"d c #002918",
"e c #007352",
"f c #00a573",
"g c #00c68c",
"h c #008c6b",
"i c #004a39",
"j c #106352",
"k c #10b594",
"l c #08a584",
"m c #29635a",
"n c #108473",
"o c #42b5bd",
"p c #5284ad",
"q c #182939",
"r c #6ba5de",
"s c #4a739c",
"t c #5a8cbd",
"u c #395a7b",
"v c #081018",
"w c #31425a",
"x c #393942",
"y c #7b739c",
"z c #5a5273",
"A c #63526b",
"B c #8c4a63",
"C c None",
/* pixels */
"CCCCCCCCCCCCCCCCCCCCCCCCCCCCCCCC",
"CCCCCCCCCCCCCCCCCCCCCCCCCCCCCCCC",
"CCCCCCCCCCCCcuCCCCCCCCCCCCCCCCCC",
"CCCCCCCCCCCCmysCCCCCCCdhbCCCCCCC",
"CCCCCCCCCCCdg.AvCCCCCifeCCCCCCCC",
"CCCCCCCCCdfgfqxvCCCCifeiCCCCCCCC",
"CCCCCCCCelhhlfvCCCdcfeeiCCCCCCCC",
"CCCCCCdfghegggdCbhlgeeedCCCCCCCC",
"CCCCChgfeiggggfdhggeeeeCCCCCCCCC",
"CCCCclecbiggggfgggheeeeCCCCCCCCC",
"CCCdficbCigggggggfefhfhCCCCCCCCC",
"CCCCCCCCCegflklglfgfffebCCCCCCCC",
"CCCCCCCCCekptpulglfffeedCCCCCCCC",
"CCCCCCCCikrrtpujfffeeecbCCCCCCCC",
"CCCCCCbhkrrrtswhffeeicbCCCCCCCCC",
"CCCCCClgorrtswjfheeihiCCCCvcCCCC",
"CCCCCiggtrtswjleeeifgggeCqBtwCCC",
"CCCCCegggknnnfeeiigggggggja.tcCC",
"CCCCCggggllfheeihgggggggglgmzqCC",
"CCCCbgggglfeeeihggggggglgghxuvCC",
"CCCCiggggfheicbbddiiiflglebCCCCC",
"CCCCeggfhhhicbCCCCCCdhgfebCCCCCC",
"CCCCicccccccbCCCCCCilgfiCCCCCCCC",
"CCCCCCCCCCCCCCCCCCiggfiCCCCCCCCC",
"CCCCCCCCCCCCCCCCC#lghdCCCCCCCCCC",
"CCCCCCCCCCCCCCCCCefebCCCCCCCCCCC",
"CCCCCCCCCCCCCCCCdibCCCCCCCCCCCCC",
"CCCCCCCCCCCCCCCCCCCCCCCCCCCCCCCC",
"CCCCCCCCCCCCCCCCCCCCCCCCCCCCCCCC",
"CCCCCCCCCCCCCCCCCCCCCCCCCCCCCCCC",
"CCCCCCCCCCCCCCCCCCCCCCCCCCCCCCCC",
"CCCCCCCCCCCCCCCCCCCCCCCCCCCCCCCC"
};
