/* XPM */
static char *t2shr001[] = {
/* width height num_colors chars_per_pixel */
"    32    32       31            1",
/* colors */
". c #4a1800",
"# c #423121",
"a c #100800",
"b c #8c5a00",
"c c #947b00",
"d c #ad9c00",
"e c #212100",
"f c #737300",
"g c #c6c600",
"h c #f7f700",
"i c #63bd39",
"j c #84ad84",
"k c #001810",
"l c #004a31",
"m c #007352",
"n c #00c68c",
"o c #009c73",
"p c #089473",
"q c #10a58c",
"r c #21b5a5",
"s c #10635a",
"t c #396b84",
"u c #4a84ad",
"v c #639cce",
"w c #4a739c",
"x c #73adef",
"y c #4a4a52",
"z c #292939",
"A c #9c425a",
"B c #631829",
"C c None",
/* pixels */
"CCCCCCCCCCCCCCCCCCCCCCCCCCCCCCCC",
"CCCCCCCCCCCCCCCCCCCCCCCCCCCCCCCC",
"CCCCCCCCCeeCCCCCCCCCCCCCCCCCCCCC",
"CCCCCCCCCbffytCCCCCCCCCCCCCCCCCC",
"CCCCCCCC.bccjAmlkCCCCCCCCCCCCCCC",
"CCCCkCCCafcgv#nnnomlCCCCCCCCCCCC",
"CCCCmollCeeaz#nnnnnnnmlCCCCCCCCC",
"CCCCkonomaCCCknnnnmonnnlCCCCCCCC",
"CCCCCoonnmlkClnnnnoCklmlmCCCCCCC",
"CCCCCkoonnnmmmonnnnkCCCCCCCCCCCC",
"CCCCCCoononnoooooonoCCCCCCCCCCCC",
"CCCCCCknnnnnnnnnquurskCCCCCCCCCC",
"CCCCCCConnnnnnnrxxxvvwslkCCCCCCC",
"CCCCCCCmnnnnnnnrvxxvvuwplCCCCCCC",
"CCCCCCCnnnnnnnnnruvvvuwpllCCCCCC",
"CCCCCCCooonnnnnnnrrwwwtomlCCCCCC",
"CCCCCCClmoooonnnnnnnnnnolmmCCCCC",
"CCCCCCCCCknooooonnnnnnnlmmmmCCCC",
"CCCCCCCCConnnnnoooonnnommmmokCCC",
"CCCCkkCkonnnnnnnnomooomllllCCCCC",
"CCCkvBaonnnnnnnolCklmokkkCCCCCCC",
"CCCwwypnonnnnolCCCCCCkkCCCCCCCCC",
"CCCuyynnnoookkCCCCCCCCCCCCCCCCCC",
"CCCyzlmnnnnnomkCCCCCCCCCCCCCCCCC",
"CCCCkCCClonnnnnolefgcCCCCCCCCCCC",
"CCCCCCCCCCkmonnnidhhbCCCCCCCCCCC",
"CCCCCCCCCCCCCkmodgdd.CCCCCCCCCCC",
"CCCCCCCCCCCCCCCCaggdaCCCCCCCCCCC",
"CCCCCCCCCCCCCCCCCad.aCCCCCCCCCCC",
"CCCCCCCCCCCCCCCCCC.eCCCCCCCCCCCC",
"CCCCCCCCCCCCCCCCCCCCCCCCCCCCCCCC",
"CCCCCCCCCCCCCCCCCCCCCCCCCCCCCCCC"
};
