/* XPM */
static char *t2ship015[] = {
/* width height num_colors chars_per_pixel */
"    32    32       31            1",
/* colors */
". c #001008",
"# c #318463",
"a c #004a31",
"b c #003121",
"c c #00ad7b",
"d c #00c68c",
"e c #005a42",
"f c #007b5a",
"g c #00946b",
"h c #088c73",
"i c #086b5a",
"j c #10ad94",
"k c #104a42",
"l c #218484",
"m c #5a848c",
"n c #399cad",
"o c #213139",
"p c #4a739c",
"q c #5a8cbd",
"r c #395a7b",
"s c #6ba5e7",
"t c #6394ce",
"u c #42638c",
"v c #5a5a73",
"w c #101018",
"x c #735a84",
"y c #a55a84",
"z c #392129",
"A c #291018",
"B c #4a1021",
"C c None",
/* pixels */
"CCCCCCCCCCCCCCCCCCCCCCCCCCCCCCCC",
"CCCCCCCCCCCCCCCCCCCCCCCCCCCCCCCC",
"CCCCCCCCCCCCCCCCCCCCCCCCCCCCCCCC",
"CCCCCCCCCCCCCCCCCCCCCCCCCCCCCCCC",
"CCCCCCCCCCCCCCCCCCCCCCCCCCCCCCCC",
"CCCCCCCCCCbCCCCCbaaaabCCCCCCCCCC",
"CCCCCCCCffbCCCCbcnnlge.CCCCCCCCC",
"CCCCCCCadf.CCCCgqtqucgbCCCCCCCCC",
"CCCCCCbdgbCCCCenssqrigeCCCCCCCCC",
"CCCCCbcgaCCbbedsstpogfe.CCCCCCCC",
"CCCCCgciecgdddjssqrigea.CCCCCCCC",
"CCCCfdfddddddddnqrhgfewCCCCCCCCC",
"CCCadfcdddddddddjcgfeb.CCCCCCCCC",
"CrxmggdddddcddfddggeaeCCCCCCbCCC",
"ConqoeicgcdcfaecggfefdbCCCbgbCCC",
"CwBko.CCCfdfabfcggeaddgCCbdcbCCC",
"CCCzoCCCadcbbbdggfagdddbCedg.CCC",
"CCCCCCCCzcabbecgfeeddddfbdcaCCCC",
"CCCCCCCCoebbbfggeacddddcfdgwCCCC",
"CCCCCCCCCAzwbogfebfddddcdcaCCCCC",
"CCCCCCCCCCABBBzkb.Cgdddddf.CCCCC",
"CCCCCCCCCCCABBBz.CC.cdddcaCCCCCC",
"CCCCCCCCCCCCCAABCCCC.cddfCCCCCCC",
"CCCCCCCCCCCCCCCCCCCCrym#bCCCCCCC",
"CCCCCCCCCCCCCCCCCCCwrntvCCCCCCCC",
"CCCCCCCCCCCCCCCCCCCCwBiuoCCCCCCC",
"CCCCCCCCCCCCCCCCCCCCCwApwCCCCCCC",
"CCCCCCCCCCCCCCCCCCCCCCCCCCCCCCCC",
"CCCCCCCCCCCCCCCCCCCCCCCCCCCCCCCC",
"CCCCCCCCCCCCCCCCCCCCCCCCCCCCCCCC",
"CCCCCCCCCCCCCCCCCCCCCCCCCCCCCCCC",
"CCCCCCCCCCCCCCCCCCCCCCCCCCCCCCCC"
};
