/* XPM */
static char *t2stat001[] = {
/* width height num_colors chars_per_pixel */
"    64    64       32            1",
/* colors */
". c #ffffff",
"# c #a54218",
"a c #313121",
"b c #395231",
"c c #00de10",
"d c #009c10",
"e c #005221",
"f c #84bd9c",
"g c #639c7b",
"h c #086331",
"i c #005a29",
"j c #adefce",
"k c #73a58c",
"l c #94d6b5",
"m c #52846b",
"n c #214231",
"o c #004221",
"p c #315242",
"q c #183929",
"r c #088452",
"s c #006b42",
"t c #00a56b",
"u c #00c684",
"v c #63cead",
"w c #005a4a",
"x c #52ffef",
"y c #29a59c",
"z c #29d6ef",
"A c #007384",
"B c #008cb5",
"C c #00adde",
"D c None",
/* pixels */
"DDDDDDDDDDDDDDDDDDDDDDDDDDDDDDDDDDDDDDDDDDDDDDDDDDDDDDDDDDDDDDDD",
"DDDDDDDDDDDDDDDDDDDDDDDDDDDDDDDDDoDDDDDDDDDDDDDDDDDDDDDDDDDDDDDD",
"DDDDDDDDDDDDDDDDDDDDDDDDDDoooiiiieeoooDDDDDDDDDDDDDDDDDDDDDDDDDD",
"DDDDDDDDDDDDDDDDDDDDDDoiiiieieiieiieeoieooDDDDDDDDDDDDDDDDDDDDDD",
"DDDDDDDDDDDDDDDDDDDDeiiiiiiiiiiiiieieieeioeoDDDDDDDDDDDDDDDDDDDD",
"DDDDDDDDDDDDDDDDDDeiiiiiiiiiiiieieieieeeeeooeoDDDDDDDDDDDDDDDDDD",
"DDDDDDDDDDDDDDDDeiiiiiiiiiiiiiiiiiisCCCCBBAeooooDDDDDDDDDDDDDDDD",
"DDDDDDDDDDDDDDDiiiiiiiiiiiiieieieeCzCCzCCCCCAioooDDDDDDDDDDDDDDD",
"DDDDDDDDDDDDDDhiiiiiiiiiiiiiiiiisCCzzzCCCCCCCBAooooDDDDDDDDDDDDD",
"DDDDDDDDDDDDehiiiiiiiiiiiiiiiieiBCzzCzCCCCCCBCBBwooDDDDDDDDDDDDD",
"DDDDDDDDDDDoiiiiiiiiiihhhhhhiiiiuzzzzCzCCCCBCBBBBwoeDDDDDDDDDDDD",
"DDDDDDDDDDoiiiiiiiihrgfllggmmhhiCzzzCzCCCCCCBCBBBBwoeDDDDDDDDDDD",
"DDDDDDDDDDiiiiiiryfllljljlffkkmrzCzzzzCCCCCCBBBBBABwooDDDDDDDDDD",
"DDDDDDDDDhiiiiirxjllljljllffkggkCzzxzzCCCCCBCBBBBBAAiooDDDDDDDDD",
"DDDDDDDDeiiiiirxjljljjjjjlfvgggmCCCxxzzCCCCCBCBBBBAAAoooDDDDDDDD",
"DDDDDDDDiiiiiivxllljjjjjjjfkgmmmBCCzxzCCCCBBBBBBBAAAAwooDDDDDDDD",
"DDDDDDDiiiiiivjljljjjj.jjjlfgmmrmBCCzzCCCCCBCBBBABAAAwoooDDDDDDD",
"DDDDDDoiiiiiklllljjjjjjjjjjfgmmppACCCCCCCBBBBBBBBAAAAAoooDDDDDDD",
"DDDDDDiiiiirllljljjj.jjjjjjxvgrmrpABBBCCBBCBBBBAAAAAAwwoooDDDDDD",
"DDDDDoieiiegljljljjjjjjjjjxxvmmppprABBBBBBBBBABABAAAAwwoooDDDDDD",
"DDDDDeiiiiikllllljjjjjjjjjxxvupppprrABBBBBBBABAAAAAwwwwoooDDDDDD",
"DDDDDiieei##lljjllljlllllxxxvumrphuuswAAAAAABAAAAAwAwwwooooDDDDD",
"DDDDoeiiii#glljjllllfkgggmvyzutpptuutwwwAAAAAAAAwAwwwwwooooDDDDD",
"DDDDoeieeioflxxjlllffgmmtmuyuuuhtuuttrwwwwwwwwwwwwwwwwwoooooDDDD",
"DDDDeeiiiehfxxxxjlfffgrrprhuuyuuuuutrssiwwwwwwwwwwwwwooooooDDDDD",
"DDDDieeieihjxxxxjlffkgmhrhhruuuuuutrrhiiiwwwwwwwwwwwwwooooooDDDD",
"DDDoieioiirxxxxxjjffkgmhhhhhtuuuutrssiiwpflkwwwwwwwoooooooooDDDD",
"DDDeoieeiorxxxxxxjffkgmphhhhhuuutrrsiiistykjjmmpqoooooooooooDDDD",
"DDDoeeiioiozxxxxxjlfkggmtttututttrsiiiwrrrmjjlfkmpiiioeeoooooDDD",
"DDDoeooeieehxxxxxxjfkkgmmrrrrrrrrsiiiiiiiimljjffgpiooeoooooooDDD",
"DDDoeeeeoeesxxxxxjlffkkgmrsshhhssiiiiiiiiwffjjfkkmiiieeeoooooDDD",
"DDDoooeeeeeezxxxvflffkkggmhiiiiiisrrwiiimgffflffkmnoeoeoooooDDDD",
"DDDooeeoeioehxxvffkffkkkggmpsssiruuuriiimkkflfffkmpieeoeoooooDDD",
"DDDoooeeoeoeezxgkkkfkkkkggmmrshiruuutshhhkffllffkmpioeeoeoooDDDD",
"DDDDeeooeoeoerfggkkkkkkkggggmmiiituuurrshmffffffkmmqieoeoooeDDDD",
"DDDoeooeoeoeosrmgggkgkkgggggmmmptrtuutrhrmflflfkkgpqeoeeoeoeDDDD",
"DDDDooeoeoeoeenmm#mgggggkggggmmmrrtuuutrmmkffffkkmpneiooeoooDDDD",
"DDDDoooooooeoehs##bgggggkggmggmgmmmtuutrggffffkkmmpqeoeeoeooDDDD",
"DDDDooohhsrtttttbabmmgmkxvmgmmgmmmmmmtyygkkkkkkgmppqeeeoeoooDDDD",
"DDDDDocdttrrssshipmmmmmvxxxgmmmmmmmmggmmggkkkmmmmpnoeeoeooeDDDDD",
"DDDDDecdriiiiiiiiibpmmyxzxzxvmmmmmmmmmmmmmmmmmmpppnqeieeoeoDDDDD",
"DDDDDoeetiioioiioiippmzxxzxzxzgmmmmmmmmmmmmmmpmppaqeeioeeoDDDDDD",
"DDDDDDooooooooooioeipzzzzxzxzxzymmmpmmpmmmppmpppanpieoeooeDDDDDD",
"DDDDDDoooooooeeeeeiesuyzvzvzzzzxypppmpmppppppbpanqoieeeeooDDDDDD",
"DDDDDDDoooooeooeoeeieoryyvuzvzvzmpmppppppppbanaqqqiioeoooDDDDDDD",
"DDDDDDDDoooooeoeeoeoiiehyyyyyyyyppbppbpbpppAmAynqioeieeeoDDDDDDD",
"DDDDDDDDDoooooooeoieoeieiryyyyywpnnnnnnnpyyyyyyaaeieoeooDDDDDDDD",
"DDDDDDDDDoooooeoeoeoeieoiisyyywnnnnqqqqqAyyyyyraqeeoieeDDDDDDDDD",
"DDDDDDDDDooooooooeoeeoeieoioswpnnDDqqqqqmyyyyAqeeeeeeoDDDDDDDDDD",
"DDDDDDDDDDDoooooooeoeeoeieieiituroDoaqqAyAAwweieeeioeDDDDDDDDDDD",
"DDDDDDDDDDDDoooooooeoeeoeoeeoisttiooiqqhieeeeeieioeooDDDDDDDDDDD",
"DDDDDDDDDDDDDooooooooooeeoieeoitutioeeeieieieioieeooDDDDDDDDDDDD",
"DDDDDDDDDDDDDDoooooooeoeoeoeoeoittriiieieieieeieoeoDDDDDDDDDDDDD",
"DDDDDDDDDDDDDDDooooooooooeoeeoeirutioieiioeioeoeoDDDDDDDDDDDDDDD",
"DDDDDDDDDDDDDDDDDooooooeooeooeoiittreeeoeiioieeoDDDDDDDDDDDDDDDD",
"DDDDDDDDDDDDDDDDDDDooooooeooeoeoirdceoieeeoeooDDDDDDDDDDDDDDDDDD",
"DDDDDDDDDDDDDDDDDDDDoooooooeoeoeoiddeeeoeoeoDDDDDDDDDDDDDDDDDDDD",
"DDDDDDDDDDDDDDDDDDDDDDoooooooeoeooeeeeoeooDDDDDDDDDDDDDDDDDDDDDD",
"DDDDDDDDDDDDDDDDDDDDDDDDDDooooooeoeeoooDDDDDDDDDDDDDDDDDDDDDDDDD",
"DDDDDDDDDDDDDDDDDDDDDDDDDDDDDDooDDDDDDDDDDDDDDDDDDDDDDDDDDDDDDDD",
"DDDDDDDDDDDDDDDDDDDDDDDDDDDDDDDDDDDDDDDDDDDDDDDDDDDDDDDDDDDDDDDD",
"DDDDDDDDDDDDDDDDDDDDDDDDDDDDDDDDDDDDDDDDDDDDDDDDDDDDDDDDDDDDDDDD",
"DDDDDDDDDDDDDDDDDDDDDDDDDDDDDDDDDDDDDDDDDDDDDDDDDDDDDDDDDDDDDDDD",
"DDDDDDDDDDDDDDDDDDDDDDDDDDDDDDDDDDDDDDDDDDDDDDDDDDDDDDDDDDDDDDDD"
};
