/* XPM */
static char *t2stat014[] = {
/* width height num_colors chars_per_pixel */
"    64    64       32            1",
/* colors */
". c #ffffff",
"# c #a52110",
"a c #6b4218",
"b c #313921",
"c c #00d610",
"d c #007b21",
"e c #94d6ad",
"f c #8ccea5",
"g c #002910",
"h c #5a846b",
"i c #005221",
"j c #adf7ce",
"k c #004a21",
"l c #005a29",
"m c #73a58c",
"n c #63947b",
"o c #214231",
"p c #183929",
"q c #086339",
"r c #006b39",
"s c #10845a",
"t c #00b573",
"u c #29cea5",
"v c #63f7d6",
"w c #52ffef",
"x c #29a59c",
"y c #005a52",
"z c #00737b",
"A c #29d6ef",
"B c #008cad",
"C c #00adde",
"D c None",
/* pixels */
"DDDDDDDDDDDDDDDDDDDDDDDDDDDDDDDDDDDDDDDDDDDDDDDDDDDDDDDDDDDDDDDD",
"DDDDDDDDDDDDDDDDDDDDDDDDDDDDDggggggDDDDDDDDDDDDDDDDDDDDDDDDDDDDD",
"DDDDDDDDDDDDDDDDDDDDDDDDDgklllllllilliggDDDDDDDDDDDDDDDDDDDDDDDD",
"DDDDDDDDDDDDDDDDDDDDDkkllllllllllilililkkggDDDDDDDDDDDDDDDDDDDDD",
"DDDDDDDDDDDDDDDDDDDilllllllllllillililiilikkkgDDDDDDDDDDDDDDDDDD",
"DDDDDDDDDDDDDDDDDDllllllllllllllilyCCBBzzikikkgDDDDDDDDDDDDDDDDD",
"DDDDDDDDDDDDDDDDilllllllllllllllrCACCACCCCzykkkgDDDDDDDDDDDDDDDD",
"DDDDDDDDDDDDDDklllllllllllllllilAAAAACCCCCCBzrkkkgDDDDDDDDDDDDDD",
"DDDDDDDDDDDDDilllllllllllllllllBAAAACACCCCCCBBykkkgDDDDDDDDDDDDD",
"DDDDDDDDDDDDkllllllllllllllllliAAAACACCCCCCBCBBzkkkgDDDDDDDDDDDD",
"DDDDDDDDDDDgllllllllrlqqqqqlqllCAAAAACCCCCCCBBBBykkkgDDDDDDDDDDD",
"DDDDDDDDDDglllllisfmeeeeeenhqqyCAAAACCCCCCBCBCBBBykkkgDDDDDDDDDD",
"DDDDDDDDDglllllsfefeeeeeeeeffhxCAAwAAACCCCCBCBBBBzykgkgDDDDDDDDD",
"DDDDDDDDDllllineefefeeejeeefmmmCCAwwAACCCCCCBBBBBBzkkgkDDDDDDDDD",
"DDDDDDDDklllqvveefffeejjjjeffmnxCCAwAACCCCCBCBBBBzBykkgkDDDDDDDD",
"DDDDDDDglllswweefffffjjjjjeemnnnCCCAAACCCCBCBBBBBBzzykkggDDDDDDD",
"DDDDDDgllllxwveefffeejjjjjjfmnhhBBCCACCCCBCBBBBBzzBzypkkgDDDDDDD",
"DDDDDDgllliwwjefffffejjjjjjemhshsBCCCCCCCCBBBBBBBzzzzpkgkgDDDDDD",
"DDDDDDllliuwweffffffejjjjjjemhhqhsBBBCBCBBCBBBBBzBzzyykkkgDDDDDD",
"DDDDDglillvjeeeffffmfjjjjjwmnhhqqssBBBBBBBBBBBBzBzzzyykgkggDDDDD",
"DDDDDkillheeejffffmmfejjwwwensqqhstyzBBBBBBBBBzBzzzzyykkkggDDDDD",
"DDDDgillineeeeeffmfnfmfvwwvunhqqouttyzzBBBBzBzzzzzzyygkkkkgDDDDD",
"DDDDglilifeeejefmfmnhxnnvvvutshqttttsyyzzzzzzzzzzzyyyykkgkkgDDDD",
"DDDDlillqhmfjjjffmnhhsshtuuuusotutttsyyyyyzzzzzzyyyygykkkkggDDDD",
"DDDDiliia#mfejjffmmnsqhsssuttttttttyrrryyyyyyyyyyygyyykkkgkgDDDD",
"DDDDlkllaafeej.ffmmnhododstututtttssllkkyyyyyygyyyygykkgkkkkDDDD",
"DDDgklklihffejjjffmnhsqqoidttutttsrrrkrqnehpyyygygyykkkkkkgggDDD",
"DDDgiiklismffe.jemmmhhllqlqrttttssrrkrkrhejjhyyyyyykkkkkkkkkgDDD",
"DDDgkilkiqfwvfjjjfmmnhqllqttttttsrllrkkymej.ffmhpkkkkkkkkgkggDDD",
"DDDglkiikqvwwffjjemmnnhttttttssrrlrkkrhmmmejjmmhyilklkkkkkkkkDDD",
"DDDgkikikkwwwvfeeefmnnhstssrrlrrrrkrllsnmfejefmnhlklkikkkkkkgDDD",
"DDDgkklkikuwwwfmeefmmnnhhrllllrrkrssllonmmfeeemnhoiklikkkkkggDDD",
"DDDgkkkkkkywwwwfmfmmmmnnhslrrrrksttttdqhmffeeemmhqlikkkkkkkkgDDD",
"DDDDkkkikiiuwwwvmmfmmmnnnhhryrkrsttttrqqnmeeeffmhhkliikkkkkggDDD",
"DDDDkkkkkkkrAwwwmmmmmmmnnnhsqrkkrtttttsqmmffefmmhopklkkkkkkkgDDD",
"DDDDkkkkkkkisAwwvmmmnmnnnnnhhykrkrttttssnmeeffmnhylikkkkkkkkDDDD",
"DDDDgkkkkkkkiuwwunnnmnnmnnnhnhhqrqyttttsnffffmmmhaoliikkkkkkDDDD",
"DDDDgkkkkkkklqAvhnnnnnnnnnnnhhhhyhqsttttsmfmmmnhhyokkikikkkgDDDD",
"DDDDgkkkkkkkklushhhnnnnnnnhnnnhnhhnhsttxmmmmmnnhhopiiiikkkkgDDDD",
"DDDDDkkgkkkkkkqshhshhhhhhhnhhhhhhhhhnnnnnnmmnnhhoopiklkkkkkgDDDD",
"DDDDDgkkkgklrttsqogghhhhhhhhhhhhhhhhhhhhnhhhhhhbobpilkkikkgDDDDD",
"DDDDDDkgkltttsrqloggohhhhhwunhhhhhhhhhhhhhhhhohobplkiikkkkgDDDDD",
"DDDDDDgkrctrrllklipqyqhyhuAwAuhhhyhhhhhhhhhbhoboppklklikkkDDDDDD",
"DDDDDDDkccllkkkkkiibyayqhAvAvAAxhhohyohoyooybboookliiikkkgDDDDDD",
"DDDDDDDgdirkkkkklklloqyauuAuAAuAuxhohooohooobooxblilklkkkDDDDDDD",
"DDDDDDDDgkgkkkkkkkkiioqxuxuuuuuAuCuooyoobooyxxxxgkiklkikgDDDDDDD",
"DDDDDDDDggkgkkkkkiklipqzxxxxxxxxuxxoooobobyxxxxykkllikigDDDDDDDD",
"DDDDDDDDDggkkgkkkkkkiillozxxxxxxxxobobooophxxzqkilikkkkDDDDDDDDD",
"DDDDDDDDDDggkkkkkkkikilkillzxxxxxzboopppppzxqkllilkiigDDDDDDDDDD",
"DDDDDDDDDDDggkgkkkkkkkkiilkllzxxybob##bppsqkklklkilklDDDDDDDDDDD",
"DDDDDDDDDDDDkgkgkkkkkkkkkkikikklsssq#gpppkkllilklikkDDDDDDDDDDDD",
"DDDDDDDDDDDDgggkkgkkkkkkkiikiikklttsliilillliilikklDDDDDDDDDDDDD",
"DDDDDDDDDDDDDDggkkkkkkkkkkkkkkikkrttsllilikilkikikDDDDDDDDDDDDDD",
"DDDDDDDDDDDDDDDggggkgkkkkkkkikilkkyttlklkllkklkigDDDDDDDDDDDDDDD",
"DDDDDDDDDDDDDDDDDgkkkgkkkkkkkkkkkilscciklkklikkDDDDDDDDDDDDDDDDD",
"DDDDDDDDDDDDDDDDDDgggkkgkkkkkkikklkkcdkiikikkgDDDDDDDDDDDDDDDDDD",
"DDDDDDDDDDDDDDDDDDDDgggkkkkkkkkkkkkkkkikkkkgDDDDDDDDDDDDDDDDDDDD",
"DDDDDDDDDDDDDDDDDDDDDDDgkgkkkkkkkkkkkkkgkgDDDDDDDDDDDDDDDDDDDDDD",
"DDDDDDDDDDDDDDDDDDDDDDDDDggggggggkgggDDDDDDDDDDDDDDDDDDDDDDDDDDD",
"DDDDDDDDDDDDDDDDDDDDDDDDDDDDDDDDDDDDDDDDDDDDDDDDDDDDDDDDDDDDDDDD",
"DDDDDDDDDDDDDDDDDDDDDDDDDDDDDDDDDDDDDDDDDDDDDDDDDDDDDDDDDDDDDDDD",
"DDDDDDDDDDDDDDDDDDDDDDDDDDDDDDDDDDDDDDDDDDDDDDDDDDDDDDDDDDDDDDDD",
"DDDDDDDDDDDDDDDDDDDDDDDDDDDDDDDDDDDDDDDDDDDDDDDDDDDDDDDDDDDDDDDD",
"DDDDDDDDDDDDDDDDDDDDDDDDDDDDDDDDDDDDDDDDDDDDDDDDDDDDDDDDDDDDDDDD"
};
