/* XPM */
static char *t2stat015[] = {
/* width height num_colors chars_per_pixel */
"    64    64       32            1",
/* colors */
". c #ffffff",
"# c #942108",
"a c #733118",
"b c #00e710",
"c c #008418",
"d c #84c69c",
"e c #527b63",
"f c #6ba584",
"g c #5a9473",
"h c #003918",
"i c #8cd6ad",
"j c #004a21",
"k c #005a29",
"l c #9cdebd",
"m c #426352",
"n c #184a31",
"o c #395a4a",
"p c #089c5a",
"q c #10734a",
"r c #008c52",
"s c #00945a",
"t c #00c684",
"u c #005242",
"v c #31e7c6",
"w c #39ffe7",
"x c #008473",
"y c #52ffef",
"z c #31c6c6",
"A c #008ca5",
"B c #00c6ef",
"C c #00a5d6",
"D c None",
/* pixels */
"DDDDDDDDDDDDDDDDDDDDDDDDDDDDDDDDDDDDDDDDDDDDDDDDDDDDDDDDDDDDDDDD",
"DDDDDDDDDDDDDDDDDDDDDDDDDDDDDDhhDhDDDDDDDDDDDDDDDDDDDDDDDDDDDDDD",
"DDDDDDDDDDDDDDDDDDDDDDDDDhjjkkkkkjkkjhhhDDDDDDDDDDDDDDDDDDDDDDDD",
"DDDDDDDDDDDDDDDDDDDDDjjkkkjkkkkkkkkjkkjjkjDDDDDDDDDDDDDDDDDDDDDD",
"DDDDDDDDDDDDDDDDDDDDjkkkkkkkkkkkkjkkjjjkjjkjDDDDDDDDDDDDDDDDDDDD",
"DDDDDDDDDDDDDDDDDDjkkkkkkkkkkkkjkkjrCCAAxjjkjjDDDDDDDDDDDDDDDDDD",
"DDDDDDDDDDDDDDDDjkkkkkkkkkkkkkkkkqCBBBBCBCxxjjjjDDDDDDDDDDDDDDDD",
"DDDDDDDDDDDDDDhkkkkkkkkkkkkkkkkkABBBBBBBBCCCAujjjhDDDDDDDDDDDDDD",
"DDDDDDDDDDDDDjkkkkkkkkkkkkkkkkkkBBBBBBCBCCCCAAxjjhhDDDDDDDDDDDDD",
"DDDDDDDDDDDDhkkkkkkkkkkkkkkkkkjxBBBBBBBCBCCCCCAxjjhhDDDDDDDDDDDD",
"DDDDDDDDDDDhkkkkkkkkkkqqqqqkkkkABBBBBBBBCCCCCAAAxjjhhDDDDDDDDDDD",
"DDDDDDDDDDhjkkkkkrdiiiiiiigeqnkCBBwwBBBCCCCCCACAAxjjhhDDDDDDDDDD",
"DDDDDDDDDDkkkkkriliddddiiiddfgezBBywBBCBCCCCACAAAAxhhhhDDDDDDDDD",
"DDDDDDDDDkkkkkziiididiiiiiiddffABBwyyBBCBCCCCAAAAAxujhhDDDDDDDDD",
"DDDDDDDDjkkkqdliiddddillllidffgfCBByyBBCCCCCACAAAAAxjhhhDDDDDDDD",
"DDDDDDDhkkkqdliiiiddilllllidfgggCCBBywBCCCCACAAAAAAxujhhhDDDDDDD",
"DDDDDDDkkkkglliiidiilll.l.ldfgeeACCCBBCBCCCCAAAAAAxxxhjhhDDDDDDD",
"DDDDDDDkknadlliiddiill.llllifgemmACCCCBCCCACACAAAAxxxhhjhhDDDDDD",
"DDDDDDhkk#mlliiidddilllll.livgermmAACCCCCCCAAAAAAxAxxujhhhDDDDDD",
"DDDDDhkkkafliliiddddll.l.lyyytmmqeqAAAACAAAAAAAAxAxxxujjjhhDDDDD",
"DDDDDhjkkklllliidddddlllllyyvvmqortxxAAAACAAAAAAxxxxuuhhjhhDDDDD",
"DDDDDjkkkpylilldiddfdddiddiwvvpoottpuxAAAAAAAAxxAxxuuuhjhhhDDDDD",
"DDDDDkjkjzyllllidddfgggggpgvvvtqttttxuuxxAxAxxAxxuxuuujjjjhhDDDD",
"DDDDhkkjkyyvllliddfggppepeptvttttttssuuuxuxxxxxxuxuuuujjjhhhDDDD",
"DDDDjkjkkvyyi..iddffepoqrqqpttttttssqkuuuuuuuuuuuuuuuuhjhjhhDDDD",
"DDDDjjkjjvyyillldfffepqqoqqqtvtttpsqkkkumuuuuuuuuuuuuhjjjhhhDDDD",
"DDDDjkjkjgyyil.lidffgettpppqttttssqukkuqfleuuuuuuuuuhjjjjjjhhDDD",
"DDDhkjkjjqyylll.lddfgeprppppsttssrkkkuqfdd.leouuuuhhjjjjjhjhhDDD",
"DDDDjjjjkjyyidlllifffgmqqqqqrrssrukkkqssxfl.ldfgnjjkjkjjjjhjhDDD",
"DDDhjkjkjjviddillldffgekkkkkkkssukkukqqrqrdllidgokkjkjjjjjjhhDDD",
"DDDhjjjjkjxfffdillddffgeqkkkkqrqkkukjkkkkjilliffejkkjjjjjhjhhDDD",
"DDDhjjjjjjoffdfddddfffggettsssqktxskkujujgiilddfeokjjjjjjjjhhDDD",
"DDDDjjjjjjkeeofffdddfffggepxsukttttkkkkogddiiddfgmjkjkjjjhjjDDDD",
"DDDDjjjjjjjkhhgfdffdffffgggpqkkstttskqkqfdiiiidfgmnjjjjjjjjjhDDD",
"DDDDjjjjjjjjhhefffffdffffggequkrtttsqqqngdddiddfgokjkjjjjjjhhDDD",
"DDDDjjcsrrrqqmggffdywffgfgggemkkttttrqorgddiidffgonjjjjjjjhjDDDD",
"DDDDjcbrrrsrsqeggfvywyffgfgggggmstttspgggdddddffemnjjjjjjjjjDDDD",
"DDDDhcckkkkkkumegvywyyydggggggggggtttrrsgdddfffgeonjjjjjjjjhDDDD",
"DDDDhkkkkukkkkkmzywwwwwwdgggggggegeggeqmffffffgemnnjkjjjjjjhDDDD",
"DDDDDhjjjjjjjjkqvwwwwwwywzgggegeggggggggfffffggmonnjjjjjjjjDDDDD",
"DDDDDhhjhjjjjjjkxzwwwwwwwwveeeeegeeegegggggeeemmohqkjjjjjjjDDDDD",
"DDDDDDhjjhjjjjjkkqzzwvywwwyfeeeeeeeeeeeeeeeemmoonmjkjkjjjjhDDDDD",
"DDDDDDhhhhjjjjjjjkqzzwzzwvzmeeememememememmmooohnxkjjjjjjjDDDDDD",
"DDDDDDDhjjjjjjjjkjknAzzwzwgmmmmmmmmmmmmmooooonhnojjkjkjjjhDDDDDD",
"DDDDDDDhhhhjjjjjjjjkqxzzzAoooooooooooooooonnhnnnnkkjjjjjjDDDDDDD",
"DDDDDDDDhjhjjjjjjjjjjjxzenonononooooAfxexooonhnnhkjkjkjjDDDDDDDD",
"DDDDDDDDDhjhhjjjjjjjjkjjnnnnaannnnnmAzAzAAAonnhnkkjkjjjhDDDDDDDD",
"DDDDDDDDDhhjjhjjjjjjjjjjjjna##annnnxAfAgAfAnahnjjjjkjjkDDDDDDDDD",
"DDDDDDDDDDhhhjjjjjjjjjkjkkjsohnnnnoAfAzAfAen#hjkkkjjjjhDDDDDDDDD",
"DDDDDDDDDDDhhhhjjjjjjjjjjjjstpunhmzAzgAAAgjhnkjjjjkjjhDDDDDDDDDD",
"DDDDDDDDDDDDhhhhhjjjjjjjjjkkttrjnjjjjkqnukkkjjkjkjjkDDDDDDDDDDDD",
"DDDDDDDDDDDDDhjhjhjjjjjjjjjjstskjjjjjkjkkjkjjkjkjjkDDDDDDDDDDDDD",
"DDDDDDDDDDDDDDhhhjhhjjjjjjjjqtxqjkkjkjkkjkjkjjkjjjDDDDDDDDDDDDDD",
"DDDDDDDDDDDDDDDhhhhjhjhjjjjjkttsjjjkjjjkjkjjkjjjjhDDDDDDDDDDDDDD",
"DDDDDDDDDDDDDDDDDhhhjhjjjjjjjstxkjjjjkjjkjjkjjjhDDDDDDDDDDDDDDDD",
"DDDDDDDDDDDDDDDDDDhhhjjhjjjjjkxckjjjkjjkjjjjjhDDDDDDDDDDDDDDDDDD",
"DDDDDDDDDDDDDDDDDDDDhhhjjhjjjjcbckjjjjjjjjjhDDDDDDDDDDDDDDDDDDDD",
"DDDDDDDDDDDDDDDDDDDDDDDhhjhjjjkckjjjjjjjhhDDDDDDDDDDDDDDDDDDDDDD",
"DDDDDDDDDDDDDDDDDDDDDDDDDDhhhjjjjjjhhhDDDDDDDDDDDDDDDDDDDDDDDDDD",
"DDDDDDDDDDDDDDDDDDDDDDDDDDDDDDDDDDDDDDDDDDDDDDDDDDDDDDDDDDDDDDDD",
"DDDDDDDDDDDDDDDDDDDDDDDDDDDDDDDDDDDDDDDDDDDDDDDDDDDDDDDDDDDDDDDD",
"DDDDDDDDDDDDDDDDDDDDDDDDDDDDDDDDDDDDDDDDDDDDDDDDDDDDDDDDDDDDDDDD",
"DDDDDDDDDDDDDDDDDDDDDDDDDDDDDDDDDDDDDDDDDDDDDDDDDDDDDDDDDDDDDDDD",
"DDDDDDDDDDDDDDDDDDDDDDDDDDDDDDDDDDDDDDDDDDDDDDDDDDDDDDDDDDDDDDDD"
};
