/* XPM */
static char *t2stat012[] = {
/* width height num_colors chars_per_pixel */
"    64    64       32            1",
/* colors */
". c #ffffff",
"# c #b52910",
"a c #632910",
"b c #00ce08",
"c c #4a6352",
"d c #9cdeb5",
"e c #5a846b",
"f c #184229",
"g c #00b54a",
"h c #003918",
"i c #004a21",
"j c #005a29",
"k c #84b59c",
"l c #8ccead",
"m c #426352",
"n c #42735a",
"o c #529473",
"p c #6b9c84",
"q c #315242",
"r c #39ad7b",
"s c #007342",
"t c #00945a",
"u c #009c63",
"v c #00ce84",
"w c #007b52",
"x c #00ad73",
"y c #52ffef",
"z c #107b7b",
"A c #18bdbd",
"B c #00ceef",
"C c #0094ad",
"D c None",
/* pixels */
"DDDDDDDDDDDDDDDDDDDDDDDDDDDDDDDDDDDDDDDDDDDDDDDDDDDDDDDDDDDDDDDD",
"DDDDDDDDDDDDDDDDDDDDDDDDDDDDDhDhhhhDDDDDDDDDDDDDDDDDDDDDDDDDDDDD",
"DDDDDDDDDDDDDDDDDDDDDDDDhijjjjjjjijjiihhDDDDDDDDDDDDDDDDDDDDDDDD",
"DDDDDDDDDDDDDDDDDDDDDijjjjjjjjjijjijjjiijihDDDDDDDDDDDDDDDDDDDDD",
"DDDDDDDDDDDDDDDDDDDijjjjjjjjjjjjjijjiiiiiiijhDDDDDDDDDDDDDDDDDDD",
"DDDDDDDDDDDDDDDDDijjjjjjjjjjjjjjjjiwszjjiiiiiihDDDDDDDDDDDDDDDDD",
"DDDDDDDDDDDDDDDDijjjjjjjjjjjjjjjiwABBBBBCwiiiiihDDDDDDDDDDDDDDDD",
"DDDDDDDDDDDDDDijjjjjjjjjjjjjjjijABBBBBBCBCBzsiiiihDDDDDDDDDDDDDD",
"DDDDDDDDDDDDDijjjjjjjjjjjjjjjjjCBBBBBBBBBCCCCziiihhDDDDDDDDDDDDD",
"DDDDDDDDDDDhjjjjjjjjjjjjjjjjjjzBBBBBBBBBBBBCCCCiiiihDDDDDDDDDDDD",
"DDDDDDDDDDDjjjjjjjjjjsfsssssjjzBBBBBBBBBCBCBCCCCwiihhDDDDDDDDDDD",
"DDDDDDDDDDjjjjjjjjjwppoooonfsjCBByBBCBBBBCBCCCCCCshihhDDDDDDDDDD",
"DDDDDDDDDijjjjjjswldddddddddonzBByyBBBBCBBCCBCCCCzwhhhhDDDDDDDDD",
"DDDDDDDDhjjjjjskddlddd.ddddlkkkBBByyBBBBCBCCCCCCCCzhihhDDDDDDDDD",
"DDDDDDDDjjjjjrdddlddddd..ddlkprABByyBBBBCBCBCCCCCzCziihhDDDDDDDD",
"DDDDDDDjjjjjrdddldddd.y.dddkpppACBByBBCBCBCCCCCCCCzzwhhhhDDDDDDD",
"DDDDDDhjjjjwdddllldd.d.dd.dlpreoCBCBBBBCBCCCCCCCCzCzhiihhDDDDDDD",
"DDDDDDjjjjjrddllllddddd.dddlponnzCCCBABCCBCCCCCCCzzCzhihhhDDDDDD",
"DDDDDhijjirydddllldddd.dd.dkponnnCCCCCCBCCCCCCCCzCzzzziihhDDDDDD",
"DDDDDhijjjkdddlllllld.dd.dlkpnnnmzzCCCCCCCCCCCCzCzzzzhhihhDDDDDD",
"DDDDDijjjnddddllklkkkdddddkponnswnwzCCCCCCCCCCzCzzzzhzhihhhDDDDD",
"DDDDhijijoldddllkkkpplllkkponnwvvvvwzzCCCCCCzzzzzzhzhhhiihhDDDDD",
"DDDDhjjjiolldddlkkpooyrrrotnnnrAvvvwwzhzzzzzCzzzzzzzhzhiiihDDDDD",
"DDDDiijiihpddddkkppeurvArtqssjvvvvxxwwhzhzhzhzzhzhhhzhhihhhhDDDD",
"DDDDjjijhhlld.dlkkponurrvrggfsvvvvxtwswhzhzhzhhzhzhzhhwhiihhDDDD",
"DDDhijijiollyy.lkpponwttuxxvgjvvvuuwjiiizhhzhzhhzhhhzhhiihhhDDDD",
"DDDhiiijiokyyyddkkkooqsswttuuvvvxuwssisqpkChhhzhhhzhhiiiiiihDDDD",
"DDDhijjjirdyyyy.lkppesjjsswwtxvxtwsjijiopdddozhzhzhhiiiiiihhDDDD",
"DDDhigbguryyyyyddkppocjjjjjswvxuwsjjjiopkkd.lkpcfiiisiiiihiiDDDD",
"DDDhhjbsuAyyyyyydlkpponjjvtjwxuwwjjjsqoppkd.dkkpmijiiiiiiihihDDD",
"DDDhiiijsuyyyyyydlkppeeqjvvvxvvujjjiwwnpkkdddlppnjjijiiihihiDDDD",
"DDDhiiijjsAyyyyyylkkppoewvvxxvvxsjiwttuepklddlkpefjijiiiiiiiDDDD",
"DDDhiiiiiiwyyyyyylkppppoexvxxvvxsjsswwtuupkldkkpeqjiiiiiiiihhDDD",
"DDDhhiiiiiiAyyyyykkkkppoeoutvvvxsiijjswwtuolllkkecijiiiiiiihDDDD",
"DDDDiiiiiiisyyyyppkkppppoeewvvvusjjsijjswwwllkkkenjijiiiiiiiDDDD",
"DDDDiiiiiiijAyyppppppppppoeervvujssnwwijjsollkkpecfjiiiiiiihDDDD",
"DDDDiiiiiiiisykoppppppppopoeeoxtjssnrerwimplkkkpecfjiiiiiihiDDDD",
"DDDDhhiiiiiiireoopppppppoopooeenjntoopkkppkkkkppecfiiiiiiiihDDDD",
"DDDDhihihiiiijneeeoepooopooeooeoenorkllkkkkkkppeeqfiijiiiiiDDDDD",
"DDDDDhihiiiiiijn##eoeoopeoepeeeeeeeopkpkppkpppeecqfijiiiiiiDDDDD",
"DDDDDhiiihiiiiif#aqeeeeeeeeeeeeeeeeopopoppepeeecqffiiiiiiiDDDDDD",
"DDDDDDhhiihiiiiiffcceeeeeeeeeeeeeeeeeeeeeeeeeeccqffijiiiiiDDDDDD",
"DDDDDDhhhhiiiiiiifqnmnnonenenenneneeneeeeeecccqqffiiijiiihDDDDDD",
"DDDDDDDhhiiiiiiijijqmmryApnnnnnennncncnccccccqqfffijiiiiiDDDDDDD",
"DDDDDDDhhihhiiiiiiifqzAByBromccmcccccccmcqqqfqffffiiiiiihDDDDDDD",
"DDDDDDDDhhiiiiiiiijisrAAAAAArmqmqmqqqqqqqqqffqqqhjjjijiiDDDDDDDD",
"DDDDDDDDhhhhhiiiiiiijxArrkAAAAoqqqqqqqqqfqqrzCCahiiiiiihDDDDDDDD",
"DDDDDDDDDhhhiihiiiiijvxzzCArCArCmfqffffffzrCCrzafijjiihDDDDDDDDD",
"DDDDDDDDDDhhhhiiiiiiwvxjiwrCrrCrfffffffffCrCoCsjijiiihDDDDDDDDDD",
"DDDDDDDDDDDhhihihiiitvujjfinCCoffffhffffqCoCzqiijiiihDDDDDDDDDDD",
"DDDDDDDDDDDDhhhhiiiiuvuiiiiifsfffhDDfffqrzsiijijijihDDDDDDDDDDDD",
"DDDDDDDDDDDDDhhhhihivxsiiiiiiiiiihhffffsijiijijiiihDDDDDDDDDDDDD",
"DDDDDDDDDDDDDDhhhhiswwshiiiiijijijiiijiiijijijiiihDDDDDDDDDDDDDD",
"DDDDDDDDDDDDDDDDhhhhbbiiiiiiiiiijijiiijjijiiiiihDDDDDDDDDDDDDDDD",
"DDDDDDDDDDDDDDDDDhhhbbhiiiiiiiiiiiiijiijiijiiiDDDDDDDDDDDDDDDDDD",
"DDDDDDDDDDDDDDDDDDDhhhhihiiiiiiiiiijiiiiiiiihDDDDDDDDDDDDDDDDDDD",
"DDDDDDDDDDDDDDDDDDDDDhhiiiiiiiiiiijiiiiiiihDDDDDDDDDDDDDDDDDDDDD",
"DDDDDDDDDDDDDDDDDDDDDDDDhhhiiiiiiiiiiihhDDDDDDDDDDDDDDDDDDDDDDDD",
"DDDDDDDDDDDDDDDDDDDDDDDDDDDDhhhhhDhDDDDDDDDDDDDDDDDDDDDDDDDDDDDD",
"DDDDDDDDDDDDDDDDDDDDDDDDDDDDDDDDDDDDDDDDDDDDDDDDDDDDDDDDDDDDDDDD",
"DDDDDDDDDDDDDDDDDDDDDDDDDDDDDDDDDDDDDDDDDDDDDDDDDDDDDDDDDDDDDDDD",
"DDDDDDDDDDDDDDDDDDDDDDDDDDDDDDDDDDDDDDDDDDDDDDDDDDDDDDDDDDDDDDDD",
"DDDDDDDDDDDDDDDDDDDDDDDDDDDDDDDDDDDDDDDDDDDDDDDDDDDDDDDDDDDDDDDD",
"DDDDDDDDDDDDDDDDDDDDDDDDDDDDDDDDDDDDDDDDDDDDDDDDDDDDDDDDDDDDDDDD"
};
