/* XPM */
static char *t2stat002[] = {
/* width height num_colors chars_per_pixel */
"    64    64       32            1",
/* colors */
". c #ffffff",
"# c #843918",
"a c #424a29",
"b c #00d608",
"c c #00a510",
"d c #314a39",
"e c #638c73",
"f c #184229",
"g c #005221",
"h c #84bd9c",
"i c #6ba584",
"j c #003918",
"k c #005a29",
"l c #b5f7d6",
"m c #9cdebd",
"n c #529473",
"o c #4a7b63",
"p c #006b42",
"q c #008452",
"r c #00945a",
"s c #08a56b",
"t c #00c684",
"u c #39524a",
"v c #21dea5",
"w c #5affef",
"x c #39f7e7",
"y c #29b5b5",
"z c #006b6b",
"A c #00849c",
"B c #00bdef",
"C c #009cc6",
"D c None",
/* pixels */
"DDDDDDDDDDDDDDDDDDDDDDDDDDDDDDDDDDDDDDDDDDDDDDDDDDDDDDDDDDDDDDDD",
"DDDDDDDDDDDDDDDDDDDDDDDDDDDDDDjDjDDDDDDDDDDDDDDDDDDDDDDDDDDDDDDD",
"DDDDDDDDDDDDDDDDDDDDDDDDDjjgkkkkgkkjjjjDDDDDDDDDDDDDDDDDDDDDDDDD",
"DDDDDDDDDDDDDDDDDDDDDDgkkkkkkkkgkkgkgggkgjDDDDDDDDDDDDDDDDDDDDDD",
"DDDDDDDDDDDDDDDDDDDjgkkkkkkkgkkkkgkgkggggggjDDDDDDDDDDDDDDDDDDDD",
"DDDDDDDDDDDDDDDDDgkkkkkkkkkkkkkkkkkgkkkggggggjDDDDDDDDDDDDDDDDDD",
"DDDDDDDDDDDDDDDDgkkkkkkkkkkgkkkkkgkpACCCAzgggggjDDDDDDDDDDDDDDDD",
"DDDDDDDDDDDDDDDkkkkkkkkkkkkkkgkgggBBBBBBBBBAAggjjDDDDDDDDDDDDDDD",
"DDDDDDDDDDDDDjkkkkkkkkkkkkkkkkkkkCBBBBBBBBCCCCzjggDDDDDDDDDDDDDD",
"DDDDDDDDDDDDgkkkkkkkkkkkkkkkkkkgABBBBBBBBCBCCCCAkggDDDDDDDDDDDDD",
"DDDDDDDDDDDgkkkkkkkkkpkpkpkkkkkkCBBBBBBBBBBCCCCAApgjjDDDDDDDDDDD",
"DDDDDDDDDDgkkkkkkkkkpqhiionqkkkgBBBxBBBBBCCCCCACCApgjjDDDDDDDDDD",
"DDDDDDDDDjkkkkkkkkqhmmmmmmhhhhoqBBxxxBBBCBCCCCCAAAApjjDDDDDDDDDD",
"DDDDDDDDjgkkkkkkhhlmmlmmmmhhiiiiBBBwxBBBBCBCCCCCAAAApjjDDDDDDDDD",
"DDDDDDDDgkkkkkkhmlmlllllmmhiiineCBBxwxBBCBCCCCACAAAAzkjjDDDDDDDD",
"DDDDDDDgkkkkkgimmmlllllllmhhinonACBBxxBBBCCCCCCAAAAAzzjjDDDDDDDD",
"DDDDDDDkkkkk#emmmllll.llllmhnnooqABCBBBCCCCCCAACAAAAzzjjjDDDDDDD",
"DDDDDDkkkkkk#hwmlmll.lllllmhinodozCCCBCBCCCCCCAAAAAzAzzjjjDDDDDD",
"DDDDDjkkkkkkhwwlmlll.lllllmhinoquuAACCCCCCCCACAAAAAAzzzjjjDDDDDD",
"DDDDDjkgkgkswwwmmll.llllllmhinvtdpuAAACCCCCAAAAAAAzzzzjjjjDDDDDD",
"DDDDDkgkkkkywwwlmlllllllmmhivxvtqduqzAAAAAAAAAAAAzAzzzzjkjjDDDDD",
"DDDDjkkgkggxwwwmmmmmmhhhhhiinvvvqdstzzzAAAAAAAAzAzzzzjzjjjjDDDDD",
"DDDDgkgkkkgmwwwlmmmmhhinnnrusvvtsstttpzzzzAzAzAzzzzzzzjzjgjDDDDD",
"DDDDkgkkgkkvwwwlmmmhhivvoqoqqtvtttttrqzjzzzzzzzzzzjzjjjjjjjjDDDD",
"DDDjkgkgkgkxwwmllmhhhinvrdqfftvttttsrqppjjzjzjzjzjzjzzzjkjjjDDDD",
"DDDjkkgkgkgywhml.mhhhiovrqfqksttttsrqpkkpuzjzjzjzjzjjjjjkjjjDDDD",
"DDDjgkgkgkgyhhmlllhhiiossssrqqtttsrqpkkkpehojzjzjzjzjzjkjggjDDDD",
"DDDjkgkgkgkihhhmllmhhindqrsssrttssqpkkkpehhllnuzjzjjpjjkgjjjjDDD",
"DDDgggkgkggnhhhhllmhiinoppppqrrtrqpkkkkoiihmlmhiefkkjkkjgjgjjDDD",
"DDDgggkggkgkeuhhmllhhiinokkkkpprrppkkkqneihmllhhiofkkgkgjgjjDDDD",
"DDDgkgggggkg##ihhmmhhiiinokkkkkrqkkkkqqrrrnimlhhiokkgggggjggjDDD",
"DDDgggggkggg#ahihhmmhhiineqtrpqrrsqpkkppqqqqhmmhieukgkjgjgjjjDDD",
"DDDggcppggggkeiihhwxhiiieeersrqstttpkkkkkkpphmhhheuggggggjgjDDDD",
"DDDgcbrrssqqpuiihxxwxhiiienoqqkstttqkkkkkkkohhhhieofgggjggjgDDDD",
"DDDjgcrppqqqsrnexwwwxwiiiieeeokqtttrppppkdnhhmhhhiofkggkjggjjDDD",
"DDDjggpkkkkpppoywxxxwxwiiiieeooptvtspdqupohhmhhhieodggggggjgDDDD",
"DDDDgjggggkkkkqxxxwwxwxmneeineeostttqrnosoihhhhhieudgggjgjgjDDDD",
"DDDDgggggjgggkkswxxxwxxxmnieeeeeenntqnnnnohhhhhieeufkgkgggggDDDD",
"DDDDjgjgjgggggfksxxxxwxxxieeeeeeeoneonhhiihhhhiieoufggggggjjDDDD",
"DDDDjjgjgjgjggggkyxxxxxxxieeeeeoeeoenenniiiiieeeoudfgggggggDDDDD",
"DDDDDgjgjggkggkgggyxxxxxyeonoeoeeoeoeeeeeeeeeeeuuudfggggjgjDDDDD",
"DDDDDgjgjgjgjggkggkyyxxxoooooooooooooooeoeooeoouudffgkgkgjDDDDDD",
"DDDDDDjjgjgjkggggkgkyyxoooooooooooooooooooouuuuuafzpggggggDDDDDD",
"DDDDDDjjjgjgggggkggkkyouuuuuouououououuuuuuuudddfunkkggkjjDDDDDD",
"DDDDDDDgjjgjgjgggkgkgggfdddduuuuuuiynuouuuuuddffuApkgggggDDDDDDD",
"DDDDDDDjjjjgggjkjkggkgkkffjjfduuuyyyyynooddfffffykkggkgjjDDDDDDD",
"DDDDDDDDjjgjjggggggggkgkgjDjfdfddyyyyyyyyyffffffpkkgggkjDDDDDDDD",
"DDDDDDDDjjjjgjgjgggkggkgkkrdffffoyyyyAyAAofffffdkkgkgggDDDDDDDDD",
"DDDDDDDDDjjjgjggggggggggkkttpuuAyAnAnynyyufaaffkkgggggDDDDDDDDDD",
"DDDDDDDDDDjjjgjjgjgggkggggstrkgposyyAAyAofa#DfggkgkggDDDDDDDDDDD",
"DDDDDDDDDDDjjjjgjggjggggggstskkkkkgpsoAdkfDafkkkggggjDDDDDDDDDDD",
"DDDDDDDDDDDDjjgjjgjgkjgggkptskgggggkggggkgkggggggggjDDDDDDDDDDDD",
"DDDDDDDDDDDDDjjjgjgjgggjkgkttpkgkgggkggggkgkggkgggjDDDDDDDDDDDDD",
"DDDDDDDDDDDDDDDjjjjgjjkgjgkttqjkggkgkggkgkgkgggkjDDDDDDDDDDDDDDD",
"DDDDDDDDDDDDDDDDjjjjjgjjggkstqkgggggggkggkggkggjDDDDDDDDDDDDDDDD",
"DDDDDDDDDDDDDDDDDDjgjgjggjgqppjkgkgggkggggkggjDDDDDDDDDDDDDDDDDD",
"DDDDDDDDDDDDDDDDDDDjjjgjjkjkcbggggggkggggggjDDDDDDDDDDDDDDDDDDDD",
"DDDDDDDDDDDDDDDDDDDDDDjjgjgjccjggjkgggggjjDDDDDDDDDDDDDDDDDDDDDD",
"DDDDDDDDDDDDDDDDDDDDDDDDDjjgjjgjggjgjjjDDDDDDDDDDDDDDDDDDDDDDDDD",
"DDDDDDDDDDDDDDDDDDDDDDDDDDDDDjDjDDDDDDDDDDDDDDDDDDDDDDDDDDDDDDDD",
"DDDDDDDDDDDDDDDDDDDDDDDDDDDDDDDDDDDDDDDDDDDDDDDDDDDDDDDDDDDDDDDD",
"DDDDDDDDDDDDDDDDDDDDDDDDDDDDDDDDDDDDDDDDDDDDDDDDDDDDDDDDDDDDDDDD",
"DDDDDDDDDDDDDDDDDDDDDDDDDDDDDDDDDDDDDDDDDDDDDDDDDDDDDDDDDDDDDDDD",
"DDDDDDDDDDDDDDDDDDDDDDDDDDDDDDDDDDDDDDDDDDDDDDDDDDDDDDDDDDDDDDDD"
};
