/* XPM */
static char *t2stat016[] = {
/* width height num_colors chars_per_pixel */
"    64    64       32            1",
/* colors */
". c #ffffff",
"# c #9c2918",
"a c #525221",
"b c #00b508",
"c c #00ce18",
"d c #184229",
"e c #94cead",
"f c #527b63",
"g c #5a9473",
"h c #003918",
"i c #004a21",
"j c #005a29",
"k c #a5e7c6",
"l c #426352",
"m c #84c6a5",
"n c #6b9c84",
"o c #315242",
"p c #087b4a",
"q c #00a563",
"r c #00945a",
"s c #009c63",
"t c #00bd7b",
"u c #10e7a5",
"v c #005242",
"w c #52ffef",
"x c #29bdbd",
"y c #007b7b",
"z c #18d6ef",
"A c #00849c",
"B c #0094c6",
"C c #00b5ef",
"D c None",
/* pixels */
"DDDDDDDDDDDDDDDDDDDDDDDDDDDDDDDDDDDDDDDDDDDDDDDDDDDDDDDDDDDDDDDD",
"DDDDDDDDDDDDDDDDDDDDDDDDDDDDDDhDDDDDDDDDDDDDDDDDDDDDDDDDDDDDDDDD",
"DDDDDDDDDDDDDDDDDDDDDDDDDhiijjjjjijihhhDDDDDDDDDDDDDDDDDDDDDDDDD",
"DDDDDDDDDDDDDDDDDDDDDDijjjijjjjjjjijjiijihDDDDDDDDDDDDDDDDDDDDDD",
"DDDDDDDDDDDDDDDDDDDDijjjjjjjjjjijjjiijiiiijihDDDDDDDDDDDDDDDDDDD",
"DDDDDDDDDDDDDDDDDDijjjjjjjjjjjjjijjpCAAAyiiiiiDDDDDDDDDDDDDDDDDD",
"DDDDDDDDDDDDDDDDhjjjjjjjjjjjjjjjjjBzCzCCCCAyiiihDDDDDDDDDDDDDDDD",
"DDDDDDDDDDDDDDDijjjjjjjjjjjjjjjipBzzzCCCCCBBBriiiDDDDDDDDDDDDDDD",
"DDDDDDDDDDDDDhjjjjjjjjjjjjjjjjjjAzzCCCCCCBCBBByviihDDDDDDDDDDDDD",
"DDDDDDDDDDDDhjjjjjjjjjjjjjjjjjjjzzzzzCCCCCBCBBAAjihhDDDDDDDDDDDD",
"DDDDDDDDDDDhijjjjjjjjjplpjpjjjjpCzzCzCCCCCCBBBBAAiihhDDDDDDDDDDD",
"DDDDDDDDDDDijjjjjpnmeeeeeeggfjjyCzzzzCCCCCBBBBBBAAiihhDDDDDDDDDD",
"DDDDDDDDDDjjjjjpmeemmmmmmmmnmngAzCzwzCCCCBCBBBAAAAyihhDDDDDDDDDD",
"DDDDDDDDDijjjaleeeemeeemmmmmnnnnCzzwwzCCCBBCBBBBAAAviihDDDDDDDDD",
"DDDDDDDDijjjankeemmmeeekmmmnnggnBCzwwzCCCCBBBBBAAAAyihhhDDDDDDDD",
"DDDDDDDhjjjjekeeeeeeeekkkkmmnggfBCCzwzzBCBBBBBAAAAAyvihhhDDDDDDD",
"DDDDDDDhjjjxkekeeeeekkkkkkkmngffgBCCzzCCBBCBBABAAAyyyhihhDDDDDDD",
"DDDDDDhijjjweeeeeeekkkkk.kkmngfpfyBBCCCBCBBBBBAAAAAyvvhihhDDDDDD",
"DDDDDDhjjjgwekeeeeeekk.kkkkmmgflpfABBBCBBBBBBAAAAyyyyviihhDDDDDD",
"DDDDDDjijjxwkeeemmeeekkkkkkmngguqlpAABBBBBBBAAAAAAyyvviihhhDDDDD",
"DDDDDhjjjjxeekeememmmkkkkkenntuutrtyyAABBAAAAAAAyyyvyvhhihhDDDDD",
"DDDDDjijijwekkkemmmmnmmmmnnggnuuttuqvyyAAAAAAAyyyyvyvvhiihhDDDDD",
"DDDDhijjjpeemkkemmmnntggggfrpquuutttsvvyyyAyAyyyvyvvvviiiihhDDDD",
"DDDDhijijgemekkkmmmngnututppoquutttsrrvvvyvyvyyvyvvvvviiihhhDDDD",
"DDDDiijjigmmek.kmmnnfttntgqoppuuttqrpvvvvvvvvvvvvvvvvvhiihihDDDD",
"DDDDijijjihnmkkkemnnglrqttttpqtttqrpjjjvlvvvvvvvvvvvvhiiiihhhDDD",
"DDDhiijiiihmmek.emmngfpppprrqtttqrpvjjvpnemvvvvvvvvviiiihihhDDDD",
"DDDDiijijiommekwkmnnngldjppppqttsrvjjjonnekkmfovvhhhiiiiiiihhDDD",
"DDDhjiijijgnmewwkemnngfpqjjjpqtrpjjjjvgnmme.kmmnoivjjiiiihhiDDDD",
"DDDhiijjjijnmwwwwkmmnngguqpjjssppjjvjrfgnmmkkmnnljijijiiiiihhDDD",
"DDDhiccqqrpnwwwwwwmmnngfpttttssrrjvjprssgneeemmngdijiiiiihihhDDD",
"DDDDibjrrrqxwwwwwwmmnnngffttsrtutsjjvvpprsgeeennnojjiiiiiiihhDDD",
"DDDhiipjjvpwwwwwwwwmnnnnggrqrptutqjvjjjppprmeemnnljiijiiiiiiDDDD",
"DDDDiiiijjjpwwwwwwwwnnnnnggfpjtutqjjjvjivjpeemmngldjiiiiiihihDDD",
"DDDhiiiiiiiipwwwwwwwmnnnnggffvtutqjpjpvjjoneeenngfjijiiiiiihhDDD",
"DDDDhiiiiiiiiuwwwwwwmnnnnngggftuuqpppoppfneeenmnnldiiiiiiiiiDDDD",
"DDDDiiiiiiiiivzwwwwxgnnnggngggfgqqvplqgfgmmmnmnnfldjjiiiiiiiDDDD",
"DDDDhihiiiiiiipzwwxngnggngggggggggpfgngnnmnmnnngfodjiiiiiiiiDDDD",
"DDDDDiiiihiiiiixzwngggggggggggggggggggmmnnnnnnnflodiiiiiiihhDDDD",
"DDDDDhihiiiiiiijunffffffgfgggffgfgfgggggnnnnngffoddjijiiiiiDDDDD",
"DDDDDhhiiihiiiijjolfffffffffffgffffffffffgfffllloddijiiiiiiDDDDD",
"DDDDDDihhiiiiiiijjdol#lfffffggffffffffffffffllooddiiiijiiihDDDDD",
"DDDDDDhiiihiiiiiijjd###llflfxzxnlflfffffllllooddddjjjiiiiiDDDDDD",
"DDDDDDhhhhiiiiiiiijjdadololgwzwzzglllllooloooddoyhiiiiiiihDDDDDD",
"DDDDDDDhhihiiiiiiiiijidooooxxxxxxzxnlooooododoyAghijijiiiDDDDDDD",
"DDDDDDDDhhihiiiiiijiijiddogxxxxxxxxxxoddddddlxgxvijiiiiihDDDDDDD",
"DDDDDDDDDhhihiiiiiijiijpsyxAnxxxnxAxydddddddAAAjiiijjiihDDDDDDDD",
"DDDDDDDDDhhhiihiiiiiijiqtqpyxAnAAnxAldddddddnoijjjjiiijDDDDDDDDD",
"DDDDDDDDDDhhhiiiiiiiiiistqjjpyxxxAxgddaadddovjjiiiiiiihDDDDDDDDD",
"DDDDDDDDDDDhhhhiiiiiiiiqtsijiiijsgyvd##DdddjjijjijijihDDDDDDDDDD",
"DDDDDDDDDDDhhhihihiiiiittsjijiiiijjiidhdiijjijijijiihDDDDDDDDDDD",
"DDDDDDDDDDDDDhhhhiiiiiiqtsiiiiijijiijiiijjjiijiiiijDDDDDDDDDDDDD",
"DDDDDDDDDDDDDDhhhihihiiqtsijiiiijijjiijjijijjiijiiDDDDDDDDDDDDDD",
"DDDDDDDDDDDDDDDhhhhiiiiqtsiiiiiiiiiijiijijiijijiihDDDDDDDDDDDDDD",
"DDDDDDDDDDDDDDDDDhhhhihspviiiiijiijiijiijijiiiihDDDDDDDDDDDDDDDD",
"DDDDDDDDDDDDDDDDDDhhihhbcbiiiiiiijiiijijiiiiihDDDDDDDDDDDDDDDDDD",
"DDDDDDDDDDDDDDDDDDDDhhiibjiiiiiiiiiiiiiiiiihDDDDDDDDDDDDDDDDDDDD",
"DDDDDDDDDDDDDDDDDDDDDDDhiihiiiiiiiiiiiiiihDDDDDDDDDDDDDDDDDDDDDD",
"DDDDDDDDDDDDDDDDDDDDDDDDDDhhihiiiiihhhhhDDDDDDDDDDDDDDDDDDDDDDDD",
"DDDDDDDDDDDDDDDDDDDDDDDDDDDDDDDDDDDDDDDDDDDDDDDDDDDDDDDDDDDDDDDD",
"DDDDDDDDDDDDDDDDDDDDDDDDDDDDDDDDDDDDDDDDDDDDDDDDDDDDDDDDDDDDDDDD",
"DDDDDDDDDDDDDDDDDDDDDDDDDDDDDDDDDDDDDDDDDDDDDDDDDDDDDDDDDDDDDDDD",
"DDDDDDDDDDDDDDDDDDDDDDDDDDDDDDDDDDDDDDDDDDDDDDDDDDDDDDDDDDDDDDDD",
"DDDDDDDDDDDDDDDDDDDDDDDDDDDDDDDDDDDDDDDDDDDDDDDDDDDDDDDDDDDDDDDD"
};
