/* XPM */
static char *urnlrg004[] = {
/* width height num_colors chars_per_pixel */
"    32    32       31            1",
/* colors */
". c #e7ff00",
"# c #394200",
"a c #9cb500",
"b c #c6e700",
"c c #5a6b00",
"d c #849c00",
"e c #b5d600",
"f c #4a5a00",
"g c #6b8400",
"h c #739400",
"i c #293900",
"j c #a5e700",
"k c #529c00",
"l c #73d600",
"m c #316300",
"n c #7bf700",
"o c #5ace00",
"p c #4ade00",
"q c #219c00",
"r c #18ad00",
"s c #08d600",
"t c #08ff00",
"u c #000800",
"v c #003100",
"w c #004a00",
"x c #007300",
"y c #009400",
"z c #00bd00",
"A c #00de00",
"B c #00f700",
"C c None",
/* pixels */
"CCCCCCCCCCCCCCCCCCCCCCCCCCCCCCCC",
"CCCCCCCCCCCCCCCCCCCCCCCCCCCCCCCC",
"CCCCCCCCCCCCCvuCCCCuuCCCCCCCCCCC",
"CCCCCCCCCCCidpyxwwkmuCCCCCCCCCCC",
"CCCCCCCCCCd.nBxwxryxwvCCCCCCCCCC",
"CCCCCCCCCk.ntzwmjbhhmwwiCCCCCCCC",
"CCCCCCCCmentByr.behecmxkd#wuCCCC",
"CCCCCCCijptBBrj.eadbdffqagccuCCC",
"CCCCvxkbbpABBtebdgcb.g#mqdgfuCCC",
"CCCvceeablsBAtkaggcb.d#vmgcfiCCC",
"CCCa.beajlsBBzrddgc.a##wmfc#iCCC",
"CC#beejjnorBByzrhg#a####gwimmCCC",
"CCapn...edhssyzyrqff##i#hfwwwuCC",
"CCot...eggffsAAAAAxw#f##dg#wwuCC",
"CCkn.eeeggcmpBAAAxxww###dd#wvCCC",
"CCd.beeeacg#pBBBxxxxwi##cg#wuCCC",
"CCfabeeeecc#lBAAxxxwwi##gcivCCCC",
"CCCufdaeegc#qAzAyxmiwi#i##iCCCCC",
"CCCCCgdgaa##kzAsodhf#w##iivCCCCC",
"CCCCC#dggdfihozp.ac##iiiiwvCCCCC",
"CCCCCiaaag##c.slbc##vwwwvwuCCCCC",
"CCCCCicdabahfjtq.pyrxyxwvvuCCCCC",
"CCCCCCuuaeada.nn.nryyzywuCCCCCCC",
"CCCCCCCCieead.jj.enqxwuuCCCCCCCC",
"CCCCCCCCCfead..nbb.#ivCCCCCCCCCC",
"CCCCCCCCCCiad.cyBncvvuCCCCCCCCCC",
"CCCCCCCCCCCCfiCCyxuCCCCCCCCCCCCC",
"CCCCCCCCCCCCCCCCCCCCCCCCCCCCCCCC",
"CCCCCCCCCCCCCCCCCCCCCCCCCCCCCCCC",
"CCCCCCCCCCCCCCCCCCCCCCCCCCCCCCCC",
"CCCCCCCCCCCCCCCCCCCCCCCCCCCCCCCC",
"CCCCCCCCCCCCCCCCCCCCCCCCCCCCCCCC"
};
