/* XPM */
static char *urnlrg000[] = {
/* width height num_colors chars_per_pixel */
"    32    32       31            1",
/* colors */
". c #f7ff00",
"# c #5a6300",
"a c #7b8c00",
"b c #c6de00",
"c c #313900",
"d c #394200",
"e c #94ad00",
"f c #9cb500",
"g c #a5bd00",
"h c #d6f700",
"i c #425a00",
"j c #84b500",
"k c #94ce00",
"l c #5a8400",
"m c #9cf700",
"n c #7bde00",
"o c #428400",
"p c #63de00",
"q c #42a500",
"r c #184200",
"s c #39c600",
"t c #107b00",
"u c #18ef00",
"v c #08ce00",
"w c #000800",
"x c #003100",
"y c #007b00",
"z c #008c00",
"A c #00a500",
"B c #00ef00",
"C c None",
/* pixels */
"CCCCCCCCCCCCCCCCCCCCCCCCCCCCCCCC",
"CCCCCCCCCCCCCCCCCCCCCCCCCCCCCCCC",
"CCCCCCdCCCCCCCCCCCCCCCCCCCCCCCCC",
"CCCCCCb#CCCcen.hhgryyyyyyxCCCCCC",
"CCCCCCb.#ab.behbhaajkalrxxCCCCCC",
"CCCCCCb..ab.gehhgdibgidtrwCCCCCC",
"CCCCCCb..bcbffh.ad#bgjdioywCCCCC",
"CCCCCCg..gdd#jh.dcb.blvqiqtxCCCC",
"CCCCCCe.h#dgmn.acg.b#ovvooAzwCCC",
"CCCCCc.hjiejumbdlb#dotABBqxxCCCC",
"CCCCcbhmssuBug#cqoootzBBusywCCCC",
"CCCCe.ksuBBBqtf#rtzzzzvmhbiCCCCC",
"CCCChnvvuBBAyt.bdcyzzzp..fdwCCCC",
"CCCceuvBBBzyyq.bcdryytb.badrCCCC",
"CCwtqvvBBzyyyshhidrxxtbl#adcCCCC",
"CCrAABmmuyyyyvnbadrxr####acdwCCC",
"CCwrvuh.noyyyvsnjrrxtfal#lddxCCC",
"CCwchhmhfntyABvvsxxytjaa##cxxCCC",
"CCCih..ggnoyzvyxxryyyi#idrrxCCCC",
"CCCCa.hgajsyzyxrridcrxrcddcwCCCC",
"CCCCCcl#ilvAyxoadaiddcrracCCCCCC",
"CCCCCCrdiqAzxieaiiidccrcwCCCCCCC",
"CCCCCCrd##sAxle##diidddxCCCCCCCC",
"CCCCCCrjjjvAAqe##ddccrrCCCCCCCCC",
"CCCCCCCCiajitta#cdrrxrwCCCCCCCCC",
"CCCCCCCCCCcwwwwxyzyxxxCCCCCCCCCC",
"CCCCCCCCCCCCCwCCwxyxxCCCCCCCCCCC",
"CCCCCCCCCCCCCCCCCwCCCCCCCCCCCCCC",
"CCCCCCCCCCCCCCCCCCCCCCCCCCCCCCCC",
"CCCCCCCCCCCCCCCCCCCCCCCCCCCCCCCC",
"CCCCCCCCCCCCCCCCCCCCCCCCCCCCCCCC",
"CCCCCCCCCCCCCCCCCCCCCCCCCCCCCCCC"
};
