/* XPM */
static char *urnlrg010[] = {
/* width height num_colors chars_per_pixel */
"    32    32       31            1",
/* colors */
". c #ffff00",
"# c #bdc600",
"a c #a5b500",
"b c #424a00",
"c c #849400",
"d c #6b7b00",
"e c #94ad00",
"f c #b5d600",
"g c #4a5a00",
"h c #c6ff00",
"i c #314200",
"j c #293900",
"k c #73a500",
"l c #b5ff00",
"m c #314a00",
"n c #4a7300",
"o c #395a00",
"p c #7bd600",
"q c #318c00",
"r c #5aff00",
"s c #217b00",
"t c #39c600",
"u c #31f700",
"v c #000800",
"w c #003900",
"x c #005200",
"y c #007b00",
"z c #009400",
"A c #00bd00",
"B c #00ff00",
"C c None",
/* pixels */
"CCCCCCCCCCCCCCCCCCCCCCCCCCCCCCCC",
"CCCCCCCCCCCCCCCCvjjvCCCCCCCCCCCC",
"CCCCCCCCCCCCCCviiiijjCCCCCCCCCCC",
"CCCCCCCCCCCCjiiiiiiwbjCCCCCCCCCC",
"CCCCCCCCCCvbgdgbbdcncijCCCCCCCCC",
"CCCCCCCCvbgggdebbdenbigiCCCCCCCC",
"CCCCCCCCegggggcdoyysnxmpwCCCCCCC",
"CCCCCCjceibgggkyyyyyyxxBACCCCCCC",
"CCCvikaecbibgzyxxyyyywxAACCCCCCC",
"CCgptAtqdmnszAxxxyxyxwxzAvCCCCCC",
"CvvAAAussxzABzxxxxyyxyzzxwCCCCCC",
"CCwAAAukzABBByyxxxyyyzzzxwwvCCCC",
"CCCzAAudnABBBywyxxyxyzzzxwwjvCCC",
"CCCxAAufnuBBBwwxyxxyyzzzzwwxvCCC",
"CCCwAAAforBBAwwwyyyxAyyzzxwwwCCC",
"CCCCAAArerBBxwwwxyyyBzzyyxwwwvCC",
"CCCCzABuprBzwxwxABBBAxxjgoxzwvCC",
"CCCCqBh.luAwwxABAAxwwwnfeszwwCCC",
"CCCCCk..rBxwxsoowxxwxch#jyywvCCC",
"CCCCCj#.uzxjgdojcmwww##niwwjCCCC",
"CCCCCCd.tjjobiiiaijwmfaiijwvvCCC",
"CCCCCCa.obiiiibcaiiwmekiiijvCCCC",
"CCCCCCdcibbibbbacbijwdcibiwCCCCC",
"CCCCCCbiibbbbbbeddbwjmdiivCCCCCC",
"CCCCCCCvbggbbbbedbimjxvCCCCCCCCC",
"CCCCCCCCCCjvjigmboszmjCCCCCCCCCC",
"CCCCCCCCCCCCCCwwxxyyzxvCCCCCCCCC",
"CCCCCCCCCCCCCCCCCCCvvwCCCCCCCCCC",
"CCCCCCCCCCCCCCCCCCCCCCCCCCCCCCCC",
"CCCCCCCCCCCCCCCCCCCCCCCCCCCCCCCC",
"CCCCCCCCCCCCCCCCCCCCCCCCCCCCCCCC",
"CCCCCCCCCCCCCCCCCCCCCCCCCCCCCCCC"
};
