/* XPM */
static char *urnlrg011[] = {
/* width height num_colors chars_per_pixel */
"    32    32       30            1",
/* colors */
". c #ffff00",
"# c #cede00",
"a c #525a00",
"b c #a5b500",
"c c #849400",
"d c #d6ef00",
"e c #313900",
"f c #6b7b00",
"g c #738400",
"h c #9cb500",
"i c #adce00",
"j c #bdde00",
"k c #394a00",
"l c #639400",
"m c #6bb500",
"n c #4a9400",
"o c #84ff00",
"p c #296b00",
"q c #5aff00",
"r c #081800",
"s c #39b500",
"t c #299c00",
"u c #39ff00",
"v c #003900",
"w c #004200",
"x c #007b00",
"y c #009400",
"z c #00b500",
"A c #00e700",
"B c None",
/* pixels */
"BBBBBBBBBBBBBBBBBBBBBBBBBBBBBBBB",
"BBBBBBBBBBBBBBBBBrrrBBBBBBBBBBBB",
"BBBBBBBBBBBBBrfaeeeerBBBBBBBBBBB",
"BBBBBBBBBBaragfbneaeerBBBBBBBBBB",
"BBBBBBBBrcfaggltxxxwpaeBBBBBBBBB",
"BBBBBBBvshlenzzxwxyxxwwBBBBBBBBB",
"BBBrkpwyttnxAAzxxxyxyxwwBBBBBBBB",
"BBBeuAAumtzAAAyxxwxyywvptBBBBBBB",
"BBBvAAAoctAAAAwwyxxxxxxxywBBBBBB",
"BBBrAAAofnuAAzwwyywyxyyyxwBBBBBB",
"BBBBAAAocmuAywwwwyyxyxxyxwrBBBBB",
"BBBBAAAuioAxwwwwwzyyyAxxywvBBBBB",
"BBBezAAAoqwvwvwwxzzyzxwwxxwrBBBB",
"BBBBzAuoqywwwppxpyxvwwwkafwwBBBB",
"BBBBxud.svwkfgfakpvwvwaiiewwrBBB",
"BBBByj#.paagaaaacevwwm.jaewvvBBB",
"BBBren#cafkkakkabeewwj#cewxxvBBB",
"BBBBBz#ekkakaaaickkwp#jaexyvwBBB",
"BBBBBbfeaaaaaff.ckepkickeywvvBBB",
"BBBBBbeaaffffff#bgepwbgekevwrBBB",
"BBBBBbgafcffffbhhfewkgkkekvrBBBB",
"BBBBBbhgacffffchfklpwkeeeeerBBBB",
"BBBBBBrasytpkkcaflzyewwewwwBBBBB",
"BBBBBBrfgltytnsszzzztwkewwrBBBBB",
"BBBBBBrfffftnnxwpxyxyxewxwBBBBBB",
"BBBBBBraerrelccmaeBBBrpyrBBBBBBB",
"BBBBBBBBBBBBBeeekrBBBBBBBBBBBBBB",
"BBBBBBBBBBBBBBBBBBBBBBBBBBBBBBBB",
"BBBBBBBBBBBBBBBBBBBBBBBBBBBBBBBB",
"BBBBBBBBBBBBBBBBBBBBBBBBBBBBBBBB",
"BBBBBBBBBBBBBBBBBBBBBBBBBBBBBBBB",
"BBBBBBBBBBBBBBBBBBBBBBBBBBBBBBBB"
};
