/* XPM */
static char *urnlrg013[] = {
/* width height num_colors chars_per_pixel */
"    32    32       31            1",
/* colors */
". c #7b8c00",
"# c #8c9c00",
"a c #b5ce00",
"b c #394200",
"c c #637300",
"d c #94ad00",
"e c #a5bd00",
"f c #ceef00",
"g c #deff00",
"h c #bdde00",
"i c #4a5a00",
"j c #314200",
"k c #182100",
"l c #5a8400",
"m c #8cde00",
"n c #7bd600",
"o c #5aa500",
"p c #7bef00",
"q c #215a00",
"r c #4aef00",
"s c #18e700",
"t c #001000",
"u c #002900",
"v c #004200",
"w c #006300",
"x c #007b00",
"y c #008400",
"z c #00a500",
"A c #00b500",
"B c #00ef00",
"C c None",
/* pixels */
"CCCCCCCCCCCCCCCCCCCCCCCCCCCCCCCC",
"CCCCCCCCCCCCCCCCCCCCCCCCCCCCCCCC",
"CCCCCCCCCCCuqvuvvvvuCCCCCCCCCCCC",
"CCCCCCCCCCuzwvvvvwwwvtCCCCCCCCCC",
"CCCCCCkkuuviiiqqvvAwxyuCCCCCCCCC",
"CCCCCCqsBy.d.dilcqAzwyyuCCCCCCCC",
"CCCCCCyzli..c..cciixwwwvCCCCCCCC",
"CCCCCCpiibc.....c.cvvwwwuCCCCCCC",
"CCCCCwliicd...#.#cjjvvwqqkCCCCCC",
"CCCCCvn.##d#ddddgfibvvldd.kCCCCC",
"CCCCCzgfcfddd#daffdjqihhcbkCCCCC",
"CCCCuyggfae#dd#gfe.lvig.bbkCCCCC",
"CCCtiogggahd#.eaddnsqqabbbvtCCCC",
"CCCkdhagaefe.#hmnrBBskiibjvtCCCC",
"CCCCdd..dmhhmssABBBBBzvbbjvuCCCC",
"CCCC..ccorpmrBzyyxxyyyvvjbvvCCCC",
"CCCCjjqxABBsBBAxyxyxyvvvvvvvCCCC",
"CCCCjbrBBBBBBBAyxyxyqbbjvvvvuCCC",
"CCCCkdgmsBsrrrzyll.#bbbjwvvvvCCC",
"CCCCbfgfmspffni#ed#ibbjiwwvvtCCC",
"CCCCiegfhrhgdjb.#.ibbbbjwvvjCCCC",
"CCCkcc.efnha#d.bjbicjbbqwwkkCCCC",
"CCCcccccclohae.bb.edbibqwwjCCCCC",
"CCCCtbbiiciij#.bq.#.bjqwwqkCCCCC",
"CCCCCCkkbjbbqxlij..#qqwwwvCCCCCC",
"CCCCCCCCCkkCCuqaktCCkwwvvtCCCCCC",
"CCCCCCCCCCCCCCCiiCCCCCCCCCCCCCCC",
"CCCCCCCCCCCCCCCCkCCCCCCCCCCCCCCC",
"CCCCCCCCCCCCCCCCCCCCCCCCCCCCCCCC",
"CCCCCCCCCCCCCCCCCCCCCCCCCCCCCCCC",
"CCCCCCCCCCCCCCCCCCCCCCCCCCCCCCCC",
"CCCCCCCCCCCCCCCCCCCCCCCCCCCCCCCC"
};
