/* XPM */
static char *urnlrg017[] = {
/* width height num_colors chars_per_pixel */
"    32    32       31            1",
/* colors */
". c #4a5200",
"# c #adbd00",
"a c #e7ff00",
"b c #849400",
"c c #c6e700",
"d c #293100",
"e c #637b00",
"f c #94b500",
"g c #314200",
"h c #a5f700",
"i c #5a8c00",
"j c #8cde00",
"k c #081000",
"l c #4a9400",
"m c #317300",
"n c #6bff00",
"o c #4ace00",
"p c #31a500",
"q c #39ce00",
"r c #105a00",
"s c #29ef00",
"t c #10a500",
"u c #08ef00",
"v c #002900",
"w c #004200",
"x c #005a00",
"y c #008400",
"z c #009c00",
"A c #00bd00",
"B c #00de00",
"C c None",
/* pixels */
"CCCCCCCCCCCCCCCCCCCCCCCCCCCCCCCC",
"CCCCCCCCCCCCCCCCCCCCCCCCCCCCCCCC",
"CCCCCCCCCCCCCdffbiryyyyyxvCCCCCC",
"CCCCCCCCCCCCCkfchqBBBBBAxvCCCCCC",
"CCCCCCCCee.kv#h#ilsojjfwwCCCCCCC",
"CCCCbkCe.n#jhac#bfcaf.myywCCCCCC",
"CCCC.#e#cac#ccccb#cce..epydCCCCC",
"CCCCdae#aaafcccagec#bg.eeztvCCCC",
"CCCCdace#aab#ca#d.###ggbgpzyCCCC",
"CCCCC#ac.#abfaabgeaabgge.pyvCCCC",
"CCCCC#aab.bebaaedaaahlgegrwkCCCC",
"CCCCCacafgecncadbaacertrdwwkCCCC",
"CCCCfaaae.#jsaadacedgxBzrwwkCCCC",
"CCCCaaac.#jsna#icdggxxBAzxwCCCCC",
"CCCdaahlqsuunabmrrrxxxBqomdvCCCC",
"CCkec#louuuucf#gdrxxxxjaaegvCCCC",
"CCCmlpztuuuBmia..dwxxraab.ggCCCC",
"CCCxwAAABuAxxiaeggwww.a#e.ggwCCC",
"CCCvenoquBxxxlcfgggwrfe...gdCCCC",
"CCCCdchaqxxxxAf#.gwwmb.gg.dkCCCC",
"CCCCCbaafmxxxAqfbdxwwe...dCCCCCC",
"CCCCCCdffimxxAAApwwwwgggdCCCCCCC",
"CCCCCCCCeeirzzyxwrgggwrkCCCCCCCC",
"CCCCCCCk.elyxxwg.gggggdCCCCCCCCC",
"CCCCCCCCCCgxxw.eggggdgkCCCCCCCCC",
"CCCCCCCCCCCCvvk.ddkwwCCCCCCCCCCC",
"CCCCCCCCCCCCCCCCCCCCCCCCCCCCCCCC",
"CCCCCCCCCCCCCCCCCCCCCCCCCCCCCCCC",
"CCCCCCCCCCCCCCCCCCCCCCCCCCCCCCCC",
"CCCCCCCCCCCCCCCCCCCCCCCCCCCCCCCC",
"CCCCCCCCCCCCCCCCCCCCCCCCCCCCCCCC",
"CCCCCCCCCCCCCCCCCCCCCCCCCCCCCCCC"
};
