/* XPM */
static char *urnmed001[] = {
/* width height num_colors chars_per_pixel */
"    24    24       31            1",
/* colors */
". c #ffff00",
"# c #5a6300",
"a c #424a00",
"b c #849400",
"c c #bdd600",
"d c #d6ef00",
"e c #9cb500",
"f c #6b8400",
"g c #bde700",
"h c #314200",
"i c #7bad00",
"j c #a5ef00",
"k c #213100",
"l c #426300",
"m c #639c00",
"n c #4a8c00",
"o c #7be700",
"p c #39ad00",
"q c #4af700",
"r c #39c600",
"s c #42ff00",
"t c #186b00",
"u c #10b500",
"v c #18ef00",
"w c #001800",
"x c #004200",
"y c #007300",
"z c #008c00",
"A c #00ad00",
"B c #00de00",
"C c None",
/* pixels */
"CCCCCCCCCCCCCCCCCCCCCCCC",
"CCCCCCehCCCkkkCCCCCCCCCC",
"CCCCCC..fbbcdeaCCCCCCCCC",
"CCCCCh..###g#hahhtxCCCCC",
"CCCCC#.nafp#hheanuBxCCCC",
"CCCCCbrrvBnm#nfnuBvvwCCC",
"CCCClvvByzzd#tAAAvgctCCC",
"CCCbqvBzzzp.catAAjdckCCC",
"CCwgssqpzzuockxynffbkCCC",
"CCyrq.jozABurxxxebffaCCC",
"CCyuodcozAAyyxyzebbfawCC",
"CwljggesAyytlntylb#akkCC",
"CCe.gbbvyxmclf#lttaxxwCC",
"CCbdempBAtciab#ahthhxCCC",
"CCChffnzAncbf###hahhwCCC",
"CCCk##auBrebahb#hhkCCCCC",
"CCCtmippAvbahhhhhhwCCCCC",
"CCCwiccmlyytttxxkwCCCCCC",
"CCCCCkhhhatAAzxxkCCCCCCC",
"CCCCCCCCCCCwyyxwCCCCCCCC",
"CCCCCCCCCCCCCwCCCCCCCCCC",
"CCCCCCCCCCCCCCCCCCCCCCCC",
"CCCCCCCCCCCCCCCCCCCCCCCC",
"CCCCCCCCCCCCCCCCCCCCCCCC"
};
