/* XPM */
static char *urnmed007[] = {
/* width height num_colors chars_per_pixel */
"    24    24       31            1",
/* colors */
". c #efff00",
"# c #5a6300",
"a c #a5b500",
"b c #b5c600",
"c c #849400",
"d c #cee700",
"e c #738400",
"f c #cef700",
"g c #212900",
"h c #394a00",
"i c #527300",
"j c #294200",
"k c #63b500",
"l c #295200",
"m c #6bce00",
"n c #63ef00",
"o c #399c00",
"p c #42ff00",
"q c #105a00",
"r c #085200",
"s c #000800",
"t c #002100",
"u c #004200",
"v c #005200",
"w c #005a00",
"x c #007b00",
"y c #009c00",
"z c #00bd00",
"A c #00d600",
"B c #00ff00",
"C c None",
/* pixels */
"CCCCCCCCCCCCCCCCCCCCCCCC",
"CCCCCCCCCCCCCCCCCCCCCCCC",
"CCCCCCjgcgCCtxvCCCCCCCCC",
"CCCjibdfbihABBzxtCCCCCCC",
"CCCgd....hhpBnbclhsCCCCC",
"CCCCbfffd#oBp.achhjsCCCC",
"CCCh...fdkoAobcc#julgCCC",
"CChd.df.facjujjjij#iesCC",
"CCea.....ajjuuuyAl#ci#CC",
"CCld....achhgulAArhehwCC",
"CCC.....#hhhh#hzAyjiutCC",
"CC#....b#hhh#cjrAzuuusCC",
"CCbbdec#h#h#bhjuAzuutCCC",
"C#amd#iehb..#qruuuuusCCC",
"Csiyfc#hh.fzwwvuuuuusCCC",
"CCCCbahhc.prwwvvuvujtCCC",
"CCCCj#jhkpyuuuuvwwvgssCC",
"CCCCCCguzwuuuyzzwrjCCCCC",
"CCCCCCConyuuyAAzqjsCCCCC",
"CCCCCCCCiByqyxussCCCCCCC",
"CCCCCCCCCAxsCCCCCCCCCCCC",
"CCCCCCCCCttCCCCCCCCCCCCC",
"CCCCCCCCCCCCCCCCCCCCCCCC",
"CCCCCCCCCCCCCCCCCCCCCCCC"
};
