/* XPM */
static char *urnmed016[] = {
/* width height num_colors chars_per_pixel */
"    24    24       31            1",
/* colors */
". c #efff00",
"# c #424a00",
"a c #7b8c00",
"b c #b5ce00",
"c c #94ad00",
"d c #a5bd00",
"e c #c6e700",
"f c #d6f700",
"g c #526300",
"h c #849c00",
"i c #6b8c00",
"j c #294200",
"k c #94ef00",
"l c #7bde00",
"m c #081000",
"n c #52b500",
"o c #5ae700",
"p c #4ac600",
"q c #297300",
"r c #218c00",
"s c #39ff00",
"t c #109400",
"u c #18de00",
"v c #08bd00",
"w c #004200",
"x c #004a00",
"y c #006300",
"z c #008c00",
"A c #00b500",
"B c #00e700",
"C c None",
/* pixels */
"CCCCCCCCCmjmCCCCCCCCCCCC",
"CCCCCCCCChai#wCCCCCCCCCC",
"CCCCCCCCCaf.pAAAAAwCCCCC",
"CCCCCCCmb..oBBBBBzmCCCCC",
"CCCCjiihksssuuolnzymCCCC",
"CCCC#iousfdibffcgqzqCCCC",
"CCCme..kdeccefc##grzxCCC",
"CCgh.ffdbbdhcbi##gqzwCCC",
"CCjidffecdbagdcg#g#xmCCC",
"CCCcidfegb.jgf.jj#jwmCCC",
"CCmadihegff#h.c##jyxwCCC",
"CCi.edggckfjf..lqxywwCCC",
"CCj..f#cokfibagwzyywwCCC",
"CCCb.cipBefjjwwwtrqjjmCC",
"CCCjrrBBBkdg#xxwieajjmCC",
"CCCCmyvBBedgjjwyff##mCCC",
"CCCCCCeAxwna#jwng#jjCCCC",
"CCCCCCnywwzigjrqjjCCCCCC",
"CCCCCCCjjwzzrjjmmCCCCCCC",
"CCCCCCCCCwwCCmCCmCCCCCCC",
"CCCCCCCCCCCCCCCCCCCCCCCC",
"CCCCCCCCCCCCCCCCCCCCCCCC",
"CCCCCCCCCCCCCCCCCCCCCCCC",
"CCCCCCCCCCCCCCCCCCCCCCCC"
};
