/* XPM */
static char *urnmed008[] = {
/* width height num_colors chars_per_pixel */
"    24    24       31            1",
/* colors */
". c #080800",
"# c #ffff00",
"a c #d6de00",
"b c #5a6300",
"c c #adbd00",
"d c #637300",
"e c #d6f700",
"f c #7b9c00",
"g c #8cb500",
"h c #314200",
"i c #638400",
"j c #426300",
"k c #94de00",
"l c #a5ff00",
"m c #182900",
"n c #428400",
"o c #399400",
"p c #184200",
"q c #5aef00",
"r c #31ce00",
"s c #219c00",
"t c #106300",
"u c #08c600",
"v c #002100",
"w c #004200",
"x c #006300",
"y c #007b00",
"z c #00a500",
"A c #00d600",
"B c #00f700",
"C c None",
/* pixels */
"CCCCCCCCCCCCCCCCCCCCCCCC",
"CCCCCCCCCCCCCCCCCCCCCCCC",
"CCCCCmjfccmmCvrotCCCCCCC",
"CCCCCc#eeebhzragd.CCCCCC",
"CCCCCd##eefhtncfdpCCCCCC",
"CCCCCae##abhpyjjbbhCCCCC",
"CCC.c###ebhhjthtAshCCCCC",
"CCCd###abhhbdbjtBAhomCCC",
"CCia##abhhhbjbhpAAhfbCCC",
"CCb##dhhhhhhdjjwuBtjjpCC",
"CCeaabdbbbakntywxAwwwwCC",
"Cbgq#fbhhcezyyxwxwwwwvCC",
"Cmss#hhhberyyyxxxxwwvCCC",
"CCwwdhhhgrwwwwwyyxwwCCCC",
"CCCvwpmuuxwwwwwyyywvCCCC",
"CCCCCupzuywwwwwxyytpCCCC",
"CCCCCkkouzwwyAAAyfdh.CCC",
"CCCCCj#lBuwxABAxibhhCCCC",
"CCCCCCdlBzwuuypphj.CCCCC",
"CCCCCC.kBythhhhpp.CCCCCC",
"CCCCCCCfBvC...CC.CCCCCCC",
"CCCCCCCCCCCCCCCCCCCCCCCC",
"CCCCCCCCCCCCCCCCCCCCCCCC",
"CCCCCCCCCCCCCCCCCCCCCCCC"
};
