/* XPM */
static char *urnmed009[] = {
/* width height num_colors chars_per_pixel */
"    24    24       31            1",
/* colors */
". c #949c00",
"# c #efff00",
"a c #b5c600",
"b c #424a00",
"c c #637300",
"d c #738400",
"e c #9cb500",
"f c #ceef00",
"g c #293100",
"h c #526300",
"i c #7b9400",
"j c #a5c600",
"k c #4a5a00",
"l c #314200",
"m c #9ce700",
"n c #63b500",
"o c #4a8c00",
"p c #295200",
"q c #316b00",
"r c #21b500",
"s c #21f700",
"t c #000800",
"u c #003900",
"v c #004200",
"w c #006b00",
"x c #008c00",
"y c #00a500",
"z c #00b500",
"A c #00de00",
"B c #00ff00",
"C c None",
/* pixels */
"CCCCCCCCCCCCCCCCCCCCCCCC",
"CCCCCCCCCCCCgtCCCCCCCCCC",
"CCCCCCghiijglplgtCCCCCCC",
"CCCCCCc##fdllwoedlCCCCCC",
"CCCCCC.#fcglcckbcctCCCCC",
"CCCCC.fcgbbgichlzstCCCCC",
"CCCCiagglhbbhkkpwBnCCCCC",
"CCCa#abblbklwxxwwBrgCCCC",
"Cgdm#.llbbkxxwxvuzrigCCC",
"CpnzfcllgcqvwwwvxwuuptCC",
"CtyxokgqhyvuvvvwxxvvvuCC",
"CtwxrwvzzyvvvvvxyxvvuuCC",
"CCtyycwAByvvuvvwxxwuvuCC",
"CCCwxioBByvvvvvwxxwwutCC",
"CCCtAsnsByvuwAAAwodvtCCC",
"CCCtn#msBwvyABAwqjkutCCC",
"CCCCg##szuyAyxuuecllCCCC",
"CCCCCcfBwqkldlulihlgCCCC",
"CCCCCgfzglll.blvbltCCCCC",
"CCCCCtjllllbcllgvtCCCCCC",
"CCCCCCCCCttttguvptCCCCCC",
"CCCCCCCCCCCCCCCCCCCCCCCC",
"CCCCCCCCCCCCCCCCCCCCCCCC",
"CCCCCCCCCCCCCCCCCCCCCCCC"
};
