/* XPM */
static char *urnsml010[] = {
/* width height num_colors chars_per_pixel */
"    16    16       31            1",
/* colors */
". c #eff700",
"# c #7b8c00",
"a c #849400",
"b c #bdd600",
"c c #637300",
"d c #394a00",
"e c #527300",
"f c #8ce700",
"g c #294a00",
"h c #63bd00",
"i c #183100",
"j c #316b00",
"k c #4ac600",
"l c #5aff00",
"m c #39ce00",
"n c #299c00",
"o c #186b00",
"p c #21b500",
"q c #109400",
"r c #10de00",
"s c #000800",
"t c #003100",
"u c #004a00",
"v c #006300",
"w c #007300",
"x c #008c00",
"y c #009c00",
"z c #00bd00",
"A c #00d600",
"B c #00ff00",
"C c None",
/* pixels */
"CCCCCCCCsiCCCCCC",
"CCCCCCdgddiCCCCC",
"CCCCddeec#edCCCC",
"CCCdadeevwuxtCCC",
"CemhdequwwvwxCCC",
"CyznqBzuvvxyuiCC",
"CuzfpBxuvvwyutsC",
"CtzmkBvtwwAxwutC",
"CCAflxuxAAvj#vtC",
"CCj.rtgjjtjbivsC",
"CCCbogddage#diCC",
"CCCadddaeggcisCC",
"CCCiiddcdgisCCCC",
"CCCCCCCiiuvsCCCC",
"CCCCCCCCCCCCCCCC",
"CCCCCCCCCCCCCCCC"
};
