/* XPM */
static char *urnsml001[] = {
/* width height num_colors chars_per_pixel */
"    16    16       31            1",
/* colors */
". c #9ca500",
"# c #f7ff00",
"a c #deef00",
"b c #5a6300",
"c c #637300",
"d c #94ad00",
"e c #212900",
"f c #425200",
"g c #738c00",
"h c #7b9c00",
"i c #a5ce00",
"j c #adf700",
"k c #8cd600",
"l c #4a7b00",
"m c #84f700",
"n c #214200",
"o c #4a9400",
"p c #4abd00",
"q c #42d600",
"r c #217300",
"s c #39ff00",
"t c #219c00",
"u c #083900",
"v c #088400",
"w c #08c600",
"x c #000800",
"y c #003100",
"z c #005a00",
"A c #009c00",
"B c #00e700",
"C c None",
/* pixels */
"CCCCeCCCCCCCCCCC",
"CCCC#chiaeCCCCCC",
"CCCb#bbkbbfrzxCC",
"CCCfkwtlllowBuCC",
"CCfBBAvibvwqalxC",
"CumsqAAmdevk.cxC",
"Czw#jtAwrzr.gbxC",
"CfjakAAvrrrhcneC",
"C.ahpAriccfrnuxC",
"CecgtAhdfhfnfeCC",
"CCngrBpgfgbneCCC",
"CCoikrtnnnueCCCC",
"CCCeeenvwyuxCCCC",
"CCCCCCCCyxxCCCCC",
"CCCCCCCCCCCCCCCC",
"CCCCCCCCCCCCCCCC"
};
