/* XPM */
static char *urnsml009[] = {
/* width height num_colors chars_per_pixel */
"    16    16       31            1",
/* colors */
". c #bdbd00",
"# c #ced600",
"a c #efff00",
"b c #7b8c00",
"c c #394200",
"d c #6b7b00",
"e c #526300",
"f c #8ca500",
"g c #94b500",
"h c #394a00",
"i c #63a500",
"j c #84de00",
"k c #8cff00",
"l c #397300",
"m c #6bff00",
"n c #4ac600",
"o c #298c00",
"p c #185a00",
"q c #29ad00",
"r c #31e700",
"s c #082900",
"t c #21c600",
"u c #000800",
"v c #004200",
"w c #006300",
"x c #008400",
"y c #008c00",
"z c #009400",
"A c #00de00",
"B c #00f700",
"C c None",
/* pixels */
"CCCCCCCCCCCCCCCC",
"CCCCeebecshsCCCC",
"CCCC#afchobhCCCC",
"CCCe#dhcbhhrvCCC",
"CCebccecllpAiCCC",
"Cb#.cccoxxvzoeCC",
"uqneeclvvwwxvvuC",
"CxypwzxvvvxzvvvC",
"CuyptBxsvvxyvvuC",
"CCxtnByvwzAxpwCC",
"CCsakBvxBAwgesCC",
"CCCfmyppcshdcsCC",
"CCCcjcccfcvcuCCC",
"CCCCcussscvsCCCC",
"CCCCCCCCCCCuCCCC",
"CCCCCCCCCCCCCCCC"
};
