/* XPM */
static char *urnsml015[] = {
/* width height num_colors chars_per_pixel */
"    16    16       30            1",
/* colors */
". c #f7ff00",
"# c #525a00",
"a c #313900",
"b c #394200",
"c c #adc600",
"d c #7b9400",
"e c #8ca500",
"f c #c6ef00",
"g c #425200",
"h c #738c00",
"i c #b5e700",
"j c #5a7b00",
"k c #94d600",
"l c #9cff00",
"m c #081000",
"n c #5ab500",
"o c #428c00",
"p c #52bd00",
"q c #39b500",
"r c #4af700",
"s c #186b00",
"t c #29ef00",
"u c #083900",
"v c #085a00",
"w c #08ff00",
"x c #006b00",
"y c #008400",
"z c #00bd00",
"A c #00d600",
"B c None",
/* pixels */
"BBBBB##jaBBBBBBB",
"BBBBBedhhgmBBBBB",
"BBBBe..kqqzyBBBB",
"BBaa.ffwAAAyumBB",
"BBanrwtwtpnssbBB",
"BBditlfdfc#gxuBB",
"BB..kfeecjbgsuBB",
"BbdcddddjdbbvuBB",
"Bmddc#c#ecbgxumB",
"BBcd#hi#ifovxuuB",
"BBmi#qlhdsusvaBB",
"BBBByzldguhfbmBB",
"BBBBBvoobaumBBBB",
"BBBBBBBmmBBBBBBB",
"BBBBBBBBBBBBBBBB",
"BBBBBBBBBBBBBBBB"
};
