/* XPM */
static char *urnsml007[] = {
/* width height num_colors chars_per_pixel */
"    16    16       30            1",
/* colors */
". c #ffff00",
"# c #b5bd00",
"a c #7b8400",
"b c #848c00",
"c c #394200",
"d c #deff00",
"e c #5a6b00",
"f c #bdde00",
"g c #4a5a00",
"h c #293900",
"i c #6b9400",
"j c #94de00",
"k c #182900",
"l c #428400",
"m c #296300",
"n c #63e700",
"o c #39b500",
"p c #42ce00",
"q c #189c00",
"r c #08bd00",
"s c #000800",
"t c #002900",
"u c #004200",
"v c #005200",
"w c #007b00",
"x c #009c00",
"y c #00a500",
"z c #00d600",
"A c #00ff00",
"B c None",
/* pixels */
"BBBBBBBBBBBBBBBB",
"BBBBhghttvBBBBBB",
"BBifdfgoAplkBBBB",
"BBcddfeAnfahkBBB",
"BsfdddiolaegkeBB",
"Badd.d#huuqmiekB",
"Bm...fcchlzrgetB",
"Be...eccbcwyumsB",
"BafbegebbhuyutBB",
"henbec.jvvuuutBB",
"BBh#cbjyvvvvukBB",
"BBsskxxuuvxvcsBB",
"BBBBspxuxrrusBBB",
"BBBBBkAutBBBBBBB",
"BBBBBBwBBBBBBBBB",
"BBBBBBBBBBBBBBBB"
};
