/* XPM */
static char *urnsml012[] = {
/* width height num_colors chars_per_pixel */
"    16    16       31            1",
/* colors */
". c #cede00",
"# c #9cad00",
"a c #b5c600",
"b c #394200",
"c c #637300",
"d c #6b7b00",
"e c #849c00",
"f c #526b00",
"g c #4a6300",
"h c #7bbd00",
"i c #294200",
"j c #5a9c00",
"k c #73d600",
"l c #63c600",
"m c #102100",
"n c #428c00",
"o c #4aa500",
"p c #215a00",
"q c #298400",
"r c #104200",
"s c #21b500",
"t c #000800",
"u c #003100",
"v c #004200",
"w c #006300",
"x c #007b00",
"y c #008c00",
"z c #00ad00",
"A c #00c600",
"B c #00de00",
"C c None",
/* pixels */
"CCCCCCCCCCCCCCCC",
"CCCCujqzwwtCCCCC",
"CCpynsBwyxyuCCCC",
"CCyBhrvuwzyvtCCC",
"CCyBobfgpxxwwtCC",
"CCkjcfdddrvgguCC",
"Ctpbddddeip.fuCC",
"Ctoddeea#bn#ivtC",
"CC###ee.eoiciwuC",
"CCecljjlsBwriutC",
"CCikBBAwxxpivrtC",
"CCb#hlkigfibvmCC",
"CCigfj#dbiipwmCC",
"CCCCCCCCtCmtCCCC",
"CCCCCCCCCCCCCCCC",
"CCCCCCCCCCCCCCCC"
};
