/* XPM */
static char *vinlrg004[] = {
/* width height num_colors chars_per_pixel */
"    32    32       29            1",
/* colors */
". c #313131",
"# c #4a4a4a",
"a c #5a5a5a",
"b c #6b6b6b",
"c c #8c8c8c",
"d c #9c6b6b",
"e c #843939",
"f c #842121",
"g c #c63131",
"h c #d61818",
"i c #a50000",
"j c #ef0000",
"k c #9c1810",
"l c #6b4231",
"m c #945a42",
"n c #8c5a42",
"o c #9c6b52",
"p c #524239",
"q c #735a4a",
"r c #5a4231",
"s c #a57b5a",
"t c #735239",
"u c #6b4a31",
"v c #948c84",
"w c #b58c63",
"x c #8c6b4a",
"y c #bd9c6b",
"z c #181810",
"A c None",
/* pixels */
"AAAAAAAAAAAAAAAAAAAAAAAAAAAAAAAA",
"AAAAAAAAAAAAAAAAAAAAAAAAAAAAAAAA",
"AAAAAAAAAAAAAAAAAAAAAAAAAAAAAAAA",
"AAAAAAAAAAAAAAAAAAAAAAAAAAAAAAAA",
"AAAAAAAAAAAAAAAAAAAAAAAAAAAAAAAA",
"AAAAAAAAAAAAAAAAAAAAAAAAAAAAAAAA",
"AAAAAAAAAAAAAAAAAAAAAAAAAAAAAAAA",
"AAAAAAAAAAAAAzz##p#.AAAAAAAAAAAA",
"AAAAAAAAAAAAzuaaaabb#zAAAAAAAAAA",
"AAAAAAAAAzxtsababaaabb.AAAAAAAAA",
"AAAAAAAAzxnnqxwbaaaaaab#AAAAAAAA",
"AAAAAAArxnswmoowqaabaaab#AAAAAAA",
"AAAAAAAnmoywomomstfeabaabzAAAAAA",
"AAAAAAAAonxxwwwonxfieaaaaaAAAAAA",
"AAAAAAAAntsuosnottmskqaaaa.AAAAA",
"AAAAAAzbqqwwsonxoxxlofabaapAAAAA",
"AAAAAzbcbnsownonxoxttubaaaaAAAAA",
"AAAAAbcvvnosysononsuq#aaaa#AAAAA",
"AAAA.cvccmssuowostrrupaaba.AAAAA",
"AAAAccccgjktroxxxurutqbaa.AAAAAA",
"AAAzcvvvjjjjnoorxqxuqoxzzAAAAAAA",
"AAA.cccchjjhxnqccpnutAAAAAAAAAAA",
"AAAzvcvvcodccvccb.zAAAAAAAAAAAAA",
"AAAzccvccvccvccbzAAAAAAAAAAAAAAA",
"AAAAbcvcvccvcvc.AAAAAAAAAAAAAAAA",
"AAAAzbcvcvccvb#AAAAAAAAAAAAAAAAA",
"AAAAAz#cvcvv#zAAAAAAAAAAAAAAAAAA",
"AAAAAAAzz..AAAAAAAAAAAAAAAAAAAAA",
"AAAAAAAAAAAAAAAAAAAAAAAAAAAAAAAA",
"AAAAAAAAAAAAAAAAAAAAAAAAAAAAAAAA",
"AAAAAAAAAAAAAAAAAAAAAAAAAAAAAAAA",
"AAAAAAAAAAAAAAAAAAAAAAAAAAAAAAAA"
};
