/* XPM */
static char *vinlrg012[] = {
/* width height num_colors chars_per_pixel */
"    32    32       31            1",
/* colors */
". c #181818",
"# c #292929",
"a c #313131",
"b c #393939",
"c c #525252",
"d c #6b6b6b",
"e c #737373",
"f c #7b7b7b",
"g c #8c8c8c",
"h c #100808",
"i c #522121",
"j c #6b0808",
"k c #4a0000",
"l c #734a39",
"m c #392921",
"n c #6b4a39",
"o c #634231",
"p c #845a42",
"q c #312118",
"r c #946b52",
"s c #4a3121",
"t c #846b5a",
"u c #9c7352",
"v c #bd8c63",
"w c #8c6342",
"x c #211810",
"y c #9c7b5a",
"z c #ad845a",
"A c #c69c6b",
"B c #a58c63",
"C c None",
/* pixels */
"CCCCCCCCCCCCCCCCCCCCCCCCCCCCCCCC",
"CCCCCCCCCCCCCCCCCCCCCCCCCCCCCCCC",
"CCCCCCCCCCCCCCCCCCCCCCCCCCCCCCCC",
"CCCCCCCCCCCCCCCCCCCCCCCCC.b.CCCC",
"CCCCCCCCCCCCCCCCCCCCCCC.dc#ahCCC",
"CCCCCCCCCCCCCCCCCCCCCC.fb###CCCC",
"CCCCCCCCCCCCCCCCCCCCCbf#aaa.CCCC",
"CCCCCCCCCC..qsxhoxxCbfaa###CCCCC",
"CCCCCCCC.eggtulrprnqfa#jxahCCCCC",
"CCCCCCC.cegezyzlzvAfa#jkm.CCCCCC",
"CCCCCC.d##cpuwvwtzgtwrk#qCCCCCCC",
"CCCCCCcfc##llrAvuvtuAnpqCCCCCCCC",
"CCCCCCgggb#nrwwzuAuzvorsCCCCCCCC",
"CCCCCCgyrgb#ippzwuzuApnphCCCCCCC",
"CCCCC.grrBgbikllvwzuzpopnxCCCCCC",
"CCCCC.gBuyygbijwzlprysoln.CCCCCC",
"CCCCCCegypuAgc#qllpznoosxCCCCCCC",
"CCCCCCdgwopzBgd##sooopphCCCCCCCC",
"CCCCCC.fblpwylteb##sloqCCCCCCCCC",
"CCCCCCCcerrypnptfb##omCCCCCCCCCC",
"CCCCCCCCbgtllpzpyccaomCCCCCCCCCC",
"CCCCCCCCCCabqspzplnmhCCCCCCCCCCC",
"CCCCCCCCCCCCCCxsoxCCCCCCCCCCCCCC",
"CCCCCCCCCCCCCCCCqhCCCCCCCCCCCCCC",
"CCCCCCCCCCCCCCCCCCCCCCCCCCCCCCCC",
"CCCCCCCCCCCCCCCCCCCCCCCCCCCCCCCC",
"CCCCCCCCCCCCCCCCCCCCCCCCCCCCCCCC",
"CCCCCCCCCCCCCCCCCCCCCCCCCCCCCCCC",
"CCCCCCCCCCCCCCCCCCCCCCCCCCCCCCCC",
"CCCCCCCCCCCCCCCCCCCCCCCCCCCCCCCC",
"CCCCCCCCCCCCCCCCCCCCCCCCCCCCCCCC",
"CCCCCCCCCCCCCCCCCCCCCCCCCCCCCCCC"
};
