/* XPM */
static char *vinlrg007[] = {
/* width height num_colors chars_per_pixel */
"    32    32       31            1",
/* colors */
". c #101010",
"# c #292929",
"a c #424242",
"b c #4a4a4a",
"c c #636363",
"d c #6b6b6b",
"e c #7b7b7b",
"f c #8c8c8c",
"g c #632929",
"h c #bd3131",
"i c #bd0808",
"j c #d60000",
"k c #9c4a42",
"l c #842921",
"m c #7b4a39",
"n c #6b4231",
"o c #8c5a42",
"p c #5a3929",
"q c #9c6b52",
"r c #8c634a",
"s c #ad7b5a",
"t c #b58463",
"u c #7b5a42",
"v c #8c735a",
"w c #bd946b",
"x c #6b5239",
"y c #ce9c6b",
"z c #ad8c63",
"A c #847b6b",
"B c #393121",
"C c None",
/* pixels */
"CCCCCCCCCCCCCCCCCCCCCCCCCCCCCCCC",
"CCCCCCCCCCCCC..CCCCCCCCCCCCCCCCC",
"CCCCCCCCCC.bcdeda#CCCCCCCCCCCCCC",
"CCCCCCCCC.ceeeeeedc.CCCCCCCCCCCC",
"CCCCCCCCCeeeeeeeeeed.CCCCCCCCCCC",
"CCCCCCCCbeeeeeeeeeeec.CCCCCCCCCC",
"CCCCCCCCceeeeeeeeeeeebCCCCCCCCCC",
"CCCCCCCCeeeeechkeeeeedCCCCCCCCCC",
"CCCCCCCCeeeeejiiieeeeeaCCCCCCCCC",
"CCCCCCCCceeevhxukveeeeaCCCCCCCCC",
"CCCCCCCC.evuuouquqsdeebCCCCCCCCC",
"CCCCCCCCCcxruurqqrsuAecCCCCCCCCC",
"CCCCCCCCCBqmqsqrqmqsoywBCCCCCCCC",
"CCCCCCCCBsstsotwrwwtzqtv#CCCCCCC",
"CCCCCCCCpzwyytwyqwstqsyxdaCCCCCC",
"CCCCCCCCBtqqmrkqtbtwsqzvddaCCCCC",
"CCCCCCCCBsoopytqdcwstyqoddd.CCCC",
"CCCCCCCC#zumurqmbrsrqtshvddcCCCC",
"CCCCCCCCpnmrxouzcvrsusqiiddd.CCC",
"CCCCCCCC..qronucdsotookioddd.CCC",
"CCCCCCCCCCBoqllcAxnquvdddddd#CCC",
"CCCCCCCCCCCagibdvxuddddddddd#CCC",
"CCCCCCCCCCCalgbfuxsAdddddddcCCCC",
"CCCCCCCCCC#bgbeuxpBBpaddddc.CCCC",
"CCCCCCCCCC#bbbfCCCCCCC###.CCCCCC",
"CCCCCCCCCCabbdaCCCCCCCCCCCCCCCCC",
"CCCCCCCCCCbbdbCCCCCCCCCCCCCCCCCC",
"CCCCCCCCC.bcc.CCCCCCCCCCCCCCCCCC",
"CCCCCCCCC.ab.CCCCCCCCCCCCCCCCCCC",
"CCCCCCCCCCCCCCCCCCCCCCCCCCCCCCCC",
"CCCCCCCCCCCCCCCCCCCCCCCCCCCCCCCC",
"CCCCCCCCCCCCCCCCCCCCCCCCCCCCCCCC"
};
