/* XPM */
static char *vinlrg005[] = {
/* width height num_colors chars_per_pixel */
"    32    32       31            1",
/* colors */
". c #101010",
"# c #212121",
"a c #313131",
"b c #393939",
"c c #4a4a4a",
"d c #525252",
"e c #5a5a5a",
"f c #636363",
"g c #7b7b7b",
"h c #843131",
"i c #ad3131",
"j c #d60000",
"k c #942921",
"l c #8c1810",
"m c #ad1810",
"n c #5a3929",
"o c #846352",
"p c #845a42",
"q c #735a4a",
"r c #6b5242",
"s c #8c634a",
"t c #7b5239",
"u c #a57b5a",
"v c #6b4a31",
"w c #9c7352",
"x c #bd8c63",
"y c #946b4a",
"z c #b5845a",
"A c #847363",
"B c #5a5a52",
"C c None",
/* pixels */
"CCCCCCCCCCCCCCCCCCCCCCCCCCCCCCCC",
"CCCCCCCCCCCCCCCCCCCCCCCCCCCCCCCC",
"CCCCCCCCCCCCCCCCCCCCCCCCCCCCCCCC",
"CCCCCCCCCCCCCCCCCCCCCCCCCCCCCCCC",
"CCCCCCCCCCCCCCC..CCCCCCCCCCCCCCC",
"CCCCCCCCCCCCC.dfggbaCCCCCCCCCCCC",
"CCCCCCCCCCCCbffffffggaCCCCCCCCCC",
"CCCCCCCCCCC#ffffffffffcCCCCCCCCC",
"CCCCCCCCCCCbfffffffffffbCCCCCCCC",
"CCCCCCCCCCCBAAffffffffgf#CCCCCCC",
"CCCCCCCCCCqwsyufikpffffff.CCCCCC",
"CCCCCCCCCvxttzspkhmmgffffcCCCCCC",
"CCCCCCCCvuzyywuptutlqffffcCCCCCC",
"CCCCCCCntsqwstwuwytshfffffCCCCCC",
"CCCCCC.vstysxwpswowpAfgffeCCCCCC",
"CCCCCCCCrwwxwzwypptryffffbCCCCCC",
"CCCCCCCCnsyxxzzywnvrsrfff.CCCCCC",
"CCCCCCCC#wxxpwxxyttsptug.CCCCCCC",
"CCCCCCCagqvtnsupsowwwqzvCCCCCCCC",
"CCCCCCCggfvvnpxswgwuwwA#CCCCCCCC",
"CCCCCCcggyjmkpyqgfswpoe#CCCCCCCC",
"CCCCCCgggijjmoxggAvoAebCCCCCCCCC",
"CCCCC#gggijmAgggfooeee.CCCCCCCCC",
"CCCCCcggggfgggggdfeee#CCCCCCCCCC",
"CCCCCcggggAggggf.#ba.CCCCCCCCCCC",
"CCCCC.ggggggggf.CCCCCCCCCCCCCCCC",
"CCCCCCegggggge.CCCCCCCCCCCCCCCCC",
"CCCCCCCbgfgd.CCCCCCCCCCCCCCCCCCC",
"CCCCCCCCC..CCCCCCCCCCCCCCCCCCCCC",
"CCCCCCCCCCCCCCCCCCCCCCCCCCCCCCCC",
"CCCCCCCCCCCCCCCCCCCCCCCCCCCCCCCC",
"CCCCCCCCCCCCCCCCCCCCCCCCCCCCCCCC"
};
