/* XPM */
static char *vinlrg000[] = {
/* width height num_colors chars_per_pixel */
"    32    32       31            1",
/* colors */
". c #313131",
"# c #424242",
"a c #5a5a5a",
"b c #636363",
"c c #7b7b7b",
"d c #b53131",
"e c #731010",
"f c #9c0000",
"g c #de0000",
"h c #9c1008",
"i c #8c736b",
"j c #422921",
"k c #7b4a39",
"l c #6b3929",
"m c #9c5239",
"n c #8c5239",
"o c #8c5a42",
"p c #6b4a39",
"q c #634231",
"r c #946b52",
"s c #846b5a",
"t c #84634a",
"u c #9c7352",
"v c #946b4a",
"w c #211810",
"x c #b58c63",
"y c #ad845a",
"z c #a57b52",
"A c #c69c6b",
"B c #181810",
"C c None",
/* pixels */
"CCCCCCCCCCCCCCCCCCCCCCCCCCCCCCCC",
"CCCCCCCCCCCCCCCCCCCCCCCCCCCCCCCC",
"CCCCCCCCCCCCCCCCCCCCCCCCCCCCCCCC",
"CCCCCCCCCCCCCCCCCCCCCCCCCCCCCCCC",
"CCCCCCCCCCCCCCCCCCCCCCCCCCCCCCCC",
"CCCCCCCCCCCCCCCCCCCCCCCCCCCCCCCC",
"CCCCCCCCCCCCCCCwwCCCCCCCCCCCCCCC",
"CCCCCCB.#..CCjjroqwCCCCCCCCCCCCC",
"CCCC#ccccccbsqlttpvjCBwCCCCCCCCC",
"CCBaccccccicittkzvyvzltwCCCCCCCC",
"CCbcccccccsopxzyouyvurvjCCCCCCCC",
"C#cccccccctyovvkuxoAyzyqCCCCCCCC",
"CcccccciicuoyuxvvonryyojCCCCCCCC",
"BcccccmggdvxvvyxyzokpotqCCCCCCCC",
".cccccgggmxzkoozAuopttojCCCCCCCC",
"BcccccgggmzzoyyyvkpyzqpwCCCCCCCC",
"BcccccdggtvzAnrzokiiotoCCCCCCCCC",
"CbcccccsrzrkyytuqtzbitqCCCCCCCCC",
"CBccccccikvuzvlxvovbcpjCCCCCCCCC",
"CC.cccccctqtkkyzkorabaCCCCCCCCCC",
"CCC.bcccccioryurvpeaaaCCCCCCCCCC",
"CCCCC.a#a#BCjpjrpohaacBCCCCCCCCC",
"CCCCCCCCCCCCCqptpqfpab.CCCCCCCCC",
"CCCCCCCCCCCCCwjw#apaabbCCCCCCCCC",
"CCCCCCCCCCCCCCCCBaaaaaaCCCCCCCCC",
"CCCCCCCCCCCCCCCCCBaaaa#CCCCCCCCC",
"CCCCCCCCCCCCCCCCCC.aaa.CCCCCCCCC",
"CCCCCCCCCCCCCCCCCCCwa#BCCCCCCCCC",
"CCCCCCCCCCCCCCCCCCCCCCCCCCCCCCCC",
"CCCCCCCCCCCCCCCCCCCCCCCCCCCCCCCC",
"CCCCCCCCCCCCCCCCCCCCCCCCCCCCCCCC",
"CCCCCCCCCCCCCCCCCCCCCCCCCCCCCCCC"
};
