/* XPM */
static char *vinlrg003[] = {
/* width height num_colors chars_per_pixel */
"    32    32       31            1",
/* colors */
". c #393939",
"# c #525252",
"a c #5a5a5a",
"b c #6b6b6b",
"c c #7b7b7b",
"d c #949494",
"e c #9c5252",
"f c #d63939",
"g c #e71818",
"h c #8c0808",
"i c #ff0000",
"j c #d60800",
"k c #a52110",
"l c #8c4231",
"m c #8c5242",
"n c #6b4231",
"o c #634231",
"p c #845a42",
"q c #8c634a",
"r c #a57352",
"s c #4a3121",
"t c #735239",
"u c #c6946b",
"v c #947352",
"w c #6b5239",
"x c #ad845a",
"y c #8c847b",
"z c #292118",
"A c #5a5242",
"B c #101008",
"C c None",
/* pixels */
"CCCCCCCCCCCCCCCCCCCCCCCCCCCCCCCC",
"CCCCCCCCCCCCCCCCCCCCCCCCCCCCCCCC",
"CCCCCCCCCCCCCCCCCCCCCCCCCCCCCCCC",
"CCCCCCCCCCCCCCCCCCCCCCCCCCCCCCCC",
"CCCCCCCCCCCCCCCCCCCCCCCCCCCCCCCC",
"CCCCCCCCCCCCCCCCCCCCCCCCCCCCCCCC",
"CCCCCCCCCCCCCCCBBCCCCCCCCCCCCCCC",
"CCCCCCCCCCCCCCBnBsszCCCCCCCCCCCC",
"CCCCCCCCCCBvpzqptvptzCCCCCCCCCCC",
"CCCCCCCCzqrxtqvpaqbpssCCCCCCCCCC",
"CCCCCCCzrqrqppqaa#byqwCCCCCCCCCC",
"CCCCCCCCqqxxmxxqvaaacyoCCCCCCCCC",
"CCCCCCCzvvmxuxeuxaaa#byCCCCCCCCC",
"CCCCCzbdppoxuxmmrpaaaaabCCCCCCCC",
"CCCC.dddwqtqouuqrtenaaabbCCCCCCC",
"CCC.ddddyqvxnqxuxpthlaaabzCCCCCC",
"CCCbddydbttrxuxtpwtvkoaaa#CCCCCC",
"CC.ddddrjlxuxrqnpqpqnhaaaaBCCCCC",
"CCaydddfifrrqqqptpmnsna#aa#CCCCC",
"CC#ddddgiigvnqqtqptstaaaaa#CCCCC",
"CCaddydfiigpqqtpwoos.aaaaa#CCCCC",
"CC.dddddevdvpwbcwAsoq#a#a#zCCCCC",
"CCzddddddddddddczBBBCCz..BCCCCCC",
"CCC#ddyddddddddzCCCCCCCCCCCCCCCC",
"CCCC#ddddddydczCCCCCCCCCCCCCCCCC",
"CCCCC.ddydddbzCCCCCCCCCCCCCCCCCC",
"CCCCCCCz..zBCCCCCCCCCCCCCCCCCCCC",
"CCCCCCCCCCCCCCCCCCCCCCCCCCCCCCCC",
"CCCCCCCCCCCCCCCCCCCCCCCCCCCCCCCC",
"CCCCCCCCCCCCCCCCCCCCCCCCCCCCCCCC",
"CCCCCCCCCCCCCCCCCCCCCCCCCCCCCCCC",
"CCCCCCCCCCCCCCCCCCCCCCCCCCCCCCCC"
};
