/* XPM */
static char *vinmed014[] = {
/* width height num_colors chars_per_pixel */
"    24    24       30            1",
/* colors */
". c #313131",
"# c #393939",
"a c #4a4a4a",
"b c #5a5a5a",
"c c #7b7b7b",
"d c #100808",
"e c #940000",
"f c #842921",
"g c #6b4a42",
"h c #523129",
"i c #5a2918",
"j c #9c847b",
"k c #6b4231",
"l c #94634a",
"m c #845a42",
"n c #7b5239",
"o c #4a3121",
"p c #734a31",
"q c #5a4231",
"r c #8c6b52",
"s c #a57b5a",
"t c #9c7352",
"u c #847363",
"v c #846342",
"w c #292118",
"x c #ad8c63",
"y c #bd9463",
"z c #423929",
"A c #6b6352",
"B c None",
/* pixels */
"BBBBBBBBBBBBdab#dBBBBBBB",
"BBBBBBBBBBBwbbbbaBBBBBBB",
"BBBBBBBBBBB#bbbbbdBBBBBB",
"BBBBBBBBBBBcbbgbbaBBBBBB",
"BBBBBBBBBB.bbbeebaBBBBBB",
"BBBBBBBBBd#AtqefbaBBBBBB",
"BBBBBBBdvqsgthpfAaBBBBBB",
"BBdaa##gyxxyxogmmvdBBBBB",
"BBdw#baAjjusytslkqBBBBBB",
"BBBdww#ii#abutmmmqBBBBBB",
"BBBBBdwlfiqq#a#nmzBBBBBB",
"BBBBBBwmlrnlmgvlswBBBBBB",
"BBBBBBqmltlttnrtnqBBBBBB",
"BBBBBBlvlnlsnymnndBBBBBB",
"BBBBBBhqlsmptmqqnBBBBBBB",
"BBBBBBwAsslhmhoqzBBBBBBB",
"BBBBBBwcjcbAgodBBBBBBBBB",
"BBBBBBBbcccudBBBBBBBBBBB",
"BBBBBBBBaAbdBBBBBBBBBBBB",
"BBBBBBBBBBBBBBBBBBBBBBBB",
"BBBBBBBBBBBBBBBBBBBBBBBB",
"BBBBBBBBBBBBBBBBBBBBBBBB",
"BBBBBBBBBBBBBBBBBBBBBBBB",
"BBBBBBBBBBBBBBBBBBBBBBBB"
};
