/* XPM */
static char *vinmed016[] = {
/* width height num_colors chars_per_pixel */
"    24    24       30            1",
/* colors */
". c #101010",
"# c #313131",
"a c #424242",
"b c #525252",
"c c #6b6b6b",
"d c #634242",
"e c #7b2121",
"f c #940000",
"g c #842921",
"h c #942918",
"i c #7b4a39",
"j c #7b5242",
"k c #633929",
"l c #634231",
"m c #845a42",
"n c #a57352",
"o c #422918",
"p c #8c6b52",
"q c #84634a",
"r c #735239",
"s c #9c7352",
"t c #bd8c63",
"u c #946b4a",
"v c #736b63",
"w c #8c6b4a",
"x c #635239",
"y c #ad8c5a",
"z c #312918",
"A c #212118",
"B c None",
/* pixels */
"BBBBBBBBBBBBBBBBBBBBBBBB",
"BBBBBBBBBBBBBBBBBBBBBBBB",
"BBBBBBBBAbbazBBBBBBBBBBB",
"BBBBBBBBbccccb.BBBBBBBBB",
"BBBBBBBzcccqcccABBBBBBBB",
"BBBBA#bccvvhhlql.BBBBBBB",
"BBAbvbbbbbbpsusp#BBBBBBB",
"B#bbbbbbbbbbdinpdBBBBBBB",
"BbbbbbddbbqqqwsljBBBBBBB",
"BbbbbeffepswtsmlyoABBBBB",
"BabbbefgnnuwtwmsypzBBBBB",
"B.bbbbpjtntnjlrxuyBBBBBB",
"BB.#bbqswnmmprimnnBBBBBB",
"BBBBBB.imtusutijpkBBBBBB",
"BBBBBBzljtmyuyskzBBBBBBB",
"BBBBBBBomnljxdqjBBBBBBBB",
"BBBBBBBArwsfqcaABBBBBBBB",
"BBBBBBBBBacvccaBBBBBBBBB",
"BBBBBBBBB.cccczBBBBBBBBB",
"BBBBBBBBBBbccvBBBBBBBBBB",
"BBBBBBBBBBB#b.BBBBBBBBBB",
"BBBBBBBBBBBBBBBBBBBBBBBB",
"BBBBBBBBBBBBBBBBBBBBBBBB",
"BBBBBBBBBBBBBBBBBBBBBBBB"
};
