/* XPM */
static char *vinmed017[] = {
/* width height num_colors chars_per_pixel */
"    24    24       30            1",
/* colors */
". c #101010",
"# c #212121",
"a c #424242",
"b c #525252",
"c c #636363",
"d c #6b6b6b",
"e c #6b4a4a",
"f c #942121",
"g c #bd0000",
"h c #5a1008",
"i c #5a3129",
"j c #c64229",
"k c #8c5242",
"l c #735a52",
"m c #633929",
"n c #a56b52",
"o c #734a39",
"p c #291810",
"q c #7b6b63",
"r c #845239",
"s c #8c634a",
"t c #ad7b5a",
"u c #7b5a42",
"v c #9c6b4a",
"w c #8c6b52",
"x c #c6946b",
"y c #312921",
"z c #846342",
"A c #ad8c63",
"B c None",
/* pixels */
"BBBBBBBBBBBBBBBBBBBBBBBB",
"BBBBBBBBBBBBBBBBBBBBBBBB",
"BBBBBBBBBBBBBBBBBBBBBBBB",
"BBBBBBBBBBBBBBBBBBBBBBBB",
"BBBBBBBB.aaayBBBBBBBBBBB",
"BBB.abbdcbesvsyBBBBBBBBB",
"BBadddddddcrssslBBBBBBBB",
"BadddddddlluouuApBBBBBBB",
".dddddddqzunssztno.BBBBB",
"yddddggfsnAvruwnvoyBBBBB",
"ydddkggvvxAAzrnsntBBBBBB",
".dddlfjttnsznkrtwuBBBBBB",
"BbddddssonttvxwmziBBBBBB",
"B.adddlovtutnoqtmyBBBBBB",
"BBByaadooAosizdsyBBBBBBB",
"BBBBBBBporszmwdy.BBBBBBB",
"BBBBBBBB.vzuhlcaBBBBBBBB",
"BBBBBBBBByybfcccBBBBBBBB",
"BBBBBBBBBBBacccbBBBBBBBB",
"BBBBBBBBBBB.ccbaBBBBBBBB",
"BBBBBBBBBBBB#cb#BBBBBBBB",
"BBBBBBBBBBBBB..BBBBBBBBB",
"BBBBBBBBBBBBBBBBBBBBBBBB",
"BBBBBBBBBBBBBBBBBBBBBBBB"
};
