/* XPM */
static char *vinmed011[] = {
/* width height num_colors chars_per_pixel */
"    24    24       31            1",
/* colors */
". c #181818",
"# c #292929",
"a c #393939",
"b c #424242",
"c c #737373",
"d c #8c8c8c",
"e c #6b6363",
"f c #100808",
"g c #391010",
"h c #5a1818",
"i c #8c5a52",
"j c #422921",
"k c #734a39",
"l c #6b4231",
"m c #312118",
"n c #8c634a",
"o c #523929",
"p c #7b5a42",
"q c #9c7352",
"r c #b5845a",
"s c #847363",
"t c #947b63",
"u c #948c84",
"v c #846b52",
"w c #947352",
"x c #b58c63",
"y c #181008",
"z c #c69c6b",
"A c #313129",
"B c #525242",
"C c None",
/* pixels */
"CCCCCCCCCCCCCCCCCCCCCCCC",
"CCCCCCCCCCCCCCCCCCCCCCCC",
"CCCCCCCCCCCCCCCCCCCCCCCC",
"CCCCCCCCCCCCCCCCCCCCCCCC",
"CCCCCC.ceb.CCCCCCCCCCCCC",
"CCCCCcddddvjmgCCCCCCCf#C",
"CCCCaddddcpkpkpfCCC.ebfC",
"CCCCdddbbpxxppvoC.cu.CCC",
"CCCCdusbApnqxqxrvihCCCCC",
"CCC.dspc#okxqpttvlCCCCCC",
"CCCCdunuaAwlqzrtrnCCCCCC",
"CCCCcdnwu#hpqqxrznfCCCCC",
"CCCC.clpdbmhpqnnpojCCCCC",
"CCCCCAnpwc#gkkpqpkfCCCCC",
"CCCCCCApqtB#joolmfCCCCCC",
"CCCCCCCfjpub##pyCCCCCCCC",
"CCCCCCCCCCkea#.CCCCCCCCC",
"CCCCCCCCCCyBba.CCCCCCCCC",
"CCCCCCCCCCCgC.CCCCCCCCCC",
"CCCCCCCCCCCCCCCCCCCCCCCC",
"CCCCCCCCCCCCCCCCCCCCCCCC",
"CCCCCCCCCCCCCCCCCCCCCCCC",
"CCCCCCCCCCCCCCCCCCCCCCCC",
"CCCCCCCCCCCCCCCCCCCCCCCC"
};
