/* XPM */
static char *vinmed002[] = {
/* width height num_colors chars_per_pixel */
"    24    24       31            1",
/* colors */
". c #101010",
"# c #212121",
"a c #525252",
"b c #5a5a5a",
"c c #737373",
"d c #949494",
"e c #523939",
"f c #e71818",
"g c #940808",
"h c #de0808",
"i c #ff0000",
"j c #7b3121",
"k c #c64a31",
"l c #a54a31",
"m c #734a39",
"n c #8c5a42",
"o c #a5735a",
"p c #94634a",
"q c #634231",
"r c #94847b",
"s c #523929",
"t c #a57352",
"u c #946b4a",
"v c #b5845a",
"w c #9c948c",
"x c #a58463",
"y c #bd946b",
"z c #7b5a39",
"A c #392918",
"B c #393931",
"C c None",
/* pixels */
"CCCCCCCCCCCCCCCCCCCCCCCC",
"CCCCCCCCCCCCCCCCCCCCCCCC",
"CCCCCCCCCCCCCCCCCCCCCCCC",
"CCCCCCCCCCCCCCCCCCCCCCCC",
"CCCCCCCCCCCCCCCCCCCCCCCC",
"CCCCCCCCC..AAms#CCCCCCCC",
"CCCCCCCqvuvozxzp.CCCCCCC",
"CCCCC#Bputmtmnuzs.CCCCCC",
"CCC.cdrovtutopzoA.CCCCCC",
"CCbdddpmupopobcxqACCCCCC",
"CBddddrumyynxyaczsCCCCCC",
"Cadwdrknvzvvptabc#CCCCCC",
"CddddihpmooovzeabbCCCCCC",
"CdddoiilutypusjjbbaCCCCC",
"Cddddfiknxnqmmzgbbc.CCCC",
"Ccdddddwqmzssqqjaab.CCCC",
"C.dddddwwddAqA#ababBCCCC",
"CC.ddddddw.CCCCBaaaBCCCC",
"CCCCacdca#CCCCCC#BeCCCCC",
"CCCCCCCCCCCCCCCCCCCCCCCC",
"CCCCCCCCCCCCCCCCCCCCCCCC",
"CCCCCCCCCCCCCCCCCCCCCCCC",
"CCCCCCCCCCCCCCCCCCCCCCCC",
"CCCCCCCCCCCCCCCCCCCCCCCC"
};
