/* XPM */
static char *vinmed006[] = {
/* width height num_colors chars_per_pixel */
"    24    24       31            1",
/* colors */
". c #101010",
"# c #292929",
"a c #525252",
"b c #5a5a5a",
"c c #636363",
"d c #737373",
"e c #845a5a",
"f c #a52929",
"g c #9c1010",
"h c #ad0000",
"i c #c61810",
"j c #7b3931",
"k c #8c3121",
"l c #73524a",
"m c #8c5242",
"n c #844a39",
"o c #5a3929",
"p c #94634a",
"q c #73635a",
"r c #8c634a",
"s c #ad7b5a",
"t c #7b5239",
"u c #7b5a42",
"v c #c6946b",
"w c #4a3929",
"x c #7b736b",
"y c #b58c63",
"z c #6b5239",
"A c #9c7b52",
"B c #424239",
"C c None",
/* pixels */
"CCCCCCCCCCCCCCCCCCCCCCCC",
"CCCCCCCCCCCCCCCCCCCCCCCC",
"CCCCCCCCC.bbba.CCCCCCCCC",
"CCCCCCCCbddddxdBCCCCCCCC",
"CCCCCCC#ddxdxdddBCCCCCCC",
"CCCCCCCBdddddxddd#CCCCCC",
"CCCCCCCadxdffqxdxx.CCCCC",
"CCCCCCCBqqnikheddd.CCCCC",
"CCCCCCCotAuurrldxd#CCCCC",
"CCCCCCwurmmAuprxdd#CCCCC",
"CCCCCCoAmAspuzutxd.CCCCC",
"CCCCCCzsvsvvApspyvaCCCCC",
"CCCCC#ospnrpsysnsex.CCCC",
"CCCCCC#AtwyAecAysqc.CCCC",
"CCCCCCCjzrApcqApvndBCCCC",
"CCCCCCCbmkjxxqzpxxc#CCCC",
"CCCCCCBchgccxlycxcc#CCCC",
"CCCCCCccflcdBBcxcdaCCCCC",
"CCCCC#cccccbCC#bca.CCCCC",
"CCCCC#ccccbCCCCCCCCCCCCC",
"CCCCC.ccxb.CCCCCCCCCCCCC",
"CCCCCC#B.CCCCCCCCCCCCCCC",
"CCCCCCCCCCCCCCCCCCCCCCCC",
"CCCCCCCCCCCCCCCCCCCCCCCC"
};
