/* XPM */
static char *vinmed008[] = {
/* width height num_colors chars_per_pixel */
"    24    24       31            1",
/* colors */
". c #101010",
"# c #313131",
"a c #4a4a4a",
"b c #525252",
"c c #636363",
"d c #6b6b6b",
"e c #848484",
"f c #292121",
"g c #843939",
"h c #ad3131",
"i c #941010",
"j c #ad0000",
"k c #9c2921",
"l c #4a2921",
"m c #735a52",
"n c #7b5242",
"o c #734a39",
"p c #845a42",
"q c #846b5a",
"r c #422918",
"s c #634229",
"t c #9c7352",
"u c #bd8c63",
"v c #b5845a",
"w c #8c6342",
"x c #8c7b6b",
"y c #423931",
"z c #a57b52",
"A c #524229",
"B c #181810",
"C c None",
/* pixels */
"CCCCCCCCCCCCCCCCCCCCCCCC",
"CCCCCCCBccaaCCCCCCCCCCCC",
"CCCCCCaeeeeedfCCCCCCCCCC",
"CCCCC#eeeeeeeeBCCCCCCCCC",
"CCCCCeeeeeeeeecCCCCCCCCC",
"CCCCCeeexhheeeeBCCCCCCCC",
"CCCCCeeehgkoxeecCCCCCCCC",
"CCCCCdedbpqtzwxvrCCCCCCC",
"CCCCCBeqswvzvuutsCCCCCCC",
"CCCCCCbwvvvvzuuvvyfCCCCC",
"CCCCCCAuzwzvmzuuumddfCCC",
"CCCCCBtwoztqxupvvzgddyCC",
"CCCCCCnnttwxpvuovijgdd.C",
"CCCCCCrAotsdptwzskimddbC",
"CCCCCCCptwkxAnpmndddccdC",
"CCCCCCClAvmmttwxddddddyC",
"CCCCCCCCBldolttzmabda#CC",
"CCCCCCCCCCdCBqpBCCCCCCCC",
"CCCCCCCCCBbCCCCCCCCCCCCC",
"CCCCCCCCC##CCCCCCCCCCCCC",
"CCCCCCCCCaCCCCCCCCCCCCCC",
"CCCCCCCCCfCCCCCCCCCCCCCC",
"CCCCCCCCCCCCCCCCCCCCCCCC",
"CCCCCCCCCCCCCCCCCCCCCCCC"
};
