/* XPM */
static char *vinsml000[] = {
/* width height num_colors chars_per_pixel */
"    16    16       30            1",
/* colors */
". c #101010",
"# c #181818",
"a c #212121",
"b c #292929",
"c c #393939",
"d c #4a4a4a",
"e c #5a5a5a",
"f c #636363",
"g c #7b7b7b",
"h c #733131",
"i c #b53131",
"j c #080000",
"k c #de0000",
"l c #9c4a42",
"m c #ad4a39",
"n c #634a42",
"o c #422921",
"p c #734a39",
"q c #4a3931",
"r c #8c6b5a",
"s c #845a42",
"t c #8c634a",
"u c #ad7b5a",
"v c #a57352",
"w c #4a3121",
"x c #9c6b4a",
"y c #947352",
"z c #634a31",
"A c #292110",
"B c None",
/* pixels */
"BBBBBBBBBBBBBBBB",
"BBBBBBBBBBBBBBBB",
"BBBBBBBBBBBBBBBB",
"BB.#b#.woABBBBBB",
"BcgggfrpxusoBBBB",
"bggggxxuyuyxBBBB",
"cgglmvyvuuttjBBB",
"egrkmysvystzBBBB",
"fggixvvyyftoBBBB",
"#gggppsxxrfABBBB",
"B#dgfnytzef#BBBB",
"BBBBBB#zqhe#BBBB",
"BBBBBBBB.eebBBBB",
"BBBBBBBBBceaBBBB",
"BBBBBBBBBB.BBBBB",
"BBBBBBBBBBBBBBBB"
};
