/* XPM */
static char *vinsml017[] = {
/* width height num_colors chars_per_pixel */
"    16    16       30            1",
/* colors */
". c #101010",
"# c #212121",
"a c #424242",
"b c #4a4a4a",
"c c #5a5a5a",
"d c #636363",
"e c #6b6b6b",
"f c #5a4242",
"g c #ad1010",
"h c #bd0000",
"i c #941810",
"j c #6b4239",
"k c #733929",
"l c #7b4a39",
"m c #7b5a4a",
"n c #291810",
"o c #94634a",
"p c #b57b5a",
"q c #946b52",
"r c #ad7b5a",
"s c #a57352",
"t c #5a4231",
"u c #7b5a42",
"v c #8c6342",
"w c #423121",
"x c #312921",
"y c #8c6b4a",
"z c #6b635a",
"A c #a5845a",
"B c None",
/* pixels */
"BBBBBBBBBBBBBBBB",
"BBBBBBBBBBBBBBBB",
"BBBBBB..BBBBBBBB",
"BB.aaecfmuBBBBBB",
"BceeeeeqqyfBBBBB",
"aeeeezoAvAru.BBB",
"ceeghAsqoqsrnBBB",
"beegisrusvsrBBBB",
".eeelorspmkwBBBB",
"B.abzmrulzmnBBBB",
"BBBB.tuqkexBBBBB",
"BBBBBBtwjdbBBBBB",
"BBBBBBB.ddaBBBBB",
"BBBBBBBBbd#BBBBB",
"BBBBBBBBB.BBBBBB",
"BBBBBBBBBBBBBBBB"
};
