/* XPM */
static char *vinsml015[] = {
/* width height num_colors chars_per_pixel */
"    16    16       31            1",
/* colors */
". c #181818",
"# c #212121",
"a c #313131",
"b c #393939",
"c c #525252",
"d c #6b6b6b",
"e c #737373",
"f c #635a5a",
"g c #6b0000",
"h c #941810",
"i c #8c3129",
"j c #731008",
"k c #7b524a",
"l c #422921",
"m c #734a39",
"n c #6b4a39",
"o c #94634a",
"p c #845a42",
"q c #8c634a",
"r c #523929",
"s c #7b5239",
"t c #9c7352",
"u c #946b4a",
"v c #a57b52",
"w c #634a31",
"x c #6b635a",
"y c #7b6342",
"z c #84735a",
"A c #5a5242",
"B c #101008",
"C c None",
/* pixels */
"CCCCCCBcb#CCCCCC",
"CCCCCCbdddBCCCCC",
"CCCCCCddkkcCCCCC",
"CCCCCCxAhif.CCCC",
"C.bfcbezvpwrCCCC",
"CcbbbAbcAqtlCCCC",
"CaAagjmkAyvlCCCC",
"CC.#sqqvvtnyBCCC",
"CCCCnqvtuntrCCCC",
"CCCClpvonwmrCCCC",
"CCCCByvyqqBCCCCC",
"CCCCCfeedBCCCCCC",
"CCCCC.eebCCCCCCC",
"CCCCCC##CCCCCCCC",
"CCCCCCCCCCCCCCCC",
"CCCCCCCCCCCCCCCC"
};
