/* XPM */
static char *vinsml016[] = {
/* width height num_colors chars_per_pixel */
"    16    16       29            1",
/* colors */
". c #101010",
"# c #292929",
"a c #424242",
"b c #525252",
"c c #5a5a5a",
"d c #6b6b6b",
"e c #180808",
"f c #7b2121",
"g c #080000",
"h c #940000",
"i c #943931",
"j c #422921",
"k c #6b3929",
"l c #5a3929",
"m c #845a42",
"n c #ad7b5a",
"o c #7b5239",
"p c #4a3121",
"q c #735239",
"r c #9c7352",
"s c #946b4a",
"t c #635242",
"u c #524a42",
"v c #8c6b4a",
"w c #846342",
"x c #a57b52",
"y c #bd9463",
"z c #181810",
"A c None",
/* pixels */
"AAAAAAAAAAAAAAAA",
"AAAAA.aa#AAAAAAA",
"AAAAAadddaAAAAAA",
"AAzz#dcitvtAAAAA",
"Aaccccbtnsv.AAAA",
"#cbbtbctmrt#AAAA",
"abcfhinrnrooeAAA",
".bbtsrxrrmmsgAAA",
"AA##qknoqmvwAAAA",
"AAAApvysnml#AAAA",
"AAAAetwqqdjAAAAA",
"AAAAAjuidcAAAAAA",
"AAAAAA.ddaAAAAAA",
"AAAAAAAbc.AAAAAA",
"AAAAAAAAAAAAAAAA",
"AAAAAAAAAAAAAAAA"
};
