/* XPM */
static char *vinsml005[] = {
/* width height num_colors chars_per_pixel */
"    16    16       29            1",
/* colors */
". c #101010",
"# c #181818",
"a c #313131",
"b c #5a5a5a",
"c c #636363",
"d c #6b6b6b",
"e c #7b7b7b",
"f c #524a4a",
"g c #8c6363",
"h c #9c4a4a",
"i c #ad3131",
"j c #942929",
"k c #c61810",
"l c #8c3931",
"m c #9c4a39",
"n c #6b4a39",
"o c #9c6b52",
"p c #634231",
"q c #845a42",
"r c #a57352",
"s c #84634a",
"t c #735239",
"u c #b5845a",
"v c #947b63",
"w c #4a3929",
"x c #846b52",
"y c #6b635a",
"z c #292921",
"A c None",
/* pixels */
"AAAAAAAAAAAAAAAA",
"AAAAAAAAAAAAAAAA",
"AAAAAA.ffaAAAAAA",
"AAAAA.ddccdaAAAA",
"AAAAAzccddcd.AAA",
"AAAAzrqsljdcfAAA",
"AAA.suooqmbddAAA",
"AAAwsouqosxdcAAA",
"AAAAturuunqyaAAA",
"AAAadtpqxssvAAAA",
"AAAehkmvdoxaAAAA",
"AAzegieedfc.AAAA",
"AAaeedeb.z.AAAAA",
"AA#ceeb.AAAAAAAA",
"AAAA#.AAAAAAAAAA",
"AAAAAAAAAAAAAAAA"
};
