/* XPM */
static char *shpimp011[] = {
/* width height num_colors chars_per_pixel */
"    40    40       27            1",
/* colors */
". c None",
"# c #000800",
"a c #001000",
"b c #001800",
"c c #002100",
"d c #082100",
"e c #082900",
"f c #083100",
"g c #083900",
"h c #084200",
"i c #084a00",
"j c #105200",
"k c #105a00",
"l c #106b00",
"m c #107300",
"n c #107b00",
"o c #108400",
"p c #187300",
"q c #187b00",
"r c #188c00",
"s c #189400",
"t c #189c00",
"u c #18a500",
"v c #219c00",
"w c #21a500",
"x c #21ad00",
"y c #21b500",
/* pixels */
"...............x.wxwxwxv.w###...........",
"...........yyxxwxvuvvvvvstvs.#..........",
"..........yyxxwwvvrvrvqvrtqss##.#.......",
"........yyxxvtsvqrqrqqnqqqqrqrr##.......",
"......yyxxttrrqqpqllkpkpplkllql#q#......",
"....#.yxvsssqqppkkkljkjkjpjkkkplp.......",
"...##xytvrsqqppkkjkjjjjhjjjjkkpkpp......",
"...#ywussqolpkkjjhhghfgghghhjjjjkppp....",
"..#xxvvrqpmkkjjhhggffefeeeffghhgjjkl....",
"..yxurrqpkkjjggffeedddddddedeegghhkkk...",
"#.xxvrqqlkjjggffeedddddddddddefgfhhkk...",
"##wsrrmlkkhhffddbdaaaaaaddadddcefggjjk..",
"#wvvqqpkjhggeeddaaaaaaaaaaadaddedfghjkk.",
"#wvrqmpjjggeecddaaaaa#a#aaaaaadadeggjjk.",
"xvqqqkkjhgfddaaaaa##########aaaacbefgj.#",
"wrrplkjggedbdaa######..#.#####aadbecfhj#",
"trrpkjhgfccab####.#..##...#####aaadeffj.",
"vrppkjhgecdaa####....#....#####aaadeefh.",
"vqppkjgfeddaa##....#........##.##addegg#",
"rrlkjggfddaa####............#.##aaadefhj",
"rrkkjhedcaaa##.................##addefgj",
"rmkjjgeecda##..................##addeeg#",
"qqljjffbdda##...............##.###addfgh",
"qlkkhgecdaa#...................###dadeg#",
"qppjhfecaaa##..............#.#.###addeh#",
"#pkjjfecba###.#............#.#.###adbeg#",
".pljhfecdaa###.#............#####aadefg#",
".pkjhgedda####.#........#.....###aadef..",
"..kkhgedda###....#......##...####aade...",
"..kjhgfcdda###...........#.#.###adade###",
"...kigffddaa##............#####aaabef..#",
"....higfddaa####...#..#...#####addd..##.",
"....kigffddaa####.###...#.####aaade..#..",
".....jhgfddada#######.######aaadce......",
".....#jggfeddaaaa#######a#aaaadde.......",
"......#.gfgdedddaaaaa#aaaaaabdde........",
"......#.ghgeedddadaaaaaaaaaabdd.........",
".......##.h.efedddddaddaddbcd...........",
"...........#ggefdeddcdded.e.............",
"................f#f.e..#................"
};
