/* XPM */
static char *shpimp017[] = {
/* width height num_colors chars_per_pixel */
"    40    40       27            1",
/* colors */
". c None",
"# c #000800",
"a c #001000",
"b c #001800",
"c c #002100",
"d c #082100",
"e c #082900",
"f c #083100",
"g c #083900",
"h c #084200",
"i c #084a00",
"j c #105200",
"k c #105a00",
"l c #106b00",
"m c #107300",
"n c #107b00",
"o c #108400",
"p c #187300",
"q c #187b00",
"r c #188c00",
"s c #189400",
"t c #189c00",
"u c #18a500",
"v c #219c00",
"w c #21a500",
"x c #21ad00",
"y c #21b500",
/* pixels */
".............kkpppqqqrrv.w#w..#.........",
"..........kkkkklkpllmrrrvrtwx####.......",
".......#.khijhjjjkkjkklpqrrvwx##........",
".....##hjigghgghghhjjkkppqrvqw#x........",
"...##.jhgggffgfffghgjjhkpkpqrvwxy#......",
"#...#gggfffceeeefefgfhgjkklqqrswx###....",
"#...hfffdddddddcccefegghjkkmmqrruxy#....",
"...hgeedddddadabddbedfgfgjjkmmrrvwy.....",
"##.fedddaaaaaaaaaaddadeefgjjplqrvuxy....",
".#geeddaaaa#####aaadddccfggjkklqqswxy...",
".gfdddaaa########aaaadddcefghkppqstxy...",
".feddd#a############aaadbdeghjkpmqvsxy..",
"ffddda###.....#....##aaabdeehjjklortxy..",
"edddaa####.##.#....####baddefhjklqstxy..",
"eddda###.....#......####aacefgjklpqtvxy.",
"fdda###.............#.##aabddfgjkpqrvxy.",
"ddaaa###..............###adddfhjkpqrsxy.",
"cdaa###................##aadeffjkkpqvwx.",
"dda##.#...............##aaabdefhjkpqvwx.",
"dda###.#............#..##aaadeghjkqqvvy.",
"daaa##.#................#aaadeggkklqrvw.",
"bdaa##...............#.###aaddfhjklqrux#",
"daa####..............#..#aaadefhjlqrvvwy",
"cbaa##..###...........###aaadefgjkpqrvx#",
"caaa#####.............###aaadefgjkpqvv##",
"dbaa####...............##adddeghkpnqvwx.",
".ddaa###....#.....#.####aadddehjjpprvv##",
".ddaa###.#..#..#....####aadddfgjplqrsx#.",
".edddaa#####..#..#######adddehhjkpqqt.#.",
"..ecaaa####.#.#....####aaddefhhkklqsv#..",
"...eddaa#############aaadddefgjkkqrs##..",
"...eebada#a##########aaadcdghjkklrs..#..",
"...#.dbaaaa##a##aaaaadaaeefghjkpqrr#.#..",
".....ededadaadaaaaaaadcdfffhjjllq##..#..",
"....#.ffedbdadddddaddbeefghhkklq##......",
"....#.#.feedddddeddeceggghhjppp.##......",
"....#.#..ggfefeefeefffghhjkkpp..........",
"....###..#ghgggfhgfhhhjjjkkl............",
".....##..###hg#jhhhhjjkkk...............",
".......#######..j#.j#.k................."
};
SIMPLE  =                    T                                                  BITPIX  =                    8                                                  NAXIS   =                    2                                                  NAXIS1  =                   40                                                  NAXIS2  =                   40                                                  HISTORY Written by XV 3.10a                                                     END                                                                                                                                                                                                                                                                                                                                                                                                                                                                                                                                                                                                                                                                                                                                                                                                                                                                                                                                                                                                                                                                                                                                                                                                                                                                                                                                                                                                                                                                                                                                                                                                                                                                                                                                                                                                                                                                                                                                                                                                                                                                                                                                                                                                                                                                                                                                                                                                                                                                                             ##.AAARY#.2AENRae###..22AAENYE]a
