/* XPM */
static char *shpimp016[] = {
/* width height num_colors chars_per_pixel */
"    40    40       26            1",
/* colors */
". c None",
"# c #000800",
"a c #001000",
"b c #001800",
"c c #002100",
"d c #082100",
"e c #082900",
"f c #083100",
"g c #083900",
"h c #084200",
"i c #084a00",
"j c #105200",
"k c #105a00",
"l c #106b00",
"m c #107300",
"n c #108400",
"o c #187300",
"p c #187b00",
"q c #188c00",
"r c #189400",
"s c #189c00",
"t c #18a500",
"u c #219c00",
"v c #21a500",
"w c #21ad00",
"x c #21b500",
/* pixels */
"............##.u.uuvvuwwv#.#............",
"............p#pqqquqquvuvww###..........",
"..........#oppmqoopqpqpuvrwww##.........",
"........kooklkmkkooopopqqqutwxw.........",
".......kkljkkhkjjkkoklpmpqqqutv.x.......",
"......kkkjjjhhjgjhjkjlkmpmpqurvww.......",
".....kijhghghhfghgjhhjjjolppprsuwxx.....",
"....kiigggfefeefeggfhggjjkloopqurwx.....",
"..#.jggfgeeecceecdefffghgkkkomnqswwx....",
".##hggfcedecdcddcddcccgfghhkklnprswwx...",
"##jggfdcdddaaadddddddcddggfjjllorquww...",
"#.gffdddddaaaaaaaaaadabdeefggkkoppusw...",
"#hffdddada#a##a##a#aabbdceffgjjoopruww..",
".gfeddaaa######.###a##aaabdfghjkkppuvw.#",
".eeddaaa######....#####aadddffhjkopuuu.#",
"geedda####..#.....##.##aaadbefhhjklqquwx",
"geddaa##.............###aaadeeghkklpqtvx",
"feddaa#....##.........###aaadeggjklpquu#",
"eddda##.#.............###aaaadffhjkppuu#",
"fddaa##...#..........#.###aaadefhjkopuuw",
"fdda###...............#.##aaaddfgjkoppuw",
"edda####..............#..#aaaddfgjkopqrw",
"fddaa###...............#.##aaddefjjlpprv",
"eddaa#.#................###adddefjjlopsu",
"ecda##..#...............###aaddeghjklpr.",
"eddaa##.#...............###aaddehhjklqr.",
".edaa###....#........#.####adddeghkklqq.",
"#eadaa###..#.........#.###aaaddfgjkkpqq.",
"..bdaa###.#...........####aadddghhkopq#.",
"..edaa#####.......#....###aadceggjklp##.",
"..ecaaaa###...##..#..#.#a#aadeeghjkop#..",
"...cabaa#####.#...#.####aadadffhhkoo....",
"....dddaa######.######a#aadcefghjko.....",
".....ddddaaa#########aaaadbeeghhklo.....",
".....deddadaaa#a##a#adadddcfghhjkl......",
".......dcddadaaaaaaadddddeffgjjk........",
".........ebddadaadadddefeffhjjk.........",
".........e.edeedbddddeffghhj.k..........",
"...........effeffeedfgfghhj#............",
".............f.gfghgg#jjh.##............"
};
