/* XPM */
static char *shpimp013[] = {
/* width height num_colors chars_per_pixel */
"    40    40       27            1",
/* colors */
". c None",
"# c #000800",
"a c #001000",
"b c #001800",
"c c #002100",
"d c #082100",
"e c #082900",
"f c #083100",
"g c #083900",
"h c #084200",
"i c #084a00",
"j c #105200",
"k c #105a00",
"l c #106b00",
"m c #107300",
"n c #107b00",
"o c #108400",
"p c #187300",
"q c #187b00",
"r c #188c00",
"s c #189400",
"t c #189c00",
"u c #18a500",
"v c #219c00",
"w c #21a500",
"x c #21ad00",
"y c #21b500",
/* pixels */
"..........##.###yxyyyyyyy...............",
".........###xyxxwuwxxxxxxyy.............",
".......#.#xwwxwuvvstvsttxxxxxy#....#....",
"....####.xwvrsvrrrqsrrssvvtwwx.##..#....",
"....##wwvvqrqrrqqppqqoqqrrsvvvwxy##.#...",
"..###.vtrrqqmqmllppmllppqqqqrrvuwx##....",
"..##.vrrrqplkmpkkkkkkkkkpppqqqvvvwx#....",
"..##vrrqppkkjkjjhhjjjjjjkkkkllrrvvvx#...",
"....rrpppkkjjjjhgghhggghjjjkklqqqqvx.#..",
"..#qmkklkjhghgggfegfffffhhhhjjkpnqrsw###",
".#qqlkjjhggfffedddeeddeefggghhkkppqrtv##",
"..qlkjjjhgfeeccbbdcbddbdeefffhjkplpqqs..",
".#ppkhjgfeddcddabaaadaaadddeeghjjpkqrs#.",
".ppkjhhffecaddaa##aaaaaaaadddfghjjklqrr#",
".pljjfgeebdddaaa#####a#aaaaadeefghjklqr#",
"kkjhfeecddaaaa###.#####aaaaaaddefhhkklq#",
"kkhgfecdaaa######.#.##.###aaddddefgjkplq",
"kjhgedcbaa###..........####aadddefhjjkl.",
"kigfeddaa###........#.#..###aadddeghjkp.",
"khgfcddaa###...........###.##addddfgjkpp",
"kgfdddaa####..............###aaadcfghjkp",
"jgfddaa###.#...............###aaddefhhkl",
"hgfddaa##...#.............#####aaaefghkk",
"jgfddaa##.##...............###aaacdghjk.",
".gfedaa##................#.####adbeghjk.",
".gfedaa##.#.#.............#.##aaabeggjk.",
"hgedddaa#....................##aadefgjk.",
".heeda####...............#..###aadcfhj..",
"..feddaa###.............##.###addeefhj#.",
".#gfedda####......#...#...###aaddefhj#..",
"..#geddaa####.#...#....#..###addefgh.#..",
"##..fdddaa##......#...##.####adbefgh##..",
"#...fdddaaa#####..##...#####adddefhj#...",
".##.feddda######.#########aaaaddfgj..#..",
"..#..#fdcdaaaa###########aaaddeghg#..#..",
"...#...eeddaaaaa#####a#aaaddbefh###.....",
"#.##.###..dadaaaaaaaaaaadaddefg###......",
".....##...edbdbaaaaadadabdeefg#######...",
"..........#..ccdbddddadbdeff....##.#....",
"...............dddee.cee...##..##......."
};
