/* XPM */
static char *stnimp008[] = {
/* width height num_colors chars_per_pixel */
"    68    68        2            1",
/* colors */
". c None",
"# c #dd7777",
/* pixels */
"....................................................................",
"....................................................................",
"....................................................................",
"....................................................................",
"....................................................................",
"....................................................................",
"....................................................................",
"....................................................................",
"....................................................................",
"....................................................................",
"....................................................................",
"....................................................................",
"....................................................................",
"....................................................................",
"....................................................................",
"....................................................................",
".......#............................................................",
".....#..............................................................",
"....................................................................",
"....#.#.............................................................",
"...#.#..............................................................",
"..#.#...............................................................",
"..#.#.#.............................................................",
"..#.#...............................................................",
".###.#..............................................................",
".##.#...............................................................",
"..##..#.............................................................",
"###.................................................................",
".####...............................................................",
".##.................................................................",
"#####...............................................................",
"#.#.................................................................",
"####................................................................",
"###.#...............................................................",
"###.................................................................",
"##.#................................................................",
"#.##................................................................",
"###.#...............................................................",
"##..................................................................",
"####................................................................",
".###................................................................",
"###.#...............................................................",
"#####...............................................................",
".###.#..............................................................",
".####...............................................................",
"###.##..............................................................",
".#####..............................................................",
"..###.#.............................................................",
"..####.#............................................................",
"...###.#............................................................",
"...####.#...........................................................",
".....###.#..........................................................",
"....###.#...........................................................",
".....###.##.........................................................",
"......#####.........................................................",
".....####.#.#.......................................................",
".......#####........................................................",
"........###.##......................................................",
"..........####.#....................................................",
"..........##.##.#...................................................",
"............####.#..................................................",
"............#####.#.................................................",
"...............####.#...............................................",
"..............###.#.................................................",
".................#.#.#..............................................",
"....................#..#............................................",
".......................#............................................",
".........................#.........................................."
};
