/* XPM */
static char *t1shf000[] = {
/* width height num_colors chars_per_pixel */
"    32    32       31            1",
/* colors */
". c #100808",
"# c #311810",
"a c #a53100",
"b c #6b3921",
"c c #8c5231",
"d c #734a31",
"e c #ef9c63",
"f c #ce8452",
"g c #e7945a",
"h c #5a3921",
"i c #946339",
"j c #8c5a31",
"k c #847b73",
"l c #ffb573",
"m c #efa563",
"n c #c6945a",
"o c #e7a54a",
"p c #9c9484",
"q c #d6c610",
"r c #847b00",
"s c #9c9400",
"t c #212118",
"u c #636300",
"v c #526b7b",
"w c #294252",
"x c #396384",
"y c #84a5c6",
"z c #6ba5e7",
"A c #527bad",
"B c #4a424a",
"C c None",
/* pixels */
"CCCCCCCCCCCCCCCCCCCCCCCCCCCCCCCC",
"CCCCCCCCCCCCCCCCCCCCCCCCCCCCCCCC",
"CCCCCCCCCCCCCCCCCCCCCCCCCCCCCCCC",
"CCCCCCCCCCCCCCCCCCCCCCCCCCCCCCCC",
"CCCCCCCCtxCCCCCCCCCCCCCCCCCCCCCC",
"CCCCCCCCBAoemmmmmmmmtCCCCCCCCCCC",
"CCCCCCCCtvclmllememedbCCCCCCCCCC",
"CCCCCCCC.Bblllleh###CCCCCCCCCCCC",
"CCCCCCCCCCCnllllntCCCCCCCCCCCCCC",
"CCCigggjhCCtlllllldCCCCCCCCCCCCC",
"CCC#fggeeefiegeenpAAxvBfCCCCCCCC",
"CCCCrggeeeemmmmlyzzzzyvkd.CCCCCC",
"CC#aujggeeemllllzzzzAAAkcd#CCCCC",
"CCCaurfgelllllllpyAAAAvmijihCCCC",
"CC.asrsollllllllllppkmllfdiihCCC",
"CC#asssqlllllllllllllllliddb.CCC",
"CCCausrqeeeeeeeeeeeeeeeejhtCCCCC",
"CCCCurrsffffffffffffffffh#CCCCCC",
"CCCCuu.Cdjcjgegenegfccjj.CCCCCCC",
"CCCCCCCCC..dllllllet....CCCCCCCC",
"CCCCCCCCCCClllllletCCCCCCCCCCCCC",
"CCCCCCCCCCdllllleCCCCCCCCCCCCCCC",
"CCCCCCCttClllllmCCCCCCCCCCCCCCCC",
"CCCCCCCABfmmmmmijjcjjCCCCCCCCCCC",
"CCCCCCCydnlllllllllllictCCCCCCCC",
"CCCCCCCABgegeeeeeeeee#.CCCCCCCCC",
"CCCCCCCxwC...........CCCCCCCCCCC",
"CCCCCCCC.CCCCCCCCCCCCCCCCCCCCCCC",
"CCCCCCCCCCCCCCCCCCCCCCCCCCCCCCCC",
"CCCCCCCCCCCCCCCCCCCCCCCCCCCCCCCC",
"CCCCCCCCCCCCCCCCCCCCCCCCCCCCCCCC",
"CCCCCCCCCCCCCCCCCCCCCCCCCCCCCCCC"
};
