/* XPM */
static char *t1shf006[] = {
/* width height num_colors chars_per_pixel */
"    32    32       31            1",
/* colors */
". c #5a3939",
"# c #b5734a",
"a c #6b4229",
"b c #c67b4a",
"c c #ce8452",
"d c #de945a",
"e c #9c6b42",
"f c #ffad6b",
"g c #7b5231",
"h c #946339",
"i c #8c5a31",
"j c #ffb573",
"k c #7b6b5a",
"l c #efad6b",
"m c #ffb56b",
"n c #6b4a29",
"o c #312110",
"p c #5a4221",
"q c #ffd663",
"r c #a59400",
"s c #fff718",
"t c #101008",
"u c #a5adad",
"v c #5a94c6",
"w c #29425a",
"x c #6ba5de",
"y c #426b94",
"z c #293952",
"A c #6b7384",
"B c #842129",
"C c None",
/* pixels */
"CCCCCCCCCCCCCCCCCCCCCCCCCCCCCCCC",
"CCCCCCCCCCCCCCCCCCCCeoCCCCCCCCCC",
"CCCCCCCCCCCCCCCCCCCgjoCCCCCCCCCC",
"CCCCCCCCtzCCCCCCCCCcdoCCCCCCCCCC",
"CCCCCCCCwAytCCCCCocmdoCCCCCCCCCC",
"CCCCCCCC#bBzCCCCCsjmjpCCCCCCCCCC",
"CCCCCCCnjcotCCCadqjffprCCCCCCCCC",
"CCCCCCojcedoCCpjjjfffprpCCCCCCCC",
"CCCCCoddbjjdoofjjjffdpptCCCCCCCC",
"CCCCCdl#jjjjdcjjjjfdbioCCCCCCCCC",
"CCCCelepjjjjljjjjflc#gtCCCCCCCCC",
"CCCnjboCdjjljjjjffdbiptCCCCCCCCC",
"CCCddpCCdjjllvykfdceatCCCCyyzCCC",
"CColpCCCojluvvywcc#ganoCCo#BvzCC",
"CCgoCCCCojlvxvyw#bhpcjjjjcjdBzCC",
"CCoCCCCCojuxxvyzceaijjjjjjjdotCC",
"CCCCCCCCcjxxxyw.#gpdjjjjjjlaCCCC",
"CCCCCCChjjxxvy.bhp#jjjjjjjbtCCCC",
"CCCCCCCfjluvAccegajjldpejlaCCCCC",
"CCCCCCCljmffdd#ippgotCCcj#CCCCCC",
"CCCCCCCcjjmfdbeatCCCCCajlpCCCCCC",
"CCCCCCCcjjffdcgoCCCCCCljeCCCCCCC",
"CCCCCCCejjfdcehtCCCCCa#dpCCCCCCC",
"CCCCCCCejfdegapCCCCCCajiCCCCCCCC",
"CCCCCCCgj#attCCCCCCCCegCCCCCCCCC",
"CCCCCCCooCCCCCCCCCCCCtCCCCCCCCCC",
"CCCCCCCCCCCCCCCCCCCCCCCCCCCCCCCC",
"CCCCCCCCCCCCCCCCCCCCCCCCCCCCCCCC",
"CCCCCCCCCCCCCCCCCCCCCCCCCCCCCCCC",
"CCCCCCCCCCCCCCCCCCCCCCCCCCCCCCCC",
"CCCCCCCCCCCCCCCCCCCCCCCCCCCCCCCC",
"CCCCCCCCCCCCCCCCCCCCCCCCCCCCCCCC"
};
