/* XPM */
static char *t1ship007[] = {
/* width height num_colors chars_per_pixel */
"    32    32       31            1",
/* colors */
". c #100808",
"# c #ce3129",
"a c #e76b42",
"b c #bd6b42",
"c c #312118",
"d c #b5734a",
"e c #f7a56b",
"f c #a56b42",
"g c #e7945a",
"h c #ce8c5a",
"i c #845a39",
"j c #634229",
"k c #c68452",
"l c #e7a56b",
"m c #9c6b42",
"n c #ffb573",
"o c #b5946b",
"p c #847b6b",
"q c #bda573",
"r c #101818",
"s c #849cb5",
"t c #29394a",
"u c #4a739c",
"v c #6ba5e7",
"w c #5a8cc6",
"x c #314a6b",
"y c #5a5273",
"z c #5a526b",
"A c #8c4a63",
"B c #b53142",
"C c None",
/* pixels */
"CCCCCCCCCCCCCCCCCCCCCCCCCCCCCCCC",
"CCCCCCCCCCCCCCCCCCCCCCCCCCCCCCCC",
"CCCCCCCCCCCCrxCCCCCCCCCCCCCCCCCC",
"CCCCCCCCCCCCzsuCCCCCCCck.CCCCCCC",
"CCCCCCCCCCCce#zrCCCCCjgmCCCCCCCC",
"CCCCCCCCCchngjt.CCCCjhmiCCCCCCCC",
"CCCCCCCCmegkehrCCCcclffjCCCCCCCC",
"CCCCCCchekdnnncCckelmffcCCCCCCCC",
"CCCCChegfjnnnnhckeeffffCCCCCCCCC",
"CCCCcedjCjnnnnlennkmffdCCCCCCCCC",
"CCCcgicCCjnnneennhdghedCCCCCCCCC",
"CCCCCCCCCmngqllnllngggd.CCCCCCCC",
"CCCCCCCCCmlswwuhnegggficCCCCCCCC",
"CCCCCCCCiovvwuxilgedfmj.CCCCCCCC",
"CCCCCCchlvvwwuxkghdfjj.CCCCCCCCC",
"CCCCCCensvvwuxighbijkjCCCCrrCCCC",
"CCCCCjnnsvwuxildfiignnnmCtAwtCCC",
"CCCCCmnnnqpokhdfiinnnnnnnbaBwrCC",
"CCCCCnnnneggkdijknnnnnnneenaytCC",
"CCCCCnnnnlgddijknnnnnnnenehjx.CC",
"CCCCjnnnnghficc.ccjjikened.CCCCC",
"CCCCmnlgkkkjj.CCCCCCchnei.CCCCCC",
"CCCCjjcjcjcjCCCCCCCjengi.CCCCCCC",
"CCCCCCCCCCCCCCCCCCinegjCCCCCCCCC",
"CCCCCCCCCCCCCCCCCCgehcCCCCCCCCCC",
"CCCCCCCCCCCCCCCCCmlmcCCCCCCCCCCC",
"CCCCCCCCCCCCCCCCcj.CCCCCCCCCCCCC",
"CCCCCCCCCCCCCCCCCCCCCCCCCCCCCCCC",
"CCCCCCCCCCCCCCCCCCCCCCCCCCCCCCCC",
"CCCCCCCCCCCCCCCCCCCCCCCCCCCCCCCC",
"CCCCCCCCCCCCCCCCCCCCCCCCCCCCCCCC",
"CCCCCCCCCCCCCCCCCCCCCCCCCCCCCCCC"
};
