/* XPM */
static char *t1shl008[] = {
/* width height num_colors chars_per_pixel */
"    32    32       31            1",
/* colors */
". c #de3931",
"# c #bd3121",
"a c #732100",
"b c #9c6342",
"c c #8c5a39",
"d c #6b4229",
"e c #ce8452",
"f c #422918",
"g c #de945a",
"h c #bd7b4a",
"i c #c68c5a",
"j c #ffad6b",
"k c #f7a563",
"l c #634a31",
"m c #312110",
"n c #ffbd73",
"o c #84735a",
"p c #634200",
"q c #7b6b00",
"r c #080800",
"s c #cece00",
"t c #dede00",
"u c #738c52",
"v c #7b94ad",
"w c #29394a",
"x c #426384",
"y c #6ba5de",
"z c #5a8cbd",
"A c #6b5a7b",
"B c #9c949c",
"C c None",
/* pixels */
"CCCCCCCCCCCCCCCCCCCCCCCCCCCCCCCC",
"CCCCCCCCCCCCCCCCCCCCrCCCCCCCCCCC",
"CCCCCCCCCCCCCCCCrxCstaCCCCCCCCCC",
"CCCCCCCCCCCCCCCCfvuttsrCCCCCCCCC",
"CCCCCCCCCCCCmdijj.xqqqrCCCCCCCCC",
"CCCCCCCCmmeinkkgidxpmmCCCfmCCCCC",
"CCCCCCCljjkggiknnrCCCCfiknlCCCCC",
"CCCCCfikibdmhnnnnCCCCfijniCCCCCC",
"CCCCCCrrmrClnnnjnmmhkijnnlCCCCCC",
"CCCCCCCCCCCinjjkkkjnknnnnCCCCCCC",
"CCCCCCCCCCljkkkkjjnnnnnnlCCCCCCC",
"CCCCCCrrmovvzxonnnnnnnnnCCCCCCCC",
"CCCCCChjvyyzzzxinnnjjjjoCCCCCCCC",
"CCCCCbjByyyzzxwnjjjjkkgcCCCCCCCC",
"CCCCmnnyyyzzxwijjkkgeeedCCCCCCCC",
"CCCCinnnBAxAwejkgeehhbcfCCCCCCCC",
"CCCbnnnjjnjkkkeehhbcdffrCCCCCCCC",
"CCfnnnnjkggeehbbbbknimCCCCCCCCCC",
"CCmikjjkgehbbbbknnnnnimCCCCCCCCC",
"CCCCfdeghccdfinnnnjnnnifrxmCCCCC",
"CCCCCCCfcffrCCfhnjnnnnni.AzCCCCC",
"CCCCCCCCCCCCCCCCfcknkgkjn.zmCCCC",
"CCCCCCCCCCCCCCCCCmckjjnjg#xwCCCC",
"CCCCCCCCCCCCCCmfhkjnjghcrmwCCCCC",
"CCCCCCCCCCpmmrknnjkecmrCCCCCCCCC",
"CCCCCCCCCrpppqgkecmrCCCCCCCCCCCC",
"CCCCCCCCCCpqmfcfrCCCCCCCCCCCCCCC",
"CCCCCCCCCCaqqmCCCCCCCCCCCCCCCCCC",
"CCCCCCCCCCrpmCCCCCCCCCCCCCCCCCCC",
"CCCCCCCCCCCmCCCCCCCCCCCCCCCCCCCC",
"CCCCCCCCCCCCCCCCCCCCCCCCCCCCCCCC",
"CCCCCCCCCCCCCCCCCCCCCCCCCCCCCCCC"
};
