/* XPM */
static char *t1shl011[] = {
/* width height num_colors chars_per_pixel */
"    32    32       31            1",
/* colors */
". c #181818",
"# c #735252",
"a c #a53939",
"b c #5a3121",
"c c #7b6b63",
"d c #180800",
"e c #e78c5a",
"f c #8c5a39",
"g c #b57b52",
"h c #9c6b42",
"i c #ffb573",
"j c #efa563",
"k c #ce9c63",
"l c #ffbd73",
"m c #ffc67b",
"n c #634a29",
"o c #312910",
"p c #846b00",
"q c #d6c600",
"r c #ada500",
"s c #636300",
"t c #f7f700",
"u c #849494",
"v c #73a5c6",
"w c #5a94c6",
"x c #213142",
"y c #6ba5de",
"z c #395273",
"A c #5273a5",
"B c #94638c",
"C c None",
/* pixels */
"CCCCCCCCCCCCCCCCCCCCCCCCCCCCCCCC",
"CCCCCCCCCCCCCCCCCCCCCCCCCCCCCCCC",
"CCCCCCCCCCCCCCCCCCCCCCCCCCCCCCCC",
"CCCCCCCCCCCCCCCCCCCCCCCCCCCCCCCC",
"CCCCCCCCCCCCCCCCoffnCCCCCCCCCCCC",
"CCCCCCCCCCCCCCCCCommgoCCCCCCCCCC",
"CCCCCCCCobgfoCCCCCfjmifCCCCCCCCC",
"CCCCCChjjuuucnCCCCCoelmgoCCCCCCC",
"CCCCCCejmyyywz#oonnhhjimmfC.CCCC",
"CCCCCCfimvyyywzhgimimiliimkAxCCC",
"CCCCCCfmmmyyywA#egjiiiiiieBursCC",
"CCCCCCnimmuAwwAcjeggliijf#Aqqtto",
"CCCCCCoeiimiuuimljjgggfdCCxsqqpb",
"CCCCCCCnejimmmmmmmmljkbCCCCdrrbC",
"CCCCCCCCoejimmmmmmmmmmmgCCCCoodC",
"CdosdCCCChjjjmmmmmmmmmmmioCCCCCC",
"CppooCCCChiijjimmmmmmmmmkoCCCCCC",
"drpssCCCChmijjjimmmmmmkoCCCCCCCC",
"srrpjgoCChiiiijjimmkkbCCCCCCCCCC",
"CooplmebChiliiifejibdCCCCCCCCCCC",
"CCCCnmmjnhliiigCnehdCCCCCCCCCCCC",
"CCCCCbimjeklilnCCobCCCCCCCCCCCCC",
"CCCCCC.kmigjimdCCCCCCCCCCCCCCCCC",
"CCCCCCCdgmiekhCCCCCCCCCCCCCCCCCC",
"CCCCCCCCChmmeax.CCCCCCCCCCCCCCCC",
"CCCCCCCCCCfleyz.CCCCCCCCCCCCCCCC",
"CCCCCCCCCCCbuAdCCCCCCCCCCCCCCCCC",
"CCCCCCCCCCCxw.CCCCCCCCCCCCCCCCCC",
"CCCCCCCCCCCC.CCCCCCCCCCCCCCCCCCC",
"CCCCCCCCCCCCCCCCCCCCCCCCCCCCCCCC",
"CCCCCCCCCCCCCCCCCCCCCCCCCCCCCCCC",
"CCCCCCCCCCCCCCCCCCCCCCCCCCCCCCCC"
};
