/* XPM */
static char *t1shf001[] = {
/* width height num_colors chars_per_pixel */
"    32    32       31            1",
/* colors */
". c #5a5a5a",
"# c #949494",
"a c #100808",
"b c #632921",
"c c #8c3118",
"d c #522918",
"e c #8c5a39",
"f c #6b4229",
"g c #845231",
"h c #c67b4a",
"i c #de945a",
"j c #ffad6b",
"k c #f7a563",
"l c #946339",
"m c #c6ad94",
"n c #312110",
"o c #ffbd73",
"p c #ad8400",
"q c #efc610",
"r c #8c7b00",
"s c #bdb500",
"t c #dede00",
"u c #6bade7",
"v c #5a94c6",
"w c #6ba5de",
"x c #426b94",
"y c #738cad",
"z c #6b84a5",
"A c #395273",
"B c #293952",
"C c None",
/* pixels */
"CCCCCCCCCCCCCCCCCCCCCCCCCCCCCCCC",
"CCCCCCCCCCCCCCCCCCCCCCCCCCCCCCCC",
"CCCCCCCCCCCCCCCCCCCCCCCCCCCCCCCC",
"CCCCCCCCCCCCBACCCCCCCCCCCCCCCCCC",
"CCCCCCCCCCCCxlhfaCCCCCCCCCCCCCCC",
"CCCCaCCCCCCCvcjookefCCCCCCCCCCCC",
"CCCChiebCCCCBbojooooolfCCCCCCCCC",
"CCCCnkkjlCCCCnoooohijoofCCCCCCCC",
"CCCCChjjjhbdCnoojoiCdgefeCCCCCCC",
"CCCCdrjkjjjlhlkoooonCCCCCCCCCCCC",
"CCCabpijjjjoikihiioiCCCCCCCCCCCC",
"CCCcpsqjjjojjkjjmyz#.nCCCCCCCCCC",
"CCCcprskooooooomuuuwvxefnCCCCCCC",
"CCCaptrkooooooomwuuwwvxigaCCCCCC",
"CCCarstjoooooooomvvvvvx.fdCCCCCC",
"CCCCnaaiijjjoooooj#xzx.iegaCCCCC",
"CCCCCCCblhikkjjooooooooieleaCCCC",
"CCCCCCCCCnkkiikkjjoooooglhhgCCCC",
"CCCCCCCCCijoooiiikkjjoigllhhnCCC",
"CCCCaaCniooojooojhhikklfgffaCCCC",
"CCCnwbaioooooojifCnblhddaaCCCCCC",
"CCCxxgkkioojoifaCCCCCnCCCCCCCCCC",
"CCCz.hoojikinaCCCCCCCCCCCCCCCCCC",
"CCCABfljooojigdCCCCCCCCCCCCCCCCC",
"CCCCCCCCfijooojidCCCCCCCCCCCCCCC",
"CCCCCCCCCCngiooohdCCCCCCCCCCCCCC",
"CCCCCCCCCCCCCdeifhfaCCCCCCCCCCCC",
"CCCCCCCCCCCCCCCCCCCCCCCCCCCCCCCC",
"CCCCCCCCCCCCCCCCCCCCCCCCCCCCCCCC",
"CCCCCCCCCCCCCCCCCCCCCCCCCCCCCCCC",
"CCCCCCCCCCCCCCCCCCCCCCCCCCCCCCCC",
"CCCCCCCCCCCCCCCCCCCCCCCCCCCCCCCC"
};
