/* XPM */
static char *t1shf016[] = {
/* width height num_colors chars_per_pixel */
"    32    32       31            1",
/* colors */
". c #a5a5a5",
"# c #948484",
"a c #942900",
"b c #ad3100",
"c c #ad6342",
"d c #a57b63",
"e c #ad6b42",
"f c #845231",
"g c #7b5a42",
"h c #5a3921",
"i c #ce8c5a",
"j c #634229",
"k c #bd7b4a",
"l c #de9c63",
"m c #f7a563",
"n c #5a2900",
"o c #ffb573",
"p c #392918",
"q c #181008",
"r c #845200",
"s c #948400",
"t c #a59c00",
"u c #424200",
"v c #636300",
"w c #31526b",
"x c #29425a",
"y c #4a739c",
"z c #101821",
"A c #6b9cd6",
"B c #7b8cb5",
"C c None",
/* pixels */
"CCCCCCCCCCCCCCCCCCCCCCCCCCCCCCCC",
"CCCCCCCCCCCCCCCCCCCCCCCCCCCCCCCC",
"CCCCCCCCCCCCCCCCCCCCCCCCCCCCCCCC",
"CCCCCCCCCCCCCCCCCCCCCCCCCCCCCCCC",
"CCCCCCCCCCCCCqpCCCCCCCCCCCCCCCCC",
"CCCCCCCCCCpiofCCCCCCCCCCCCCCCCCC",
"CCCCCCCCCjolcpCCCCCpjqCCCCCCCCCC",
"CCCCCCCpimijCCCCCpdB#dfjjqCCCCCC",
"CCCCCCiolkfpCCCCjBABywljjCCCCCCC",
"CCzwpimkoooooookAAAAyxmipCCCCCCC",
"CCzA#kkmooooomm.AAAywgmihCCCCCCC",
"CCCpypcoooommoo.AAywglkkjCCCCCCC",
"CCCqxzCqeoomoooo.#dilkkfpCCCCCCC",
"CCCCzCCCqilliioommmikcfhqCCCCCCC",
"CCCCCCCeffkiimommiikcjpCCCCCCCCC",
"CCCCCqckkfkklommiieffkqCCCCCCCCC",
"CCCCChkkkkilmmmkkcffoiCCCCCCCCCC",
"CCCCuvvfkkkmmikkcjkoolCCCCCqjCCC",
"CCCCpuvuvfciikkgfloooiCCqkmkCCCC",
"CCCCubrrvvsfkefhmooooiCqiomfCCCC",
"CCCCqbnrvtvrffpqiooooipmolfqCCCC",
"CCCCCunrsutuppqCpooooomoljCCCCCC",
"CCCCCCCbrsuCqCCCCmoolooipCCCCCCC",
"CCCCCCCavtqCCCCCCkmoomkpCCCCCCCC",
"CCCCCCCqpqCCCCCCxglomeqCCCCCCCCC",
"CCCCCCCCCCCCCCCzyAclfqCCCCCCCCCC",
"CCCCCCCCCCCCCCCCjBynqCCCCCCCCCCC",
"CCCCCCCCCCCCCCCCqpyxCCCCCCCCCCCC",
"CCCCCCCCCCCCCCCCCCwCCCCCCCCCCCCC",
"CCCCCCCCCCCCCCCCCCCCCCCCCCCCCCCC",
"CCCCCCCCCCCCCCCCCCCCCCCCCCCCCCCC",
"CCCCCCCCCCCCCCCCCCCCCCCCCCCCCCCC"
};
