/* XPM */
static char *t1shr010[] = {
/* width height num_colors chars_per_pixel */
"    32    32       31            1",
/* colors */
". c #843939",
"# c #bd2100",
"a c #c68c7b",
"b c #de6b42",
"c c #8c5231",
"d c #ce8452",
"e c #e7945a",
"f c #422918",
"g c #9c6b42",
"h c #f7a563",
"i c #734a29",
"j c #ce945a",
"k c #ffb56b",
"l c #312110",
"m c #c6945a",
"n c #ffbd73",
"o c #181000",
"p c #ad7300",
"q c #5a4a21",
"r c #948c29",
"s c #b5ad00",
"t c #94947b",
"u c #737300",
"v c #dede00",
"w c #314242",
"x c #426384",
"y c #6b9cd6",
"z c #527bad",
"A c #6b636b",
"B c #634a63",
"C c None",
/* pixels */
"CCCCCCCCCCCCCCCCCCCCCCCCCCCCCCCC",
"CCCCCCCCCCCCCCCCCCCCCCCCCCCCCCCC",
"CCCCCCCCCCCoqoCCCCCCCCCCCCCCCCCC",
"CCCCCCCCCCCqfuoCCCCCCCCCCCCCCCCC",
"CCCCCCCCCCCuuurngifCCCCCCCCCCCCC",
"CCCCCCCCCCCruughnnnhgqCCCoCCCCCC",
"CCCCCCCCCCCloCCfidennnng.xCCCCCC",
"CCCCCCCClfCCCCCClgenknnbtBCCCCCC",
"CCCCCClgjttwfCljnnnnnnj#yCCCCCCC",
"CCCCljkhyyyyzAeennnnnefCwCCCCCCC",
"CCClnnnnyyyyyzAeegjejlCCCCCCCCCC",
"CCCCdnnnyyyyyzxjkkhemgggiCCCCCCC",
"CCCClknnntzzzxAnnnnnnnnnnnnlCCCC",
"CCCCCgnnnnntnannnnnnnnnnnngCCCCC",
"CCCCClehknnnnnnnnnnnnnnnnBCCCCCC",
"CCCCCC.gdehhnnnnnnnnnnnnfCCCCCCC",
"CCCCCCClfcedehknnnnnnnawCCCCCCCC",
"CCCCCCCCCCjneedehhnnnmfCCCCCCCCC",
"CCCCCCCCCClnnnneedeehiCCCCCCCCCC",
"CCCCCCCCCCCjnnnnnicddCCCCCCCCCCC",
"CCCCCCCCCCCcnnnnnlColCCCCCCCCCCC",
"CCCCfjjhgfConnnnniCCCCCCCCCCCCCC",
"CCCCCljnnnecennnniCCCCCCCCCCCCCC",
"CCCCCCqchnnnneeeniCCCCCCCCCCCCCC",
"CCCCCCCCCqgnnnnndbBwloCCCCCCCCCC",
"CCCCCCCCCCCCijnnnayuuvsuCCCCCCCC",
"CCCCCCCCCCCCCCf.etzuvspoCCCCCCCC",
"CCCCCCCCCCCCCCCCCBwsvvp#CCCCCCCC",
"CCCCCCCCCCCCCCCCCwoouvpoCCCCCCCC",
"CCCCCCCCCCCCCCCCCCCCCuoCCCCCCCCC",
"CCCCCCCCCCCCCCCCCCCCCCCCCCCCCCCC",
"CCCCCCCCCCCCCCCCCCCCCCCCCCCCCCCC"
};
