/* XPM */
static char *t1shr014[] = {
/* width height num_colors chars_per_pixel */
"    32    32       31            1",
/* colors */
". c #5a4242",
"# c #634a42",
"a c #523121",
"b c #211008",
"c c #b54200",
"d c #b5734a",
"e c #7b6352",
"f c #a56b42",
"g c #422918",
"h c #bd845a",
"i c #de945a",
"j c #9c6339",
"k c #ffad6b",
"l c #ad7342",
"m c #734a29",
"n c #dead7b",
"o c #ffbd73",
"p c #ffce63",
"q c #524200",
"r c #7b6b00",
"s c #bdb500",
"t c #9c9c00",
"u c #f7f700",
"v c #a5ad94",
"w c #396384",
"x c #5a94c6",
"y c #6b7b8c",
"z c #314a63",
"A c #6ba5de",
"B c #181829",
"C c None",
/* pixels */
"CCCCCCCCCCCCCCCCCCCCCCCCCCCCCCCC",
"CCCCCCCCCCCCCCCCCCCCCCCCCCCCCCCC",
"CCCCCCCCCCCCCCCCCCCCCCCCCCCCCCCC",
"CCCCCCCCCCCCCCCCCCCCCCCCCCCCCCCC",
"CCCCCCCCCCCCCCCCbjbCCCCCCCCCCCCC",
"CCCCCCCCCCCCCgdhyefbCCCCCCCCCCCC",
"CCCCCCCCCCCCChnxxwhdbCCCCCCCCCCC",
"CCCCCCbmCCCCCovAAw.dmCCCCbrbCCCC",
"CCCCCghgCCCCmoAAxw.dmCCCqtssrbCC",
"CCCCCdiaCCCCjnAAxw.faCCCquuuqbCC",
"CCCCCoibCCgikoAAxzdjaCCCCturqCCC",
"CCCC#ojbCghooovxyhhjggCCCmpjCCCC",
"CCCCfkmghookooookidmehgCCjodCCCC",
"CCCCohhooookoooikidmjohCCfojCCCC",
"CCC#oloooookookgkidadooiChomCCCC",
"CCCfkhokokoooodghhfahooohkomCCCC",
"CCCoihooiidookmgaijgioooookaCCCC",
"CBxjejabCCfookgggmjgookoookgCCCC",
"CBzvwBCCCCkikdgggmmgjiooookgCCCC",
"CbruqBCCCCaakjgggjmbCbjkkoibCCCC",
"CrtqrCCCCCgggagbbbabCCCghvhbCCCC",
"brqrqCCCCCCbgggggbbCCCCzxAxwCCCC",
"bccrrCCCCCCCCbbbbbCCCCCB.j.zCCCC",
"CbgqqCCCCCCCCCCCCCCCCCCCBbBCCCCC",
"CCCCCCCCCCCCCCCCCCCCCCCCCCCCCCCC",
"CCCCCCCCCCCCCCCCCCCCCCCCCCCCCCCC",
"CCCCCCCCCCCCCCCCCCCCCCCCCCCCCCCC",
"CCCCCCCCCCCCCCCCCCCCCCCCCCCCCCCC",
"CCCCCCCCCCCCCCCCCCCCCCCCCCCCCCCC",
"CCCCCCCCCCCCCCCCCCCCCCCCCCCCCCCC",
"CCCCCCCCCCCCCCCCCCCCCCCCCCCCCCCC",
"CCCCCCCCCCCCCCCCCCCCCCCCCCCCCCCC"
};
