/* XPM */
static char *t1shl005[] = {
/* width height num_colors chars_per_pixel */
"    32    32       31            1",
/* colors */
". c #8c8484",
"# c #b54a29",
"a c #ff4200",
"b c #291810",
"c c #a56342",
"d c #312118",
"e c #4a3121",
"f c #d68452",
"g c #ef9c63",
"h c #a56b42",
"i c #ce8c5a",
"j c #ffa563",
"k c #d68c52",
"l c #ffad6b",
"m c #b57b4a",
"n c #845a31",
"o c #312110",
"p c #100800",
"q c #ffbd73",
"r c #deb584",
"s c #ffc67b",
"t c #634a29",
"u c #848400",
"v c #d6d600",
"w c #ffff00",
"x c #73a5bd",
"y c #21394a",
"z c #4a739c",
"A c #639cd6",
"B c #5a84b5",
"C c None",
/* pixels */
"CCCCCCCCCCCCCCCCdeCCCCCCCCCCCCCC",
"CCCCCCCCCCCCCCCCmnCCCCCCCCCCCCCC",
"CCCCCCCCCCCCCCCCsdCCCCCCCCCCCCCC",
"CCCCCCuupCCCCCCtsdpCCCCCCCCCCCCC",
"CCCCCuwvtpCCCCCmmdbCCCCCCCCCCCCC",
"CCCCCthuobCCCCCsidoCCCCCCCCCCCCC",
"CCCCyBzzoCCCCiismteCCCCCCCCCCCCC",
"CCCCy##edCCChssslgkeCCCCCCCCCCCC",
"CCCCCqftpCCClssslgfnpCCCCCdCCCCC",
"CCCCtqcsitCCqsssggmnbCCCyAABpCCC",
"CCCChlmqssicqsssjimtpCCCd#aeyCCC",
"CCCCsiislqqlsssllfmtbddhisleCCCC",
"CCCtqhmqqqqlsrz.ffcemqqqslldCCCC",
"CCChltdlqlslsxxzyfnegqqqlsgbCCCC",
"CCCsgdCeqqlqxAAByhndqslslsgpCCCC",
"CCtqmpCCmqlsxAABynneqlsimsipCCCC",
"CCbftCCCCilsAAAzyntnsqidcsfCCCCC",
"CCdipCCCCbqsAAAzdctngeCCcqmCCCCC",
"CCdtCCCCCtssxAByhcebpCCCmsnCCCCC",
"CCpCCCCCCcslrx.iiceCCCCCgsnCCCCC",
"CCCCCCCCCillljjgmndCCCCCtttCCCCC",
"CCCCCCCCCmllllgfmnbCCCCpuuuCCCCC",
"CCCCCCCCCbgqllifcnpCCCpeetupCCCC",
"CCCCCCCCCCmlqlfmtdCCCCbuooutCCCC",
"CCCCCCCCCCblsgmnpCCCCCCoaaoeCCCC",
"CCCCCCCCCCCmqfepCCCCCCCpCCpCCCCC",
"CCCCCCCCCCCbltCCCCCCCCCCCCCCCCCC",
"CCCCCCCCCCCCCCCCCCCCCCCCCCCCCCCC",
"CCCCCCCCCCCCCCCCCCCCCCCCCCCCCCCC",
"CCCCCCCCCCCCCCCCCCCCCCCCCCCCCCCC",
"CCCCCCCCCCCCCCCCCCCCCCCCCCCCCCCC",
"CCCCCCCCCCCCCCCCCCCCCCCCCCCCCCCC"
};
