/* XPM */
static char *t1shr002[] = {
/* width height num_colors chars_per_pixel */
"    32    32       31            1",
/* colors */
". c #ce2921",
"# c #a57b63",
"a c #9c6342",
"b c #8c5a39",
"c c #c67b4a",
"d c #f7a56b",
"e c #ce8452",
"f c #ce8c5a",
"g c #ce5a00",
"h c #ad7342",
"i c #633108",
"j c #946b42",
"k c #ffb56b",
"l c #6b4a29",
"m c #181008",
"n c #312110",
"o c #ffbd73",
"p c #9c7342",
"q c #6b6300",
"r c #b5ad00",
"s c #8c8c00",
"t c #e7e700",
"u c #9cad5a",
"v c #9ca59c",
"w c #7b9484",
"x c #5a94c6",
"y c #29425a",
"z c #425a73",
"A c #6ba5de",
"B c #4a6b94",
"C c None",
/* pixels */
"CCCCCCCCCCCCCCCCCCCCCCCCCCCCCCCC",
"CCCCCCCCCCCCCmmmCCCCCCCCCCCCCCCC",
"CCCCCCCCCCCCCiqqCCCCCCCCCCCCCCCC",
"CCCCCCjiCCCCCgtswBCCCCCCCCCCCCCC",
"CCCCCCnocnCCCrrux.lCCCCCCCCCCCCC",
"CCCCCCnoofCCCCm#bfocnCCCCCCCCCCC",
"CCCCCCCeooeCCCCmCoooolCCCCCCCCCC",
"CCCCCCCadoojnCCCloooooenCCCCCCCC",
"CCCCCCCnoooolbnCaoooodoobCCCCCCC",
"CCCCCCCCooooobeadooofnfooaCCCCCC",
"CCCCCCCCooooofdfafoooCCbdaiCCCCC",
"CCCCCCCpooooookdf#coonCCmnjnCCCC",
"CCCCCCCfooooooovAxBlfnCCCCCCCCCC",
"CCCCCCChdooooooAAAAxzlCCCCCCCCCC",
"CCCCCCCmadooooovAAAAxzbmCCCCCCCC",
"CCCCCCCCChdooooovAAAxBchnCCCCCCC",
"CCBzmCnnfooddoooovxxxB#bnCCCCCCC",
"CBBilfooooooddoooovvvdjblmCCCCCC",
"CAiddaooooooodddooooofhabmCCCCCC",
"CyldodcfooooooddoooodhhchnCCCCCC",
"CCCnfoohfdfjjllnedoobhcfelCCCCCC",
"CCCCnfoocnCCCCCCmadhahcffemCCCCC",
"CCCCCCjoofiCCCCCCCbllbbbahnCCCCC",
"CCCCCCCjoodlCCCCCCCCCCCCCCCCCCCC",
"CCCCCCCCloodinCCCCCCCCCCCCCCCCCC",
"CCCCCCCCCnotrtttmCCCCCCCCCCCCCCC",
"CCCCCCCCCCCsttrimCCCCCCCCCCCCCCC",
"CCCCCCCCCCCmrrimCCCCCCCCCCCCCCCC",
"CCCCCCCCCCCCrgiCCCCCCCCCCCCCCCCC",
"CCCCCCCCCCCCnmCCCCCCCCCCCCCCCCCC",
"CCCCCCCCCCCCCCCCCCCCCCCCCCCCCCCC",
"CCCCCCCCCCCCCCCCCCCCCCCCCCCCCCCC"
};
