/* XPM */
static char *t1shb009[] = {
/* width height num_colors chars_per_pixel */
"    32    32       31            1",
/* colors */
". c #6b2110",
"# c #f76b42",
"a c #291810",
"b c #945a39",
"c c #b5734a",
"d c #ef945a",
"e c #845231",
"f c #ce9463",
"g c #c68c5a",
"h c #ffb573",
"i c #f7ad6b",
"j c #523921",
"k c #ffb56b",
"l c #945200",
"m c #a56b00",
"n c #efc642",
"o c #b59c00",
"p c #bdb500",
"q c #949400",
"r c #d6d600",
"s c #182121",
"t c #293942",
"u c #6ba5de",
"v c #395a7b",
"w c #527bad",
"x c #7b8cad",
"y c #a5a5b5",
"z c #6b6b7b",
"A c #a56384",
"B c #8c6b73",
"C c None",
/* pixels */
"CCCCCCCCCCCCCCCCCCCCCCCCCCCCCCCC",
"CCCCCCCCCCCCCCCCCCCCCCCCCCCCCCCC",
"CCCCCCCCCCCCCCCCCCCCCCCCCCCCCCCC",
"CCCCCCCjqaCCCCCCCCCCCtsCCCCCCCCC",
"CCCCCCClrrljejejejejexsCCCCCCCCC",
"CCCCCCClmophhhihihihdxtCCCCCCCCC",
"CCCCCCCjqrqeeeecihhf#zjCCCCCCCCC",
"CCCCCCCaqaCCCCjhhhhfCsCCCCCCCCCC",
"CCCCCCCCCCCCCfhhhhheCCCaaaaCCCCC",
"CCCCCCCaaaaagihhhhhaaafhikibCCCC",
"CCCCCCbdxxuwwzfdiddihiddddcCCCCC",
"CCCCCfhyuuuuwwzfhhhddddddcCCCCCC",
"CCCafhhyuuuuwwvhhhidddfddaCCCCCC",
"CCafhhhhxwwwvzfhhhhhhiidjCCCCCCC",
"CCchhhhhhffBihhhhhhhhhhbCCCCCCCC",
"CCCjihhiiiiiiiiiiiiiiiiCCCCCCCCC",
"CCCCjgiddddddddddddddddCCCCCCCCC",
"CCCCCabcccccccccccccccbCCCCCCCCC",
"CCCCCCaajjjghhhhhhhejjaCCCCCCCCC",
"CCCCCCCCCCCCghhhhhhgCCCCCCCCCCCC",
"CCCCCCCCCCCCCghhhhhhaCCCCCCCCCCC",
"CCCCCCaCCCCCCCghhhhhfCCCCCCCCCCC",
"CCCCCCopjCCCCCCghhhhh.zsCCCCCCCC",
"CCCCCaoprqidididkkkki#zvCCCCCCCC",
"CCCCCCmppnhhhhhhhhhhh#AvCCCCCCCC",
"CCCCCampombbcbbcbcbcbeBvCCCCCCCC",
"CCCCCCpqsCCCCCCCCCCCCCvtCCCCCCCC",
"CCCCCCCCCCCCCCCCCCCCCCCCCCCCCCCC",
"CCCCCCCCCCCCCCCCCCCCCCCCCCCCCCCC",
"CCCCCCCCCCCCCCCCCCCCCCCCCCCCCCCC",
"CCCCCCCCCCCCCCCCCCCCCCCCCCCCCCCC",
"CCCCCCCCCCCCCCCCCCCCCCCCCCCCCCCC"
};
