/* XPM */
static char *t1shb008[] = {
/* width height num_colors chars_per_pixel */
"    32    32       31            1",
/* colors */
". c #d63931",
"# c #c63921",
"a c #7b2100",
"b c #291810",
"c c #de5200",
"d c #8c5a39",
"e c #c67b4a",
"f c #a56b42",
"g c #ce8452",
"h c #a57b5a",
"i c #d6945a",
"j c #ffad6b",
"k c #f7a563",
"l c #7b5231",
"m c #734a29",
"n c #ffb573",
"o c #4a3118",
"p c #a57300",
"q c #846b00",
"r c #635a00",
"s c #bdad00",
"t c #cece00",
"u c #7badb5",
"v c #315273",
"w c #213952",
"x c #639cde",
"y c #527bad",
"z c #7b84ad",
"A c #9c949c",
"B c #6b5a6b",
"C c None",
/* pixels */
"CCCCCCCCCCCCCCCCCCCCCCCCCCCCCCCC",
"CCCCCCCCCCCCCCCCCCCCCCCCCCCCCCCC",
"CCCCCCCCCCCCCCCCbvCCCCCCCCCCCCCC",
"CCCCCCCCCCCCCCCCozwCCCCCCCCCCCCC",
"CCCCCCCCCCCCbmijn.vCCCCCCCCCCCCC",
"CCCCbCCCbbginkkigdvCCCCCCboCCCCC",
"CCCCttqfjnkiiennnbCCCCbiiioCCCCC",
"CCCCpsqsefmbennnnCCCCbngefCCCCCC",
"CCCCarrrbCCmnnnnnbbenigggoCCCCCC",
"CCCCbtrCCCCinnnjkknniegegCCCCCCC",
"CCCCCbCCCCmnjkkjnnjeegggoCCCCCCC",
"CCCCCCCbbhuzyyBnnigiiiieCCCCCCCC",
"CCCCCCgkuxxxyyvknnnjnjjdCCCCCCCC",
"CCCCCfnuxxxxyywnjjjjjkilCCCCCCCC",
"CCCCbnnuxxyyvwijjjkgggglCCCCCCCC",
"CCCCinnnAzvBBijkggggefdoCCCCCCCC",
"CCCfnnnnjjjkkggggeddmooCCCCCCCCC",
"CConnnnnkkggegedffinibCCCCCCCCCC",
"CCbijnjkgggedfdknnnnnibCCCCCCCCC",
"CCCCbmgiedlmoinnnnnnnnioCybCCCCC",
"CCCCCCCodooCCCognnnnnnni.ByCCCCC",
"CCCCCCCCCCCCCCCCodjnniknn.ybCCCC",
"CCCCCCCCCCCCCCCCCbdknnnkk#ywCCCC",
"CCCCCCCCCCCCCCboejnnjkemCbwCCCCC",
"CCCCCCCCCCsqqrknnnkembCCCCCCCCCC",
"CCCCCCCCCCsttsikefbbCCCCCCCCCCCC",
"CCCCCCCCCCctpesoCCCCCCCCCCCCCCCC",
"CCCCCCCCCCamqrCCCCCCCCCCCCCCCCCC",
"CCCCCCCCCCCpsCCCCCCCCCCCCCCCCCCC",
"CCCCCCCCCCCbCCCCCCCCCCCCCCCCCCCC",
"CCCCCCCCCCCCCCCCCCCCCCCCCCCCCCCC",
"CCCCCCCCCCCCCCCCCCCCCCCCCCCCCCCC"
};
