/* XPM */
static char *t1shb004[] = {
/* width height num_colors chars_per_pixel */
"    32    32       31            1",
/* colors */
". c #e72921",
"# c #ef3900",
"a c #9c2900",
"b c #63524a",
"c c #734229",
"d c #c67b52",
"e c #8c5a39",
"f c #ce5200",
"g c #f7a56b",
"h c #d68c5a",
"i c #a56b42",
"j c #5a3921",
"k c #b58452",
"l c #ffb56b",
"m c #312110",
"n c #100800",
"o c #a55200",
"p c #ffbd73",
"q c #debd8c",
"r c #e7a500",
"s c #6b6300",
"t c #cebd00",
"u c #e7d600",
"v c #ada500",
"w c #9ca59c",
"x c #213142",
"y c #4a739c",
"z c #5a8cbd",
"A c #6ba5e7",
"B c #425273",
"C c None",
/* pixels */
"CCCCCCCCCCCCCiCCCCCCCCCCCCCCCCCC",
"CCCCCCCCCCCCCpCCCCCCCCCCCCCCCCCC",
"CCCCCCCCCCCCjpjCCCCCCCCCCCCCCCCC",
"CCCCCCCCCCCCcgcnCCCCCCCCCCCCCCCC",
"CCCCCCCCCCCCigemCCCCCCCCCCCCCCCC",
"CCCCCCCCCCCCelkmnCCCCCCCCCCCCCCC",
"CCCCCCCCCCCCgghjcmCCCCmzzxCCCCCC",
"CCCCCCCCCCmhplhmkcnCCCzd.xCCCCCC",
"CCCnnCCCCChpppgcdinCCCcppmCCCCCC",
"CCzzyxCCCCpppplkhijCCmpppiCCCCCC",
"CCb..jnCCChpppphgkjmhpppphnCCCCC",
"CCnphkiccCkppppggicgpppppgmCCCCC",
"CCCpghppppgpppqwkdehppppppeCCCCC",
"CCChgkppppgpppzzzbiipppidphCCCCC",
"CCChgeppppppqqAAzBiepphnmpgnCCCC",
"CCChgihppppppqAAzybchpmCnppeCCCC",
"CCCipcmepppppqAAAybcgmCCChpcCCCC",
"CCCipiCCmgpgpqAAzybimCCCCCudmCCC",
"CCCipinCCCegppwAzybijCCCCsutusCC",
"CCCjpknCCCCepppqwkgkcCCCnsrrvtnC",
"CCCntvmCCCCjppppghhicnCCCvf##aCC",
"CCCsrvvCCCCmpppppghijnCCCCmnCCCC",
"CCmvtvotCCCmhgppggdemCCCCCnnCCCC",
"CCss#fotCCCCjhgplghjnCCCCCCCCCCC",
"CCnmasamCCCCCmdgpgemCCCCCCCCCCCC",
"CCCCCCCCCCCCCCCiggcCCCCCCCCCCCCC",
"CCCCCCCCCCCCCCCCegmCCCCCCCCCCCCC",
"CCCCCCCCCCCCCCCCCmCCCCCCCCCCCCCC",
"CCCCCCCCCCCCCCCCCCCCCCCCCCCCCCCC",
"CCCCCCCCCCCCCCCCCCCCCCCCCCCCCCCC",
"CCCCCCCCCCCCCCCCCCCCCCCCCCCCCCCC",
"CCCCCCCCCCCCCCCCCCCCCCCCCCCCCCCC"
};
