/* XPM */
static char *t1shl013[] = {
/* width height num_colors chars_per_pixel */
"    32    32       31            1",
/* colors */
". c #210808",
"# c #b53100",
"a c #4a2918",
"b c #c6845a",
"c c #8c5a39",
"d c #5a3921",
"e c #e79c63",
"f c #634229",
"g c #c68452",
"h c #bd7b4a",
"i c #e7a56b",
"j c #ffad6b",
"k c #ad7342",
"l c #deb58c",
"m c #d69c63",
"n c #5a4229",
"o c #ffbd73",
"p c #845a00",
"q c #ad9c10",
"r c #4a4200",
"s c #8c8400",
"t c #c6bd00",
"u c #dede00",
"v c #6b734a",
"w c #9ca5a5",
"x c #426b8c",
"y c #6bade7",
"z c #5a94c6",
"A c #212931",
"B c #31425a",
"C c None",
/* pixels */
"CCCCCCCCCCCCCCCCCCCCCCCCCCCCCCCC",
"CCCCCCCCCCCCCCCCCCCCCCCCCCCCCCCC",
"CCCCCCCCCCCCCCCCCCCCCCCCCCCCCCCC",
"CCCCCCCCCCCCCCCCCCCCCCCCCCCCCCCC",
"CCCCCCCCCCCCCkf.CCCCCCCCCCCCCCCC",
"CCCCCCCCCCCCklvbcaCCCCCCCCCCCCCC",
"CCCCCCCCCCCmozyxkcCCCCCCCCCCCCCC",
"CCCCCCCCCCkowyyzBcaCCCCCcCCCCCCC",
"CCrsrpCCCChowyyzBcaCCCC.ogCCCCCC",
"CCrtssrCCCcolyyzBfcCCCCaoi.CCCCC",
"CCrusr.CCCnolzyzBbcffCCCiocCCCCC",
"CCCqbpCCCCfoolwwibkaobfCgohCCCCC",
"CCCfokCCCfjjooooieknmoobkoi.CCCC",
"CCCnok.CfoojoooojehfhoooooofCCCC",
"CCCaohCaooojoooogggcfoooooohCCCC",
"CCCaobnoooojoooojdhkaoojoooi.CCC",
"CCC.omgoojoiooooofncdciioooedCCC",
"CCCCoeboooomoooookaan.C.acbzzxCC",
"CCCCoikojokaoooojbaaaCCCCAzvqACC",
"CCCCmihomaC.iiioji....CCCCntutCC",
"CCCChikaCCCCkaacfa...CCCCCruqtpC",
"CCCByzxACCCCa...a...CCCCCCrpppqr",
"CCCxBcAACCCCC...C.CCCCCCCC.r##.C",
"CCC....CCCCCCCCCCCCCCCCCCCCr..CC",
"CCCCCCCCCCCCCCCCCCCCCCCCCCCCCCCC",
"CCCCCCCCCCCCCCCCCCCCCCCCCCCCCCCC",
"CCCCCCCCCCCCCCCCCCCCCCCCCCCCCCCC",
"CCCCCCCCCCCCCCCCCCCCCCCCCCCCCCCC",
"CCCCCCCCCCCCCCCCCCCCCCCCCCCCCCCC",
"CCCCCCCCCCCCCCCCCCCCCCCCCCCCCCCC",
"CCCCCCCCCCCCCCCCCCCCCCCCCCCCCCCC",
"CCCCCCCCCCCCCCCCCCCCCCCCCCCCCCCC"
};
