/* XPM */
static char *t1shb001[] = {
/* width height num_colors chars_per_pixel */
"    32    32       31            1",
/* colors */
". c #ff4a29",
"# c #8c2100",
"a c #c67b52",
"b c #734a31",
"c c #8c5a39",
"d c #de8c5a",
"e c #ad6b42",
"f c #efa56b",
"g c #634229",
"h c #9c6339",
"i c #635a52",
"j c #bdad9c",
"k c #ce945a",
"l c #312110",
"m c #4a3118",
"n c #c66300",
"o c #ffbd73",
"p c #ffbd00",
"q c #efc610",
"r c #d6bd00",
"s c #7b7300",
"t c #101008",
"u c #636300",
"v c #e7e700",
"w c #6ba5de",
"x c #4a739c",
"y c #395a7b",
"z c #638cbd",
"A c #7b4a63",
"B c #84737b",
"C c None",
/* pixels */
"CCCCCCCCCCCCCCCCCCCCCCCCCCCCCCCC",
"CCCCCCCCCCCCCCCCCCCCCCCCCCCCCCCC",
"CCCCCCCCCCCCCCCCCCCCCCCCCCCCCCCC",
"CCCCCCCCCCCCixCCCCCCCCCCCCCCCCCC",
"CCCCCCCCCCCCyeeglCCCCCCCCCCCCCCC",
"CCCClCCCCCCCz.ooofcgCCCCCCCCCCCC",
"CCCCafegCCCCy#oooooooegCCtmCCCCC",
"CCCCldddbCCCClooooadfoorrruCCCCC",
"CCCCCekddegmClooookCmgcqvp#CCCCC",
"CCCCCladdaaaaefoooolCCCsqplCCCCC",
"CCCCCCeddddddddadfokCCCCssCCCCCC",
"CCCCCClddffddafofzzjilCCClCCCCCC",
"CCCCCCCaooooooojwwwzzxBblCCCCCCC",
"CCCCCCCeoooooooowwwwwzxahtCCCCCC",
"CCCCCCCooooooooojzwzzzxBegCCCCCC",
"CCCCCCCddfooooooofjxxxBfeetCCCCC",
"CCCCCCCgeaddoooooooooookaectCCCC",
"CCCCCCCCClffdddoofoooooaaaabCCCC",
"CCCCCCCCCkoooofddffooodaeaealCCC",
"CCCCttClkooooooooaaddfahhbgtCCCC",
"CCCtwb#kooooooodgClgeaggtCCCCCCC",
"CCCxB.fffoooodgCCCCCCttCCCCCCCCC",
"CCCxA.ooodfflCCCCCCCCCCCCCCCCCCC",
"CCCylgcooooffcmCCCCCCCCCCCCCCCCC",
"CCCCtCCCbaoooofdmtursCCCCCCCCCCC",
"CCCCCCCCCCmcfoooopvvnCCCCCCCCCCC",
"CCCCCCCCCCCCCmcfvqpr#CCCCCCCCCCC",
"CCCCCCCCCCCCCCCCtvrptCCCCCCCCCCC",
"CCCCCCCCCCCCCCCCClvuCCCCCCCCCCCC",
"CCCCCCCCCCCCCCCCCCulCCCCCCCCCCCC",
"CCCCCCCCCCCCCCCCCCCCCCCCCCCCCCCC",
"CCCCCCCCCCCCCCCCCCCCCCCCCCCCCCCC"
};
