/* XPM */
static char *t1shb000[] = {
/* width height num_colors chars_per_pixel */
"    32    32       30            1",
/* colors */
". c #311810",
"# c #e76b42",
"a c #845a42",
"b c #945a39",
"c c #b5734a",
"d c #ef9c63",
"e c #a56b42",
"f c #5a3921",
"g c #b5947b",
"h c #d68c52",
"i c #946339",
"j c #734a29",
"k c #847b73",
"l c #ffb573",
"m c #945210",
"n c #c66b00",
"o c #f7bd00",
"p c #bdb500",
"q c #fff700",
"r c #080800",
"s c #737300",
"t c #294242",
"u c #4a739c",
"v c #5a8cbd",
"w c #6ba5e7",
"x c #4a6384",
"y c #8494b5",
"z c #ad3952",
"A c #c6425a",
"B c None",
/* pixels */
"BBBBBBBBBBBBBBBBBBBBBBBBBBBBBBBB",
"BBBBBBBBBBBBBBBBBBBBBBBBBBBBBBBB",
"BBBBBBBBBBBBBBBBBBBBBBBBBBBBBBBB",
"BBBBBBBBBBBBBBBBBBBBBBBBBBBBBBBB",
"BBBBBBBBrxBBBBBBBBBBB.pBBBBBBBBB",
"BBBBBBBBty#lllllllllpqomBBBBBBBB",
"BBBBBBBB.khldlddhdhdonpmBBBBBBBB",
"BBBBBBBBrxmlllldj...sqnsBBBBBBBB",
"BBBBBBBBBrBhllllh.BBBBsBBBBBBBBB",
"BBBhdddjfBB.lllllljBBBBBBBBBBBBB",
"BBBrccccccicddddggyuxxacrBBBBBBB",
"BBBB.ccccccchhllywwwvvuke.BBBBBB",
"BBBBB.ccccchcdllwwwwvvvkci.BBBBB",
"BBBBBBichdllllllyvvvvuxlhecfBBBB",
"BBBBBBBillllllllllgkkdllheeefBBB",
"BBBBBBB.llllllllllllllllcibfrBBB",
"BBBBBBB.ddddddddddddddddcjfBBBBB",
"BBBBBBBBhhhhhhhhhhhhhhhhf.BBBBBB",
"BBBBBBBBjbbahhhhhhhcbbbbrBBBBBBB",
"BBBBBBBBBrrjlllllld.rrrrBBBBBBBB",
"BBBBBBBBBBBlllllld.BBBBBBBBBBBBB",
"BBBBBBBBBBjllllldBBBBBBBBBBBBBBB",
"BBBBBBB.tBllllldBBBBBB.pprBBBBBB",
"BBBBBBBuz#dddddiaabaipqqorBBBBBB",
"BBBBBBByAlllllllllllloqqp.BBBBBB",
"BBBBBBBvzhdddddddddddqqop.BBBBBB",
"BBBBBBBxtrrrrrrrrrBrrBsqq.BBBBBB",
"BBBBBBBBrBBBBBBBBBBBBBBr.BBBBBBB",
"BBBBBBBBBBBBBBBBBBBBBBBrBBBBBBBB",
"BBBBBBBBBBBBBBBBBBBBBBBBBBBBBBBB",
"BBBBBBBBBBBBBBBBBBBBBBBBBBBBBBBB",
"BBBBBBBBBBBBBBBBBBBBBBBBBBBBBBBB"
};
