/* XPM */
static char *t1shl016[] = {
/* width height num_colors chars_per_pixel */
"    32    32       31            1",
/* colors */
". c #bd4242",
"# c #734a39",
"a c #523121",
"b c #c64200",
"c c #ce8452",
"d c #e7945a",
"e c #bd7b4a",
"f c #9c6339",
"g c #b57342",
"h c #ffad6b",
"i c #f7a563",
"j c #7b5231",
"k c #ffb573",
"l c #bda58c",
"m c #312110",
"n c #100800",
"o c #94846b",
"p c #634a00",
"q c #7b6b00",
"r c #9c8c00",
"s c #b5ad00",
"t c #d6d600",
"u c #73a5c6",
"v c #849cb5",
"w c #314a63",
"x c #4a739c",
"y c #639cd6",
"z c #527bad",
"A c #73739c",
"B c #212131",
"C c None",
/* pixels */
"CCCCCCCCCCCCCCCCCCCCCCCCCCCCCCCC",
"CCCCCCCCCCCCCCCCCCCCCCCCCCCCCCCC",
"CCCCCCCCCCCCCmmCCCCCCCCCCCCCCCCC",
"CCCCCCCCCCCCCrtqCCCCCCCCCCCCCCCC",
"CCCCCCCCCCCCptttmCCCCCCCCCCCCCCC",
"CCCCCCCCCCmdisqrpCCCCCCCCCCCCCCC",
"CCCCCCCCCakdfamnnCCmanCCCCCCCCCC",
"CCCCCCCmdhc#nCCCCmoAlof#anCCCCCC",
"CCCCCCckdc#mCCCC#vyyxwdajnCCCCCC",
"CCBwmdichkkkkkkcuyyzxwidmCCCCCCC",
"CCnuAceikkkkkiivuuyzw#ddaCCCCCCC",
"CCCBxafkkkkkihkvyyzw#ddg#CCCCCCC",
"CCCnwBCmfkkikkkkloocdcgjmCCCCCCC",
"CCCCnCCCmcddddikkkidefjanCCCCCCC",
"CCCCCCCgj#gdcikhidcgf#mnCCCCCCCC",
"CCCCCmfeefccdhhddcgfjcnCCCCCCCCC",
"CCCCCaggeecdhhddef##kdCCCCCCCCCC",
"CCCCCCCagechidcgf#ckkdCCCCCmaCCC",
"CCCCCCCCnafcdcgfjdkkkdCCmeigCCCC",
"CCCCCCCCCnaaef#akkkkkdCmckijCCCC",
"CCCCCCCCCCma.#andkkkkdmikdjnCCCC",
"CCCCCCCCCCCmamnCmkkkkhkkd#CCCCCC",
"CCCCCCCCCCCCnCCCChkkdkkcmCCCCCCC",
"CCCCCCCCCCCCCCCCCchhkiemCCCCCCCC",
"CCCCCCCCCCCCCCCCw#dkignCCCCCCCCC",
"CCCCCCCCCCCCCCCmxy.djnCCCCCCCCCC",
"CCCCCCCCCCCCCnmpsuxanCCCCCCCCCCC",
"CCCCCCCCCCCCnpqstjxwCCCCCCCCCCCC",
"CCCCCCCCCCCCmbrrsnwCCCCCCCCCCCCC",
"CCCCCCCCCCCCCbbspCCCCCCCCCCCCCCC",
"CCCCCCCCCCCCCnqrnCCCCCCCCCCCCCCC",
"CCCCCCCCCCCCCnnCCCCCCCCCCCCCCCCC"
};
