/* XPM */
static char *t1shl010[] = {
/* width height num_colors chars_per_pixel */
"    32    32       31            1",
/* colors */
". c #ad2110",
"# c #de5a31",
"a c #c68c6b",
"b c #312118",
"c c #b5734a",
"d c #845231",
"e c #ce8452",
"f c #5a3921",
"g c #de945a",
"h c #bd7b4a",
"i c #f7a563",
"j c #ffb573",
"k c #dead7b",
"l c #6b4a29",
"m c #d6ad7b",
"n c #946b39",
"o c #ffc67b",
"p c #dea55a",
"q c #181000",
"r c #bdb500",
"s c #313100",
"t c #dede00",
"u c #efef00",
"v c #9cb55a",
"w c #7b9494",
"x c #73adef",
"y c #6b9cd6",
"z c #527bad",
"A c #394263",
"B c #73636b",
"C c None",
/* pixels */
"CCCCCCCCCCCCCCCCCCCCCCCCCCCCCCCC",
"CCCCCCCCCCCCCCCCCCCCCCCCCCCCCCCC",
"CCCCCCCCCCCCCCCCCCCCCCCCCCCCCCCC",
"CCCCCCCCCCCCCCCCCCCCCCCCCCCCCCCC",
"CCCCCCCCCCCCbcgjnlbCCCCCCCCCCCCC",
"CCCCCCCCCCCCCCcioojinfCCCqCCCCCC",
"CCCCCCCCCCCCCCCblhijoojndzCssCCC",
"CCCCCCCCbbCCCCCCbngjiij#wvuutCCC",
"CCCCCCbcaaBAbCbgojojojg.ydurrCCC",
"CCCCbeikyxyyzBggjjjjjafCbsrtqqCC",
"CCCbjjjkyxyyyzBigngggbCCCCsnqCCC",
"CCCCgjjoyyyyyzAaiiigannclCCCCCCC",
"CCCCbijjowzzzzBooooooooooojbCCCC",
"CCCCChjjjjoammooooooooooooeCCCCC",
"CCCCCqgiiijjjjooooooooooolCCCCCC",
"CCCCCCdhegiijjjjjooooooobCCCCCCC",
"CCCCCCCqfngegiiijjjooombCCCCCCCC",
"CCCCCCCCCCgjigegiiijjcbCCCCCCCCC",
"CCCCqCCCCCbjjjjigegiilCCCCCCCCCC",
"CCCsssCCCCCgjjjjjldheCCCCCCCCCCC",
"CCqffsqqCCCdjjjjjbCqbCCCCCCCCCCC",
"CCfnllhinfCqojjjjlCCCCCCCCCCCCCC",
"CCqrtspojjidijjjolCCCCCCCCCCCCCC",
"CCssqsfnijoojgigjlCCCCCCCCCCCCCC",
"CCCCCCCCCfnijojjg#BACCCCCCCCCCCC",
"CCCCCCCCCCCClgjjoayCCCCCCCCCCCCC",
"CCCCCCCCCCCCCCbdiBzCCCCCCCCCCCCC",
"CCCCCCCCCCCCCCCCCBACCCCCCCCCCCCC",
"CCCCCCCCCCCCCCCCCbbCCCCCCCCCCCCC",
"CCCCCCCCCCCCCCCCCCCCCCCCCCCCCCCC",
"CCCCCCCCCCCCCCCCCCCCCCCCCCCCCCCC",
"CCCCCCCCCCCCCCCCCCCCCCCCCCCCCCCC"
};
