/* XPM */
static char *t1shf017[] = {
/* width height num_colors chars_per_pixel */
"    32    32       31            1",
/* colors */
". c #e74242",
"# c #8c2100",
"a c #c63100",
"b c #7b4a31",
"c c #dea584",
"d c #bd734a",
"e c #633921",
"f c #e7945a",
"g c #c68452",
"h c #9c6339",
"i c #523118",
"j c #ffad6b",
"k c #f7a563",
"l c #ffb573",
"m c #9c734a",
"n c #312110",
"o c #efa552",
"p c #634a29",
"q c #73634a",
"r c #9c6b00",
"s c #8c7b00",
"t c #635a00",
"u c #080800",
"v c #c6c600",
"w c #29425a",
"x c #426384",
"y c #639cd6",
"z c #527bad",
"A c #7b94b5",
"B c #101829",
"C c None",
/* pixels */
"CCCCCCCCCCCCCCCCCCCCCCCCCCCCCCCC",
"CCCCCCCCCCCCCCCCCCCCCCCCCCCCCCCC",
"CCCCCCCCCCCCCCCCCCCCCCCCCCCCCCCC",
"CCCCCCCCCCCCCCCCCCCCCCCCCCCCCCCC",
"CCCCCCCCCCCCCCnpenCCCCCCCCCCCCCC",
"CCCCCCCCCCCngglkfiuCCCCCCCCCCCCC",
"CCCCCwBnpgjlkfdhnCCCCCCCCCCCCCCC",
"CCCCCqzfjkfffnuCCCCCCCCCCCCCCCCC",
"CCCCCBzalkllllmpCCCBpmguCCCCCCCC",
"CCCCCCwubllllllllmzyyzxminCCCCCC",
"CCCCCCuuCblllfkkAyyyyzxqpbbuCCCC",
"CCCCCCneengkkjlcyyyyzxqlbpbnCCCC",
"CCCnhgfdbgfgkkfcAyzxxqklfinCCCCC",
"CCCnhgggfgfffllllccfgkffdnuCCCCC",
"CCCushgggffllllljkkkfffgdnCCCCCC",
"CCCnntrggflljjjkkffggdmhbuCCCCCC",
"CCua#rthfljjkkffggdmhbenuCCCCCCC",
"CCCuistssofffggdhhhfluuCCCCCCCCC",
"CCC#arvtshggdhhhklllmCCCCCCCCCCC",
"CCCCartntthhbellllllnCCCCCCCCCCC",
"CCCCitttnCenunlllllmCCCCCCCCCCCC",
"CCCCCnrnCCuCCnlllllpCnigibeCCCCC",
"CCCCCCCCCCCCCbllllligkllfnCCCCCC",
"CCCCCCCCCCCCCpljlkklllkgbCCCCCCC",
"CCCCCCCCCCCwxpkflllkghnuCCCCCCCC",
"CCCCCCCCCCCqy.llkfhnuCCCCCCCCCCC",
"CCCCCCCCCCCnyegheuCuCCCCCCCCCCCC",
"CCCCCCCCCCCCxxuCCCCCCCCCCCCCCCCC",
"CCCCCCCCCCCCBwCCCCCCCCCCCCCCCCCC",
"CCCCCCCCCCCCCCCCCCCCCCCCCCCCCCCC",
"CCCCCCCCCCCCCCCCCCCCCCCCCCCCCCCC",
"CCCCCCCCCCCCCCCCCCCCCCCCCCCCCCCC"
};
