/* XPM */
static char *t1shl017[] = {
/* width height num_colors chars_per_pixel */
"    32    32       31            1",
/* colors */
". c #e74242",
"# c #a52900",
"a c #523121",
"b c #7b4a31",
"c c #dea584",
"d c #bd734a",
"e c #633921",
"f c #b5734a",
"g c #c67b4a",
"h c #7b6352",
"i c #ce8452",
"j c #e7945a",
"k c #9c6339",
"l c #ffad6b",
"m c #f7a563",
"n c #ffb573",
"o c #312110",
"p c #634a29",
"q c #845200",
"r c #948c00",
"s c #c6bd00",
"t c #d6ce00",
"u c #080800",
"v c #636300",
"w c #29425a",
"x c #426384",
"y c #639cd6",
"z c #527bad",
"A c #7b94b5",
"B c #101829",
"C c None",
/* pixels */
"CCCCCCCCCCCCCCCCCCCCCCCCCCCCCCCC",
"CCCCCCCCCCCCCCCCCCCCCCCCCCCCCCCC",
"CCCCCCCCCCCCCCCCCCoCCCCCCCCCCCCC",
"CCCCCCCCCCCCCCCCCvvaCCCCCCCCCCCC",
"CCCCCCCCCCCCCCoprttroCCCCCCCCCCC",
"CCCCCCCCCCCoiinnitsvoCCCCCCCCCCC",
"CCCCCwBopilnmjfkavrrCCCCCCCCCCCC",
"CCCCChzjlmjjjouCCCCCCCCCCCCCCCCC",
"CCCCCBz#nmnnnnfpCCCuhkiuCCCCCCCC",
"CCCCCCwobnnnnnnnnhzyzzxfaoCCCCCC",
"CCCCCCuCCbnnnjmmAyyyyzxhpbbuCCCC",
"CCCCCCoeeoimmlncyyyyzxhlbpboCCCC",
"CCCokiifbijimmjcAyAxxwnljaoCCCCC",
"CCCokgijijjjjnnnncicjmmjdouCCCCC",
"CCCCCbgiiijnnnnnnmmmjjigdoCCCCCC",
"CCCCCCagjjnnlllmmjjigffkbuCCCCCC",
"CCCCCCCajnllmmjjigffkbeouCCCCCCC",
"CCCCCCCCoimjjigfkkkjnCuCCCCCCCCC",
"CCCCCCCCCbigfkkkcnnnfCCCCCCCCCCC",
"CCCCCCCCCokkbennnnnnoCCCCCCCCCCC",
"CCCCCCCCCCaouannnnnfCCCCCCCCCCCC",
"CCCCCCCCCCuCConnnnnpCoaiapeCCCCC",
"CCCCCCCCCCCCCpnnnnladmnnjoCCCCCC",
"CCCCCCCCCCCCCpnlnmmnnnmibCCCCCCC",
"CCCCCCCCCCCwxbjmnnnmikouCCCCCCCC",
"CCCCCCCooovpy.nnmjkouCCCCCCCCCCC",
"CCCCCCuqvvssyedkeuCuCCCCCCCCCCCC",
"CCCCCCC#qrsszxuCCCCCCCCCCCCCCCCC",
"CCCCCCC#qvruuwCCCCCCCCCCCCCCCCCC",
"CCCCCCCCvroCCCCCCCCCCCCCCCCCCCCC",
"CCCCCCCCCuCCCCCCCCCCCCCCCCCCCCCC",
"CCCCCCCCCCCCCCCCCCCCCCCCCCCCCCCC"
};
