/* XPM */
static char *t1shr016[] = {
/* width height num_colors chars_per_pixel */
"    32    32       31            1",
/* colors */
". c #ad4242",
"# c #522118",
"a c #7b5a4a",
"b c #8c5a39",
"c c #ad6b42",
"d c #f7a56b",
"e c #ce8452",
"f c #e7945a",
"g c #422918",
"h c #bd7b4a",
"i c #f7a563",
"j c #734a29",
"k c #ffb573",
"l c #5a4229",
"m c #181008",
"n c #633900",
"o c #ffc65a",
"p c #845a00",
"q c #b58400",
"r c #debd10",
"s c #848400",
"t c #adad00",
"u c #dede00",
"v c #73a5c6",
"w c #849cb5",
"x c #314a63",
"y c #4a739c",
"z c #639cd6",
"A c #527bad",
"B c #7b849c",
"C c None",
/* pixels */
"CCCCCCCCCCCCCCCCCCCCCCCCCCCCCCCC",
"CCCCCCCCCCCCCCCCCCCCCCCCCCCCCCCC",
"CCCCCCCCCCCCCCCCCCCCCCCCCCCCCCCC",
"CCCCCCCCCCCCCCCCCCCCCCCCCCCCCCCC",
"CCCCCCCCCCCCCmgCCCCCCCCCCCCCCCCC",
"CCCCCCCCCCgekbCCCCCCCCCCCCCCCCCC",
"CCCCCCCCClkibgCCCCCglmCCCCCCCCCC",
"CCCCCCCmfdelmCCCCghBBcbllmCCCCCC",
"CCCCCCekfejgCCCClvzzAxdljCCCCCCC",
"CCmxgfdedkkkkkkewzzAyxiegCCCCCCC",
"CCmwBhhdkkkkkdiwvvzAxafflCCCCCCC",
"nntby#bkkkkkidkwzzyxafehlCCCCCCC",
"ppnslmCmckkidkkkkBeefecbgCCCCCCC",
"pqsmgCCCmeifffdkddffhcj#mCCCCCCC",
"npsCCCCcbjhefikddfehbjgmCCCmgCCC",
"CCmCCmcehbeefddffecbbhmCCCCuunCC",
"CCCCCghchhefddffhcbjkfCCCCnuuunC",
"CCCCCCCghhedifehbjekkfCCCCtuunnC",
"CCCCCCCCmlcefecbbdkkkfCCmhorutsC",
"CCCCCCCCCm#lhcbldkkkkfCmekibmmCC",
"CCCCCCCCCCg#.jgCfkkkkfmkkijmCCCC",
"CCCCCCCCCCCm#gmCgkkkkkkdflCCCCCC",
"CCCCCCCCCCCCmCCCCdkkfkdfgCCCCCCC",
"CCCCCCCCCCCCCCCCCeddkdemCCCCCCCC",
"CCCCCCCCCCCCCCCCxjfkdcmCCCCCCCCC",
"CCCCCCCCCCCCCCCmyz.ibmCCCCCCCCCC",
"CCCCCCCCCCCCCCCClvy#CCCCCCCCCCCC",
"CCCCCCCCCCCCCCCCm#yxCCCCCCCCCCCC",
"CCCCCCCCCCCCCCCCCCxCCCCCCCCCCCCC",
"CCCCCCCCCCCCCCCCCCCCCCCCCCCCCCCC",
"CCCCCCCCCCCCCCCCCCCCCCCCCCCCCCCC",
"CCCCCCCCCCCCCCCCCCCCCCCCCCCCCCCC"
};
