/* XPM */
static char *t1ship002[] = {
/* width height num_colors chars_per_pixel */
"    32    32       31            1",
/* colors */
". c #080808",
"# c #d62918",
"a c #211008",
"b c #734a31",
"c c #8c5a39",
"d c #b5734a",
"e c #d68c5a",
"f c #a56b42",
"g c #e7945a",
"h c #c68452",
"i c #bd7b4a",
"j c #9c6339",
"k c #f7a563",
"l c #523921",
"m c #ce945a",
"n c #312110",
"o c #ffbd73",
"p c #bda584",
"q c #9ca5a5",
"r c #396384",
"s c #5284ad",
"t c #5a94c6",
"u c #526373",
"v c #29425a",
"w c #6ba5de",
"x c #4a739c",
"y c #7b94bd",
"z c #7b6b94",
"A c #bd314a",
"B c #a50810",
"C c None",
/* pixels */
"CCCCCCCCCCCCCCCCCCCCCCCCCCCCCCCC",
"CCCCCCCCCCCCCCCCCCCCCCCCCCCCCCCC",
"CCCCCCCCCCCCCCCCCCCCCCCCCCCCCCCC",
"CCCCCCjbCCCCCCCCrxCCCCCCCCCCCCCC",
"CCCCCCnkmnCCCCCvt#bCCCCCCCCCCCCC",
"CCCCCCngkdCCCCCvAoohaCCCCCCCCCCC",
"CCCCCCChkgdCCCC.noooocCCCCCCCCCC",
"CCCCCCCckkgfb.CCbooooomaCCCCCCCC",
"CCCCCCCnkgkgdflCfooookoocCCCCCCC",
"CCCCCCCCkokkgghdgooomleooiCCCCCC",
"CCCCCCCCoookkgkefmoooCCbkmlCCCCC",
"CCCCCCCdooooookomdhoonCCancnCCCC",
"CCCCCCCmoooooooqwtxuenCCCCCCCCCC",
"CCCCCCCdkooooooywwwsubCCCCCCCCCC",
"CCCCCCC.jkoooooqwwwwsuc.CCCCCCCC",
"CCC.CCCCCdgoooooywwwtxiinCCCCCCC",
"CCxr.CnnmoogkooooqtttxhdlCCCCCCC",
"Crz##mooooookgooooppqpeic.CCCCCC",
"CwBokhoooooooogooooookehfaCCCCCC",
"CvbookigooooooogooooogghdlCCCCCC",
"CCCnmooghghcjllnmkoodeggebCCCCCC",
"CCCCnmooinCCCCCC.jkemheegi.CCCCC",
"CCCCCCcooglCCCCCC.jcccffcfnCCCCC",
"CCCCCCCfooklCCCCCCC.CCCCCCCCCCCC",
"CCCCCCCCbooo.CCCCCCCCCCCCCCCCCCC",
"CCCCCCCCCnooiCCCCCCCCCCCCCCCCCCC",
"CCCCCCCCCCCnfcCCCCCCCCCCCCCCCCCC",
"CCCCCCCCCCCCCCCCCCCCCCCCCCCCCCCC",
"CCCCCCCCCCCCCCCCCCCCCCCCCCCCCCCC",
"CCCCCCCCCCCCCCCCCCCCCCCCCCCCCCCC",
"CCCCCCCCCCCCCCCCCCCCCCCCCCCCCCCC",
"CCCCCCCCCCCCCCCCCCCCCCCCCCCCCCCC"
};
