/* XPM */
static char *t1shb016[] = {
/* width height num_colors chars_per_pixel */
"    32    32       31            1",
/* colors */
". c #948c8c",
"# c #842121",
"a c #ad4239",
"b c #734a31",
"c c #ad6b42",
"d c #ef945a",
"e c #c67b4a",
"f c #634229",
"g c #f7a563",
"h c #946339",
"i c #734a29",
"j c #ffb573",
"k c #f7ad6b",
"l c #efad6b",
"m c #ce945a",
"n c #100800",
"o c #de7300",
"p c #f7b521",
"q c #312910",
"r c #947300",
"s c #e7c600",
"t c #dec610",
"u c #ffff00",
"v c #314a63",
"w c #6ba5de",
"x c #5a8cbd",
"y c #395a7b",
"z c #849cbd",
"A c #7b73a5",
"B c #422131",
"C c None",
/* pixels */
"CCCCCCCCCCCCCCCCCCCCCCCCCCCCCCCC",
"CCCCCCCCCCCCCCCCCCCCCCCCCCCCCCCC",
"CCCCCCCCCCCCCqqCCCCCCCCCCCCCCCCC",
"CCCCCCCCCCCCCrsrCCCCCCCCCCCCCCCC",
"CCCCCCCCCCCCqusuqCCCCCCCCCCCCCCC",
"CCCCCCCCCCqmjpssrCCCCCCCCCCCCCCC",
"CCCCCCCCCfkdhfqqnCCqinCCCCCCCCCC",
"CCCCCCCqmkmBnCCCCqmA..ebfnCCCCCC",
"CCCCCCmkdebqnCCCbzxxxvghbnCCCCCC",
"CCnyqmkeljjjjjkmzwwxyvgmfCCCCCCC",
"CCnzAeeljjjjjjgzwwxxycdefCCCCCCC",
"CCCBA#cjjjjjkkjzwxAybdmeiCCCCCCC",
"CCCnynCBcjjkkkjjm..elechBCCCCCCC",
"CCCCnCCCqeechimjjgdmcchBnCCCCCCC",
"CCCCCCCmcbfffejkddmecfqnCCCqqCCC",
"CCCCCqehffffcjlddechhenCCCCuurCC",
"CCCCCBfffffckgdmechbjmCCCCrsusiC",
"CCCCCCCqffhkddmccfejjmCCCCrtsorC",
"CCCCCCCCnBfedechhmjjjmCCnmgtuusC",
"CCCCCCCCCnBbechfljjjjmCqmjlhrnnC",
"CCCCCCCCCCq#bbBCmjjjjmqkjdinCCCC",
"CCCCCCCCCCCqBqnCqjjjjkkkmbCCCCCC",
"CCCCCCCCCCCCnCCCCkjjgjkdBCCCCCCC",
"CCCCCCCCCCCCCCCCCekkjkcqCCCCCCCC",
"CCCCCCCCCCCCCCCCvajjgcnCCCCCCCCC",
"CCCCCCCCCCCCCCCnxwadhCCCCCCCCCCC",
"CCCCCCCCCCCCCCCCfzAinCCCCCCCCCCC",
"CCCCCCCCCCCCCCCCnByvCCCCCCCCCCCC",
"CCCCCCCCCCCCCCCCCnyCCCCCCCCCCCCC",
"CCCCCCCCCCCCCCCCCCCCCCCCCCCCCCCC",
"CCCCCCCCCCCCCCCCCCCCCCCCCCCCCCCC",
"CCCCCCCCCCCCCCCCCCCCCCCCCCCCCCCC"
};
