/* XPM */
static char *t1shr001[] = {
/* width height num_colors chars_per_pixel */
"    32    32       31            1",
/* colors */
". c #9c9494",
"# c #8c2918",
"a c #633929",
"b c #734229",
"c c #ef945a",
"d c #845231",
"e c #a56b42",
"f c #5a3921",
"g c #ce8c5a",
"h c #e79c63",
"i c #f7a563",
"j c #7b5231",
"k c #ffb573",
"l c #312110",
"m c #100800",
"n c #ffbd73",
"o c #734a00",
"p c #8c6300",
"q c #ad9c00",
"r c #b5ad00",
"s c #cece00",
"t c #f7f700",
"u c #636b5a",
"v c #6b8484",
"w c #6bade7",
"x c #5a8cc6",
"y c #4a6b94",
"z c #293952",
"A c #425a84",
"B c #9c425a",
"C c None",
/* pixels */
"CCCCCCCCCCCCCCCCCCCCCCCCCCCCCCCC",
"CCCCCCCCCCCCCCCCCCCCCCCCCCCCCCCC",
"CCCCCCCCCmlCCCCCCCCCCCCCCCCCCCCC",
"CCCCCCCCCppozACCCCCCCCCCCCCCCCCC",
"CCCCCCCCopqp.BealCCCCCCCCCCCCCCC",
"CCCClCCCCopsx#nnnhefCCCCCCCCCCCC",
"CCCCecdfCllmzbnkkknnkeaCCCCCCCCC",
"CCCCliikeCCCClkkknehinnaCCCCCCCC",
"CCCCCgiiigflClnkkkhCljdjdCCCCCCC",
"CCCCCliiikkegehknkklCCCCCCCCCCCC",
"CCCCCCgiiikkghggchngCCCCCCCCCCCC",
"CCCCCClikkkkkikihxv.ulCCCCCCCCCC",
"CCCCCCCgnnnnnnn.wwwwxyjjlCCCCCCC",
"CCCCCCCennnnnnnnwwwwxxygdmCCCCCC",
"CCCCCCCikknnnnnn.xxwxxyubfCCCCCC",
"CCCCCCChcikkknnnnk.yyyvhdjmCCCCC",
"CCCCCCCfeggcikkknnnnnnneeedmCCCC",
"CCCCCCCCClihhgciikknnnndeeedCCCC",
"CCCCCCCCCgkkkkhhgciikkgjeeeglCCC",
"CCCCmmClgnnnknkkkgggciejjbbmCCCC",
"CCClxamhknkknkkhaClfegllmmCCCCCC",
"CCCyyBchhknkkhaCCCCCCmmCCCCCCCCC",
"CCCxzcnnihhhlmCCCCCCCCCCCCCCCCCC",
"CCCAlbdknnnihdlCCCCCCCCCCCCCCCCC",
"CCCCCCCCbgknnnkgflosqCCCCCCCCCCC",
"CCCCCCCCCCldhknnsqttpCCCCCCCCCCC",
"CCCCCCCCCCCCCfdhqsqrlCCCCCCCCCCC",
"CCCCCCCCCCCCCCCCmrsqmCCCCCCCCCCC",
"CCCCCCCCCCCCCCCCCmrlmCCCCCCCCCCC",
"CCCCCCCCCCCCCCCCCComCCCCCCCCCCCC",
"CCCCCCCCCCCCCCCCCCCCCCCCCCCCCCCC",
"CCCCCCCCCCCCCCCCCCCCCCCCCCCCCCCC"
};
