/* XPM */
static char *t1stat013[] = {
/* width height num_colors chars_per_pixel */
"    64    64       32            1",
/* colors */
". c #ffffff",
"# c #6b1808",
"a c #ce3918",
"b c #7b5231",
"c c #c6c67b",
"d c #7b844a",
"e c #636b39",
"f c #94a563",
"g c #637b42",
"h c #294a29",
"i c #00c608",
"j c #006b10",
"k c #6b9473",
"l c #004218",
"m c #005a21",
"n c #adefc6",
"o c #94d6ad",
"p c #5a846b",
"q c #005221",
"r c #c6ffde",
"s c #84bd9c",
"t c #6ba584",
"u c #397352",
"v c #005a29",
"w c #31634a",
"x c #31846b",
"y c #31cebd",
"z c #42ffef",
"A c #299c9c",
"B c #00849c",
"C c #00ade7",
"D c None",
/* pixels */
"DDDDDDDDDDDDDDDDDDDDDDDDDDDDDDDDDDDDDDDDDDDDDDDDDDDDDDDDDDDDDDDD",
"DDDDDDDDDDDDDDDDDDDDDDDDDDDDDlllllDlDDDDDDDDDDDDDDDDDDDDDDDDDDDD",
"DDDDDDDDDDDDDDDDDDDDDDDDlqvvvvvvvvvqvqlllDDDDDDDDDDDDDDDDDDDDDDD",
"DDDDDDDDDDDDDDDDDDDDDqqvvvvvvvvvvqvqvqvqlqlDDDDDDDDDDDDDDDDDDDDD",
"DDDDDDDDDDDDDDDDDDqvvvvvvvvvvvvqvvqvqvqvqvlqlDDDDDDDDDDDDDDDDDDD",
"DDDDDDDDDDDDDDDDDqvvvvvvvvvvvmvvvvvCCBBxlvqllqlDDDDDDDDDDDDDDDDD",
"DDDDDDDDDDDDDDDlvvvvvvvvvvvvvvvvvCCCCCCCCBxvvllqDDDDDDDDDDDDDDDD",
"DDDDDDDDDDDDDDqvvvvvvvvvvvvvvvmBCzCCCCCCCCBCvlvlllDDDDDDDDDDDDDD",
"DDDDDDDDDDDDDvvvvvvvvvvvvvvvvvmCCCCzCCCCCCCCBBvlvllDDDDDDDDDDDDD",
"DDDDDDDDDDDlvvvvvvvvvvvvvvvvvvBCzCCCCCCCCCBCCBBvllllDDDDDDDDDDDD",
"DDDDDDDDDDDvvvvvvvvvvvvvwvvvvmBCCzzCCCCCCCCBCBCBvllllDDDDDDDDDDD",
"DDDDDDDDDDvvvvvvvwxssssotttxwvBCCzCzCCCCCCCCBCBBBvllllDDDDDDDDDD",
"DDDDDDDDDqvvvvvwsoooooooooosspBCzzzzCCCCCCBCBBBBBBvllllDDDDDDDDD",
"DDDDDDDDlvvvvwsooooooonnooosstsCCCzzzCCCCCCBCCBBBBBllllDDDDDDDDD",
"DDDDDDDlqvvvwoooooooonnnnnossttCCCzzzCCCCCBCBBCBBBBBllllDDDDDDDD",
"DDDDDDDqvvmwonoooooonnrrrnosttkACCCzyCCCCBCBCBBBBBBBvlllDDDDDDDD",
"DDDDDDlvvqvtooooooonnrnnnnnottxxACCCCCCCBCBCBBBBBBBlBllllDDDDDDD",
"DDDDDDqvvqlooooosooonnrrrnnotkxuBBCCCCCCCBCBBCBBBBBBllllllDDDDDD",
"DDDDDlvvvqknzoooosooornnrnnstppuuxBBCBCBBCBCBBBBBBlBBvllllDDDDDD",
"DDDDDlqvvvnzzooosossonrrnnostxuwuuBBBBBBCBBBBBBBBBBBlllllllDDDDD",
"DDDDDvvvvyzzzoosssstsn..nottpuuwwpuxBBBBBBBBBBBBBBlBlBlllllDDDDD",
"DDDDlqvqqzzzznoosstttn...ctkxuwwgccuvBBBBBBBBBBBlBBlBllllllDDDDD",
"DDDDqvqvwzzzznossstpkccccccuwwwwfccfxlBvBBBBBBlBBlBllllllllDDDDD",
"DDDDqvqvwzzzzrossttpwpccnccfwvvfccfddwlvvvvlBlBBlBllBlvlllllDDDD",
"DDDlqvvqizzrzroosttxuwufccccfwgccfddehwlBlBlllllllllllllllllDDDD",
"DDDDvqqvvzzzzrrssstkuvvudffffccccdddehhhwllBlBlBlBlBlllvllllDDDD",
"DDDlqqvqvyzzorrnssttuwvvhefffcccfdghhhhpsotxllllllllllvlllllDDDD",
"DDDlqvqvqyrssnrrssttpwvvvvedcccdddehhhutsornAxxBlBlllvlvlllllDDD",
"DDDllvqqvysssonrosttkuvvvvvfccdddehhhgkttorrostplllvvvllllllDDDD",
"DDDlqlvlvxtsssornssttpuvvvdcccfdehhhhwptssnrnstpwvvvlvvlvllllDDD",
"DDDlvqvqvvttsssonostttpwvgccccdehhhehvukssonosstuvvvvvlvllllDDDD",
"DDDllvlqqvbabtsssotttkkpwccccdehhheffwvttsooosskpvvlvlvllllvDDDD",
"DDDllvlvlvbawstssssstttkxfccddhhhddfdfuptssoooftphvvvlvlvlllDDDD",
"DDDlllvlvllhutttsssttttkkpffdhhhheddfdddtsoooosspulvqvlllvllDDDD",
"DDDDlvlvlqqvkttttttsttttkppgehehvveddffdfssoosstpuhlvlvvlllvDDDD",
"DDDDvllllvllupksyttttttktkppuhhvvwveeddfddoossstpulvvqvllvllDDDD",
"DDDDqlvlvllvvpkzzyttttttkkkpppuvvvwueeddfdcosstkphhlvllvvlllDDDD",
"DDDDlllllvllvwyzzzykkkkktpkkkppuuwuxtgdddcsssfskpwlvlvvllvllDDDD",
"DDDDllvlllvlqwyzzzzytptptpkppkpkppxksokdfsssstkpuwlvvvlvvllDDDDD",
"DDDDDlllllllqqwyzzzzzppppppppppppkkkktktstttkkkuwhhvqlqvlllDDDDD",
"DDDDDllllvlvlvqvyzzzzypppppppppppppppppkkkkkkpuuhhllvvlvlvDDDDDD",
"DDDDDDllllllvlvvvyyzzzypppppppppppppppppppppupuhhwwvlvqlvlDDDDDD",
"DDDDDDllllvllvlvvvyyyzzyuuuupuupupupuppppeuuuwwhhBvvvlqvllDDDDDD",
"DDDDDDDlllllvlvlvdcyyyyAupupuupuuuuuuuuuuuuuhhhhxvqqqvvllDDDDDDD",
"DDDDDDDlllllllvlgcfwyyAwwwuwuuwuuuuuuuwwwwhhhhhwBlvvqlqllDDDDDDD",
"DDDDDDDDlllllllgcfbhvwhhhwhhwhwhwpAxxxuhhhhhhhDwqvvqvvllDDDDDDDD",
"DDDDDDDDDllllvhcfehvlvlhhhDlhwhwhAyyAAAAAxhhDhhlvqqvlvllDDDDDDDD",
"DDDDDDDDDlllllcfehqlvvvvllDhhhhhhAAAAAAAAxDhhhlvvqvlvllDDDDDDDDD",
"DDDDDDDDDDlllwidbhlvlvlvvllhhhhhxAAAAAAAAwhhhllvvvqvllDDDDDDDDDD",
"DDDDDDDDDDDlliijhlqlqlvlvvvllhwBAAAAAAAAxh##lvvvlvlvlDDDDDDDDDDD",
"DDDDDDDDDDDDljjlllllvlvlvlvvlllvuvxxBAAAwqhhvvvvvvllDDDDDDDDDDDD",
"DDDDDDDDDDDDDllllllllvllvlvlvvvvvvvqqqhiijvlvlvlqllDDDDDDDDDDDDD",
"DDDDDDDDDDDDDDDllllllllvlvlvllvlvlvqqqvhmqqvvvvqvlDDDDDDDDDDDDDD",
"DDDDDDDDDDDDDDDDllllllllllvlvvlvqvqvvqvqqqvqqlvlDDDDDDDDDDDDDDDD",
"DDDDDDDDDDDDDDDDDlllllllvllvllqvlvlqqqqvqqqqvllDDDDDDDDDDDDDDDDD",
"DDDDDDDDDDDDDDDDDDDlllllllvllvvlvlvqvqqqvqvllDDDDDDDDDDDDDDDDDDD",
"DDDDDDDDDDDDDDDDDDDDDlllllllvllvlvqlvlvlqllDDDDDDDDDDDDDDDDDDDDD",
"DDDDDDDDDDDDDDDDDDDDDDDDlllllvllvllvllllDDDDDDDDDDDDDDDDDDDDDDDD",
"DDDDDDDDDDDDDDDDDDDDDDDDDDDllDllDllDDDDDDDDDDDDDDDDDDDDDDDDDDDDD",
"DDDDDDDDDDDDDDDDDDDDDDDDDDDDDDDDDDDDDDDDDDDDDDDDDDDDDDDDDDDDDDDD",
"DDDDDDDDDDDDDDDDDDDDDDDDDDDDDDDDDDDDDDDDDDDDDDDDDDDDDDDDDDDDDDDD",
"DDDDDDDDDDDDDDDDDDDDDDDDDDDDDDDDDDDDDDDDDDDDDDDDDDDDDDDDDDDDDDDD",
"DDDDDDDDDDDDDDDDDDDDDDDDDDDDDDDDDDDDDDDDDDDDDDDDDDDDDDDDDDDDDDDD",
"DDDDDDDDDDDDDDDDDDDDDDDDDDDDDDDDDDDDDDDDDDDDDDDDDDDDDDDDDDDDDDDD"
};
