/* XPM */
static char *t1stat006[] = {
/* width height num_colors chars_per_pixel */
"    64    64       32            1",
/* colors */
". c #ffffff",
"# c #cebd6b",
"a c #84844a",
"b c #6b7342",
"c c #295229",
"d c #00ce08",
"e c #007308",
"f c #009410",
"g c #6b8c73",
"h c #296339",
"i c #29844a",
"j c #adefc6",
"k c #004a21",
"l c #005a29",
"m c #187342",
"n c #7bad94",
"o c #9cdebd",
"p c #8ccead",
"q c #52846b",
"r c #6b9c84",
"s c #c6ffe7",
"t c #006b4a",
"u c #429c8c",
"v c #42ffef",
"w c #31d6ce",
"x c #004242",
"y c #007373",
"z c #006373",
"A c #006b7b",
"B c #0084a5",
"C c #00ade7",
"D c None",
/* pixels */
"DDDDDDDDDDDDDDDDDDDDDDDDDDDDDDDDDDDDDDDDDDDDDDDDDDDDDDDDDDDDDDDD",
"DDDDDDDDDDDDDDDDDDDDDDDDDDkDkkkkkkkDDDDDDDDDDDDDDDDDDDDDDDDDDDDD",
"DDDDDDDDDDDDDDDDDDDDDDDkklllklklkkkllkkkDDDDDDDDDDDDDDDDDDDDDDDD",
"DDDDDDDDDDDDDDDDDDDDklllllllllllllllkkkkkkkDDDDDDDDDDDDDDDDDDDDD",
"DDDDDDDDDDDDDDDDDDkllllllllllllllklkllkkkkkkDDDDDDDDDDDDDDDDDDDD",
"DDDDDDDDDDDDDDDDklllllllllllllklllklkklklkkkkkDDDDDDDDDDDDDDDDDD",
"DDDDDDDDDDDDDDDkllllllllllllllllkllltCBByykkkkkkDDDDDDDDDDDDDDDD",
"DDDDDDDDDDDDDklllllllllllllllllklltCCCCCCCCBxkkkkDDDDDDDDDDDDDDD",
"DDDDDDDDDDDDkllllllllllllllllllllBCCCCCCCCCCBAlkkkDDDDDDDDDDDDDD",
"DDDDDDDDDDDkllllllllllllllllllkllCvCvCCCCCCCCCBtkkkDDDDDDDDDDDDD",
"DDDDDDDDDDkllllllllllmlmmlhlllllyCCCCCCCCCCCBCBBzkkkDDDDDDDDDDDD",
"DDDDDDDDDkllllllllllmmmmmmmmllllACvCvCCCCCCCCBCBBAkkkDDDDDDDDDDD",
"DDDDDDDDDlllllllllmqipppoprrqlllBCCvCCCCCCCBCBBBBBzkkkDDDDDDDDDD",
"DDDDDDDklllllllltijssssssjjppnqiCCCvvvCCCCCCBCCBBBBzkkkDDDDDDDDD",
"DDDDDDDkllllllllivsss..sssopnrrruCCvvvCCCCCCCBBBBBAAkkkDDDDDDDDD",
"DDDDDDkllllllllpjsss....sjoprrqquCCCvvvCCCCCBCBCBBBAAkkkDDDDDDDD",
"DDDDDDklllllllpjjss..ssssspnrqquiCCCwvwCCCBCBCBBBBBAAxkkDDDDDDDD",
"DDDDDkkllllllnojsss...ssjjonruiiiACCCwCCCCCBCBBBBBABAzkkkDDDDDDD",
"DDDDDklllllliojjjsss.ssjsjpnqqqhhiBBCCCCCCCCBCBBBBBAAzxkkkDDDDDD",
"DDDDDlllllkkioojjsssssjjjpprngihhhmBBCCCBCBBBBBBBBAAAzxkkkDDDDDD",
"DDDDklllklkkrojojjjjjooopprj.#bhhhhABBBCBCBCBBBBBAAAAxzkkDkDDDDD",
"DDDDllklllkipjvjojjjopnpnr#.##ahmxq#ABBBBBBBBBBBABAAAzxkkkDDDDDD",
"DDDkklllkllgvvvoooopprrgqug#.##hhc##gzABBBBBBBABAAAAzxxkkkkDDDDD",
"DDDkkllkllluvvvjopppnquiiim####bx####btAAABBBABAAAzzxxxkkkkDDDDD",
"DDDkkkklklkvvvsvjppnnqimmmma####a##aaahxzAAzAAAAAzxxxxxkkkkDDDDD",
"DDDkllklklmvvvvsjppnrqmmmlli#######aabhhxxtxzzzxzxzxxxxkkkkDDDDD",
"DDDkklklklkvvvvvspnnrqillmll######aabccchhxxxxxxxxxxxxkkkkkkDDDD",
"DDkklklklkkovvvvsopnrgqaaibhm####aabhccchnqzxxxxxxxxxxkkkkkkDDDD",
"DDDkkkkkklluvvvssjpnrrqiaa#a####aaahcccbrrponqxxxxxxkkkkkkkkDDDD",
"DDkkklklkkltvvjojsonnrrqabbabba#aahcccba#g#osjprqhlklkkkkkkkDDDD",
"DDDkkkkklkkmvvnppsjpnrrqihchchcabbccccbabbagjsnnrqlkkkkkkkkkDDDD",
"DDDkkkkkkkkkwnnnnoopnnrgqhcccccbbccccccccccaojpnrghlkkkkkkkkDDDD",
"DDDlkkkkkkkkunnnnpppprrrgqhabbha###bcccccccrpopnnghxkkkkkkkkDDDD",
"DDDkkkkkkkklmrrnnnnpnnnrggqaaaba###bchcccbrnpppnnrqkkkkkkkkkDDDD",
"DDDkkkkkkkkkkqggrnnnnnrrrrggabcb####hmmmmqnnnppnngqhkkkkkkkkDDDD",
"DDDkkkkkkkkkkcbbbrrrnnrrrgrqqhcc####aiiiiqnnpppnngqhkkkkkkkDDDDD",
"DDDkkeiaaaabaabDbgnrrpnrrrrggqbca###aquuiirnppnnnrbxkkkkkkkDDDDD",
"DDDkfdf#bbababbbbgrrpvvnrrgrgqqqg####aanuqrnpnpnrrqhkkkkkkkDDDDD",
"DDDDlfmaccccccccqqguvvvvnrgggggqqq###abafqnnnnnrrgbxkkkkkkkDDDDD",
"DDDDkkcckclccccchqrwvvvvvwgqgqgqqqgggabcrnnnnnrrggxhkkkkkkDDDDDD",
"DDDDDkkkkkkkkkkkliwvvvvvvvpqggqggqqgggggrrrrrrrggbxcckkkkkDDDDDD",
"DDDDDkkkkkkkkkklkiwvwvvvvvvwqqqqqqqqqqgggggggggbqxhxmkkkkkDDDDDD",
"DDDDDDkkkkkkkkkklkmwvwwvwvvvwrqqbqqbqqqqqqqggbqbxbhhklkkkDDDDDDD",
"DDDDDDkkkkkkkkklkkllwwwvwvwvvqqqqqqqqbqbqbqqbxqxxhxtkkkkkDDDDDDD",
"DDDDDDkkkkkkkkkkklklluwwwwwwuqhqhqhqhqhqhqxbxbxhcczckkkkDDDDDDDD",
"DDDDDDDkDkkkkkkkklkklluwwwwwqhqhqxbxbhqxbxbxbxcccchklkkkDDDDDDDD",
"DDDDDDDDkkkkkkkkkkklklkyuwwuhhxbxbxqhxxbxbxxhcchDckkkkkDDDDDDDDD",
"DDDDDDDDDkkkkkkkkkkklkklAixchxhhhhxhxbhhccccchDccxklkkDDDDDDDDDD",
"DDDDDDDDDDkkkkkkkkkkkkkkllxcccDDcccccccccDhccDxckkkkkDDDDDDDDDDD",
"DDDDDDDDDDDkkkkkkkkkkklkkkkcaDkDcccccAAuAAhAxhDkkkkkDDDDDDDDDDDD",
"DDDDDDDDDDDkDkkkkkkkkkkklklka#ccchDcAuuBuuBuhDDklkkkDDDDDDDDDDDD",
"DDDDDDDDDDDDDkkkkkkkkkkkkkkkb##bkkcziyuAuButkklkklDDDDDDDDDDDDDD",
"DDDDDDDDDDDDDDkkkkkkkkkkkkkkc##ackkkkkklkkkkkkkkkDDDDDDDDDDDDDDD",
"DDDDDDDDDDDDDDDkDkkkkkkkkkkkka##ckkklllklklklklkDDDDDDDDDDDDDDDD",
"DDDDDDDDDDDDDDDDkkkkkkkkkkkkkc##bkklkkkkkkkkkkkDDDDDDDDDDDDDDDDD",
"DDDDDDDDDDDDDDDDDDDkkkkkkkkkkcadfklkklklklkkkDDDDDDDDDDDDDDDDDDD",
"DDDDDDDDDDDDDDDDDDDDDkkkkkkkkkldekkklkkkkkkDDDDDDDDDDDDDDDDDDDDD",
"DDDDDDDDDDDDDDDDDDDDDDDkkkkkkkkkkkkkkkkkkDDDDDDDDDDDDDDDDDDDDDDD",
"DDDDDDDDDDDDDDDDDDDDDDDDDDDkDkkkkDkDDDDDDDDDDDDDDDDDDDDDDDDDDDDD",
"DDDDDDDDDDDDDDDDDDDDDDDDDDDDDDDDDDDDDDDDDDDDDDDDDDDDDDDDDDDDDDDD",
"DDDDDDDDDDDDDDDDDDDDDDDDDDDDDDDDDDDDDDDDDDDDDDDDDDDDDDDDDDDDDDDD",
"DDDDDDDDDDDDDDDDDDDDDDDDDDDDDDDDDDDDDDDDDDDDDDDDDDDDDDDDDDDDDDDD",
"DDDDDDDDDDDDDDDDDDDDDDDDDDDDDDDDDDDDDDDDDDDDDDDDDDDDDDDDDDDDDDDD",
"DDDDDDDDDDDDDDDDDDDDDDDDDDDDDDDDDDDDDDDDDDDDDDDDDDDDDDDDDDDDDDDD"
};
