/* XPM */
static char *t1stat011[] = {
/* width height num_colors chars_per_pixel */
"    64    64       32            1",
/* colors */
". c #ffffff",
"# c #843921",
"a c #cebd73",
"b c #d6ce7b",
"c c #636b39",
"d c #9cad6b",
"e c #637339",
"f c #6b844a",
"g c #739473",
"h c #295229",
"i c #00c608",
"j c #007b18",
"k c #42634a",
"l c #004218",
"m c #005a21",
"n c #9cdeb5",
"o c #5a846b",
"p c #005221",
"q c #a5debd",
"r c #29734a",
"s c #005a29",
"t c #b5f7d6",
"u c #73a58c",
"v c #84c6a5",
"w c #106339",
"x c #427b63",
"y c #39dece",
"z c #42ffef",
"A c #319c9c",
"B c #007b9c",
"C c #00ade7",
"D c None",
/* pixels */
"DDDDDDDDDDDDDDDDDDDDDDDDDDDDDDDDDDDDDDDDDDDDDDDDDDDDDDDDDDDDDDDD",
"DDDDDDDDDDDDDDDDDDDDDDDDDDDlllplllllDlDDDDDDDDDDDDDDDDDDDDDDDDDD",
"DDDDDDDDDDDDDDDDDDDDDDDlpssssssssspsspspDDDDDDDDDDDDDDDDDDDDDDDD",
"DDDDDDDDDDDDDDDDDDDDpsssssssspsspspspsppsplDDDDDDDDDDDDDDDDDDDDD",
"DDDDDDDDDDDDDDDDDDpsssssssssssspssspsppspppplDDDDDDDDDDDDDDDDDDD",
"DDDDDDDDDDDDDDDDDpsssssssssmsssspsspssppppllsplDDDDDDDDDDDDDDDDD",
"DDDDDDDDDDDDDDDpssssssssssssspspswCCCCCBwBssllppDDDDDDDDDDDDDDDD",
"DDDDDDDDDDDDDDpsssssssssssssmsmmBCCCCCCCCCCBlsplllDDDDDDDDDDDDDD",
"DDDDDDDDDDDDlssssssssssssssssssBCCzCCCCCCCCBCBllsllDDDDDDDDDDDDD",
"DDDDDDDDDDDlsssssssssswwwwssssmCzCCCCCCCCCCCBBBsllllDDDDDDDDDDDD",
"DDDDDDDDDDlssssssssswwwwwwwwwmBCCzCzCCCCCCCBCCBBsllllDDDDDDDDDDD",
"DDDDDDDDDDpsssssssswrxguxrrwwmBCzCzCCCCCCCBCCBBCBsllllDDDDDDDDDD",
"DDDDDDDDDpsssssssrvvqtttqtnvgxByCzzCCCCCCCCBBCBBBBslllDDDDDDDDDD",
"DDDDDDDDlsssssrxvnnqqttttqqvvuACCzzzCCCCCCCCBCBBBBBllllDDDDDDDDD",
"DDDDDDDlsssssrnnnnqqttttttqnuvACCCzzzCCCCBCBCBBCBBBBllllDDDDDDDD",
"DDDDDDDpsssswnnqnqqqttt.ttnvugoCCCyzCCCCCCBCBCBBBBBBslllDDDDDDDD",
"DDDDDDpsssmpunnnnnqtttttttnuuxoACCCCyCCCBCCBCBBBBBBsBllllDDDDDDD",
"DDDDDDsssspxnnnvnvqqttttttnugxxrBCCCCCCCCBCBBBBBBBBBsBllllDDDDDD",
"DDDDDlsspswqnnnnvnnqqttttqvugxxrxBBBCCBCBCBBCBBBBBBBBlllllDDDDDD",
"DDDDDssmspyqqnnnvnnnqttttnvuubfrrBBCBBCBCBBBBBBBBsBlBlllllDDDDDD",
"DDDDDssssAzqnnvvvvvvvnqqnvuv.bdwkwrBBBBBBBBBBBBBBBBsBllllllDDDDD",
"DDDDlspspAzqnqnvvvvuuvvvuuobbbakwfdsBBBBBBBBBBBBsBlBlBllllDDDDDD",
"DDDDppsmmAzqnqnvvuugggvoxxra.baefbbdswwBBBBBBBBsBlBllllllllDDDDD",
"DDDlpspssAzqqqnvvvuor.bxrrrfbbadbaadowsssBsBsssBlBllBlllllllDDDD",
"DDDllsspmAzqqtqvvuuoobbkrwwrbbbaaadfekwsslsssBllBllBDllsllllDDDD",
"DDDpsppsmAznnttnvuugxdadkjwsabbaadffchkwwBlBllBlllllBlllllllDDDD",
"DDDlsppsmyyvvt.qvvugxffddddfabbadffchhhhuoxlBlllBlBllslsllllDDDD",
"DDDlspsppvvvvqttvuuuxreefffdfaaddfchhhhguvtvxwlBllllllslllllDDDD",
"DDDlpppppAuvvnttqvuuoxhhkccefdddechhhheuuvttnuuowlssssllllllDDDD",
"DDDlspsspruvvvqttvuugxxhhhhhhfdeechhhfdguuqtqvuokslslsslslllDDDD",
"DDDllplppwslgvvqqvuuugokchkhhefechhhcfffdfvttvuuxwssslsllllsDDDD",
"DDDlspspplllguvnqvvuuuoxffadfdfdfchhhhccccdnqvuuohlslsllslllDDDD",
"DDDlllslsllluuuvqnvuuuggraadffabadhhhhhhhcfvnvvugrssslslllslDDDD",
"DDDlsirdefcxuuuvzzvuuuugoofffeabadhwhhhh#huvnvuugklspslsslllDDDD",
"DDDljijefffgguuzzzzvuugugoffchdbaaewrrrrkgvvvvvugxhlslsllsllDDDD",
"DDDDpmfhhkcexozzzzzzuuuuggoochdbaafrrrxxouvqavuugohsslslslllDDDD",
"DDDDpplphhhhkyzzzzzzyuugggoookcabaffxuuxuvvvqvuugkhllslsllllDDDD",
"DDDDllplllpppyzzzzzzzyguggggoofdbaakuyuvguvvuvugokhlsslssllDDDDD",
"DDDDllllplplswyzzzzzzzyggggoogooodafuvvvvuuvuuugokhsslsllsllDDDD",
"DDDDlllllllpppxyzzzzzzzzxgogooooooxfddvvuuuuuuggxklllsslsllDDDDD",
"DDDDDlllllslpppByzzzzzzugoooooooooooooogguguggoxkhhlsslsllDDDDDD",
"DDDDDllllllslslpAyyzzzyooooooooooooooogooggggokkkhlsslslslDDDDDD",
"DDDDDDlllllllppplAyyyzgxxxxoxooxoxooooooooxokxkhhwwlsslslDDDDDDD",
"DDDDDDDllllslpplppAyyAkkxkxxxkxkokxkxkxkxkkkkkkhwrwsslsllDDDDDDD",
"DDDDDDDllllllslpppsBxkkkkkkkkxkxkkxkkxkkkkkkhhhhBrsslsplDDDDDDDD",
"DDDDDDDDllllllslpsppshhk##kkkkkkkkkkkkkkkkhhhhDxBwlsslslDDDDDDDD",
"DDDDDDDDllllllllplppslh###hhkhkkkkkhkhkhhhhhwhrBwssslspDDDDDDDDD",
"DDDDDDDDDllllllslspslssl#DwhhrhrrhhhhhwhhhwhDhrwplslspDDDDDDDDDD",
"DDDDDDDDDDlllllllllslslslfhhwhwAAABrrwhDhDhDrhllsspslDDDDDDDDDDD",
"DDDDDDDDDDDlllllslslslslsdfkhwBAAAAABABxwhwhhllssplsDDDDDDDDDDDD",
"DDDDDDDDDDDDlllllllllslslfaahwrBAAAAAAAwhDDlllsslsllDDDDDDDDDDDD",
"DDDDDDDDDDDDDllllllsllsllcaaclslswwrABwwlDlsssslsllDDDDDDDDDDDDD",
"DDDDDDDDDDDDDDllllllllllshaa#ssppsssslsllsslsslslDDDDDDDDDDDDDDD",
"DDDDDDDDDDDDDDDDlllllllllhaaclspssslspsssssslsslDDDDDDDDDDDDDDDD",
"DDDDDDDDDDDDDDDDDllllllslladchlslslsppslslslslDDDDDDDDDDDDDDDDDD",
"DDDDDDDDDDDDDDDDDDDlllllll#iipslslsslslssslsDDDDDDDDDDDDDDDDDDDD",
"DDDDDDDDDDDDDDDDDDDDDlllllmijlpplsllspslllDDDDDDDDDDDDDDDDDDDDDD",
"DDDDDDDDDDDDDDDDDDDDDDDDlllllpllslsllllDDDDDDDDDDDDDDDDDDDDDDDDD",
"DDDDDDDDDDDDDDDDDDDDDDDDDDDDlDllDDDDDDDDDDDDDDDDDDDDDDDDDDDDDDDD",
"DDDDDDDDDDDDDDDDDDDDDDDDDDDDDDDDDDDDDDDDDDDDDDDDDDDDDDDDDDDDDDDD",
"DDDDDDDDDDDDDDDDDDDDDDDDDDDDDDDDDDDDDDDDDDDDDDDDDDDDDDDDDDDDDDDD",
"DDDDDDDDDDDDDDDDDDDDDDDDDDDDDDDDDDDDDDDDDDDDDDDDDDDDDDDDDDDDDDDD",
"DDDDDDDDDDDDDDDDDDDDDDDDDDDDDDDDDDDDDDDDDDDDDDDDDDDDDDDDDDDDDDDD",
"DDDDDDDDDDDDDDDDDDDDDDDDDDDDDDDDDDDDDDDDDDDDDDDDDDDDDDDDDDDDDDDD"
};
