/* XPM */
static char *t1stat002[] = {
/* width height num_colors chars_per_pixel */
"    64    64       32            1",
/* colors */
". c #ffffff",
"# c #a54a21",
"a c #cebd6b",
"b c #6b6b39",
"c c #848c4a",
"d c #6b7b42",
"e c #4a6b42",
"f c #295229",
"g c #00b518",
"h c #4a7352",
"i c #008418",
"j c #6b9c7b",
"k c #317b4a",
"l c #a5e7bd",
"m c #216339",
"n c #004218",
"o c #005a21",
"p c #638c73",
"q c #9cdeb5",
"r c #5a846b",
"s c #005221",
"t c #7bb594",
"u c #005a29",
"v c #b5f7d6",
"w c #8ccead",
"x c #31d6c6",
"y c #31a59c",
"z c #298c84",
"A c #42ffef",
"B c #007b9c",
"C c #00adde",
"D c None",
/* pixels */
"DDDDDDDDDDDDDDDDDDDDDDDDDDDDDDDDDDDDDDDDDDDDDDDDDDDDDDDDDDDDDDDD",
"DDDDDDDDDDDDDDDDDDDDDDDDDDDDDnnnDDDDDDDDDDDDDDDDDDDDDDDDDDDDDDDD",
"DDDDDDDDDDDDDDDDDDDDDDDDnnnuussuuuusnnnDDDDDDDDDDDDDDDDDDDDDDDDD",
"DDDDDDDDDDDDDDDDDDDDDnsuuuuuuuuuuususunusnDDDDDDDDDDDDDDDDDDDDDD",
"DDDDDDDDDDDDDDDDDDDsuuuuuuuuouususususussssnDDDDDDDDDDDDDDDDDDDD",
"DDDDDDDDDDDDDDDDDsuuuuuuuuuuuuuuuuusususssnusnDDDDDDDDDDDDDDDDDD",
"DDDDDDDDDDDDDDDDuuuuuuuuuuuuuuuusuuuCCCCBBunsnsnDDDDDDDDDDDDDDDD",
"DDDDDDDDDDDDDDnuuuuuuuuuuuuuususukCCCCCCCCCCBnsnnDDDDDDDDDDDDDDD",
"DDDDDDDDDDDDDsuuuuuuuuuuuuuuuuuuuCCACCCCCCCCCBBnnsDDDDDDDDDDDDDD",
"DDDDDDDDDDDDsuuuuuuuuuuuuuuuuuuuBACCACCCCCCCCBBBunsDDDDDDDDDDDDD",
"DDDDDDDDDDnuuuuuuuuuuuumumuuuuuuCCACCCCCCCCBCCCBBunnnDDDDDDDDDDD",
"DDDDDDDDDDsuuuuuuuuukywtjjrkkuukCCACACCCCCCCCCBBCBunnDDDDDDDDDDD",
"DDDDDDDDDsuuuuuuukkwlqqllwwwttrzCCAACCCCCCCCBBCBBBBunnDDDDDDDDDD",
"DDDDDDDDnuuuuuuktllllllllwtttjjyCCCAAACCCCCCCCBCBBBBnnnDDDDDDDDD",
"DDDDDDDDuuuuuumwlllvvvvllqwtjjrpCCCAAACCCCCBCBCBBBBBBnnnDDDDDDDD",
"DDDDDDDsuuuuuutlllvvvvvvllttjpkrzCCCAxCCCCCCBCBBBBBBBunnDDDDDDDD",
"DDDDDDnuuuuu#clllvvv..vvvvqtjkrkzBCCCCCCCCBCBBCBBBBBuBnnnDDDDDDD",
"DDDDDDuuuuuf#vAllvvvvvvvvvqttpkkkzBCCCCCCCCBCBBBBBBBBnnnnDDDDDDD",
"DDDDDnuuuuuuwAAllvv..vvvvvltjjkkmkBBBCCCCBBCBCBBBBBBBBBnnnDDDDDD",
"DDDDDuuouuozAAAllvvvvvvvvlqtjlqakmmBBBBBBBCBBBBBBBBuBnnnnnDDDDDD",
"DDDDDuuuuuuyAAvllvvvvvlvlqtjq.aammkrBBBBCBBBBBBBBBuBnBnnnnnDDDDD",
"DDDDnuususuAAAAvqqllqtwtttjjaa.admaakBBBBBBBBBBBBBBBnnBnnnnDDDDD",
"DDDDussuuusAAAAvqqqqttjppkzkhaaaccaaamuBuBBBBBuBuBnnBnnnnnnDDDDD",
"DDDnsuususuAAvAvqwwwtpllkkkkka.aaaaaccmnuuuuuuBuBnnBnnnnnnnnDDDD",
"DDDnnusususAAAvvvqwttjjakkmuiaaaaaaccbemnBnBnBnnnBnnnBnnnnnDDDDD",
"DDDsusususuAvwqvvlwttjrahhmumcaaaaccdeffemnnnnBnnnBnnnnnnnnnDDDD",
"DDDssusususxtwqvvvwttjhjacajkhaaaacdefffktwjBnnnBnnnBnnunnnnDDDD",
"DDDsusususuwttwq.vwttjrkdcccccaaacdbfffejtwvvrzznnBnnnunnnnnnDDD",
"DDDssusususptttwlvlttjjkeeeddccacdeffffpjttvvlttpmnnununnnnnDDDD",
"DDDsssussusuc#wtqvlwtjjjkfffmebcdbfffbcrpjtqvvttjhnuunununnnnDDD",
"DDDsnunssssf##tttqltttjjphbfffecbffffbcccapjllwtjrunuuunnnnnDDDD",
"DDDsunuuununfejttwwwttjjjrhacbdccacbffebbbcctlwttrfununnunnuDDDD",
"DDDsogmefunufpjttwAAwtjtjprcacbaaaaffffffbbbwwtttphnuununnnnDDDD",
"DDDsggecccddekjjwAAAAtjjjjprhbfcaaacfffffffpwwqttjhnununnnnunDDD",
"DDDniideeddcccptAAAAAxttjjjprhfcaaacmmmmfejtwwwtjjhmuunununnDDDD",
"DDDnsfefffffeerxAAAAAAxjjjjjprreaaaamkkkkhttwwtttjhmnnununnnDDDD",
"DDDDssnssfffffkAAAAAAAAqjjjpjprraaaaekzkzktwttttjphfnununnunDDDD",
"DDDDnssnsnssssszAAAAAAAAwpjppjprrpjadrjjrjttwtttjrkfnunununnDDDD",
"DDDDnnnnnnsnsssozxAAAAAAAypjppppprrrpttttjttttjjrrknunununuDDDDD",
"DDDDnnnununnussssxxAAAAAApprrprrrrrrprpjjjjjjjjrrhffnununnnDDDDD",
"DDDDnnnnnnnununusnyxAAAAtrrrrrrrrrrrrrpprpjjjprheffnnuununnDDDDD",
"DDDDDnnnnnnnunussuuyxxAxhhrhrhrrhrhrhrrrrrrrhrhhkfmmnununnDDDDDD",
"DDDDDnnnnnunnussuuuuyxxhhhhhhhhhhhhrhhhhhhhhhehkfDzuusuunnDDDDDD",
"DDDDDDnnnnnununsssuuuykkkhkhhhhhhhhhhhhhhhhekkfffzznunsnuDDDDDDD",
"DDDDDDDnnnnnnnunuusuuunffmmmkkkhkzxyzhkkkkfffDfmmBnuuusnnDDDDDDD",
"DDDDDDDnnnnnununnunuuuunmDDDfkfkkyxxyyzzkkfmffmDBmununuunDDDDDDD",
"DDDDDDDDnnnnnnnuunuunuununnnmmfffyyyxyyyBzfDfDmfmuuusunnDDDDDDDD",
"DDDDDDDDnnnnnnunnsunsuuuufcbfDmfByyyzyyyyfmfmmfnuusnunnDDDDDDDDD",
"DDDDDDDDDnnnnnnnunusununumaabmmzyyyyyyByzzmffDmnuusunnDDDDDDDDDD",
"DDDDDDDDDDnnnnnnnnnunususuaacnnmzByByyyyzD##DmnuunusuDDDDDDDDDDD",
"DDDDDDDDDDDnnnnnnunnunununcaamuunnukmBzunnfDuuunuunuDDDDDDDDDDDD",
"DDDDDDDDDDDDnnnnnnnunnununcaafnusssuusnuuunuunuuusuDDDDDDDDDDDDD",
"DDDDDDDDDDDDDnnnnnnnnunnuneaabnuususussuuuuusuunsnnDDDDDDDDDDDDD",
"DDDDDDDDDDDDDDDnnnnnnnnunufaabnunussussssususssunDDDDDDDDDDDDDDD",
"DDDDDDDDDDDDDDDDnnnnnnnnnnnaacunusssssuusssununDDDDDDDDDDDDDDDDD",
"DDDDDDDDDDDDDDDDDDnnnnnnnuncbffusssssussssununDDDDDDDDDDDDDDDDDD",
"DDDDDDDDDDDDDDDDDDDnnnnnunnnggonsnusunununsnDDDDDDDDDDDDDDDDDDDD",
"DDDDDDDDDDDDDDDDDDDDDDnnnnnnginssnnunununDDDDDDDDDDDDDDDDDDDDDDD",
"DDDDDDDDDDDDDDDDDDDDDDDDDnnnnnsnununnnDDDDDDDDDDDDDDDDDDDDDDDDDD",
"DDDDDDDDDDDDDDDDDDDDDDDDDDDDnDDDDDDDDDDDDDDDDDDDDDDDDDDDDDDDDDDD",
"DDDDDDDDDDDDDDDDDDDDDDDDDDDDDDDDDDDDDDDDDDDDDDDDDDDDDDDDDDDDDDDD",
"DDDDDDDDDDDDDDDDDDDDDDDDDDDDDDDDDDDDDDDDDDDDDDDDDDDDDDDDDDDDDDDD",
"DDDDDDDDDDDDDDDDDDDDDDDDDDDDDDDDDDDDDDDDDDDDDDDDDDDDDDDDDDDDDDDD",
"DDDDDDDDDDDDDDDDDDDDDDDDDDDDDDDDDDDDDDDDDDDDDDDDDDDDDDDDDDDDDDDD"
};
