/* XPM */
static char *t1stat009[] = {
/* width height num_colors chars_per_pixel */
"    64    64       32            1",
/* colors */
". c #ffffff",
"# c #9c2110",
"a c #bdad63",
"b c #efe7a5",
"c c #737b42",
"d c #637339",
"e c #6b8452",
"f c #295229",
"g c #218421",
"h c #00a508",
"i c #6b9473",
"j c #007318",
"k c #317342",
"l c #a5e7bd",
"m c #005a21",
"n c #bdffd6",
"o c #9cdeb5",
"p c #297b4a",
"q c #005221",
"r c #6ba584",
"s c #296342",
"t c #005a29",
"u c #84b59c",
"v c #004221",
"w c #8cd6b5",
"x c #529c7b",
"y c #527b6b",
"z c #39f7e7",
"A c #299c9c",
"B c #007b9c",
"C c #00ade7",
"D c None",
/* pixels */
"DDDDDDDDDDDDDDDDDDDDDDDDDDDDDDDDDDDDDDDDDDDDDDDDDDDDDDDDDDDDDDDD",
"DDDDDDDDDDDDDDDDDDDDDDDDDDvvvttqvvDvDDDDDDDDDDDDDDDDDDDDDDDDDDDD",
"DDDDDDDDDDDDDDDDDDDDDDvvttqmtmttqmtvmqvvDDDDDDDDDDDDDDDDDDDDDDDD",
"DDDDDDDDDDDDDDDDDDDDvttttttttttttttqtqqqmvvDDDDDDDDDDDDDDDDDDDDD",
"DDDDDDDDDDDDDDDDDDqtttttttttmtttqtqtqtqqqqvvvDDDDDDDDDDDDDDDDDDD",
"DDDDDDDDDDDDDDDDqttttttttttttqttttttqtvtvqqvvvvDDDDDDDDDDDDDDDDD",
"DDDDDDDDDDDDDDDtttttttttttttttqttqttBBBBBqqqqvvvDDDDDDDDDDDDDDDD",
"DDDDDDDDDDDDDvttttttttttttttttttttjCCCCCCCBtvqvvqDDDDDDDDDDDDDDD",
"DDDDDDDDDDDDvmtttttttttttttttmtqqCCCCCCCCCCCCttvvvvDDDDDDDDDDDDD",
"DDDDDDDDDDDvmtttttttttttttttttttCCzCCCCCCCCCCBBttvvvDDDDDDDDDDDD",
"DDDDDDDDDDvttttttttttjspjksttttmCCCzCCCCCCCCBCCBtvvvvDDDDDDDDDDD",
"DDDDDDDDDvttttttttttppppppjkstmBzCzCCCCCCCCBCCBBBtvvvDDDDDDDDDDD",
"DDDDDDDDDtttttttttpyxwlnluuxpttBCCzCCCCCCCCCBBCBBBtvvvDDDDDDDDDD",
"DDDDDDDDttttttttpwlnnnnnnnwwuuxACCzzzCCCCCBCCBBCBBBtvvvDDDDDDDDD",
"DDDDDDDvtttttttrlnnnn.n.nnlwurrACCzzzCCCCCCCBCCBBBBBvvvDDDDDDDDD",
"DDDDDDDmttttttrllln.n..nnnlurrrACCzzzCCCCCCBCBBBBBBBtvvvDDDDDDDD",
"DDDDDDtttttt#illlnnn.nnnnnwurxyxCCCzzzCCCBCBCBCBBBBBtvvvvDDDDDDD",
"DDDDDvmtttmfazlllnnn.nnnnlwuxyppACCCCCCCCCBCBBBBBBBBBvvvvDDDDDDD",
"DDDDDqtttttyzzzlllnnnnnnnlwuxykkpBCCCCCCCCBCBCBBBBBtBtvvvvDDDDDD",
"DDDDDttttmtzznlllllnnlnlnouryykssBBBACBCBBCBBBBBBBtBBvvvvvDDDDDD",
"DDDDvmtqttAznzoowooowwol.orxypkssspBCBCBCBBBBBBBBBBvvvvvvvDDDDDD",
"DDDDqtttqqAzzzlwwwwurrubbbuypkssssitBBBBBCBBBBBBBtBBBvvvvvvDDDDD",
"DDDDqtqtmmzznzlwwuurxiubbbaikssstaautBBBBBBBBBBtBBvvvvvvvvvDDDDD",
"DDDvtqtqtjwzzllouuuripiaabbakssseaaaytttBBBBBBtBBvvBvBvvvvvDDDDD",
"DDDqqtqtqtzzolnluuuxykkeaaaaastkabaacytBttttttBvvvBvvvvvvvvDDDDD",
"DDDtqqqtqtzoolnlwurryktkeaaaaakaaaaccdfvvBvBvvvvBvvvvvvtvvvvDDDD",
"DDvqtvttqpuuuonnouurxptttpaaaaaaaaccdffsssvvvvBvvvvvvtvvvvvvDDDD",
"DDDvvtqvttuuwwnnlurrikttttceaabaaecdfffsrwxyBvvvvBvvtvtvvvvvDDDD",
"DDvvmqtqqtrruulnnwurxysttttcaaaaecdffffirulnuyystvvttvvvvvvvDDDD",
"DDDqvqvtvqtvruonnwrrripstttkabaccdffffyirrunnwurytttvtvvvvvvDDDD",
"DDDvqqqqqvvvuuulnouurxiktmkaaaeccfffffsyruunnourystttvqvvvvvDDDD",
"DDDqqqvtvqvkruuulluurrxypaaaacdfdfffttsyiuuunluuiytvvvqvvvvvDDDD",
"DDDqvqqvqqvyruuuuoourrriyaaedffffdcacttpiruulouuryfvqqvvqvvvDDDD",
"DDDqvvqqvqqtirzwuuuuurrxypedffffdeaaacstiuuuuouuiyftvqqvvvvvDDDD",
"DDDvvqvqvvqvxwzzuruuurrriyysfdfffceaaacsyruuouuurysqqvqvqvvvDDDD",
"DDDvqvvvvqvqAzzzzurrrrrrixyydffffdcaaaaepruuouuurisvqqvqvvqDDDDD",
"DDDvvvqvqvvqkzzzzzrrrrrrriiiysffskkceaaceruuuouurisftvqvqvvDDDDD",
"DDDDvvvvvqvvqAzzzzzirrrririxiiysjpydcaaaaeuuuuuriysfvqqvqvqDDDDD",
"DDDDvvvvvvvqvmAzzzzuriririiiiyyyypxrcccaaauuuuuriysvqvqqvvvDDDDD",
"DDDDvvvvvvvqvttwzzzzxiiiixixyiiyyyxrwecaaauuuuriyyffvtvqvqDDDDDD",
"DDDDDvvvvvqvqqttzzzzzrxxyiyiiyyiyiyyyieiirrrriiiysfvtvqvqvDDDDDD",
"DDDDDvvvvvvvvvtttzzzzxyyiyiyyiyyyyiyiyiiiiriiiyeysfvvqqqvvDDDDDD",
"DDDDDDvvvvvqvqvsarzzxyyyyyyyyyyyyyyyyiyyyiyyyyyssffttqvqvDDDDDDD",
"DDDDDDvvvvvvvvsaacAksykykyyyyyyyyyyyyyyyyyyeyessffvvvvqvvDDDDDDD",
"DDDDDDDvvvvvfaaadfffssssyskkykyykysesesysesssssffDfvtqqvDDDDDDDD",
"DDDDDDDDvvvqeacffvvvvffDDsyssyszzAxsysyssssssffffsvtvqvDDDDDDDDD",
"DDDDDDDDDvjggdffvvvttvvvvfssssxAzAzCyssssssfffsDsttvqvvDDDDDDDDD",
"DDDDDDDDDvjhhgfvvqqvvtvDffffssACAzAAAAysfffDffDssvttvvDDDDDDDDDD",
"DDDDDDDDDDvjgfvvvvvqqvqtvffffsAAAAAAAAAsfffffDstvttvvDDDDDDDDDDD",
"DDDDDDDDDDDvvvvvvqvvqqvqtvvsAAAAAAAAAAAssDfDsstttvvqDDDDDDDDDDDD",
"DDDDDDDDDDDDvvvvvvqvvvqvvtvvsBpAAAAAAABff#fsfvvttqvvDDDDDDDDDDDD",
"DDDDDDDDDDDDDDvvvvvvvqvqvvttqvttppAAApff##vvvvttvvDDDDDDDDDDDDDD",
"DDDDDDDDDDDDDDvvvvvvvvvvqvvvvqvvtttseegjDvvvtttvvDDDDDDDDDDDDDDD",
"DDDDDDDDDDDDDDDDvvvvvvvvvqvqvqqqtvtvfghjftttvvvvDDDDDDDDDDDDDDDD",
"DDDDDDDDDDDDDDDDDDvvvvvqvvvvqvqvvqvtvtqvqvvvqvDDDDDDDDDDDDDDDDDD",
"DDDDDDDDDDDDDDDDDDDvvvvvvqvqvqvqqvtvqqvqqqqvDDDDDDDDDDDDDDDDDDDD",
"DDDDDDDDDDDDDDDDDDDDDDqvvvvvvqvqvqqvqqvqvDDDDDDDDDDDDDDDDDDDDDDD",
"DDDDDDDDDDDDDDDDDDDDDDDDvvvvvvvqvvqvvvvDDDDDDDDDDDDDDDDDDDDDDDDD",
"DDDDDDDDDDDDDDDDDDDDDDDDDDDDDDvDvvDDDDDDDDDDDDDDDDDDDDDDDDDDDDDD",
"DDDDDDDDDDDDDDDDDDDDDDDDDDDDDDDDDDDDDDDDDDDDDDDDDDDDDDDDDDDDDDDD",
"DDDDDDDDDDDDDDDDDDDDDDDDDDDDDDDDDDDDDDDDDDDDDDDDDDDDDDDDDDDDDDDD",
"DDDDDDDDDDDDDDDDDDDDDDDDDDDDDDDDDDDDDDDDDDDDDDDDDDDDDDDDDDDDDDDD",
"DDDDDDDDDDDDDDDDDDDDDDDDDDDDDDDDDDDDDDDDDDDDDDDDDDDDDDDDDDDDDDDD",
"DDDDDDDDDDDDDDDDDDDDDDDDDDDDDDDDDDDDDDDDDDDDDDDDDDDDDDDDDDDDDDDD"
};
