/* XPM */
static char *t1stat016[] = {
/* width height num_colors chars_per_pixel */
"    64    64       32            1",
/* colors */
". c #ffffff",
"# c #8c3118",
"a c #c6bd6b",
"b c #d6ce73",
"c c #9c9c5a",
"d c #4a5a31",
"e c #315229",
"f c #00bd08",
"g c #009418",
"h c #6b9473",
"i c #4a6b52",
"j c #42634a",
"k c #5a8c6b",
"l c #184a29",
"m c #94d6ad",
"n c #b5efce",
"o c #5a9473",
"p c #003918",
"q c #428c63",
"r c #004a21",
"s c #005a29",
"t c #84b59c",
"u c #9cdebd",
"v c #8ccead",
"w c #52846b",
"x c #6bad8c",
"y c #42946b",
"z c #18734a",
"A c #31d6ef",
"B c #007384",
"C c #009cbd",
"D c None",
/* pixels */
"DDDDDDDDDDDDDDDDDDDDDDDDDDDDDDDDDDDDDDDDDDDDDDDDDDDDDDDDDDDDDDDD",
"DDDDDDDDDDDDDDDDDDDDDDDDDDDDDpDpDDDDDDDDDDDDDDDDDDDDDDDDDDDDDDDD",
"DDDDDDDDDDDDDDDDDDDDDDDDDprssssrsssrrppDDDDDDDDDDDDDDDDDDDDDDDDD",
"DDDDDDDDDDDDDDDDDDDDDrrsssssssssssrssrrsrpDDDDDDDDDDDDDDDDDDDDDD",
"DDDDDDDDDDDDDDDDDDDpsssssssssssssrssrsrrrrsrpDDDDDDDDDDDDDDDDDDD",
"DDDDDDDDDDDDDDDDDDrsssssssssssssssrzCCCCBBrrrrDDDDDDDDDDDDDDDDDD",
"DDDDDDDDDDDDDDDDrssssssssssssssrszCAAACACCCBrrrpDDDDDDDDDDDDDDDD",
"DDDDDDDDDDDDDDDsssssssssssssssssCAAAAAACACCCCzrrrDDDDDDDDDDDDDDD",
"DDDDDDDDDDDDDrssssssssssssssssrsAAAAACCACCCCCCBsrrpDDDDDDDDDDDDD",
"DDDDDDDDDDDDpssssssssssssssssssrAAAAAACCACCCCCCBsrppDDDDDDDDDDDD",
"DDDDDDDDDDDpssssssssszzzyszssssBAAAAACAACCCCCCCCBrrppDDDDDDDDDDD",
"DDDDDDDDDDpssssszoxvvvmmvvtoqssBAAAACAACCACCCCCBCBrrppDDDDDDDDDD",
"DDDDDDDDDprsssszmmvvvvtvtttxxxyCAAAAAACCACCCCCCCBBBpppDDDDDDDDDD",
"DDDDDDDDDssse#xumvvvvvvvvttxxxhCCAAAAAACCCCCCCCBCBBBpppDDDDDDDDD",
"DDDDDDDDssssdmuvvvtvmmmmvvtxxoooCAAAAACACCCCCCCCCBBBrrppDDDDDDDD",
"DDDDDDDpssszvummvvvvvunnnuvxxowoCCAAAAACCCCCCCCBBBBBsrpppDDDDDDD",
"DDDDDDDssssAvuuvvmmuunnnnnutxyqqBCCCAACCCCCCCCBCBCBBBprppDDDDDDD",
"DDDDDDpssssAuumvvvmuunnnnnnvxkqqiCCCCACCCCCCCCCBBBBBrrrpppDDDDDD",
"DDDDDDrsssynummvvvmmnnnnnnuvxoiziiCCCCCCCCCCBCBCBBBBBrrrppDDDDDD",
"DDDDDDssssCnmmmvvvvvvnnnnnutxwobczBBCCCCCCCCCCBBBBBBBrrprpDDDDDD",
"DDDDDpssrsAvuumvvvvtvunnnmvxotbbawazBCCCCCCBBBBBBBBppprrpppDDDDD",
"DDDDprsssynvuuuvvttxxxxxxxooqb.baaacBBBBBBBCBBBBBBBBpBprrppDDDDD",
"DDDDpsrsszvvvnnmtvtxhvyooyqqzcbbabaairBBBBBBBBBBBpBppprrrrppDDDD",
"DDDDprsssyvvmnnmvttxybbvhhzzztbbbacccilrsBBBBBBBpBppBrrrrpppDDDD",
"DDDDrsrsroxvvnnnttxxqccaacksskbbbccideezBprrprppBppBpprrrpppDDDD",
"DDDDsrsrsrpxvu.nvxxxwqkccccakcbbaccdddeejBlBpBrppBppBprrrrpppDDD",
"DDDprsrsrpptvmnnmtxxoqddwhhccabcccddeeekxuxiBppBppBprrrrrprpDDDD",
"DDDprrsrsrqttvnnnttxokzeeddddcacciddeeihtmnnmoBllrrrrrrrrrrppDDD",
"DDDprrrsrroxtuAAnvtxxowcheeddcccddeeejoxxtu.uttozrsrssrrrppppDDD",
"DDDprgglsrzxvAAAAntxxhykbcdddaciddeedckhxtmnntthjssrrrrrrrrpDDDD",
"DDDpsffcckwtAAAnAnttxxoqcabaccccceeecicccctmmttxossssrrrrprrpDDD",
"DDDprggidccvAAAAAAvtxxhoqhaackabaceddddicccmmmtxojsrrrrrrrrppDDD",
"DDDprslddddAAnAAnAAtxhxookccicabaceeeddddictmmtxhjrsrsrrrrrppDDD",
"DDDpprrrsleqAAAAAAnAxxhxhowkddbbbclsleedddimmttxhjlrrrrrrrrppDDD",
"DDDDrrrrrsrsqAAAAAAAtxxhhookidbbacezszleedttmmcxojlsrrrrrrrrDDDD",
"DDDDrrrrrrrrsAAAAnAAxhhhxhhokwhbbcezzzqzqtmmmtvxhjlrsrrrrrrppDDD",
"DDDDrrrrrrrrrsAAAAAtxxhxooooookhccdzqqqyottttthhkjlsrrrrrrrrDDDD",
"DDDDprprrrrrrsqAAAvooooohhohoooookkqyxxxxttttxhhijlrrrrrrrrpDDDD",
"DDDDprrrrprrrrstAAyooooooooookoohkkooxxxxhxxhhhkjllrsrrrrrppDDDD",
"DDDDDpprprrrrrssAqwwwkkooooookkkkkokooohhhhhhhoijllsrrrrrrrDDDDD",
"DDDDDprrrrprrrrsseiiiiwwikkwikkkwkkkkkkohhhkiiijlllrsrrrrrpDDDDD",
"DDDDDDprprrrrrrrsslid#diwiiwoxjwiiiwikiiwiwiijjlllprrrsrrrDDDDDD",
"DDDDDDprprprrrrrrsse##dijqiiAAAyiiiiiiiiiiijjelljlsssrrrrrDDDDDD",
"DDDDDDpppprrrrrrrrsrl#ejjjjyAAAAACjjjjjjjjjjllljCDrrrrrrrpDDDDDD",
"DDDDDDDpprprrrrrrrrsrrlljzjAAvAAAvAyyjjlllllljBCjpssrrrrpDDDDDDD",
"DDDDDDDDpprprrrrrrrrssrllzCtCCxCtCCACllelllljCyBsrsrrsrrDDDDDDDD",
"DDDDDDDDppprprrrrrrrrsrckBxCCxCxCxCyylllllllyCysssrsrrrpDDDDDDDD",
"DDDDDDDDDppprrrrrrrrrrrcbczyyCxCxCxCllllllljBsrsrrsrrrrDDDDDDDDD",
"DDDDDDDDDDppprprrrrrrrscbcrssBCxCBCqlld#llllsssssrrrrrDDDDDDDDDD",
"DDDDDDDDDDDppprrrrrrrrrcbclrssrzqylll##DllprsssrssrrrpDDDDDDDDDD",
"DDDDDDDDDDDpppprprrrrrscaclsrrrrsssrppplprssrsrsrrrsDDDDDDDDDDDD",
"DDDDDDDDDDDDDpppprprrrrcaclrrrsrrsrrslrlsssrssrsrrsDDDDDDDDDDDDD",
"DDDDDDDDDDDDDDpprprrrrrcbcprrrrrrrsssrsrsrssrrrrrrDDDDDDDDDDDDDD",
"DDDDDDDDDDDDDDDppppprprcacprrrrsrrrrsrsrssrssrsrpDDDDDDDDDDDDDDD",
"DDDDDDDDDDDDDDDDDprpprpdd#lrrrrrrrrrrsrrrsrrrrrrDDDDDDDDDDDDDDDD",
"DDDDDDDDDDDDDDDDDDpprprgfgrrrrrrrsrsrrrsrrrrrpDDDDDDDDDDDDDDDDDD",
"DDDDDDDDDDDDDDDDDDDDpppsfsrrrrrrrrrrrrsrrrppDDDDDDDDDDDDDDDDDDDD",
"DDDDDDDDDDDDDDDDDDDDDDDpprprrrrrrrrrrrrrpDDDDDDDDDDDDDDDDDDDDDDD",
"DDDDDDDDDDDDDDDDDDDDDDDDDDDppprrrrppppDDDDDDDDDDDDDDDDDDDDDDDDDD",
"DDDDDDDDDDDDDDDDDDDDDDDDDDDDDDDDDDDDDDDDDDDDDDDDDDDDDDDDDDDDDDDD",
"DDDDDDDDDDDDDDDDDDDDDDDDDDDDDDDDDDDDDDDDDDDDDDDDDDDDDDDDDDDDDDDD",
"DDDDDDDDDDDDDDDDDDDDDDDDDDDDDDDDDDDDDDDDDDDDDDDDDDDDDDDDDDDDDDDD",
"DDDDDDDDDDDDDDDDDDDDDDDDDDDDDDDDDDDDDDDDDDDDDDDDDDDDDDDDDDDDDDDD",
"DDDDDDDDDDDDDDDDDDDDDDDDDDDDDDDDDDDDDDDDDDDDDDDDDDDDDDDDDDDDDDDD"
};
