/* XPM */
static char *t1stat001[] = {
/* width height num_colors chars_per_pixel */
"    64    64       32            1",
/* colors */
". c #ffffff",
"# c #944218",
"a c #ceb56b",
"b c #efef9c",
"c c #8c9452",
"d c #848c4a",
"e c #737b42",
"f c #295229",
"g c #00d610",
"h c #006310",
"i c #396342",
"j c #6b9c7b",
"k c #a5e7bd",
"l c #005a21",
"m c #638c73",
"n c #94d6ad",
"o c #005221",
"p c #c6ffde",
"q c #528c6b",
"r c #397352",
"s c #adf7ce",
"t c #318c5a",
"u c #005a29",
"v c #7bad94",
"w c #9cdebd",
"x c #004221",
"y c #42ffef",
"z c #31dece",
"A c #29ada5",
"B c #007b9c",
"C c #00ade7",
"D c None",
/* pixels */
"DDDDDDDDDDDDDDDDDDDDDDDDDDDDDDDDDDDDDDDDDDDDDDDDDDDDDDDDDDDDDDDD",
"DDDDDDDDDDDDDDDDDDDDDDDDDDDDDDDxxDDDDDDDDDDDDDDDDDDDDDDDDDDDDDDD",
"DDDDDDDDDDDDDDDDDDDDDDDDDxxxuulxouuoxxDDDDDDDDDDDDDDDDDDDDDDDDDD",
"DDDDDDDDDDDDDDDDDDDDDDxuuuluuuuuuuluoouuoxDDDDDDDDDDDDDDDDDDDDDD",
"DDDDDDDDDDDDDDDDDDDxxuuuuuuuuuluouuouooooooxDDDDDDDDDDDDDDDDDDDD",
"DDDDDDDDDDDDDDDDDDuuuuuuuuuuuuuuuououuoouxoouxDDDDDDDDDDDDDDDDDD",
"DDDDDDDDDDDDDDDDouuuuuuuuuuuuuuouuuuCCCCCBBxxxxxDDDDDDDDDDDDDDDD",
"DDDDDDDDDDDDDDxuuuuuuuuuuuuuluouuuCCCCCCCCCCBuxxxDDDDDDDDDDDDDDD",
"DDDDDDDDDDDDDxluuuuuuuuuuuuuuuuuuCCyCCCCCCCCCCBuxxxDDDDDDDDDDDDD",
"DDDDDDDDDDDDxuuuuuuuuuuuuuuuuuouCCyCCCCCCCCBCBBBuuxDDDDDDDDDDDDD",
"DDDDDDDDDDDouuuuuuuuuuuuuuuuuuuhCCCCyCCCCCCCBCCCBuxxDDDDDDDDDDDD",
"DDDDDDDDDDouuuuuuuuitvnwnnjttiuuCCyyCCCCCCCCCCBBBBuxoDDDDDDDDDDD",
"DDDDDDDDDxuuuuuutzvnnnwwwnnvvvvtCCyyCCCCCCCBCBCBBBBuxxDDDDDDDDDD",
"DDDDDDDDDuuuuuuAykwwwwwwwnvvvjjACCCyyyCCCCCCBCBCBBBBxxxDDDDDDDDD",
"DDDDDDDDouuuuutywwwwkssswnnvjjmqCCCyyzCCCCBCCBBBBBBBuxxxDDDDDDDD",
"DDDDDDDxuuuuutysknwssppssnnvqqqtACCzyzCCCCCCBCBCBBBBBuxxDDDDDDDD",
"DDDDDDDuluuuuzwwwwkspppsssnvjqtrtCCCCCCCCBCBCBBBBBBBuBxxxDDDDDDD",
"DDDDDDuuuuuunwwwwksspsspsskvjqrriBACCCCCCCBCBBBBBBBBBxxxxDDDDDDD",
"DDDDDxuluuuqnwwwwkspppsspsspvqrriiBBBCCCBBCBBCBBBBBBuBxxxxDDDDDD",
"DDDDDxouullnwnwwkksppsspsp..bqtriirBBBBBBCBBBBBBBBBuBxxxxxDDDDDD",
"DDDDDoouuufvnwwkwkkskksss..bbcriiutrBBBBCBBBBBBBBuBBxBxxxxDDDDDD",
"DDDDDuuuou#cnwkwnwwwnnnnvbb.bariiraarBBBBBBBBBBBBBxBxxxxxxxDDDDD",
"DDDDxouuuf#mnnsswnnnnvjjjjbbbbciiaaaciuuuBBBBBBuuxBxxxxxxxxDDDDD",
"DDDDoououoxnnyysnnnnvjttttcbbaaijaaacefuBuuuuuxBxBxxxBxxxxxDDDDD",
"DDDDuuouuornyyypsnvvvjtttitcabaaaaaceiifxxBxxBxxxxxxBxxxxxxxDDDD",
"DDDxxououoryyyyypnnvvqruuuutaaaaaaceeifiiqxuxxxBxxBxxxxuxxxxDDDD",
"DDDoouououtyyyyypwnvvjtuiuuucaaaacdeffffqvwvxBxxxxxxxxuxxxxxDDDD",
"DDDoxuoxuoryyyyyysvvvjqiuuuutaaacdeifffdamnpsvrqBuxuxuxxxxxxDDDD",
"DDDoouxuouxzypyyypnvvjqtcaaaaacadeifffieeecppnvvqxuuuxuxxxxxxDDD",
"DDDxooouxooAyyyyyswvvvjqqddeeeeeeiffffffffmkpkvvjrxuuxxoxxxxDDDD",
"DDDxoxooooliyyyyyznnvvjjqiiifffiiffffffffivnkkvvjquuxooxxxxxxDDD",
"DDDxoooxoxoozyyynnnnvjvjmqiffffffecdifffevvvnnnvjqfuooxoxxxxDDDD",
"DDDxxoxoouxoiyywvvvvvvvjjqqieeifdaaaeuuuqjvnnnvvvmfxuxoxxoxxxDDD",
"DDDxxooxoxooozzjjvvvvvjjjjqqeiffdaaaciuuijvnnnnvjmixuxooxxxxDDDD",
"DDDxoxxoxoxxoAjjjjjvjvvjjjjmqefffaaaacurujvvnnvvvjruolxxoxxoDDDD",
"DDDxxxoxooxooutqjjjjjjjjjjmjmmrecdaaaaqttmvnnnvvjmrfuxooxxxxDDDD",
"DDDDxxxoxxoxoufrd#mjjjjjjjjmmmmqeicaaadttqvnvvvvjqixxoxoxoxxDDDD",
"DDDDxoxxxxxoxfie##imjjjjvqmjmmmmmmecaaadjjvvvvvjmrifxoxoxxoxDDDD",
"DDDDxxofidcccacc#fiqqqmAyzmqmmmmqmmjjcccjvvvvvjmmrfxxooxoxxxDDDD",
"DDDDDxggcddeeiiffirqqqmzyyzAmqmqqmqmmmmjjjjjjmmmrifxuooooxxDDDDD",
"DDDDDlglcffffffffuirrqAyyyyyzqqqqqqqqmmmmmmmmmrriifxuxoxxxxDDDDD",
"DDDDDxhfdffxxxoxxxuirqyyyzyzyzqqqqrqqqqqqqqrmrrifffxuxuooxDDDDDD",
"DDDDDDxxxxxxoxoouuuxtzzzzyzyzyzArrqrrrrrrrrririiffxuooxxxxDDDDDD",
"DDDDDDxxxxxxxxoxoxuuuAAAzzzzzzzyqrrrrrrrrriiiiffDfxuxooolDDDDDDD",
"DDDDDDDxxxxxooxoooxuuurAAAzzzzzzrriiiiiiiiifffDffxxuxoxxxDDDDDDD",
"DDDDDDDDxxxxxxoxouxouuuuAAAAAAztriiiiififffBrBAfxxuuooooxDDDDDDD",
"DDDDDDDDDxxxxxxoxxuxxuuuuuAAAAAffffffffffAAAAAADfuuxuoxxDDDDDDDD",
"DDDDDDDDDxxxxxoxxoxoooxuuuiBABffffxfxfDfBAAABAf#xxuooxxDDDDDDDDD",
"DDDDDDDDDxxxxxxxoxooxoouxuooxiefxDDxffffABABquuxuuxouxDDDDDDDDDD",
"DDDDDDDDDDDxxxxxxxxooxoxououofcadxDxfDfBttruuuuuxouxxDDDDDDDDDDD",
"DDDDDDDDDDDDxxxxxoxxxoxooxooxueaaixxxruuuuuuuuuouxoxxDDDDDDDDDDD",
"DDDDDDDDDDDDDxxxxxxxoxooxuoxuxfcacfuuxuxuuuuuxxuooxxDDDDDDDDDDDD",
"DDDDDDDDDDDDDDxxxxxxxxxxoxxoxoxeaaexuuuuuuxxxouxxoDDDDDDDDDDDDDD",
"DDDDDDDDDDDDDDDxxxxxxxxxxoxooxxxeaafxuxuxuouooooxDDDDDDDDDDDDDDD",
"DDDDDDDDDDDDDDDDDxxxxxxoxxoxxooxfacfoxouoxuxuxxxDDDDDDDDDDDDDDDD",
"DDDDDDDDDDDDDDDDDDDxxxxxxoxxooxoxehglouxooooxxDDDDDDDDDDDDDDDDDD",
"DDDDDDDDDDDDDDDDDDDDxxxxxxxoxxooxxggxoxooxoxDDDDDDDDDDDDDDDDDDDD",
"DDDDDDDDDDDDDDDDDDDDDDxxxxxxoxxooxxxxoxxxxDDDDDDDDDDDDDDDDDDDDDD",
"DDDDDDDDDDDDDDDDDDDDDDDDDDxxxxxxxxxxxxxDDDDDDDDDDDDDDDDDDDDDDDDD",
"DDDDDDDDDDDDDDDDDDDDDDDDDDDDDDxDDDDDDDDDDDDDDDDDDDDDDDDDDDDDDDDD",
"DDDDDDDDDDDDDDDDDDDDDDDDDDDDDDDDDDDDDDDDDDDDDDDDDDDDDDDDDDDDDDDD",
"DDDDDDDDDDDDDDDDDDDDDDDDDDDDDDDDDDDDDDDDDDDDDDDDDDDDDDDDDDDDDDDD",
"DDDDDDDDDDDDDDDDDDDDDDDDDDDDDDDDDDDDDDDDDDDDDDDDDDDDDDDDDDDDDDDD",
"DDDDDDDDDDDDDDDDDDDDDDDDDDDDDDDDDDDDDDDDDDDDDDDDDDDDDDDDDDDDDDDD"
};
