/* XPM */
static char *t1stat015[] = {
/* width height num_colors chars_per_pixel */
"    64    64       32            1",
/* colors */
". c #ffffff",
"# c #843118",
"a c #6b2108",
"b c #d6ce7b",
"c c #adad6b",
"d c #737b42",
"e c #636b39",
"f c #849452",
"g c #315229",
"h c #00b510",
"i c #007b10",
"j c #ceffde",
"k c #184a29",
"l c #42845a",
"m c #004218",
"n c #005a21",
"o c #638c73",
"p c #9cc6ad",
"q c #005221",
"r c #397352",
"s c #8cd6ad",
"t c #005a29",
"u c #adefce",
"v c #73a58c",
"w c #84c6a5",
"x c #5a8c73",
"y c #42ffe7",
"z c #29b5a5",
"A c #005252",
"B c #0084a5",
"C c #00ade7",
"D c None",
/* pixels */
"DDDDDDDDDDDDDDDDDDDDDDDDDDDDDDDDDDDDDDDDDDDDDDDDDDDDDDDDDDDDDDDD",
"DDDDDDDDDDDDDDDDDDDDDDDDDDDDDmmmmDmDDDDDDDDDDDDDDDDDDDDDDDDDDDDD",
"DDDDDDDDDDDDDDDDDDDDDDDDmqmttttqttqtqqmmDDDDDDDDDDDDDDDDDDDDDDDD",
"DDDDDDDDDDDDDDDDDDDDDqttqttttttttqtqtqtqqtDDDDDDDDDDDDDDDDDDDDDD",
"DDDDDDDDDDDDDDDDDDDqttttttttttttqtttqtqqtqqqDDDDDDDDDDDDDDDDDDDD",
"DDDDDDDDDDDDDDDDDDqttttttttttqtttqACCCCBABmqqqDDDDDDDDDDDDDDDDDD",
"DDDDDDDDDDDDDDDDqttttttttttttttttCCCCCCCCCBAqqqqDDDDDDDDDDDDDDDD",
"DDDDDDDDDDDDDDqtttttttttttttttttCCyCCCCCCCCCBAmqmmDDDDDDDDDDDDDD",
"DDDDDDDDDDDDDqtttttttttttttttttBCyCCCCCCCCCBCBBmmmmDDDDDDDDDDDDD",
"DDDDDDDDDDDDqtttttttttttttttttnBCCyCCCCCCCCCBBBBmmmmDDDDDDDDDDDD",
"DDDDDDDDDDDmtttttttttrrrrtttttnCyCCyCCCCCCCBCCBBBmmmmDDDDDDDDDDD",
"DDDDDDDDDDmtttttrzwsswwsssvxlttCCCyyCCCCCCBCCBBBBAtmmmDDDDDDDDDD",
"DDDDDDDDDmqttttryswwwwwwsswwwvxCCyyyCCCCCCCCBBBBBBAmmmDDDDDDDDDD",
"DDDDDDDDDttttryswwwwwwsssswwvvozCCyyyCCCCCBCBCBBBBBAmmmDDDDDDDDD",
"DDDDDDDDtttnrwssswwwsspuupwvvvozCCCyyyCCCCCBCBBBBBBAmmmmDDDDDDDD",
"DDDDDDDmtttlssssswwwwuuuuuswxxxxCCCyyCCCCCBCBBBBBBABAmmmDDDDDDDD",
"DDDDDDDttttsuspswwsspuuujupwvxllBzCCCyCCCBCBCBBBBBBAAmmmmDDDDDDD",
"DDDDDDmqtgepsusswwssuujuuuuwoxlllBBCCCCCCCBBBBBBBABAAAmmmmDDDDDD",
"DDDDDDttt#fupsswwwwspuuujuujjxlrrlBBCBCCBBCBCBBBBBABAAmmmmDDDDDD",
"DDDDDmqtngpsspsswwwwsuujuuj..crrrlABBBBBBCBBBBBBBABAAAmmmmmDDDDD",
"DDDDDmqttlspusswwwwvwuuuuu..bblgrocABBBBCBBBBBBBABAAAAmmmmDDDDDD",
"DDDDDttqtzypuusswwwvvvvwvob.bbcAdbbcABBBBBBBBBABABAAAAmmmmmDDDDD",
"DDDDmqttqyyssuuwwwvvxlxlxxob.bcrcbccdAAABABBABABAAAAAAtmmmmDDDDD",
"DDDDqqtqryyupuuwwvvxlllrzrlbbbbbbccfdeAAAAAABAAAAAAAAAmmmmmmDDDD",
"DDDDqtqtqyyypjjswvvxxrrrkhrcbbbbccfdeggtAAAAAAAAAAAAmAmmtmmmDDDD",
"DDDDtqqttyyypujpwwvolfrirttrbbbbccdeggggxAAAAAAAAAmAAmmtmmmmDDDD",
"DDDDtqqtmzyysujuwwvvxlccccffcbbcfddggggxvpwAAAAAAAAAmmtmmmmmmDDD",
"DDDmtqtqqryyssjjpwvvxlfffffffccffdggggdvvpjuwlrAmmmmmttmmmmmmDDD",
"DDDmmqqqqAyysspjuwvvvxregeeeedcfdggggdfcfcujpvvxkttttmmtmmmmmDDD",
"DDDmmttqqnywvwwuuswvoxlggggggeddeggggeeeddwjppvorqtqqtmmtmmmDDDD",
"DDDmtmqqtmvvvvvwppwvvvxlrggggedeggggggggggpppwvolkqtmtttmmmmmDDD",
"DDDmtmtqqqrxvwvwwwwvvvoxlcbcfdeeccfggggggvppppvvoktqttmmmmmtDDDD",
"DDDmmtmtmttxkrvvvwwvvvvxolcfdegcbbcgtttlowppppvvogktqmttmtmmmDDD",
"DDDDqmtmtmqqmmxvvvvvvvovoxldeggcbbcdtttrvvppppvvormtttmmtmmmDDDD",
"DDDDmtmtmtmmmmxvvvvsvvvvoooxrggdcbbcrirkovwppwpoorkqqmtmmtmmmDDD",
"DDDDqnifddddrrxooxsyywoovooxxlggcbbcdlllopppvpvvogkqtqtmtmmmDDDD",
"DDDDqhhlddfdfrloovyyyyvvxoooxoxrcbbcfxoxxwwpvvvoorktmtmtmmtmDDDD",
"DDDDmhigggggggrxxyyyyyywxoooxoxoxfcbcdffowvvpvoolgkmtmtmtmmmDDDD",
"DDDDmmgrkkgkggkryyyyyyyywoxoxoxxoxooffeovvvvoooelkktqtmtmtmDDDDD",
"DDDDDmmmmqqqqqqxzyyyyyyyyzxxxxxxxxxoooooooooooolgkkmtmtmtmmmDDDD",
"DDDDDmmqmmmmqqqqByyyyyyyyyyxlxlxloxxxxxooooooelrkAAtttmtmtmDDDDD",
"DDDDDDmmmmtmqmtqqAzzyyyyyyylexlexllexlexxexrllgggrktmttmtmmDDDDD",
"DDDDDDmmmmmtmqqqqnBzzzyzyyzllllllllllxllllrrrggkAAtqtmqtmmDDDDDD",
"DDDDDDDmmmmmmtmqqqqtzzzzyzxllrllrrrllgrrrgrggkkkrtqtqttmtDDDDDDD",
"DDDDDDDmmmmmtmtmtqqtAzzzzBgrgrgrgrgrglgggggkkkkkkttqqqmqmDDDDDDD",
"DDDDDDDDmmmmmmmtmqqqqqzzrggkggrgrgrrzzBrBrArkkkkmtttmttmDDDDDDDD",
"DDDDDDDDDmmmmtmmtqqqqtmkkkkka#gkkkkrzzzzBzBAkkkkttqqtqmmDDDDDDDD",
"DDDDDDDDDmmmmmmtmqmqtmtttkke#agkkkgBzBzBzxBggkmmtqqttmtDDDDDDDDD",
"DDDDDDDDDDmmmmmmmtmtmtqtttmc#akkkkrzBzBxzBl#amktttqmqtDDDDDDDDDD",
"DDDDDDDDDDDmmmmmmmtmtmtmmttfbcgkkAzBxzzzzlmkmmttmtttmDDDDDDDDDDD",
"DDDDDDDDDDDDmmmmmmmmmtmtttmgccfmtkkttmmmmttmtttqtqmtDDDDDDDDDDDD",
"DDDDDDDDDDDDDmmmmmmmtmmtmmtmccfkttqttttttttttqtqqqqDDDDDDDDDDDDD",
"DDDDDDDDDDDDDDmmmmmmmmtmtmtmdcc#tqqqqqtttttqtqqqmqDDDDDDDDDDDDDD",
"DDDDDDDDDDDDDDDDmmmmmmmmmtmkgccfkqttqtqqqqqqqtmtmDDDDDDDDDDDDDDD",
"DDDDDDDDDDDDDDDDDmmmmmmtmmqqkfcckqqmtmtqttqtmtmDDDDDDDDDDDDDDDDD",
"DDDDDDDDDDDDDDDDDDmmmmmmmtmmmechntmtqtqqqmtmtmDDDDDDDDDDDDDDDDDD",
"DDDDDDDDDDDDDDDDDDDDDmmmmmmtqkhhikqqmtmtmtmmDDDDDDDDDDDDDDDDDDDD",
"DDDDDDDDDDDDDDDDDDDDDDDmmmmmmmniqmqqmqmmmmDDDDDDDDDDDDDDDDDDDDDD",
"DDDDDDDDDDDDDDDDDDDDDDDDDDmmmmmmmmmmmDDDDDDDDDDDDDDDDDDDDDDDDDDD",
"DDDDDDDDDDDDDDDDDDDDDDDDDDDDDDDDDDDDDDDDDDDDDDDDDDDDDDDDDDDDDDDD",
"DDDDDDDDDDDDDDDDDDDDDDDDDDDDDDDDDDDDDDDDDDDDDDDDDDDDDDDDDDDDDDDD",
"DDDDDDDDDDDDDDDDDDDDDDDDDDDDDDDDDDDDDDDDDDDDDDDDDDDDDDDDDDDDDDDD",
"DDDDDDDDDDDDDDDDDDDDDDDDDDDDDDDDDDDDDDDDDDDDDDDDDDDDDDDDDDDDDDDD",
"DDDDDDDDDDDDDDDDDDDDDDDDDDDDDDDDDDDDDDDDDDDDDDDDDDDDDDDDDDDDDDDD"
};
