/* XPM */
static char *t1stat010[] = {
/* width height num_colors chars_per_pixel */
"    64    64       32            1",
/* colors */
". c #ffffff",
"# c #9c1808",
"a c #733118",
"b c #ceb56b",
"c c #f7efa5",
"d c #637339",
"e c #73844a",
"f c #4a6342",
"g c #294a29",
"h c #00ce10",
"i c #007b10",
"j c #6b9473",
"k c #004218",
"l c #005a21",
"m c #9cdeb5",
"n c #5a846b",
"o c #005221",
"p c #bdf7d6",
"q c #005a29",
"r c #7bad94",
"s c #a5e7c6",
"t c #8ccead",
"u c #21734a",
"v c #106339",
"w c #6b9c84",
"x c #427b63",
"y c #29a59c",
"z c #42efe7",
"A c #29bdc6",
"B c #007b9c",
"C c #00a5de",
"D c None",
/* pixels */
"DDDDDDDDDDDDDDDDDDDDDDDDDDDDDDDDDDDDDDDDDDDDDDDDDDDDDDDDDDDDDDDD",
"DDDDDDDDDDDDDDDDDDDDDDDDDDokkokkkkkDkDDDDDDDDDDDDDDDDDDDDDDDDDDD",
"DDDDDDDDDDDDDDDDDDDDDDDoqqqqqqqqqqqqookkkDDDDDDDDDDDDDDDDDDDDDDD",
"DDDDDDDDDDDDDDDDDDDDoqqqqqqqqoqqqqoqooqkkooDDDDDDDDDDDDDDDDDDDDD",
"DDDDDDDDDDDDDDDDDDoqqqqqqqqqqqqoqoqqoqoqqoookDDDDDDDDDDDDDDDDDDD",
"DDDDDDDDDDDDDDDDkqqqqqqqqqqqqlqqqqoqooqkooooookDDDDDDDDDDDDDDDDD",
"DDDDDDDDDDDDDDDoqqqqqqqqqqqqqqqoqolBBBBBBkqkokkkDDDDDDDDDDDDDDDD",
"DDDDDDDDDDDDDkqqqqqqqqqqqqqqqqqqquACzCCCCCBvqkqkkkDDDDDDDDDDDDDD",
"DDDDDDDDDDDDoqqqqqqqqqqqqqqqqqoqBCCzCCCCCCCCCqkkqkkDDDDDDDDDDDDD",
"DDDDDDDDDDDkqqqqqqqqqqvqvqvqqqqBzzCCzCCCCCCCCCBqkkkkDDDDDDDDDDDD",
"DDDDDDDDDDkqqqqqqqqqvvvvvvvqvqlCCCzzCCCCCCCCCBCBqkkkkDDDDDDDDDDD",
"DDDDDDDDDkqqqqqqqqvvvvxuuuuvvvqCzzzCCzCCCCCCBCBBBBkkkDDDDDDDDDDD",
"DDDDDDDDDqqqqqqqqvuwmpppptwwxvqCCzzCzCCCCCCCCBCBBBqkkkkDDDDDDDDD",
"DDDDDDDDoqqqqqquztssppppppsmttnzCzzzCCCCCCCBCCBCBBBkkkkDDDDDDDDD",
"DDDDDDDkqqqqqlyzsspppp...psttryCCCzzzCCCCCCCBCBBBBBBkkkkDDDDDDDD",
"DDDDDDDqqqqqlyzpssppp..pppsmrwwACCzzzCCCCCCBCBCBBBBBqkkkDDDDDDDD",
"DDDDDDqqqqqquzsmmspp.pppppstwjnjCCCzzCCCCCBCBCBBBBBBqkkkkDDDDDDD",
"DDDDDkqqqqqqmsmmmsspppppppmrwxxxBCCCCCCCCCCBCBBBBBBBBkkkkDDDDDDD",
"DDDDDqlqlqlwmmmmmmsspppppsmrwxuuBBCCCCCCBCBCBBBBBBqBkBkkkkDDDDDD",
"DDDDkoqqqlwmmmmmmmsmmspspscmnxufuxBBCCCCCBCBBBBBBBBBBkkkkkDDDDDD",
"DDDDkoqqqqtmmmtmtmttttmmsp.cnuufvuBBBBBBBBBBBBBBBqBkkBkkkkkDDDDD",
"DDDDoqoqovttmmmttttrwrrtccccbufvgfbuBBBBBBBBBBBBBBqBkkkkkkkDDDDD",
"DDDDqoqqqkutmsmttrwwjwjxwcccbefvvbbjquBBBBBBBBqBkBkBkBkkkkkDDDDD",
"DDDkqoqookjmmsmttrrwxuuuubccbbfvjbbbnqqqBvBvBqBqBkBkkkkkkkkDDDDD",
"DDDkkqoqqvttmspttrwwxuuuuubbcbeebbbeefvqqqqBkBkBkkkkBkkkkkkkDDDD",
"DDDoqqqooutztppmtrwwxvvvvvrbbbbbbbeedfgvkBkkkkkkBkBkkkkkkkkkDDDD",
"DDDoooqooxzztsppttwwxuvqvllbbbbbbeedfgfgnxBkBkBkkkkkkqkqkkkkDDDD",
"DDDooqoooyzztmpptrrwnuqqqqvdbbbbbeefgggejrswkkkkkBkkkkqkkkkkDDDD",
"DDDooooqoxzzztppprrwjxebbebbbbbbedfgggdeewspsrnyvkkqqqkkkkkkDDDD",
"DDDooqkqouzzzmmpptrwwnueeeeeedeeefgggggggempptrjfkqqkqkqkkkkDDDD",
"DDDqkooooozzzztsptrwwwnuddffgfeedggfgfgggwrpptrrnvqqqkqkkkkkDDDD",
"DDDokqkooouzzzttmmtrwwjxfgggggfdgggggglnjrrmpmrrnukqkqkqkqkkDDDD",
"DDDkqkqkqkozzzzrtttrrwwnxddfddddbbbflvvfwrrmttrrjfkqqkqkkkkkDDDD",
"DDDokqkqkqoAzzsrrtrrwwwwnnebedgbbbbeuvvujrrtttrrwxgqkqkqkqkkDDDD",
"DDDkokqkokouzzrrrrrrrwwwjnxddfgdbbbbdxuunrrrttrrjngqqkqkkkkkDDDD",
"DDDkkkkqkoolAtwwwwrrwrwwjjnnfgggebbbbeeixrrmttrrwngqkqkqkqkkDDDD",
"DDDDkqkkqkkouxwwwwwwwwwwwjjnnfgdebbbbdgfnrrtrrrrjnfkqkqkqkkkDDDD",
"DDDDkkqkkqkqounnwjwwwwwwjjjnnnffgebbbberjrrttrrwjfgkqqkqkqkDDDDD",
"DDDDkkkkoggfeenkkxjwjwjjwnwjjnjnffbbbbewwrrrrrwwjxggkqkqkkkDDDDD",
"DDDDkkkibbbeeedkkvnnjjntnwnnnnnnnjejbbbetrrrrwwjnfgqqqoqkqDDDDDD",
"DDDDDkhhidfffggkkfnnnnyzzyjnjnnnnnnjnnnjwwwwwjjnffvkkqkkqkDDDDDD",
"DDDDDklifggggggkgfxxnwzzzztnnnnnnnnnnjjjjjjjjjnffgukqqqkkkDDDDDD",
"DDDDDDklgokkkooqqvufxzzzzzzzynnnnnnnnnnnnnnnnnffgvgqkqkqqDDDDDDD",
"DDDDDDkkkokoookqkqgfyzzzzzzzzAfxxxfnfnxnxnfxfffgvgkkqqoqkDDDDDDD",
"DDDDDDDkkkkkkkqkqkqyAAAzAzzzzzAnfxxfxffffffffggggDvkqkkkDDDDDDDD",
"DDDDDDDDkkkkqkkqkqkoxAAAAAAAAzzyfffffxfffggggggvgvkqqqqDDDDDDDDD",
"DDDDDDDDkkkkkqkkqkqooqyyAAAAAAAygfuggggggggggvgggkqkokkDDDDDDDDD",
"DDDDDDDDDkkkkkkqkkooooouyyAyAAygfggggggggugvgDgDkqkqqkDDDDDDDDDD",
"DDDDDDDDDDkkkkkkkqkqoooovyyyyyugvgguggugvgDguguDqqqkkDDDDDDDDDDD",
"DDDDDDDDDDDkkkkkkkkkqkqookuyyggggaggvDguugyyyBkkqkqqDDDDDDDDDDDD",
"DDDDDDDDDDDDkkkkkkqkkqkooookkkfa##gDgggByyyBvkkqqqqDDDDDDDDDDDDD",
"DDDDDDDDDDDDDkkkkkkkqkqkqkokqgebaaggguuyvvkokqqqkoDDDDDDDDDDDDDD",
"DDDDDDDDDDDDDDkkkkkkkkkkkqkqkqgbbekkkkkkkqqqqqkqkDDDDDDDDDDDDDDD",
"DDDDDDDDDDDDDDDkkkkkkkqkqkqkqkoebbdkqqqqqqkqkqkDDDDDDDDDDDDDDDDD",
"DDDDDDDDDDDDDDDDDkkkkkkkkkkqkqkgbbgqkqkqkoqoqkDDDDDDDDDDDDDDDDDD",
"DDDDDDDDDDDDDDDDDDDkkkkkkkqkqkooghhoqqqoqqkkDDDDDDDDDDDDDDDDDDDD",
"DDDDDDDDDDDDDDDDDDDDDkkkkqkkkqkokilkokkqkkDDDDDDDDDDDDDDDDDDDDDD",
"DDDDDDDDDDDDDDDDDDDDDDDkkkkkkkqkqkkoookDDDDDDDDDDDDDDDDDDDDDDDDD",
"DDDDDDDDDDDDDDDDDDDDDDDDDDDDkkkDDkDDDDDDDDDDDDDDDDDDDDDDDDDDDDDD",
"DDDDDDDDDDDDDDDDDDDDDDDDDDDDDDDDDDDDDDDDDDDDDDDDDDDDDDDDDDDDDDDD",
"DDDDDDDDDDDDDDDDDDDDDDDDDDDDDDDDDDDDDDDDDDDDDDDDDDDDDDDDDDDDDDDD",
"DDDDDDDDDDDDDDDDDDDDDDDDDDDDDDDDDDDDDDDDDDDDDDDDDDDDDDDDDDDDDDDD",
"DDDDDDDDDDDDDDDDDDDDDDDDDDDDDDDDDDDDDDDDDDDDDDDDDDDDDDDDDDDDDDDD",
"DDDDDDDDDDDDDDDDDDDDDDDDDDDDDDDDDDDDDDDDDDDDDDDDDDDDDDDDDDDDDDDD"
};
