/* XPM */
static char *t1stat004[] = {
/* width height num_colors chars_per_pixel */
"    64    64       32            1",
/* colors */
". c #ffffff",
"# c #bd2108",
"a c #bdb563",
"b c #84844a",
"c c #7b7b42",
"d c #6b7342",
"e c #315231",
"f c #00ad08",
"g c #007b10",
"h c #6b9c7b",
"i c #005a21",
"j c #adefc6",
"k c #638c73",
"l c #9cdeb5",
"m c #5a846b",
"n c #184229",
"o c #005221",
"p c #316b4a",
"q c #005a29",
"r c #bdffde",
"s c #7bad94",
"t c #8ccead",
"u c #004221",
"v c #31b5a5",
"w c #42ffe7",
"x c #298c84",
"y c #31dece",
"z c #00738c",
"A c #00bdef",
"B c #008cb5",
"C c #00a5d6",
"D c None",
/* pixels */
"DDDDDDDDDDDDDDDDDDDDDDDDDDDDDDDDDDDDDDDDDDDDDDDDDDDDDDDDDDDDDDDD",
"DDDDDDDDDDDDDDDDDDDDDDDDDDDDuuuuDuDDDDDDDDDDDDDDDDDDDDDDDDDDDDDD",
"DDDDDDDDDDDDDDDDDDDDDDDDuuqquouoqoqqoouuDDDDDDDDDDDDDDDDDDDDDDDD",
"DDDDDDDDDDDDDDDDDDDDuuqqqiqiqqiqoqiqoqoouuDDDDDDDDDDDDDDDDDDDDDD",
"DDDDDDDDDDDDDDDDDDDqqqqqqqqqqqqqqqqoqoquooouDDDDDDDDDDDDDDDDDDDD",
"DDDDDDDDDDDDDDDDDoqqqqqqqqqqqqqqoqqoquooouuoouDDDDDDDDDDDDDDDDDD",
"DDDDDDDDDDDDDDDuqqqqqqqqqqqiqqqqqoopBCAzzzouuoouDDDDDDDDDDDDDDDD",
"DDDDDDDDDDDDDDuqqqqqqqqqqqqqqqoqopCAAAAAACCzzuuuuDDDDDDDDDDDDDDD",
"DDDDDDDDDDDDuqqqqqqqqqqqqqqqqqqqoCAAAAAAACCCBzpuuuDDDDDDDDDDDDDD",
"DDDDDDDDDDDuqqqqqqqqqqqqqqqqqqqqzAAAAAAAAACCCBBzuuuDDDDDDDDDDDDD",
"DDDDDDDDDDDiqqqqqqqqqqqqpqqqqqoivAAAAAACACCCCCBBzquuuDDDDDDDDDDD",
"DDDDDDDDDuqqqqqqqqqqqpmpppppqqqiAAAwAAAAAACCBCBBBzquuDDDDDDDDDDD",
"DDDDDDDDDiqqqqqqqqqxjrjjjlltkmqqCAwwwAAACCCCCBBBBzzuuuDDDDDDDDDD",
"DDDDDDDDuqqqqqqqqxjjrrrrrjttssspvAAwwyAAAACCCCBBBBzzuuuDDDDDDDDD",
"DDDDDDDuqqqqqqqptjjrrrrrrjlsshhhBAAywwAACCCCBCBBBBzzquuDDDDDDDDD",
"DDDDDDuqiqqqqqpljjrrr...rjtshkmmxCAAwwACACCCCBBBBzBzzuuuDDDDDDDD",
"DDDDDDoiqqqqqqljjrrr..rrrjthkxppmBCCAyAACCCBCBBBBBzzzzuuuDDDDDDD",
"DDDDDDqqqqiqehljjrr..rrrjjtskmppppBCCAACCCCCBBBBzBzzzzuuuDDDDDDD",
"DDDDDuqqqqie#sjjjrrrr.rrrjtsmmppppzBBCCCCCBCBBBBBzzzzzquuuDDDDDD",
"DDDDDioqiqqnbjwjjrrr.rjjjlthkpppeppzBBBCCBCBBBBBzzzzzzuuuuDDDDDD",
"DDDDuqqqqqiqjwwjjjrrrrjjrtshmppppqppzzBBBBBBBBzzzzzzzuzuuuDDDDDD",
"DDDDoqqooqqxwwwjjjjjjltj.ahmxpppeepapzzzBBBzBzBzzzzzzzuuuuuDDDDD",
"DDDDqooqqqivwrwwjljjlss..jtmpppqppaaapzzzzzzzzzzzzzzuzuuuuuDDDDD",
"DDDuqoqqgfiywwwrjlttthhaaaaapqqeeaaaabpqqzzzzzzzzqzuzuuuuuuDDDDD",
"DDDuoqqoffhjwwwwrttsshmbaaaaapqqhaaabbepuqqzqzzqzzuuuuzuuuuDDDDD",
"DDDoooqqqpbwwwrwrlttshpphaaaaapbaaabbdeenzuuzuuuuuzuzuuuuuuuDDDD",
"DDDouqqqiqdtwwwrrjtsshmeimbbaaaaaaabdeeeemxuuuzuzuuuuuuuuuuuDDDD",
"DDDoqouuqiqhwwtjrrtsshkpqipbabaaaacdeeeemssjszuuuuzuzuuuuuuuDDDD",
"DDDquooquoqpwtttrrjssskpqqnpdbaaacdeeeedhhsjrlmxxnuuuuuquuuuDDDD",
"DDDooquoquoptsstlrjtshhkpqiibaaabdeeeeemkhstrrtshmuuququuuuuDDDD",
"DDDouooouqqghssstljtsshkmeqaaaaabdeeeiipmssslrlshmqqqquuuuuuDDDD",
"DDuqoouqoouqkhssstllssshmmkaalaaceeedpqqmhsslltsskpquuuouuuuDDDD",
"DDDuuoouuoqqqquksssttshhhkmaaaabeeebabdqphsstltsshpnooouuuuuDDDD",
"DDDouuooouuuuuupsssssssshkmkaabdeebbabadqksstttsshmnquuouuuuDDDD",
"DDDuoouuuououunhhhstwsshhhhkkbdeeeecbbabbpsststtshmeuoououuuDDDD",
"DDDuuuuoououoopkhssywwshhhhkmmeeeqpecbababhstttsshmeqouuouoDDDDD",
"DDDuuuouuuooouqmkhwwwwwshhhhkkmpegpppdcbabasstatshmeuuoouuuuDDDD",
"DDDDouuuouuuooopmvwwwwwwshhkhkkmmpxphmdcbabbtttshkpenouoouuDDDDD",
"DDDDuuuuuouououovwwwwwwwwshkkkkkkmmkhskdbbaasssshmmeqoououoDDDDD",
"DDDDuuuuuuouoqoqpywwwwwwwwvkkkkkkmmmkhshdhsssshkmmpeuuuoouuDDDDD",
"DDDDuuuuuuuoouooqxywwwwwwwwvmmmmmmmmkkkkhhhhhhhmmpennoouuuuDDDDD",
"DDDDDuuuuuuuouoquozvywwwwwwsmmmmmmmmmmmmkkkkmmdmpeenuoooouDDDDDD",
"DDDDDuuuuuuuuouoooixvyyywwypmmmmpmmmpmmmmmmmmpmppennuqouuuDDDDDD",
"DDDDDDuuuuuuououoieasvyyyympmppppmpppmpppppppppeennnoououDDDDDDD",
"DDDDDDDuuuuuuouooeaacpvyyxpppppmpppmpppmpmpdpeeenenuooouuDDDDDDD",
"DDDDDDDDuuuuuuouoaabenqxppppppppppppmxpepeepeennnnuquouuDDDDDDDD",
"DDDDDDDDuuuuuuuobabenqqqnneee#eeepepvvvvxxppnnnnnnquqouuDDDDDDDD",
"DDDDDDDDDuuuuuobaaeeouqqqnnn##neeeepBvvBxxvznnnnnquoouuDDDDDDDDD",
"DDDDDDDDDuuuuueaaenuoouqqqqnn#nnnnnBvvxvvxBpeDenuuoouuDDDDDDDDDD",
"DDDDDDDDDDDuuudednnouoouuuouuunnnpxxvxvxxvvnnDnuqoquuDDDDDDDDDDD",
"DDDDDDDDDDDDufffenuuuouooooqquqnnqxxxBxvBxpnDuqquouuDDDDDDDDDDDD",
"DDDDDDDDDDDDuofgeuuouououqouoouqqqquqqppqqqqqquuoouDDDDDDDDDDDDD",
"DDDDDDDDDDDDDDouuuuuuuuouuuoououqqququoqqququoooouDDDDDDDDDDDDDD",
"DDDDDDDDDDDDDDDuuuuuuuuuoouuoooouuoqoqoquqquiquuuDDDDDDDDDDDDDDD",
"DDDDDDDDDDDDDDDDDuuuuuuuuuouououooqouquoouqoouuDDDDDDDDDDDDDDDDD",
"DDDDDDDDDDDDDDDDDDuuuuuuuouououooouuooouqoouoDDDDDDDDDDDDDDDDDDD",
"DDDDDDDDDDDDDDDDDDDDuuuuuuuuouoouooquoquouuuDDDDDDDDDDDDDDDDDDDD",
"DDDDDDDDDDDDDDDDDDDDDDuuuuuuuouuouuouuuuuDDDDDDDDDDDDDDDDDDDDDDD",
"DDDDDDDDDDDDDDDDDDDDDDDDDDuuuuuuuuuuuDDDDDDDDDDDDDDDDDDDDDDDDDDD",
"DDDDDDDDDDDDDDDDDDDDDDDDDDDDDDDDDDDDDDDDDDDDDDDDDDDDDDDDDDDDDDDD",
"DDDDDDDDDDDDDDDDDDDDDDDDDDDDDDDDDDDDDDDDDDDDDDDDDDDDDDDDDDDDDDDD",
"DDDDDDDDDDDDDDDDDDDDDDDDDDDDDDDDDDDDDDDDDDDDDDDDDDDDDDDDDDDDDDDD",
"DDDDDDDDDDDDDDDDDDDDDDDDDDDDDDDDDDDDDDDDDDDDDDDDDDDDDDDDDDDDDDDD",
"DDDDDDDDDDDDDDDDDDDDDDDDDDDDDDDDDDDDDDDDDDDDDDDDDDDDDDDDDDDDDDDD"
};
