/* XPM */
static char *t1stat017[] = {
/* width height num_colors chars_per_pixel */
"    64    64       32            1",
/* colors */
". c #ffffff",
"# c #a53118",
"a c #bdb56b",
"b c #737342",
"c c #7b844a",
"d c #637339",
"e c #315231",
"f c #00bd18",
"g c #006b10",
"h c #6b9473",
"i c #4a6b52",
"j c #184a29",
"k c #216339",
"l c #005a21",
"m c #217342",
"n c #005221",
"o c #84bd9c",
"p c #6ba584",
"q c #528c6b",
"r c #005a29",
"s c #b5f7d6",
"t c #9cdebd",
"u c #94d6b5",
"v c #004221",
"w c #00524a",
"x c #42ffef",
"y c #299c9c",
"z c #31d6d6",
"A c #007b9c",
"B c #0094c6",
"C c #00b5ef",
"D c None",
/* pixels */
"DDDDDDDDDDDDDDDDDDDDDDDDDDDDDDDDDDDDDDDDDDDDDDDDDDDDDDDDDDDDDDDD",
"DDDDDDDDDDDDDDDDDDDDDDDDDDDDDDDDvDvDDDDDDDDDDDDDDDDDDDDDDDDDDDDD",
"DDDDDDDDDDDDDDDDDDDDDDDDDvvrrrrrnlvnvvvDDDDDDDDDDDDDDDDDDDDDDDDD",
"DDDDDDDDDDDDDDDDDDDDDDvrrrrrrrrlrrrlnvvnnvvDDDDDDDDDDDDDDDDDDDDD",
"DDDDDDDDDDDDDDDDDDDDrrrrrrrrrrrrrnrrrnnnnvvvDDDDDDDDDDDDDDDDDDDD",
"DDDDDDDDDDDDDDDDDDnrrrrrrrrrrrrlrrnrwAAAAnnnnvDDDDDDDDDDDDDDDDDD",
"DDDDDDDDDDDDDDDDvrrrrrrrrrrrrlrrnrwBCCCCCCAAvnvvDDDDDDDDDDDDDDDD",
"DDDDDDDDDDDDDDDrrrrrrrrrrrrrlrrrrBCCCCCCCCBBBwvvvDDDDDDDDDDDDDDD",
"DDDDDDDDDDDDDvrrrrrrrrrrrrrrrrrnACxCCCCCCCCBBBArvnvDDDDDDDDDDDDD",
"DDDDDDDDDDDDvlrrrrrrrrrrrrrrrrrrBCCCCCCCCBCBBBBAwvvDDDDDDDDDDDDD",
"DDDDDDDDDDDvrrrrrrrrrmmqqkrrrrrlCxCxCCCCCCBCBBBBAwvvvDDDDDDDDDDD",
"DDDDDDDDDDDrlrrrmmoouuuuoooqimrwCCxCCCCCCBCBBBBAAAwvvDDDDDDDDDDD",
"DDDDDDDDDDrrrrrmouuouooooooooppyCCxxxCCCCCBBBBBBAAAvvvvDDDDDDDDD",
"DDDDDDDDDrrrrrmouuuuuuuuuooppppyCCCxxCCCBCBCBBAABAAwrvvDDDDDDDDD",
"DDDDDDDDrrrrrmtuuouuutuuuuoopphqCCzxxzCCCBBBBBBAAAAAwvvvDDDDDDDD",
"DDDDDDDvrrrlqtuuuuuuttssstuopqqqyCCzxxCCBCBBBBABAAAAwvvvDDDDDDDD",
"DDDDDDDnrrrquuuuuttttssssstoppqqyBCCCzCCBBBBBABAAAAwwwvvvDDDDDDD",
"DDDDDDvnrrluuttuuttstssssssuoqimmABBCCCBCBBBBBAAAAAAwwvvvDDDDDDD",
"DDDDDDnrlrkuttuuuutttssssssupqqiimABBBBBBBBBBAAAAAwAwwvvvvDDDDDD",
"DDDDDvrrrvvuutuuuuuutsssssuopqimmmqABBBBBBBAAAAAAAAAwwvvvvvDDDDD",
"DDDDDnrnrviuusuuuuuoot.sttoppqmikkamAAABABAAAAAAAwwwwwvvvvDDDDDD",
"DDDDDrrrrlqtxxtuuouoot..shpqqimkkaaawAAAAAAAAAAwAwAwwwwvvvvDDDDD",
"DDDDvnrnrruxxxstuuoopa.a.spqmmkkaaaackwAwAAAAAwAwwwwwwvvvvvvDDDD",
"DDDDvnrrnkxxxxstoooophaaaaahmmrhaaacciwwwwwwwwAwwwwwwwvvvvvDDDDD",
"DDDDvnrnryxxxxxstoophqhaaaaaakmaaaacbeekwwwwwwwwwwwwwvvvvvvvDDDD",
"DDDDrnrffmxxxxxstooppmmihaaahaaaaacdeeeeiqwwwwwwwwwwvvvvvvvvDDDD",
"DDDvlvrffaxxxxxxsooppqmmkmcccaaaacbdeeeipopqwwwwwwwvrvnnvvvvDDDD",
"DDDvvrnnictxxxxssooophirlkiccaaacdieeeipposstpqevvvvrvnvvvvvvDDD",
"DDDvvnnnneqxxxxsstopppqmrrlkcaaccdeeeeqhpoussoppirrrvnvvvvvvDDDD",
"DDDvnnrvllmxxsuostuopphqkrdaaaabdeeeelihpoostoopirrvlnnnvvvvvDDD",
"DDDvvnvrvrnzxzooouoooppqimaaaaaadeedcdkqpooutuoppenrvnvvvvvvvDDD",
"DDDvvnnnnnnytppoooooppphqhaaaaaadeebcacipooouooohirrnnnnvvvvDDDD",
"DDDDnnvnvnvmqppppooooppphqqcaaacdedbcccacoououophivrvnvvvvvvvDDD",
"DDDvvvnnvnnnqqpppppoppppphhqaaaceneebcccacoouooohijrrvnvnvvvDDDD",
"DDDDvnvvnvvvrqcbhpppppppphhhqacdjrrkebbccacouooopikvnnvnvvvnDDDD",
"DDDDnvvnnvnnvk##dpppppppqphhqqcerrmmmeebcccaooophiknnvnnvnvvvDDD",
"DDDDnvnvvnvvnv#eihhhpzzpphqpqqqqimmmqqiebcotooppqievrvnvnvvvDDDD",
"DDDDvvvvvvnvnnreiqqqoxxxppqhhhqqqqqqyqpqioooopphiijwnnvnvnvDDDDD",
"DDDDvvvvnvvvnvvriqqpxxxxxohqqqhqhqqqhppppppppphhieknvnnnvnvvDDDD",
"DDDDDvvvvvvnvnnrkiqzxxxxxxzqhqqhqqqqqqhhhphhhhqiiewrnnnvnvnDDDDD",
"DDDDDvvvvvnvnnrvvmzzxzxxzxxzqqqqqqqqqqqqhqhhiiieejwrvnvnvvvDDDDD",
"DDDDDvvvvvvvvvvnrryzzzzxxzxxxyiiiiiiiqiiiiiqiieekwjnrnrvnvDDDDDD",
"DDDDDDvvvvvvnnnvnvvmzzzzzzzzxyiqiqiqiiqiiiiiieejjknrvnvnvnDDDDDD",
"DDDDDDDvvvvvvnvnnnllioyzzzzzzyiiiiiiiiiieieeekkjjjvrnnnnvvDDDDDD",
"DDDDDDDvvvvvnvnnvnnkaayyyzzzyieeeeeeeeeeekkkjjDejvrrvnvvvDDDDDDD",
"DDDDDDDDvvvvvvvnnvncaceqyyyyeeeeeeeeeeyyyykyyekjvrrvnrnnDDDDDDDD",
"DDDDDDDDDvvvvnvvvnmaadnrmyykjjkekjjjjjyyyyyyyjvvvrnrnvvvDDDDDDDD",
"DDDDDDDDDvvvvvvvnncacevnrnvjej##DkkjewyyyyyykvDvrvrnnnvDDDDDDDDD",
"DDDDDDDDDDvvvvvvvdaabjnnrvlrvv#DeejjjyyyyyyAjvDrrnvnvvDDDDDDDDDD",
"DDDDDDDDDDDvvvvvvcacevnvnnnrrrrjjjjjkyymAmrrrrrrvrnvnDDDDDDDDDDD",
"DDDDDDDDDDDDvvvveacbjnvrvrnvnvvnvvvvrvvrvrrnvrvrnnnvvDDDDDDDDDDD",
"DDDDDDDDDDDDDvvvgfeevvvnvnvnnnrnrvrrrrnrnnrrrrnrnvrDDDDDDDDDDDDD",
"DDDDDDDDDDDDDDvvffgevvnvnvnvnrvnvnvrvnrnrnrvnnrvnvDDDDDDDDDDDDDD",
"DDDDDDDDDDDDDDDDggvvvvvvvvnvvnnnnnnnrnrvrnrnnvnnvDDDDDDDDDDDDDDD",
"DDDDDDDDDDDDDDDDDvvvvvvvnvvnvnvvrvrnvrnrvrnvrnvvDDDDDDDDDDDDDDDD",
"DDDDDDDDDDDDDDDDDDDvvvvvvvnvnvnnvnnvrnvnnnvnvvDDDDDDDDDDDDDDDDDD",
"DDDDDDDDDDDDDDDDDDDDDvvvvvvvnvnvnnvnvnrvnvnvDDDDDDDDDDDDDDDDDDDD",
"DDDDDDDDDDDDDDDDDDDDDDDnvvvvvvvnvnnnnvvnvvDDDDDDDDDDDDDDDDDDDDDD",
"DDDDDDDDDDDDDDDDDDDDDDDDDvDvvvvvvvvvvvvDDDDDDDDDDDDDDDDDDDDDDDDD",
"DDDDDDDDDDDDDDDDDDDDDDDDDDDDDDDDDDDDDDDDDDDDDDDDDDDDDDDDDDDDDDDD",
"DDDDDDDDDDDDDDDDDDDDDDDDDDDDDDDDDDDDDDDDDDDDDDDDDDDDDDDDDDDDDDDD",
"DDDDDDDDDDDDDDDDDDDDDDDDDDDDDDDDDDDDDDDDDDDDDDDDDDDDDDDDDDDDDDDD",
"DDDDDDDDDDDDDDDDDDDDDDDDDDDDDDDDDDDDDDDDDDDDDDDDDDDDDDDDDDDDDDDD",
"DDDDDDDDDDDDDDDDDDDDDDDDDDDDDDDDDDDDDDDDDDDDDDDDDDDDDDDDDDDDDDDD"
};
