/* XPM */
static char *t1stat014[] = {
/* width height num_colors chars_per_pixel */
"    64    64       32            1",
/* colors */
". c #ffffff",
"# c #a53918",
"a c #cebd6b",
"b c #b5a55a",
"c c #8c844a",
"d c #6b6b39",
"e c #849452",
"f c #6b7b42",
"g c #6b844a",
"h c #00c608",
"i c #006b10",
"j c #215229",
"k c #ade7bd",
"l c #396b4a",
"m c #004218",
"n c #005a21",
"o c #94d6ad",
"p c #005221",
"q c #84bd9c",
"r c #527b63",
"s c #6ba584",
"t c #8cd6ad",
"u c #005a29",
"v c #b5f7d6",
"w c #63947b",
"x c #5a8c73",
"y c #299c9c",
"z c #39efef",
"A c #29adad",
"B c #0084a5",
"C c #00ade7",
"D c None",
/* pixels */
"DDDDDDDDDDDDDDDDDDDDDDDDDDDDDDDDDDDDDDDDDDDDDDDDDDDDDDDDDDDDDDDD",
"DDDDDDDDDDDDDDDDDDDDDDDDDDDDmmmmmDmDmDDDDDDDDDDDDDDDDDDDDDDDDDDD",
"DDDDDDDDDDDDDDDDDDDDDDDDmmpupuupuupuppmDDDDDDDDDDDDDDDDDDDDDDDDD",
"DDDDDDDDDDDDDDDDDDDDDpuuuuuuuuuuuuuupupupmmDDDDDDDDDDDDDDDDDDDDD",
"DDDDDDDDDDDDDDDDDDDpuuuuuuunuuupuppupupupppppDDDDDDDDDDDDDDDDDDD",
"DDDDDDDDDDDDDDDDDpuuuuuuuuuuuuuupuuCCCBBBmppppmDDDDDDDDDDDDDDDDD",
"DDDDDDDDDDDDDDDDpuuuuuuuuuuuuuuuuCzCCCCCCCBupmmmDDDDDDDDDDDDDDDD",
"DDDDDDDDDDDDDDpuuuuuuuuuuuuuupnBCzCCzCCCCCCBBuummmDDDDDDDDDDDDDD",
"DDDDDDDDDDDDDuuuuuuuuuuuuuuuuuuBzCzCCCCCCCCCBBuummmDDDDDDDDDDDDD",
"DDDDDDDDDDDDpuuuuuuuuuuuuuuuuunCzCCzCCCCCCBCBCBuummmDDDDDDDDDDDD",
"DDDDDDDDDDDpuuuuuuuuuuuujuuuuuuCCzzCCCCCCCCBCBCBummmmDDDDDDDDDDD",
"DDDDDDDDDDmuuuuuulqtootkktsxjuBCzzzzzCCCCCCCCBBBBummmmDDDDDDDDDD",
"DDDDDDDDDmuuuuulqtttttottttqtxyCCzzzCCCCCCBBBBCBBBummmDDDDDDDDDD",
"DDDDDDDDmpuuulqttttqtkkkkkttqssCCCzzzCCCCCCCCBBBBBBmmmmDDDDDDDDD",
"DDDDDDDDpuunyzvttqqtttkvvkoqsswACCzzzzCCCCCBBCBBBBBummmmDDDDDDDD",
"DDDDDDDuuunyzzttttttokvvvvkqqwxxCCCzzCCCCCBBCBBBBBBBummmmDDDDDDD",
"DDDDDDDuuunzvvttqqtokkvvvvktsxxrBACCCCCCCBCCBBBBBBuBmmmmmDDDDDDD",
"DDDDDDmuuuyzzkttqtqtovvvvvktsxllrBCCCCCCBCBBBBBBBBBBummmmmDDDDDD",
"DDDDDmuuuiyvzttqtqqqovvvv.vqsxrllrBBBCBCCBBCBBBBBBBmBummmmDDDDDD",
"DDDDDmppuuzkootttqqqtkvv..vqwrllllBBBBCBBBCBBBBBBBmBBmmmmmDDDDDD",
"DDDDDpuuuyookootqqqsqok....axllllxbuBBBBBBBBBBBBuBBmmmmmmmmDDDDD",
"DDDDmpuupooookttqqqsqqqk...axllulaawuBBBBBBBBBBBBmBBmmmmmmmDDDDD",
"DDDDmupulqotkkoqqqsxwrxqa.a.allraaabruuBuBBBuBuBmBmmBmummmmmDDDD",
"DDDDupuplcqtkvktqqsxlyllqaaaaeuaaabeglumBuuuBBmBmBmmmmmmmmmmDDDD",
"DDDDpupp##qoovvqqssxljlljeaaaaaaabegdjlmmmBmmmummmmBmmmummmmDDDD",
"DDDmppupdjqqkvvoqqswxuululaaaaaabecdjjjlrmmBmBmBmBmmBmmmmmmmDDDD",
"DDDDpuppprqtov.kqqswxluuuuuaaaabbefdjjjlsvslmmmmmmmmmmuummmmDDDD",
"DDDmupupprqttkvvtqqswluuuuugaaabefjjjjjjqovvxlBmBmummummmmmmmDDD",
"DDDmmpupulqzzokvkqsswxuullababbgfjjjjjdlqov.qqsxmmuuumummmmmmDDD",
"DDDmuppppuzzztovktqssxreabbeegefdjjjjjrsqqkvktswlumuuumummmmmDDD",
"DDDmmpppplzzzzqtktqsswxregffjjjdjjjjuulssqokkqqsluumumumummmDDDD",
"DDDmuumupnAvzzqqtqqqssxxldjjjjjjjdbejujxqqoooqqsruuuuumummmmmDDD",
"DDDmmmumpplzzzzqqqqssswxxljdjddjbaabejursqqooocqxlmumummmummDDDD",
"DDDDumupmupAzzzzsqsqssswwxrcdjjjcbaabfulsqooootsrlmuumuummmmmDDD",
"DDDDmummppnlzzzzqssssssswwxldjjjdebabbllsqqooocsxlmupummumumDDDD",
"DDDDumumumpnyzzzzsssssswwwxxrljjjdbbabelwqooqqqsrljumumummmmDDDD",
"DDDDmmmummumnzzzqwsssswwwwwxxxrjjugbaabesqqqqqqsrlmmupumumumDDDD",
"DDDDmmmmummumuztxxwwwwwwwwwxxxxxlllcbbabxqqqcqwxrljumpmummmmDDDD",
"DDDDmummmumppnylrxxxxxwwwxxxxxxxwxxrcbbacocqqsxrljmmuuumuummDDDD",
"DDDDDmmmmmmmpplrrrlrxxxxxxxxxxxxxxxxsssssssswxrrljjuumumpmmDDDDD",
"DDDDDmmmmmujebbfljmmlrrxrxsrrrrrrrrrrxxxwxxxrrrljjmmuppumumDDDDD",
"DDDDDDmmmjbbegdjjjDmlrrrrwzAqrrrrrrrrrrrrrrrrlljjjmumumummDDDDDD",
"DDDDDDmmlheddjjjpumjllllrAzzzAyrrrrrrrrrrrrlllljjmmuuupummDDDDDD",
"DDDDDDDmhhjjjjmppuujjlllwzzzzzzArllllllllllljjDjjmuuumpmuDDDDDDD",
"DDDDDDDmindmmmumpmuujjllAzAAzAzAzyrlllllljljjlyyDjumuuummDDDDDDD",
"DDDDDDDDmmmmmmpumumumjlAAAAAAAAzAAyljljjjjjjyyyljmuumppmDDDDDDDD",
"DDDDDDDDDmmmmmmmumuuuumBAAAAAAAyAAljjjjjjjjyyyAumupuumumDDDDDDDD",
"DDDDDDDDDmmmmmmummummppppxyyAyAyyAjjjjjjDjyAyBuuuupumumDDDDDDDDD",
"DDDDDDDDDDmmmmmmumumuupppppxyyyyyljjDjjjjlyluppuuumupmDDDDDDDDDD",
"DDDDDDDDDDDmmmmmmmmummupppppplyyjjjj##DjDjuuuuumuupmmDDDDDDDDDDD",
"DDDDDDDDDDDDmmmmmummuumpppppppmjcac##DjjuuuuupuupmumDDDDDDDDDDDD",
"DDDDDDDDDDDDDmmmmmmmmmmumpppupppjbacmuummuuumupppumDDDDDDDDDDDDD",
"DDDDDDDDDDDDDDmmmmmmumummumumpppmdbbcjuuuumuuuppmmDDDDDDDDDDDDDD",
"DDDDDDDDDDDDDDDDmmmmmmmmummupppummcbbjmuuuumumupmDDDDDDDDDDDDDDD",
"DDDDDDDDDDDDDDDDDmmmmmmmmmummumuumjchhumumuupumDDDDDDDDDDDDDDDDD",
"DDDDDDDDDDDDDDDDDDDmmmmummmumumumuuphimuppummDDDDDDDDDDDDDDDDDDD",
"DDDDDDDDDDDDDDDDDDDDDmmmmmmmmmumummumpupmumDDDDDDDDDDDDDDDDDDDDD",
"DDDDDDDDDDDDDDDDDDDDDDDDmmmumumumumumpmmmDDDDDDDDDDDDDDDDDDDDDDD",
"DDDDDDDDDDDDDDDDDDDDDDDDDDmDmDmDmmmDDDDDDDDDDDDDDDDDDDDDDDDDDDDD",
"DDDDDDDDDDDDDDDDDDDDDDDDDDDDDDDDDDDDDDDDDDDDDDDDDDDDDDDDDDDDDDDD",
"DDDDDDDDDDDDDDDDDDDDDDDDDDDDDDDDDDDDDDDDDDDDDDDDDDDDDDDDDDDDDDDD",
"DDDDDDDDDDDDDDDDDDDDDDDDDDDDDDDDDDDDDDDDDDDDDDDDDDDDDDDDDDDDDDDD",
"DDDDDDDDDDDDDDDDDDDDDDDDDDDDDDDDDDDDDDDDDDDDDDDDDDDDDDDDDDDDDDDD",
"DDDDDDDDDDDDDDDDDDDDDDDDDDDDDDDDDDDDDDDDDDDDDDDDDDDDDDDDDDDDDDDD"
};
