/* XPM */
static char *t2shb014[] = {
/* width height num_colors chars_per_pixel */
"    32    32       31            1",
/* colors */
". c #efc600",
"# c #424200",
"a c #636300",
"b c #848400",
"c c #b5b500",
"d c #f7f700",
"e c #c6de10",
"f c #528c18",
"g c #10734a",
"h c #001810",
"i c #08ad7b",
"j c #00c68c",
"k c #086b52",
"l c #088c6b",
"m c #004231",
"n c #00634a",
"o c #008463",
"p c #21524a",
"q c #397b73",
"r c #21b5a5",
"s c #31525a",
"t c #182931",
"u c #4a5a63",
"v c #5a94c6",
"w c #42739c",
"x c #6ba5de",
"y c #395273",
"z c #180810",
"A c #a55a7b",
"B c #421018",
"C c None",
/* pixels */
"CCCCCCCCCCCCCCCCCCCCCCCCCCCCCCCC",
"CCCCCCCCCCCCCCCCCCCCCCCCCCCCCCCC",
"CCCCCCCCCCCCCCCCCCCCCCCCCCCCCCCC",
"CCCCCCCCCCCCCCCCCCCCCCCCCCCCCCCC",
"CCCCCCCCCCCCCCCChnhCCCCCCCCCCCCC",
"CCCCC#baaCCCChoiwoohCCCCCCCCCCCC",
"CCCCCa.c.aCCClrvvwoohCCCCCCCCCCC",
"CCCCCb.d.#CCCjrxvwpomCCCC###CCCC",
"CCCCCfff#CCCmjxxxwpomhCC#b...#CC",
"CCCCCojmCCCCkjxxvykkmCCCzddd.#CC",
"CCCCCjlhCChljjxxwyonmCCCCbdeaCCC",
"CCCCmjkhChijjjrvwlonmhCCCmigCCCC",
"CCCCoinhijjjjjjjjionlihCCnjlCCCC",
"CCCCjlljjjjjjjjiilomojiCCkjnCCCC",
"CCCmjkjjjjjjjjimjoomijjiCljnCCCC",
"CCCoiljjjjjjjjnmionmjjjjljjmCCCC",
"CCCjlljjiiljjinhionnjjjjjjjmCCCC",
"CtvAugmhChkjjihmionnjjjjjjihCCCC",
"CtyrytCCCCjilimhlommnijjjjimCCCC",
"ChzBppCCCCttllhhpkmhChnjjjihCCCC",
"CCCCzzCCCCBBBttBBBthCCChlwqhCCCC",
"CCCCCCCCCCCzBBBBBBBCCCCyvxvyzCCC",
"CCCCCCCCCCCCCzzzzzCCCCCtsppyhCCC",
"CCCCCCCCCCCCCCCCCCCCCCCCtBttCCCC",
"CCCCCCCCCCCCCCCCCCCCCCCCCCCCCCCC",
"CCCCCCCCCCCCCCCCCCCCCCCCCCCCCCCC",
"CCCCCCCCCCCCCCCCCCCCCCCCCCCCCCCC",
"CCCCCCCCCCCCCCCCCCCCCCCCCCCCCCCC",
"CCCCCCCCCCCCCCCCCCCCCCCCCCCCCCCC",
"CCCCCCCCCCCCCCCCCCCCCCCCCCCCCCCC",
"CCCCCCCCCCCCCCCCCCCCCCCCCCCCCCCC",
"CCCCCCCCCCCCCCCCCCCCCCCCCCCCCCCC"
};
