/* XPM */
static char *t2shb012[] = {
/* width height num_colors chars_per_pixel */
"    32    32       30            1",
/* colors */
". c #ad4242",
"# c #180808",
"a c #c69c00",
"b c #d6ad00",
"c c #f7ce00",
"d c #7b7300",
"e c #a59c00",
"f c #fff700",
"g c #313100",
"h c #424200",
"i c #cef718",
"j c #738c10",
"k c #63a529",
"l c #31a573",
"m c #001810",
"n c #102921",
"o c #00ad7b",
"p c #00c68c",
"q c #005a42",
"r c #007b5a",
"s c #21bda5",
"t c #18847b",
"u c #214a52",
"v c #103139",
"w c #396b84",
"x c #639cce",
"y c #5284b5",
"z c #73adef",
"A c #524a63",
"B c None",
/* pixels */
"BBBBBBBBBBBBBBBBBBBBBBBBBBBBBBBB",
"BBBBBBBBBBBBBBBBBBBBBBBBBBBBBBBB",
"BBBBBBBBBBBBBBBBBBBBggBBBBBBBBBB",
"BBBBBBBBBBBBBBBBBBBdffgBBBBBBBBB",
"BBBBBBBBBBBBBBBBBBBfcchBBBBBBBBB",
"BBBBBBBBBqrrqqnBBBddbfjBBBBBBBBB",
"BBBBBBBBBopyytrnBBBhelpnBBBBBBBB",
"BBBBBBBBqpszzxwqmBBBBrpomBBBBBBB",
"BBBBBBBBqpsxzxyurBBBBmppomBBBBBB",
"BBBBBBBBppsxzzywqqrqqBmpprBBBBBB",
"BBBBBBBBrppsxxxwrrrpppppppqBBBBB",
"BB#edBBBmpppsyywprropppppppnBBBB",
"Bdcce#BBBrppppppporroppppppovmBB",
"habfeBBBBroppppppoorqpppppl.zyBB",
"gccikBBBBppppppppoorrrrqvmAxtnBB",
"BBhponBBqppppppppoporqBBBBwu#BBB",
"BBBoprmBrpppoppppppoprvBBBBBBBBB",
"BBBmponmpppppppppppopo#BBBBBBBBB",
"BBBBoprrppppppppppopopnBBBBBBBBB",
"BBBBnpoqpppprnpppoorn#BBBBBBBBBB",
"BBBBBoproppoBBrpvn###BBBBBBBBBBB",
"BBBBBnppopomBBmv###BBBBBBBBBBBBB",
"BBBBBBopoonBBBB##BBBBBBBBBBBBBBB",
"BBBBBBnp.wvBBBBBBBBBBBBBBBBBBBBB",
"BBBBBBByzxvnBBBBBBBBBBBBBBBBBBBB",
"BBBBBBnxtn#BBBBBBBBBBBBBBBBBBBBB",
"BBBBBBBunBBBBBBBBBBBBBBBBBBBBBBB",
"BBBBBBBBBBBBBBBBBBBBBBBBBBBBBBBB",
"BBBBBBBBBBBBBBBBBBBBBBBBBBBBBBBB",
"BBBBBBBBBBBBBBBBBBBBBBBBBBBBBBBB",
"BBBBBBBBBBBBBBBBBBBBBBBBBBBBBBBB",
"BBBBBBBBBBBBBBBBBBBBBBBBBBBBBBBB"
};
