/* XPM */
static char *t2shb007[] = {
/* width height num_colors chars_per_pixel */
"    32    32       30            1",
/* colors */
". c #c63100",
"# c #311000",
"a c #632100",
"b c #ce6b00",
"c c #b59c00",
"d c #5a5a00",
"e c #6b6b00",
"f c #8c8c00",
"g c #a5a500",
"h c #637352",
"i c #081000",
"j c #298c52",
"k c #001810",
"l c #007352",
"m c #00ad7b",
"n c #00c68c",
"o c #08a57b",
"p c #009c73",
"q c #004231",
"r c #106352",
"s c #10b594",
"t c #5284ad",
"u c #214a6b",
"v c #395a7b",
"w c #639cd6",
"x c #101821",
"y c #313952",
"z c #5a526b",
"A c #b53142",
"B c None",
/* pixels */
"BBBBBBBBBBBBBBBBBBBBBBBBBBBBBBBB",
"BBBBBBBBBBBBBBBBBBBBBBBBBBBBBBBB",
"BBBBBBBBBBBBxvBBBBBBBBBBBBBBBBBB",
"BBBBBBBBBBBBvttBBBBBBBkpkBBBBBBB",
"BBBBBBBBBBBknAzkBBBBBqmlBBBBBBBB",
"BBBBBBBBBkpnpxykBBBBqplqBBBBBBBB",
"BBBBBBBBlnppmoxBBBkqmllqBBBBBBBB",
"BBBBBBkpmplnnnkBkpnmlllxBBBBBBBB",
"BBBBBpnplqnnnnpkpmnllllBBBBBBBBB",
"BdgfejlqBqnnnnmnnnlllllBBBBBBBBB",
"BacfgeqBBqnnnmnnnmlppmlBBBBBBBBB",
"B#.fe#BBBlnmosonmmnmpplkBBBBBBBB",
"BB.beBBBBlstwtvonnpppllkBBBBBBBB",
"BBB##BBBlswwttvrmpmlllqkBBBBBBBB",
"BBBiBBkpowwwttypppllqqiBBBBBBBBB",
"BBBBBBmnwwwwturppllqpqBBBBxxBBBB",
"BBBBBqnntwwvurolllqmnnnlBxzwyBBB",
"BBBBBlnnnsvoppllqqnnnnnnnjhAtxBB",
"BBBBBnnnnmmolllqpnnnnnnnnmsjzyBB",
"BBBBBnnnnmplllqpnnnnnnnmnmpyvBBB",
"BBBBqnnnnmplqqkikxqqlpmnmlkBBBBB",
"BBBBpnnpplpqqBBBBBBBkpnmlBBBBBBB",
"BBBBqxqxqqqqBBBBBBBqmnmqBBBBBBBB",
"BBBBBBBBBBBBBBBBBBqnnpqBBBBBBBBB",
"BBBBBBBBBBBBBBB##donlxBBBBBBBBBB",
"BBBBBBBBBBBBBBfgcgjjkBBBBBBBBBBB",
"BBBBBBBBBBBBBBabcccBBBBBBBBBBBBB",
"BBBBBBBBBBBBBB#.bcfiBBBBBBBBBBBB",
"BBBBBBBBBBBBBBB#bfdBBBBBBBBBBBBB",
"BBBBBBBBBBBBBBBBBfBBBBBBBBBBBBBB",
"BBBBBBBBBBBBBBBBBBBBBBBBBBBBBBBB",
"BBBBBBBBBBBBBBBBBBBBBBBBBBBBBBBB"
};
