/* XPM */
static char *t2shr016[] = {
/* width height num_colors chars_per_pixel */
"    32    32       31            1",
/* colors */
". c #524242",
"# c #422121",
"a c #844242",
"b c #8c2100",
"c c #100800",
"d c #5a3100",
"e c #845a00",
"f c #292100",
"g c #948c00",
"h c #d6ce00",
"i c #848421",
"j c #636300",
"k c #e7e700",
"l c #a5c618",
"m c #31ce6b",
"n c #106b39",
"o c #103121",
"p c #007b5a",
"q c #00b584",
"r c #004231",
"s c #107b6b",
"t c #104a42",
"u c #108c7b",
"v c #39a59c",
"w c #001010",
"x c #294a5a",
"y c #4a7ba5",
"z c #6ba5de",
"A c #395a7b",
"B c #6394ce",
"C c None",
/* pixels */
"CCCCCCCCCCCCCCCCCCCCCCCCCCCCCCCC",
"CCCCCCCCCCCCCCCCCCCCCCCCCCCCCCCC",
"CCCCCCCCCCCCCCCCCCCCCCCCCCCCCCCC",
"CCCCCCCCCCCCCCCCCCCCCCCCCCCCCCCC",
"CCCCCCCCCCCCCwwCCCCCCCCCCCCCCCCC",
"CCCCCCCCCCwqqtCCCCCCCCCCCCCCCCCC",
"CCCCCCCCCrqspoCCCCCwrCCCCCCCCCCC",
"CCCCCCCwqqsrCCCCCwuyvsnrrwCCCCCC",
"CCCCCCsqqpnoCCCCtBBByAqrrCCCCCCC",
"CCoAwqqpqqqqqqqpBzzBytqsoCCCCCCC",
"CCwByppqqqqqqqqvzzByAtqsrCCCCCCC",
"fjgiy#pqqqqqqqqvzByxtqpprCCCCCCC",
"eejg.wCwpqqqqqqqvuuuqppnoCCCCCCC",
"bgjfoCCCwqqqqqqqqqqppprrwCCCCCCC",
"bbgcCCCptrpppqqqqqspnroCCCCffCCC",
"CccCCwpppppsqqqqsppnnsCCCCCkkjCC",
"CCCCCopppppqqqupppttqqCCCCjhkhdC",
"CCCCCCCoppsqqsppprpqqqCCCCghhdjC",
"CCCCCCCCcrppqppnnqqqqsCCwpmlkggC",
"CCCCCCCCCc##ppnrqqqqqqCwsqqncfcC",
"CCCCCCCCCC##troCuqqqqqwqqqnCCCCC",
"CCCCCCCCCCC##oCCoqqqqqqqqrCCCCCC",
"CCCCCCCCCCCCwCCCCqqqqqqsoCCCCCCC",
"CCCCCCCCCCCCCCCCCuqqqqpwCCCCCCCC",
"CCCCCCCCCCCCCCCCx.qqqpwCCCCCCCCC",
"CCCCCCCCCCCCCCCwyBaqnCCCCCCCCCCC",
"CCCCCCCCCCCCCCCCoByoCCCCCCCCCCCC",
"CCCCCCCCCCCCCCCCc#ytCCCCCCCCCCCC",
"CCCCCCCCCCCCCCCCCwxcCCCCCCCCCCCC",
"CCCCCCCCCCCCCCCCCCCCCCCCCCCCCCCC",
"CCCCCCCCCCCCCCCCCCCCCCCCCCCCCCCC",
"CCCCCCCCCCCCCCCCCCCCCCCCCCCCCCCC"
};
