/* XPM */
static char *t2shr006[] = {
/* width height num_colors chars_per_pixel */
"    32    32       30            1",
/* colors */
". c #734a4a",
"# c #632929",
"a c #942100",
"b c #422900",
"c c #735200",
"d c #dece00",
"e c #313100",
"f c #636300",
"g c #7b7b00",
"h c #bdbd00",
"i c #adc652",
"j c #636b4a",
"k c #081000",
"l c #001810",
"m c #108463",
"n c #007352",
"o c #008c63",
"p c #00ad7b",
"q c #00c68c",
"r c #004231",
"s c #10b59c",
"t c #084a42",
"u c #183131",
"v c #294a52",
"w c #294252",
"x c #4a7b9c",
"y c #528cbd",
"z c #6ba5de",
"A c #42638c",
"B c None",
/* pixels */
"BBBBBBBBBBBBBBBBBBBBBBBBBBBBBBBB",
"BBBBBBBBBBBBBBBBBBBBnlBBBBBBBBBB",
"BBBBBBBBBBBBBBBBBBBtqlBBBBBBBBBB",
"BBBBBBBBlwBBBBBBBBBoplBBBBBBBBBB",
"BBBBBBBBw.xlBBBBBBoqolBBBBBBBBBB",
"BBBBBBBBmj.uBBBBBlqqqlBBBBBBBBBB",
"BBBBBBBtqmllBBBrppqpqlBBBBBBBBBB",
"BBBBBBlqonplBBrqqqqpqlBBBBBBBBBB",
"BBBBBlppoqqpllqqqqpqolBBBBBBBBBB",
"BBBBBppnqqqqpoqqqqppotkBBBBeeBBB",
"BBBBnpnrqqqqpqqqqppontlBBBBhddfB",
"BBBrqolBpqqpqqqqqpootrBBBBedghfB",
"BBkmorBBpqqpsyAmpponrlBBBBxxigeB",
"kbgeuBBBlqqsyyxwoontrrlBBu.#xwBB",
"ccggkBBBlpszzyxwoonroqqqqoqp#wBB",
"aabbkBBBlqyzzyAuonrnqqqqqqqmulBB",
"BkackBBBoqzzzxwvotrpqqqqqqprBBBB",
"BBBfBBBnqqzzyAwonrnqqqqqqqolBBBB",
"BBBBBBBpqqsyAoonrrqqpprnqprBBBBB",
"BBBBBBBpqqqppootrrrrBBBoqoBBBBBB",
"BBBBBBBoqqqpponrlBBBBBrqprBBBBBB",
"BBBBBBBpqqqpoorrBBBBBBqqnBBBBBBB",
"BBBBBBBnqqppootBBBBBBrmprBBBBBBB",
"BBBBBBBnqqonrrrBBBBBBtqtBBBBBBBB",
"BBBBBBBtqnrlBBBBBBBBBnrBBBBBBBBB",
"BBBBBBBllBBBBBBBBBBBBlBBBBBBBBBB",
"BBBBBBBBBBBBBBBBBBBBBBBBBBBBBBBB",
"BBBBBBBBBBBBBBBBBBBBBBBBBBBBBBBB",
"BBBBBBBBBBBBBBBBBBBBBBBBBBBBBBBB",
"BBBBBBBBBBBBBBBBBBBBBBBBBBBBBBBB",
"BBBBBBBBBBBBBBBBBBBBBBBBBBBBBBBB",
"BBBBBBBBBBBBBBBBBBBBBBBBBBBBBBBB"
};
