/* XPM */
static char *t2shf017[] = {
/* width height num_colors chars_per_pixel */
"    32    32       31            1",
/* colors */
". c #842921",
"# c #942100",
"a c #ce4200",
"b c #391800",
"c c #ad5a00",
"d c #181000",
"e c #de9400",
"f c #735a08",
"g c #7b6300",
"h c #a58c00",
"i c #cece00",
"j c #84ad10",
"k c #5a8429",
"l c #001008",
"m c #004229",
"n c #00c68c",
"o c #009c73",
"p c #109c7b",
"q c #00634a",
"r c #087363",
"s c #105a52",
"t c #296b73",
"u c #5a94c6",
"v c #426b94",
"w c #101821",
"x c #6ba5e7",
"y c #293952",
"z c #847ba5",
"A c #290810",
"B c #d61821",
"C c None",
/* pixels */
"CCCCCCCCCCCCCCCCCCCCCCCCCCCCCCCC",
"CCCCCCCCCCCCCCCCCCCCCCCCCCCCCCCC",
"CCCCCCCCCCCCCCCCCCCCCCCCCCCCCCCC",
"CCCCCCCCCCCCCCCCCCCCCCCCCCCCCCCC",
"CCCCCCCCCCCCCClmmlCCCCCCCCCCCCCC",
"CCCCCCCCCCCloonnomlCCCCCCCCCCCCC",
"CCCCCywlmonnoorqmCCCCCCCCCCCCCCC",
"CCCCCrzpnoooollCCCCCCCCCCCCCCCCC",
"CCCCCwu.nnnnnnrmCCCwsrrlCCCCCCCC",
"CCCCCCyAqnnnnnnnnpvuuutomwCCCCCC",
"CCCCCCllCqnnnonouxxxuzvrrqmlCCCC",
"CCCCCCwmwlooonnnxxuuvvtnqqqlCCCC",
"CCClooqqqqqqrrnpuuuvvsonoqllCCCC",
"CCCdmqqqqqqqqnnnnppopnoormlCCCCC",
"CClbikqqqqqnnnnnnonooroorlCCCCCC",
"CCCbhijqqrnnonooooooroqqqlCCCCCC",
"CCdaeiekqnonnoooorrqqqmmCCCCCCCC",
"CCC##iihfpoooroqrqqnnCCCCCCCCCCC",
"CCCbahiggkorrqqqonnnqCCCCCCCCCCC",
"CCCC#cg#hjqqqqnnnnnnmCCCCCCCCCCC",
"CCCCbahiglmmClnnnnnrCCCCCCCCCCCC",
"CCCCCbhblCCCCmnnnnnmClmrqqmCCCCC",
"CCCCCllCCCCCCmnnnnnmrnnnomCCCCCC",
"CCCCCCCCCCCCCmnnnnonnnoomCCCCCCC",
"CCCCCCCCCCCyvyoonnnorqllCCCCCCCC",
"CCCCCCCCCCCsucnnooqmlClCCCCCCCCC",
"CCCCCCCCCCCwuBormlCCCCCCCCCCCCCC",
"CCCCCCCCCCCCvvlCCCCCCCCCCCCCCCCC",
"CCCCCCCCCCCCwyCCCCCCCCCCCCCCCCCC",
"CCCCCCCCCCCCCCCCCCCCCCCCCCCCCCCC",
"CCCCCCCCCCCCCCCCCCCCCCCCCCCCCCCC",
"CCCCCCCCCCCCCCCCCCCCCCCCCCCCCCCC"
};
