/* XPM */
static char *t2shl017[] = {
/* width height num_colors chars_per_pixel */
"    32    32       31            1",
/* colors */
". c #101010",
"# c #ad4242",
"a c #6b1818",
"b c #9c3900",
"c c #4a3100",
"d c #cebd00",
"e c #948c00",
"f c #313100",
"g c #525200",
"h c #737300",
"i c #c6c600",
"j c #ffff00",
"k c #636b29",
"l c #638c18",
"m c #001810",
"n c #006342",
"o c #108c6b",
"p c #003929",
"q c #00b584",
"r c #008463",
"s c #219c84",
"t c #08ad8c",
"u c #085252",
"v c #215a63",
"w c #21424a",
"x c #4a7b94",
"y c #6bade7",
"z c #528cbd",
"A c #426384",
"B c #6394ce",
"C c None",
/* pixels */
"CCCCCCCCCCCCCCCCCCCCCCCCCCCCCCCC",
"CCCCCCCCCCCCCCCCCCCCCCCCCCCCCCCC",
"CCCCCCCCCCCCCCCCCCfCCCCCCCCCCCCC",
"CCCCCCCCCCCCCCCCCggcCCCCCCCCCCCC",
"CCCCCCCCCCCCCCmpljdefCCCCCCCCCCC",
"CCCCCCCCCCCmooqqoidhfCCCCCCCCCCC",
"CCCCCwpmpoqqqqrnpgheCCCCCCCCCCCC",
"CCCCCvxsqqqqqmCCCCCCCCCCCCCCCCCC",
"CCCCCpzaqqqqqqrnCCC.urrmCCCCCCCC",
"CCCCCCv.nqqqqqqqqoxBBxArpmCCCCCC",
"CCCCCCCCCnqqqqqqzyyBBzAupnnmCCCC",
"CCCCCCmppmqqqqttyyBBzAvqnppmCCCC",
"CCCmnoornrorqqqtBBzxAuqqoppCCCCC",
"CCCmnrroooqoqqqqqtssoqqqrmCCCCCC",
"CCCCCnrrorqqqqqqqqqqqorrrmCCCCCC",
"CCCCCCporqqqqqqqqqorrrrnnCCCCCCC",
"CCCCCCCpoqqqqqqorrrnnnpmCCCCCCCC",
"CCCCCCCCmoqoorrrnnnqqCCCCCCCCCCC",
"CCCCCCCCCwrrrnnnqqqqrCCCCCCCCCCC",
"CCCCCCCCCmnnnnqqqqqqpCCCCCCCCCCC",
"CCCCCCCCCCppCmqqqqqrCCCCCCCCCCCC",
"CCCCCCCCCCCCCpqqqqqnCmprpnpCCCCC",
"CCCCCCCCCCCCCnqqqqqprqqqomCCCCCC",
"CCCCCCCCCCCCCnqqqqqqqqqonCCCCCCC",
"CCCCCCCCCCCwApqqqqqqonmmCCCCCCCC",
"CCCCCCCfffgky#qqqqnpmCCCCCCCCCCC",
"CCCCCCCbhhieBarrpmCCCCCCCCCCCCCC",
"CCCCCCCbheiixxCCCCCCCCCCCCCCCCCC",
"CCCCCCCabhe..wCCCCCCCCCCCCCCCCCC",
"CCCCCCCChefCCCCCCCCCCCCCCCCCCCCC",
"CCCCCCCCCCCCCCCCCCCCCCCCCCCCCCCC",
"CCCCCCCCCCCCCCCCCCCCCCCCCCCCCCCC"
};
