/* XPM */
static char *t2shr005[] = {
/* width height num_colors chars_per_pixel */
"    32    32       31            1",
/* colors */
". c #6b3931",
"# c #944a39",
"a c #6b2100",
"b c #ce4200",
"c c #944a00",
"d c #392900",
"e c #524a00",
"f c #635a00",
"g c #948c00",
"h c #b5b500",
"i c #ffff00",
"j c #004229",
"k c #18634a",
"l c #001810",
"m c #00ad7b",
"n c #00c68c",
"o c #00634a",
"p c #008463",
"q c #10c69c",
"r c #088c73",
"s c #081010",
"t c #102929",
"u c #39a5b5",
"v c #397b9c",
"w c #21394a",
"x c #5a94c6",
"y c #29425a",
"z c #6ba5de",
"A c #4a739c",
"B c #522131",
"C c None",
/* pixels */
"CCCCCCCCCCCCCCCCljCCCCCCCCCCCCCC",
"CCCCCCCCCCCCCCCCpoCCCCCCCCCCCCCC",
"CCCCCCCCCCCCCCCCqlCCCCCCCCCCCCCC",
"CCCCCCCCCCCCCCConjCCCCCCCCCCCCCC",
"CCCCCCCCCCCCCCCpptlCCCCCCCCCCCCC",
"CCCCCttCCCCCCCCqpllCCCCCCCCCCCCC",
"CCCCwxAysCCCCmmqpjjCCCCCCfgfdCCC",
"CCCCw..BtCCConqqnmpjCCCCghhhdCCC",
"CCCCCnpjtCCCnqqqmmpoCCCCdihgsCCC",
"CCCCjnpnrjCCnnqnmmpolCCCwxxAsCCC",
"CCCCpmpnnnmonqqnmppjlCCCB.#BtCCC",
"CCCCnrrnnnnnnqnnmmojlllprnnwsCCC",
"CCCjnppnnnnnqqvrrpojpnnnnnmlCCCC",
"CCCpmjlnnnnnnxxAwpojmnnnnqmlCCCC",
"CCCnrjCjnnnnuzzAypotnnnnnnmCCCCC",
"CCjnplCCpnnqxzzAyojtnnnmpqrCCCCC",
"CCdkjCCCCrnnzzzAwjjonnmlonpCCCCC",
"CdffdCCCClnqzzxAtpjomjCCoqpCCCCC",
"deggdCCCCjnnxzxypojlCCCCpnoCCCCC",
"edacfCCCCoqnquvrpojCCCCCnnoCCCCC",
"CCdbgeCCCrnmnmmppolCCCCCortCCCCC",
"CCCCCCCCCpmnmmmppolCCCCClpCCCCCC",
"CCCCCCCCClmnnmmpojlCCCCCljCCCCCC",
"CCCCCCCCCCpnnnppjjCCCCCCCCCCCCCC",
"CCCCCCCCCClnnmpjlCCCCCCCCCCCCCCC",
"CCCCCCCCCCCpnpjCCCCCCCCCCCCCCCCC",
"CCCCCCCCCCClnjCCCCCCCCCCCCCCCCCC",
"CCCCCCCCCCCCCCCCCCCCCCCCCCCCCCCC",
"CCCCCCCCCCCCCCCCCCCCCCCCCCCCCCCC",
"CCCCCCCCCCCCCCCCCCCCCCCCCCCCCCCC",
"CCCCCCCCCCCCCCCCCCCCCCCCCCCCCCCC",
"CCCCCCCCCCCCCCCCCCCCCCCCCCCCCCCC"
};
