/* XPM */
static char *t2shl015[] = {
/* width height num_colors chars_per_pixel */
"    32    32       31            1",
/* colors */
". c #100808",
"# c #391010",
"a c #4a1000",
"b c #c63900",
"c c #844200",
"d c #7b6300",
"e c #5a4a00",
"f c #6b6300",
"g c #292921",
"h c #949400",
"i c #a5a500",
"j c #dede00",
"k c #63ce4a",
"l c #4a8c52",
"m c #001810",
"n c #003121",
"o c #006b4a",
"p c #00c68c",
"q c #009c73",
"r c #086b5a",
"s c #089484",
"t c #5a8c8c",
"u c #319ca5",
"v c #21394a",
"w c #5284ad",
"x c #6ba5de",
"y c #5a8cbd",
"z c #395a7b",
"A c #735a84",
"B c #4a1021",
"C c None",
/* pixels */
"CCCCCCCCCCCCCCCCCCCCCCCCCCCCCCCC",
"CCCCCCCCCCCCCCCCCCCCCCCCCCCCCCCC",
"CCCCCCCCCCCCCCCCCCCCCCCCCCCCCCCC",
"CCCCCCCCCgfCCCCCCCCCCCCCCCCCCCCC",
"CCCCCCCCChcigCCCCCCCCCCCCCCCCCCC",
"CCCCCCCCCjihhCCCmonnnnCCCCCCCCCC",
"CCCCCCCCrkfaeCCmpuwsqn.CCCCCCCCC",
"CCCCCCCopo.mCCCqyxyzqqnCCCCCCCCC",
"CCCCCCnprnCCCCouxxwzrqoCCCCCCCCC",
"CCCCCmpqnmCnmopxxxwvoroCCCCCCCCC",
"CCCCCqqooqqppspxxwzoqonmCCCCCCCC",
"CCCCopqppppppppyyzqqrnmCCCCCCCCC",
"CCCoprqppppppppppsqronmCCCCCCCCC",
"CzAtqqpppppppprpsqqonoCCCCCCnCCC",
"CvuwBoorqqspqonpqqooopmCCCmqnCCC",
"Cm#vvCCCCopqnmnqqronqpqCCmppnCCC",
"CCC.vCCCnprnnnnqqonopppnCopq.CCC",
"CCCCCCCCgrnnnnoqooopppponpsnCCCC",
"CCCCCCC.gonmnoqronrppppqqpqmCCCC",
"CCCCCCCCCggvooqoonrpppppppnCCCCC",
"CCCCCCCCCC#BBBBon.Cqpppppr.CCCCC",
"CCCCCCCCCCC.BBBBmCCmqpppqnCCCCCC",
"CCCCCCCCCCCCC.##CCCCmspprmCCCCCC",
"CCCCCCCCCCCCCCCCCCCCzAtlnCCCCCCC",
"CCCCCCCCCCCCCCCCCCCmltxzCCCCCCCC",
"CCCCCCCCCCCCCCCCCCCChjlzgCCCCCCC",
"CCCCCCCCCCCCCCCCCC.fijfvmCCCCCCC",
"CCCCCCCCCCCCCCCCCCfefheCCCCCCCCC",
"CCCCCCCCCCCCCCCCCCcbbdfCCCCCCCCC",
"CCCCCCCCCCCCCCCCCCaabeeCCCCCCCCC",
"CCCCCCCCCCCCCCCCCCCCaCCCCCCCCCCC",
"CCCCCCCCCCCCCCCCCCCCCCCCCCCCCCCC"
};
