/* XPM */
static char *t2shr009[] = {
/* width height num_colors chars_per_pixel */
"    32    32       31            1",
/* colors */
". c #522900",
"# c #7b4a00",
"a c #b57300",
"b c #312100",
"c c #d6ad00",
"d c #efd600",
"e c #636352",
"f c #212100",
"g c #393900",
"h c #4a4a00",
"i c #6b6b00",
"j c #8c8c00",
"k c #c6c600",
"l c #294a31",
"m c #00c68c",
"n c #189473",
"o c #002118",
"p c #005a42",
"q c #009c73",
"r c #08ad8c",
"s c #189c84",
"t c #4a94ad",
"u c #31738c",
"v c #102129",
"w c #63a5d6",
"x c #5284ad",
"y c #314a6b",
"z c #847ba5",
"A c #7b7384",
"B c #845273",
"C c None",
/* pixels */
"CCCCCCCCCCCCCCCCCCCCCCCCCCCCCCCC",
"CCCCCCCCCCCCCCCCCCCCCCCCCCCCCCCC",
"CCCCCCCCCCCCCCCCCCCCCCCCCCCCCCCC",
"CCCCCCCffCCCCCCCCCCCCvoCCCCCCCCC",
"CCCCCCCbhhfppppppppppzvCCCCCCCCC",
"CCCCCCC.hhgmmmmmqmmmnzvCCCCCCCCC",
"CCCCCCC.jjbpppppmmmrlAvCCCCCCCCC",
"CCCCCCCfbCCCCCpmmmmqCvCCCCCCCCCC",
"CCCCCCCCCCCCCqmmmmmpCCCooooCCCCC",
"CCCCCCCoooooqmmmrmmoooqmmmmqCCCC",
"CCCCCCpqtxwxuuqqqqqrmmmmmmmCCCCC",
"CCCCCqmtwwwwwxyqmmmmmmmmmmCCCCCC",
"CCCoqmmwwwwwxuymmmmmmmmmmvCCCCCC",
"CCoqmmmmtxxxuurmmmmmmmmmpCCCCCCC",
"CCpmmmmmmssnsmmmmmmmmmmpCCCCCCCC",
"CCCpqmmrmrrqmqrmrmmmmmmCCCCCCCCC",
"CCCCoqqqqqqqqqqqqqqqqqqCCCCCCCCC",
"CCCCCoppqpqpqpqpqppqpqpCCCCCCCCC",
"CCCCCCooovoqmmmmmmmpvooCCCCCCCCC",
"CCCCCCCCCCCCqmmmmmmqCCCCCCCCCCCC",
"CCCCCCCCCCCCCqmmmmmmoCCCCCCCCCCC",
"CCCCCCCCCCCCCCqmmmmmqCCCCCfCCCCC",
"CCCCCCCCCCCCCCCqmmmmmbBlici.CCCC",
"CCCCCCCCCoqqqqqqqqrqrezAcdcaCCCC",
"CCCCCCCopmmmmmmmmmmmmeAAkdcaCCCC",
"CCCCCCCCCCppppppppppplBuhkd#bCCC",
"CCCCCCCCCCCCCoCCCCCCCCylCfihCCCC",
"CCCCCCCCCCCCCCCCCCCCCCCCCCCCCCCC",
"CCCCCCCCCCCCCCCCCCCCCCCCCCCCCCCC",
"CCCCCCCCCCCCCCCCCCCCCCCCCCCCCCCC",
"CCCCCCCCCCCCCCCCCCCCCCCCCCCCCCCC",
"CCCCCCCCCCCCCCCCCCCCCCCCCCCCCCCC"
};
