/* XPM */
static char *t2ship003[] = {
/* width height num_colors chars_per_pixel */
"    32    32       31            1",
/* colors */
". c #6b2121",
"# c #636b5a",
"a c #319c6b",
"b c #006342",
"c c #008c63",
"d c #00ad7b",
"e c #00ce94",
"f c #002118",
"g c #003929",
"h c #007b5a",
"i c #009c73",
"j c #004231",
"k c #08947b",
"l c #21b5a5",
"m c #186363",
"n c #000808",
"o c #18424a",
"p c #39a5bd",
"q c #4294ad",
"r c #102129",
"s c #213142",
"t c #395a7b",
"u c #639cd6",
"v c #5284b5",
"w c #6ba5e7",
"x c #4a73a5",
"y c #314a6b",
"z c #52314a",
"A c #210810",
"B c #843142",
"C c None",
/* pixels */
"CCCCCCCCCCCCCCCCCCCCCCCCCCCCCCCC",
"CCCCCCCCCbfCCCCCCCCCCCCCCCCCCCCC",
"CCCCCCCCCjiCCCCCCCCCCCCCCCCCCCCC",
"CCCCCCCCCjdiCCCCCCCCCCCCCCCCCCCC",
"CCCCCCCCCjddfCCCCCCrvxCCCCCCCCCC",
"CCCCCCCCCjedhCCCCCCvB#ACCCCCCCCC",
"CCCCCCCCCfddcfjCCCrBaehCCCCCCCCC",
"CCCCCCCCCfdddjcgCCCseeegCCCCCCCC",
"CCCCCCCCCceedcchfCfeeeedfCCCCCCC",
"CCCCCCCCjeeeedhchgieeeeeifCCCCCC",
"CCCCCCCCdeeeeeddhhiedeeeehCCCCCC",
"CCCCCCCCceeeeeeddhbeeebgeebCCCCC",
"CrxynCCCfdeeeeeqqmbdeejCheefCCCC",
"ruz.ACCCfceeeelwuvtbdeCCncdjCCCC",
"sz#djiieeedeeelwwwvobhCCCCjiCCCC",
"rrdehdeeeedeeeeuwwutbjCCCCCfCCCC",
"CCfedbeedeedeeepwwuxmhnCCCCCCCCC",
"CCCdehieeeeedeelpuuxmhgCCCCCCCCC",
"CCCfedbbideedeeeepvqkcbfCCCCCCCC",
"CCCCdehnCffbdceeeeedccbnCCCCCCCC",
"CCCCfedgCCCCCfeeeeedicbnCCCCCCCC",
"CCCCCdehnCCCCChedddddcbnCCCCCCCC",
"CCCCCfedjCCCCCfiiddddibCCCCCCCCC",
"CCCCCCcejCCCCCCjbcidddbCCCCCCCCC",
"CCCCCCCjcCCCCCCCCfjhidbCCCCCCCCC",
"CCCCCCCCjnCCCCCCCCCCfjjCCCCCCCCC",
"CCCCCCCCCCCCCCCCCCCCCCCCCCCCCCCC",
"CCCCCCCCCCCCCCCCCCCCCCCCCCCCCCCC",
"CCCCCCCCCCCCCCCCCCCCCCCCCCCCCCCC",
"CCCCCCCCCCCCCCCCCCCCCCCCCCCCCCCC",
"CCCCCCCCCCCCCCCCCCCCCCCCCCCCCCCC",
"CCCCCCCCCCCCCCCCCCCCCCCCCCCCCCCC"
};
