/* XPM */
static char *t2shl006[] = {
/* width height num_colors chars_per_pixel */
"    32    32       30            1",
/* colors */
". c #7b4a4a",
"# c #bd3100",
"a c #632900",
"b c #4a2900",
"c c #845200",
"d c #423900",
"e c #6b6b00",
"f c #adad00",
"g c #ffff00",
"h c #636b4a",
"i c #081000",
"j c #001810",
"k c #008c63",
"l c #00ad7b",
"m c #00c68c",
"n c #088463",
"o c #08a57b",
"p c #004231",
"q c #00634a",
"r c #10736b",
"s c #21ada5",
"t c #638c94",
"u c #182931",
"v c #294252",
"w c #426384",
"x c #6ba5de",
"y c #639cd6",
"z c #527bad",
"A c #6b394a",
"B c None",
/* pixels */
"BBBBBBBBBBBBBBBBBBBBBBBBBBBBBBBB",
"BBBBBBBBBBdBBBBBBBBBkjBBBBBBBBBB",
"BBBBBBBBBBgfcBBBBBBpmjBBBBBBBBBB",
"BBBBBBBBuhgffbBBBBBkljBBBBBBBBBB",
"BBBBBBBBv.tddiBBBBkmkjBBBBBBBBBB",
"BBBBBBBBnhAviBBBBjmmmjBBBBBBBBBB",
"BBBBBBBpmnjjBBBpllmlmjBBBBBBBBBB",
"BBBBBBjmkkojBBpmmmmlmjBBBBBBBBBB",
"BBBBBjllkmmljjmmmmlmkjBBBBBBBBBB",
"BBBBBllqmmmmlkmmmmllkqBBBBBBBBBB",
"BBBBqlqpmmmmlmmmmllkkpjBBBBBBBBB",
"BBBpmkpBlmmlmmmmmlkkqpBBBBBBBBBB",
"BBBokpBBlmmlszwrllkqpjBBBBzwvBBB",
"BBjmuBBBjmmsyyzvkkkqppjBBu.#zvBB",
"BBqjBBBBjmoyyyzvkkqpkmmmmkmlavBB",
"BBjBBBBBjmsxxzwukqpqmmmmmmmkujBB",
"BBBBBBBBkmxxyzvqkqplmmmmmmlpBBBB",
"BBBBBBBqmmxxzwvkqpkmmmmmmmkjBBBB",
"BBBBBBBlmmszwkkqppmmllpqmlpBBBBB",
"BBBBBBBlmmmmlkkqppppBBBkmkBBBBBB",
"BBBBBBBkmmmllkqpjBBBBBpmlpBBBBBB",
"BBBBBBBlmmmlkkqjBBBBBBmmqBBBBBBB",
"BBBBBBBqmmllkqqjBBBBBpnlpBBBBBBB",
"BBBBBBBkmmkqqppBBBBBidnvBBBBBBBB",
"BBBBBBBpmqpjBBBBBBidddedBBBBBBBB",
"BBBBBBBjjjBBBBBBBBdaaefiBBBBBBBB",
"BBBBBBBBBBBBBBBBBBBa#adbBBBBBBBB",
"BBBBBBBBBBBBBBBBBBBBa#ceBBBBBBBB",
"BBBBBBBBBBBBBBBBBBBBBBBBBBBBBBBB",
"BBBBBBBBBBBBBBBBBBBBBBBBBBBBBBBB",
"BBBBBBBBBBBBBBBBBBBBBBBBBBBBBBBB",
"BBBBBBBBBBBBBBBBBBBBBBBBBBBBBBBB"
};
