/* XPM */
static char *t2shb003[] = {
/* width height num_colors chars_per_pixel */
"    32    32       30            1",
/* colors */
". c #942900",
"# c #ad3100",
"a c #522100",
"b c #ef6b00",
"c c #c66300",
"d c #ef9400",
"e c #a59c00",
"f c #313100",
"g c #525200",
"h c #bdbd00",
"i c #dede00",
"j c #94bd18",
"k c #5a945a",
"l c #001810",
"m c #007352",
"n c #00c68c",
"o c #009c73",
"p c #089473",
"q c #004231",
"r c #21b5ad",
"s c #186363",
"t c #183142",
"u c #4a739c",
"v c #639cd6",
"w c #101821",
"x c #73adef",
"y c #527bad",
"z c #52314a",
"A c #6b4252",
"B c None",
/* pixels */
"BBBBBBBBBBBBBBBBBBBBBBBBBBBBBBBB",
"BBBBBBBBBmlBBBBBBBBBBBBBBBBBBBBB",
"BBBBBBBBBqoBBBBBBBBBBBBBBBBBBBBB",
"BBBBBBBBBqnoBBBBBBBBBBBBBBBBBBBB",
"BBBBBBBBBqnolBBBBBBwyuBBBBBBBBBB",
"BBBBBBBBBqonmBBBBBByAAwBBBBBBBBB",
"BBBBBBBBBlnoolqBBBwAknmBBBBBBBBB",
"BBBBBBBBBwonoqoqBBBtnnnqBBBBBBBB",
"BBBBBBBBBmnnnommwBlnnnnnlBBBBBBB",
"BBBBBBBBqnnnnomomqonnnnnolBBBBBB",
"BBBBBBBBnnnnnnoommonnnnnnmBBBBBB",
"BBBBBBBBmnnnnnnnnmmnnnmqnnmBBBBB",
"BwusBBBBlnnnnnnyusmonnqBmnnlBBBB",
"wvz.wBBBlonnnnrxvyumonBBlokkgBBB",
"tzknqoonnnnnnnrxxxytmmBBBBjiihgB",
"wwnnmonnnnnnnnnvxxyumqBBBBidbcaB",
"BBlnnmnnnnnnnnnvvxvytmlBBBeb#.BB",
"BBBonmonnnnnnnnnvvvusmqBBBe.fBBB",
"BBBqnommonnnnnnnnryypomlBBBBBBBB",
"BBBBonmBBwlmoonnnnnnooqlBBBBBBBB",
"BBBBwnnqBBBBBlnnnnnoommlBBBBBBBB",
"BBBBBonmBBBBBBmnnnnoooqBBBBBBBBB",
"BBBBBqnnqBBBBBloooonoomBBBBBBBBB",
"BBBBBBpjheBBBBBqmooonomBBBBBBBBB",
"BBBBBBfhieigBBBBBlqmoomBBBBBBBBB",
"BBBBBBfidcdeBBBBBBBBlqqBBBBBBBBB",
"BBBBBBficbcBBBBBBBBBBBBBBBBBBBBB",
"BBBBBBfi#.fBBBBBBBBBBBBBBBBBBBBB",
"BBBBBBBBBBBBBBBBBBBBBBBBBBBBBBBB",
"BBBBBBBBBBBBBBBBBBBBBBBBBBBBBBBB",
"BBBBBBBBBBBBBBBBBBBBBBBBBBBBBBBB",
"BBBBBBBBBBBBBBBBBBBBBBBBBBBBBBBB"
};
