/* XPM */
static char *t2shf005[] = {
/* width height num_colors chars_per_pixel */
"    32    32       30            1",
/* colors */
". c #734a42",
"# c #211810",
"a c #cead00",
"b c #525200",
"c c #636300",
"d c #949400",
"e c #d6d600",
"f c #4a6b31",
"g c #63ce4a",
"h c #317331",
"i c #001810",
"j c #006b4a",
"k c #00ad7b",
"l c #00c68c",
"m c #089c73",
"n c #003929",
"o c #088c6b",
"p c #008463",
"q c #10c69c",
"r c #31a5ad",
"s c #298c94",
"t c #104a52",
"u c #213942",
"v c #5a94c6",
"w c #527ba5",
"x c #639cd6",
"y c #101821",
"z c #395273",
"A c #4a2939",
"B c None",
/* pixels */
"BBBBBBBBBBBBBBBBinBBBBBBBBBBBBBB",
"BBBBBBBBBBBBBBBBjjBBBBBBBBBBBBBB",
"BBBBBBBBBBBBBBBBlnBBBBBBBBBBBBBB",
"BBBBBBBBBBBBBBBhlnBBBBBBBBBBBBBB",
"BBBBBBBBBBBBBBdgpnbcBBBBBBBBBBBB",
"BBBBByyBBBBBBbakonnebBBBBBBBBBBB",
"BBBBtwwzBBBBBmlkjnhebBBBBBBBBBBB",
"BBBBu..AyBBBjqlkpnpf#BBBBBBBBBBB",
"BBBBBqmjyBBBllqlnppjiBBBBByBBBBB",
"BBBBnljlmnBBlqlljmpjiBBBuvvwyBBB",
"BBBBpkolllmjllqlmmpniBBBA..AyBBB",
"BBBBlmolllllqqllkppnBnijmllAyBBB",
"BBBnljkllllllqrskpjnqlllllkiBBBB",
"BBBpkjilllllqrvwtpjnlllllqkiBBBB",
"BBBlmiBnllllrxvwzpjpllllllmiBBBB",
"BBnlpiBBpllqxxxwzjnjlllkpqmBBBBB",
"BB#muBBBBmllxxxwupnollkijlpBBBBB",
"BBymBBBBBilqxxxztjnkknBBjqpBBBBB",
"BBnnBBBBBnlqvxvzjpnnBBBBmljBBBBB",
"BBiBBBBBBjqlqrsmpjnBBBBBkljBBBBB",
"BBBBBBBBBkllllkmpjnBBBBBjoyBBBBB",
"BBBBBBBBBplqlllopnnBBBBBipBBBBBB",
"BBBBBBBBBillllkojjBBBBBBinBBBBBB",
"BBBBBBBBBBplqkmjjiBBBBBBBBBBBBBB",
"BBBBBBBBBBillkpnBBBBBBBBBBBBBBBB",
"BBBBBBBBBBBploniBBBBBBBBBBBBBBBB",
"BBBBBBBBBBBilnBBBBBBBBBBBBBBBBBB",
"BBBBBBBBBBBBBBBBBBBBBBBBBBBBBBBB",
"BBBBBBBBBBBBBBBBBBBBBBBBBBBBBBBB",
"BBBBBBBBBBBBBBBBBBBBBBBBBBBBBBBB",
"BBBBBBBBBBBBBBBBBBBBBBBBBBBBBBBB",
"BBBBBBBBBBBBBBBBBBBBBBBBBBBBBBBB"
};
