/* XPM */
static char *t2shl009[] = {
/* width height num_colors chars_per_pixel */
"    32    32       31            1",
/* colors */
". c #7b3900",
"# c #ad6300",
"a c #bd8c00",
"b c #635a00",
"c c #948c00",
"d c #5a5a42",
"e c #080800",
"f c #181800",
"g c #393900",
"h c #737300",
"i c #efef00",
"j c #294a31",
"k c #18946b",
"l c #001810",
"m c #00c68c",
"n c #005a42",
"o c #009c73",
"p c #002921",
"q c #189c84",
"r c #10949c",
"s c #102129",
"t c #4294bd",
"u c #315a73",
"v c #6ba5de",
"w c #4a739c",
"x c #5284b5",
"y c #636384",
"z c #847bad",
"A c #845273",
"B c #a56384",
"C c None",
/* pixels */
"CCCCCCCCCCCCCCCCCCCCCCCCCCCCCCCC",
"CCCCCCCCCCCCCCCCCCCCCCCCCCCCCCCC",
"CCCCCCCCCCCCCCCCCCCCCCCCCCCCCCCC",
"CCCCCCCCCCCCCCCCCCCCCspCggCCCCCC",
"CCCCCCCCCCCnpnnpnnpnnzjaiaCCCCCC",
"CCCCCCCCCoommmmmmmmmkzcii#CCCCCC",
"CCCCCCCCCCpnnnnoommodydcchCCCCCC",
"CCCCCCCCCCCCCCnmmmmoCsCghgCCCCCC",
"CCCCCCCCCCCCCommmmmnCCCppppCCCCC",
"CCCCCCClllllomommmmllpommmmoCCCC",
"CCCCCCnorttxwuooooommmmmmmmCCCCC",
"CCCCComtvvvvtwuommmmmmmmmmCCCCCC",
"CCClommvvvvxxwummmmmmmmmmpCCCCCC",
"CCpommmmtxxwwummmmmmmmmmnCCCCCCC",
"CCnmmmmmmqqkqmmmmmmmmmmnCCCCCCCC",
"CCCnommomomommomommmmmmlCCCCCCCC",
"CCCCpooooooooooooooooooCCCCCCCCC",
"CCCCClnononononononononCCCCCCCCC",
"CCCCCClppppommmmmmmnpplCCCCCCCCC",
"CCCCCCCCCCCCommmmmmoCCCCCCCCCCCC",
"CCCCCCCCCCCCCommmmmmpCCCCCCCCCCC",
"CCCCCCeeCCCCCCommmmmoCCCCCCCCCCC",
"CCCCCCggfCCCCCCommmmmgysCCCCCCCC",
"CCCCCeghggooooooooooodzuCCCCCCCC",
"CCCCCC..hkmmmmmmmmmmmdBueCCCCCCC",
"CCCCCe#hgcnnnnnnnnnnnuAuCCCCCCCC",
"CCCCCCcbeCCClClClCClCCujCCCCCCCC",
"CCCCCCCCCCCCCCCCCCCCCCCCCCCCCCCC",
"CCCCCCCCCCCCCCCCCCCCCCCCCCCCCCCC",
"CCCCCCCCCCCCCCCCCCCCCCCCCCCCCCCC",
"CCCCCCCCCCCCCCCCCCCCCCCCCCCCCCCC",
"CCCCCCCCCCCCCCCCCCCCCCCCCCCCCCCC"
};
