/* XPM */
static char *t2shl002[] = {
/* width height num_colors chars_per_pixel */
"    32    32       31            1",
/* colors */
". c #9c3129",
"# c #730800",
"a c #b56b00",
"b c #312900",
"c c #847b00",
"d c #212100",
"e c #424200",
"f c #b5b500",
"g c #cece00",
"h c #638c21",
"i c #adce8c",
"j c #081000",
"k c #007352",
"l c #002118",
"m c #005a42",
"n c #00946b",
"o c #00b584",
"p c #183931",
"q c #004231",
"r c #00c694",
"s c #08846b",
"t c #08bd9c",
"u c #189c9c",
"v c #000808",
"w c #294a5a",
"x c #529cc6",
"y c #639cd6",
"z c #5a84b5",
"A c #6ba5e7",
"B c #4a6b94",
"C c None",
/* pixels */
"CCCCCCCCCCCCCCCCCCCCCCCCCCCCCCCC",
"CCCCCCCCCCCCCCCCCCCCCCCCCCCCCCCC",
"CCCCCCCCCCCCCCCCCCCCCCCCCCCCCCCC",
"CCCCCCmqCCCCCCCCBBvCCCCCCCCCCCCC",
"CCCCCClonlCCCCCwx.qCCCCCCCCCCCCC",
"CCCCCCloonCCCCCw.nrnvCCCCCCCCCCC",
"CCCCCCCnrrnCCCvlvrrrrmCCCCCCCCCC",
"CCCCCCCkoroklCCCmrrrrrnlCCCCCCCC",
"CCCCCCClrrrrqmlCkrrroorrmCCCCCCC",
"CCCCCCCCrrorrmnkoorrnqnrrkCCCCCC",
"CCCCCCCCrrrrrnonknrrrCCmohgffjCC",
"CCCCCCCkrrrrrroonsnrrlCCvcgcbCCC",
"CCCCCCCnrrrrrrrxyxBwnlCCCdf.#CCC",
"CbCCCCCkorrrrrrxAAAzwmCCCjcbCCCC",
"eejCCCClkorrrrrtAAAyzwmvCCjCCCCC",
"ccbjCCCCCkorrrrtxyAAxBsklCCCCCCC",
"afBBlCllnrroorrrtuxxzBsklCCCCCCC",
"fiB#bnrrrroroorrttututkmqvCCCCCC",
"CA#ookrrrrrrrooorrtttnkkmvCCCCCC",
"CwprronnrrrrorooorrrokskkqCCCCCC",
"CCvlnrrknonkkqqlnoorkknnnqCCCCCC",
"CCCClnrrnlCCCCCCvkokkkknnnvCCCCC",
"CCCCCCkrrnqCCCCCCCmqqmkmkklCCCCC",
"CCCCCCCkrroqCCCCCCCCCCCCCCCCCCCC",
"CCCCCCCCqrrojCCCCCCCCCCCCCCCCCCC",
"CCCCCCCCClrnkCCCCCCCCCCCCCCCCCCC",
"CCCCCCCCCCClkkCCCCCCCCCCCCCCCCCC",
"CCCCCCCCCCCCCCCCCCCCCCCCCCCCCCCC",
"CCCCCCCCCCCCCCCCCCCCCCCCCCCCCCCC",
"CCCCCCCCCCCCCCCCCCCCCCCCCCCCCCCC",
"CCCCCCCCCCCCCCCCCCCCCCCCCCCCCCCC",
"CCCCCCCCCCCCCCCCCCCCCCCCCCCCCCCC"
};
