/* XPM */
static char *t2ship009[] = {
/* width height num_colors chars_per_pixel */
"    32    32       31            1",
/* colors */
". c #392118",
"# c #636b4a",
"a c #004a31",
"b c #003121",
"c c #006b4a",
"d c #00a573",
"e c #00c68c",
"f c #00ce94",
"g c #002118",
"h c #007b5a",
"i c #00946b",
"j c #089c7b",
"k c #10ad8c",
"l c #217b6b",
"m c #294242",
"n c #39949c",
"o c #4aadbd",
"p c #316b84",
"q c #31526b",
"r c #102131",
"s c #213142",
"t c #6ba5de",
"u c #5a8cbd",
"v c #395a7b",
"w c #527bad",
"x c #5a6384",
"y c #8473a5",
"z c #7b6b94",
"A c #6b5a73",
"B c #a56384",
"C c None",
/* pixels */
"CCCCCCCCCCCCCCCCCCCCCCCCCCCCCCCC",
"CCCCCCCCCCCCCCCCCCCCCCCCCCCCCCCC",
"CCCCCCCCCCCCCCCCCCCCCCCCCCCCCCCC",
"CCCCCCCCCCCCCCCCCCCCCsgCCCCCCCCC",
"CCCCCCCCCCCaaaaaaaaaayrCCCCCCCCC",
"CCCCCCCCCideeeeeeeeelymCCCCCCCCC",
"CCCCCCCCCCbaaaahdffd#xrCCCCCCCCC",
"CCCCCCCCCCCCCCaffefdCrCCCCCCCCCC",
"CCCCCCCCCCCCCdffefeaCCCggggCCCCC",
"CCCCCCCgggggieeefeeggbdeedecCCCC",
"CCCCCCcdnuuwwpjdddddedddddhCCCCC",
"CCCCCifottttuwpjeffdddjidhCCCCCC",
"CCCgdffotttuuwqffeddjddddgCCCCCC",
"CCgdfffkowwwppkefffffdddaCCCCCCC",
"CCcfffffekklkeeeeeeeeffcCCCCCCCC",
"CCCadeeekddededededkdedCCCCCCCCC",
"CCCCbidddddjdjdjdjdddjdCCCCCCCCC",
"CCCCCgchhhhhhhhhhhhhhhcCCCCCCCCC",
"CCCCCCgbbbbdefeeeefabbbCCCCCCCCC",
"CCCCCCCCCCCCieefefejCCCCCCCCCCCC",
"CCCCCCCCCCCCCieefeeegCCCCCCCCCCC",
"CCCCCCCCCCCCCCieefefdCCCCCCCCCCC",
"CCCCCCCCCCCCCCCifeeef.ArCCCCCCCC",
"CCCCCCCCCgeddeddedeed#zvCCCCCCCC",
"CCCCCCCgheeffeffeffef#BpCCCCCCCC",
"CCCCCCCCCCcccccccccccmBqCCCCCCCC",
"CCCCCCCCCCCCCCCCCCCCCCqmCCCCCCCC",
"CCCCCCCCCCCCCCCCCCCCCCCCCCCCCCCC",
"CCCCCCCCCCCCCCCCCCCCCCCCCCCCCCCC",
"CCCCCCCCCCCCCCCCCCCCCCCCCCCCCCCC",
"CCCCCCCCCCCCCCCCCCCCCCCCCCCCCCCC",
"CCCCCCCCCCCCCCCCCCCCCCCCCCCCCCCC"
};
