/* XPM */
static char *t2shr014[] = {
/* width height num_colors chars_per_pixel */
"    32    32       31            1",
/* colors */
". c #210808",
"# c #6b1800",
"a c #d64200",
"b c #8c4a00",
"c c #4a4200",
"d c #847b00",
"e c #313129",
"f c #5a5a00",
"g c #636300",
"h c #a5a500",
"i c #efef00",
"j c #086b42",
"k c #08ad73",
"l c #006b4a",
"m c #00c68c",
"n c #089473",
"o c #00a57b",
"p c #105a4a",
"q c #002921",
"r c #21b59c",
"s c #001010",
"t c #396373",
"u c #182931",
"v c #427b94",
"w c #5a94c6",
"x c #314a63",
"y c #6ba5de",
"z c #6394ce",
"A c #a55a7b",
"B c #391018",
"C c None",
/* pixels */
"CCCCCCCCCCCCCCCCCCCCCCCCCCCCCCCC",
"CCCCCCCCCCCCCCCCCCCCCCCCCCCCCCCC",
"CCCCCCCCCCCCCCCCCCCCCCCCCCCCCCCC",
"CCCCCCCCCCCCCCCCCCCCCCCCCCCCCCCC",
"CCCCCCCCCCCCCCCCsjsCCCCCCCCCCCCC",
"CCCCCCCCCCCCCqlovllCCCCCCCCCCCCC",
"CCCCCCCCCCCCCnrwztnnsCCCCCCCCCCC",
"CCCCCCqqCCCCCmryzvpljCCCCcg.CCCC",
"CCCCCqnqCCCCqmyyzvulqCCCfhhhd.CC",
"CCCCCloqCCCClryyztplqCCC.iiif.CC",
"CCCCCmnqCCqommyywxllqCCCChidcCCC",
"CCCCjmlCCqnmmmrwvnnlqqCCCpmjCCCC",
"CCCClojqnmmmmmmmooljlnqCCjmlCCCC",
"CCCCmnnmmmmmmmmoooljlmnCClmlCCCC",
"CCCjmlmmmmmmmmmqonlqnmmnCnmjCCCC",
"CCClonmmmmmmmmlqnnlqnmmmnmmqCCCC",
"CCCmonmmoolmmmlqqnlqommmmmmqCCCC",
"CuwAxpqsCClmmoqqqjjqmmmmmmmqCCCC",
"CuxvtuCCCCmkonqqqjjqlommmmoqCCCC",
"CsdifuCCCCeeolqqspqsCslmmmosCCCC",
"CghcdCCCCCBBBeB.s.usCCCqnwtsCCCC",
"cbgdcCCCCCCBBBBBBBBCCCCxwwytCCCC",
"CabbgCCCCCCCC..B..CCCCCuepexCCCC",
"CCc#cCCCCCCCCCCCCCCCCCCCuBusCCCC",
"CCCCCCCCCCCCCCCCCCCCCCCCCCCCCCCC",
"CCCCCCCCCCCCCCCCCCCCCCCCCCCCCCCC",
"CCCCCCCCCCCCCCCCCCCCCCCCCCCCCCCC",
"CCCCCCCCCCCCCCCCCCCCCCCCCCCCCCCC",
"CCCCCCCCCCCCCCCCCCCCCCCCCCCCCCCC",
"CCCCCCCCCCCCCCCCCCCCCCCCCCCCCCCC",
"CCCCCCCCCCCCCCCCCCCCCCCCCCCCCCCC",
"CCCCCCCCCCCCCCCCCCCCCCCCCCCCCCCC"
};
