/* XPM */
static char *t2shr002[] = {
/* width height num_colors chars_per_pixel */
"    32    32       31            1",
/* colors */
". c #9c3129",
"# c #7b0800",
"a c #ce5a00",
"b c #633100",
"c c #944a00",
"d c #181000",
"e c #6b6300",
"f c #b5ad00",
"g c #949400",
"h c #e7e700",
"i c #212900",
"j c #9cad5a",
"k c #84de39",
"l c #7ba584",
"m c #63846b",
"n c #001810",
"o c #005239",
"p c #007352",
"q c #00c68c",
"r c #00946b",
"s c #18bd9c",
"t c #087b63",
"u c #08846b",
"v c #299c9c",
"w c #4a9cb5",
"x c #295a6b",
"y c #639cd6",
"z c #73adef",
"A c #4a6b94",
"B c #42638c",
"C c None",
/* pixels */
"CCCCCCCCCCCCCCCCCCCCCCCCCCCCCCCC",
"CCCCCCCCCCCCCdddCCCCCCCCCCCCCCCC",
"CCCCCCCCCCCCCbeeCCCCCCCCCCCCCCCC",
"CCCCCCpoCCCCCahglACCCCCCCCCCCCCC",
"CCCCCCnqpnCCCffjy.oCCCCCCCCCCCCC",
"CCCCCCnqqrCCCCdm.rqrnCCCCCCCCCCC",
"CCCCCCCrqqrCCCCnnqqqqoCCCCCCCCCC",
"CCCCCCCpqqqpnCCCoqqqqqrnCCCCCCCC",
"CCCCCCCnqqqqopnCpqqqqqqqoCCCCCCC",
"CCCCCCCCqqqqqorpqqqqrnrqqpCCCCCC",
"CCCCCCCCqqqqqrrrprqqqCCoqpoCCCCC",
"CCCCCCCtqqqqqqqqutrqqnCCnnonCCCC",
"CCCCCCCrqqqqqqqwyyAxrnCCCCCCCCCC",
"CCCCCCCpqqqqqqqwzzywxoCCCCCCCCCC",
"CCCCCCCnpqqqqqqsyzzywxonCCCCCCCC",
"CCCCCCCCCpqqqqqqwyyyyAupnCCCCCCC",
"CCABnCnnrqqqqqqqswyywAupnCCCCCCC",
"CBA#irqqqqqqqqqqqqssvsppoCCCCCCC",
"Cz#qqtqqqqqqqqrqqqqsqrpponCCCCCC",
"CxoqqqrrqqqqqqqqqqqqqpptpnCCCCCC",
"CCCnrqqprqrppoonuqqqpprrroCCCCCC",
"CCCCnrqqrnCCCCCCnprtppprrrnCCCCC",
"CCCCCCpqqroCCCCCCCooooppppnCCCCC",
"CCCCCCCpqqroCCCCCCCCCCCCCCCCCCCC",
"CCCCCCCCoqqqbiCCCCCCCCCCCCCCCCCC",
"CCCCCCCCCnqkfhhhdCCCCCCCCCCCCCCC",
"CCCCCCCCCCCghhfbdCCCCCCCCCCCCCCC",
"CCCCCCCCCCCifgcdCCCCCCCCCCCCCCCC",
"CCCCCCCCCCCCfc#CCCCCCCCCCCCCCCCC",
"CCCCCCCCCCCCbiCCCCCCCCCCCCCCCCCC",
"CCCCCCCCCCCCCCCCCCCCCCCCCCCCCCCC",
"CCCCCCCCCCCCCCCCCCCCCCCCCCCCCCCC"
};
