/* XPM */
static char *t2shf004[] = {
/* width height num_colors chars_per_pixel */
"    32    32       31            1",
/* colors */
". c #ad4a4a",
"# c #522121",
"a c #942929",
"b c #ce2918",
"c c #f7d600",
"d c #525239",
"e c #101008",
"f c #313100",
"g c #9c9c00",
"h c #8c9400",
"i c #9cc600",
"j c #63ad4a",
"k c #008c63",
"l c #00c68c",
"m c #00b584",
"n c #105242",
"o c #004231",
"p c #00634a",
"q c #10c69c",
"r c #086352",
"s c #29bdad",
"t c #105252",
"u c #001010",
"v c #296b8c",
"w c #4a739c",
"x c #5a8cbd",
"y c #6ba5e7",
"z c #527bad",
"A c #212939",
"B c #5a425a",
"C c None",
/* pixels */
"CCCCCCCCCCCCCrCCCCCCCCCCCCCCCCCC",
"CCCCCCCCCCCCClCCCCCCCCCCCCCCCCCC",
"CCCCCCCCCCCColoCCCCCCCCCCCCCCCCC",
"CCCCCCCCCCCComoCfCCCCCCCCCCCCCCC",
"CCCCCCCCCCCgjmpfceCCCCCCCCCCCCCC",
"CCCCCCCCCCfcjmkoheCCCCCCCCCCCCCC",
"CCCCCCCCCCicmmkunuCCCCAxzACCCCCC",
"CCCCCCCCCCilllkokpCCCCz.aACCCCCC",
"CCCeuCCCCCkqqlmokpuCCCnllACCCCCC",
"CCxxwACCCClqqlmkkruCCulllpCCCCCC",
"CCBbd#uCCCklqqlkmkoumlllqmCCCCCC",
"CCeqkkkooCkqqqqmmkomlllllmuCCCCC",
"CCCqmkllllmlqqqvmkpmllllllpCCCCC",
"CCCmmkllllllqqxywtrrlllkkqkCCCCC",
"CCCmmpllllllqsyyxvrplqkCuqmuCCCC",
"CCCkmpmlllllqsyyxwpomloCullpCCCC",
"CCCkloupllllqqyyywnnmuCCCkqnCCCC",
"CCCklrCComlllqyyywtruCCCCemoCCCC",
"CCCplkCCCCpmllsyxwrroCCCCCupCCCC",
"CCColkCCCCCplqlsskmkoCCCCCCoCCCC",
"CCCeknCCCCColqqlmkkkouCCCCCCCCCC",
"CCCCooCCCCCulllllmkpouCCCCCCCCCC",
"CCCCuoCCCCCukmllmmkpuCCCCCCCCCCC",
"CCCCCCCCCCCCokmlmmkouCCCCCCCCCCC",
"CCCCCCCCCCCCCukmlmpuCCCCCCCCCCCC",
"CCCCCCCCCCCCCCCrlmoCCCCCCCCCCCCC",
"CCCCCCCCCCCCCCCComuCCCCCCCCCCCCC",
"CCCCCCCCCCCCCCCCCuCCCCCCCCCCCCCC",
"CCCCCCCCCCCCCCCCCCCCCCCCCCCCCCCC",
"CCCCCCCCCCCCCCCCCCCCCCCCCCCCCCCC",
"CCCCCCCCCCCCCCCCCCCCCCCCCCCCCCCC",
"CCCCCCCCCCCCCCCCCCCCCCCCCCCCCCCC"
};
