/* XPM */
static char *t2shf014[] = {
/* width height num_colors chars_per_pixel */
"    32    32       31            1",
/* colors */
". c #ce3100",
"# c #5a1800",
"a c #9c2900",
"b c #de4200",
"c c #bd7b00",
"d c #d6b500",
"e c #7b7300",
"f c #5a5a00",
"g c #a5a500",
"h c #cece00",
"i c #7b8400",
"j c #6b7b08",
"k c #638c21",
"l c #00c68c",
"m c #002118",
"n c #004231",
"o c #00634a",
"p c #008463",
"q c #105a4a",
"r c #108c73",
"s c #10bd9c",
"t c #31525a",
"u c #183139",
"v c #399cbd",
"w c #396373",
"x c #4a849c",
"y c #639cce",
"z c #080810",
"A c #a55a7b",
"B c #311018",
"C c None",
/* pixels */
"CCCCCCCCCCCCCCCCCCCCCCCCCCCCCCCC",
"CCCCCCCCCCCCCCCCCCCCCCCCCCCCCCCC",
"CCCCCCCCCCCCCCCCCCCCCCCCCCCCCCCC",
"CCCCCCCCCCCCCCCCCCCCCCCCCCCCCCCC",
"CCCCCCCCCCCCCCCCmozCCCCCCCCCCCCC",
"CCCCCCCCCCCCCmprxppCCCCCCCCCCCCC",
"CCCCCCCCCCCCCpsyyxppmCCCCCCCCCCC",
"CCCCCCmnCCCCClvyyxqpnCCCCCCCCCCC",
"CCCCCmpmCCCCnlyyyxqpnCCCCCCCCCCC",
"CCCCCprnCCCCosyyywqonCCCCCCCCCCC",
"CCCCClpmCCmrllyyxwponCCCCCnzCCCC",
"CCCColomCmrlllsyxrponmCCCnloCCCC",
"CCCCplnmrllllllllrpoprmCColpCCCC",
"CCCClprllllllllllppnplrCCploCCCC",
"CCCnlollllllllrnlppnlllrCploCCCC",
"CCCplrllllllllonlponllllrllnCCCC",
"CCClpplllrpllromrpoolllllllnCCCC",
"CmxAwqnmCmolllmmlpoolllllllmCCCC",
"CuwxwuCCCCllrrnmppnnorlllllmCCCC",
"CzBButCCCCufppmmupnmCmolllrmCCCC",
"CCCCzzCCCCBhgkjifBuCCCCmrxxCCCCC",
"CCCCCCCCCCgdhdcicgBzCCCwyyywCCCC",
"CCCCCCCCCfhhdhcjdhCCCCCutquwzCCC",
"CCCCCCCCCeiabcahdgCCCCCCuBuuCCCC",
"CCCCCCCCCCgabb..hhCCCCCCCCCCCCCC",
"CCCCCCCCCC#b.ab.dfCCCCCCCCCCCCCC",
"CCCCCCCCCCCC#aa.CCCCCCCCCCCCCCCC",
"CCCCCCCCCCCCCCCCCCCCCCCCCCCCCCCC",
"CCCCCCCCCCCCCCCCCCCCCCCCCCCCCCCC",
"CCCCCCCCCCCCCCCCCCCCCCCCCCCCCCCC",
"CCCCCCCCCCCCCCCCCCCCCCCCCCCCCCCC",
"CCCCCCCCCCCCCCCCCCCCCCCCCCCCCCCC"
};
