/* XPM */
static char *t2shb013[] = {
/* width height num_colors chars_per_pixel */
"    32    32       31            1",
/* colors */
". c #211800",
"# c #bd9400",
"a c #d6bd00",
"b c #847b00",
"c c #c6c618",
"d c #313100",
"e c #adad00",
"f c #f7f700",
"g c #739410",
"h c #31d673",
"i c #426352",
"j c #001008",
"k c #317b5a",
"l c #184a39",
"m c #004a31",
"n c #007352",
"o c #00c68c",
"p c #08a57b",
"q c #009c73",
"r c #10bda5",
"s c #21847b",
"t c #39adb5",
"u c #6bade7",
"v c #314a63",
"w c #426b94",
"x c #6394ce",
"y c #6b8cbd",
"z c #212129",
"A c #946b7b",
"B c #210810",
"C c None",
/* pixels */
"CCCCCCCCCCCCCCCCCCCCCCCCCCCCCCCC",
"CCCCCCCCCCCCCCCCCCCCCCCCCCCCCCCC",
"CCCCCCCCCCCCCCCCCCCCCCCCCCCCCCCC",
"CCCCCCCCCCCCCCCCCCCCCCCCCCCCCCCC",
"CCCCCCCCCCCCCnmjCCCCCCC.ddCCCCCC",
"CCCCCCCCCCCCqrwpmjCCCCd#fa.CCCCC",
"CCCCCCCCCCCpoxxwqnjCCCafaf.CCCCC",
"CCCCCCCCCCnotuuyvnmCCCefafCCCCCC",
"CCd#b#dCCCqotuuyvnmCCCCghqCCCCCC",
"CCdfefbCCCnoruuxvnmjCCCjopjCCCCC",
"CCbacbdCCCmorxuyvnnpmCCCoomCCCCC",
"CCCghiCCCCmoorttpqnnopmCnrnCCCCC",
"CCCmonCCCmooorooppnnooopnoojCCCC",
"CCCmonjCmoooorooppnmpoooooomCCCC",
"CCjjoqjjooooorooqoqnpooooornCCCC",
"CCCmrnmooooooropqqnnnooooooojCCC",
"CCCjopqoooooooroqnqnmnqoooopmCCC",
"CCCjoqqooooqoroopnqnmjCjjmAyywCC",
"CCCCoonooonjooopoqmlljCCClxslvjC",
"CCCCppnopjjjoppppozBBjCCCCvBzjCC",
"CCCCksimjCCCnzzllzBBBBCCCCCCCCCC",
"CCCvuxwzCCCCzBBBBBBBjCCCCCCCCCCC",
"CCCwsizvCCCCCjB.BBjCCCCCCCCCCCCC",
"CCCjzBzjCCCCCCCCCCCCCCCCCCCCCCCC",
"CCCCCCCCCCCCCCCCCCCCCCCCCCCCCCCC",
"CCCCCCCCCCCCCCCCCCCCCCCCCCCCCCCC",
"CCCCCCCCCCCCCCCCCCCCCCCCCCCCCCCC",
"CCCCCCCCCCCCCCCCCCCCCCCCCCCCCCCC",
"CCCCCCCCCCCCCCCCCCCCCCCCCCCCCCCC",
"CCCCCCCCCCCCCCCCCCCCCCCCCCCCCCCC",
"CCCCCCCCCCCCCCCCCCCCCCCCCCCCCCCC",
"CCCCCCCCCCCCCCCCCCCCCCCCCCCCCCCC"
};
