/* XPM */
static char *t2shr007[] = {
/* width height num_colors chars_per_pixel */
"    32    32       31            1",
/* colors */
". c #9c3131",
"# c #8c2100",
"a c #311000",
"b c #522100",
"c c #cec600",
"d c #080800",
"e c #181800",
"f c #313100",
"g c #7b7b00",
"h c #9c9c00",
"i c #525a21",
"j c #187b5a",
"k c #001810",
"l c #008c63",
"m c #00ad7b",
"n c #00c68c",
"o c #003929",
"p c #00634a",
"q c #10a584",
"r c #105a52",
"s c #102121",
"t c #314a52",
"u c #4a94bd",
"v c #6ba5de",
"w c #5a8cbd",
"x c #426b94",
"y c #213952",
"z c #31394a",
"A c #635273",
"B c #844263",
"C c None",
/* pixels */
"CCCCCCCCCCCCCCCCCCCCCCCCCCCCCCCC",
"CCCCCCCCCCCCCCCCCCCCCCCCCCCCCCCC",
"CCCCCCCCCCCCsxCCCCCCCCCCCCCCCCCC",
"CCCCCCCCCCCCtxxCCCCCCCsmkCCCCCCC",
"CCCCCCCCCCCkn.AkCCCCCpnnCCCCCCCC",
"CCCCCCCCCkmnlzzsCCCCpnnmCCCCCCCC",
"CCCCCCCCpnmlmmCCCCkknnnpCCCCCCCC",
"CCCCCCkmmllnnnkCklnnnnnpCCCCCCCC",
"CCCCClnmponnnnmklnnnnnnCCCCCCCCC",
"CeffflloCpnnnnmnnnnnnnnCCCCCCCCC",
"CabfhfsCConnnmnnnnnnmmjCCCCCCCCC",
"Ca#hfCCCCjnmqqqnnnmqmljkCCCCCCCC",
"CC##fdCCCpquwwxmnmmmljpkCCCCCCCC",
"CCCfeCCCpqvvwxxrmmllppokCCCCffCC",
"CCCCCCklqvvvwxypmllppokCCCCCgcgC",
"CCCCCCmnuvvwxtrmljpolpCCCCsgcche",
"CCCCConnuvwxtrmjpppmnnnpCsBwAhhh",
"CCCCCpnnnqxllllpppnnnnnnnjA.wifd",
"CCCCCnnnnmmmljpolnnnnnnnmnnjAydC",
"CCCCCnnnnmmlppomnnnnnnnmnnlsyCCC",
"CCCCpnnnmmlppokCksooplnnmjkCCCCC",
"CCCCjnmmlllpsCCCCCCCklnmpCCCCCCC",
"CCCCosooooooCCCCCCConnmpCCCCCCCC",
"CCCCCCCCCCCCCCCCCCpnnloCCCCCCCCC",
"CCCCCCCCCCCCCCCCCdqmlsCCCCCCCCCC",
"CCCCCCCCCCCCCCCCCjmjkCCCCCCCCCCC",
"CCCCCCCCCCCCCCCCsokCCCCCCCCCCCCC",
"CCCCCCCCCCCCCCCCCCCCCCCCCCCCCCCC",
"CCCCCCCCCCCCCCCCCCCCCCCCCCCCCCCC",
"CCCCCCCCCCCCCCCCCCCCCCCCCCCCCCCC",
"CCCCCCCCCCCCCCCCCCCCCCCCCCCCCCCC",
"CCCCCCCCCCCCCCCCCCCCCCCCCCCCCCCC"
};
