/* XPM */
static char *t2shf015[] = {
/* width height num_colors chars_per_pixel */
"    32    32       31            1",
/* colors */
". c #7b1800",
"# c #de3900",
"a c #ad3100",
"b c #de8c00",
"c c #9c7300",
"d c #735a00",
"e c #bd9c00",
"f c #847b00",
"g c #ded600",
"h c #adad00",
"i c #4a6b08",
"j c #4a6329",
"k c #001810",
"l c #003121",
"m c #006b4a",
"n c #00c68c",
"o c #009c73",
"p c #086b5a",
"q c #21847b",
"r c #109c9c",
"s c #42a5b5",
"t c #527b9c",
"u c #425a73",
"v c #395a7b",
"w c #639cd6",
"x c #213952",
"y c #292129",
"z c #181018",
"A c #a55a84",
"B c #4a1021",
"C c None",
/* pixels */
"CCCCCCCCCCCCCCCCCCCCCCCCCCCCCCCC",
"CCCCCCCCCCCCCCCCCCCCCCCCCCCCCCCC",
"CCCCCCCCCCCCCCCCCCCCCCCCCCCCCCCC",
"CCCCCCCCCCCCCCCCCCCCCCCCCCCCCCCC",
"CCCCCCCCCCCCCCCCCCCCCCCCCCCCCCCC",
"CCCCCCCCCCkCCCCCkmllllCCCCCCCCCC",
"CCCCCCCCpplCCCCknssromkCCCCCCCCC",
"CCCCCCCmnpkCCCCoswwvoplCCCCCCCCC",
"CCCCCCknplCCCCmswwtvpomCCCCCCCCC",
"CCCCClnomCClkmnwwwtxopmCCCCCCCCC",
"CCCCCoommoonnnrwwwvxomlkCCCCCCCC",
"CCCCmnpnnnnnnnnswuoommkCCCCCCCCC",
"CCCmnpnnnnnnnnnnroopmlCCCCCCCCCC",
"CvvtponnnnnonnpnnoomlmCCCCCClCCC",
"CxstjmmooonnplmnoommpnlCCCkolCCC",
"CzBxxCCCCpnpllpoopmlnnoCCknnlCCC",
"CCCyxCCClnolllnoommonnnkCmnokCCC",
"CCCCCCCCxomllmoommmnnnnplnolCCCC",
"CCCCCCCCjmlllmoomlonnnnoonokCCCC",
"CCCCCCCdghiilyommlpnnnnnnolCCCCC",
"CCCCCChfgegcfdyxlCConnnnnpkCCCCC",
"CCCCCCfhbeehahcykCCkonnnolCCCCCC",
"CCCCCCy.###ffgdBCCCCknnnpkCCCCCC",
"CCCCCCza###aggiCCCCCuAtqlCCCCCCC",
"CCCCCCCC.#a.ggCCCCCzurwuCCCCCCCC",
"CCCCCCCCC.aaefCCCCCCzBuvxCCCCCCC",
"CCCCCCCCCCCzCCCCCCCCCzytzCCCCCCC",
"CCCCCCCCCCCCCCCCCCCCCCCCCCCCCCCC",
"CCCCCCCCCCCCCCCCCCCCCCCCCCCCCCCC",
"CCCCCCCCCCCCCCCCCCCCCCCCCCCCCCCC",
"CCCCCCCCCCCCCCCCCCCCCCCCCCCCCCCC",
"CCCCCCCCCCCCCCCCCCCCCCCCCCCCCCCC"
};
