/* XPM */
static char *t2shr004[] = {
/* width height num_colors chars_per_pixel */
"    32    32       31            1",
/* colors */
". c #942100",
"# c #7b2100",
"a c #5a4a31",
"b c #423100",
"c c #6b5a00",
"d c #7b7300",
"e c #080800",
"f c #4a4a00",
"g c #7b7b00",
"h c #9c9c00",
"i c #cece00",
"j c #bdc600",
"k c #00ad7b",
"l c #00ce94",
"m c #003929",
"n c #00634a",
"o c #008463",
"p c #103931",
"q c #188c7b",
"r c #21bdad",
"s c #101818",
"t c #001010",
"u c #08525a",
"v c #183139",
"w c #5284ad",
"x c #426b8c",
"y c #6ba5de",
"z c #4a739c",
"A c #5a8cbd",
"B c #8c2931",
"C c None",
/* pixels */
"CCCCCCCCCCCCCnCCCCCCCCCCCCCCCCCC",
"CCCCCCCCCCCCClCCCCCCCCCCCCCCCCCC",
"CCCCCCCCCCCCnlmCCCCCCCCCCCCCCCCC",
"CCCCCCCCCCCCnlnCCCCCCCCfCCCCCCCC",
"CCCCCCCCCCCColnsCCCCCdijfCCCCCCC",
"CCCCCCCCCCCColomCCCCCihibCCCCCCC",
"CCCCCCCCCCCCllomstCCCciAwvCCCCCC",
"CCCCCCCCCCskllksnnCCCCABBvCCCCCC",
"CCCssCCCCCkllllmonCCCCpklseCCCCC",
"CCAAxvCCCCkllllooosCCslllnCCCCCC",
"Ceu.avCCCCkllllokomskllllkCCCCCC",
"CeslkonnmCollllkkomnlllllktCCCCC",
"CCelknllllklllrrqonnklklllnCCCCC",
"CCCkkollllklllyAzvnmlllooloCCCCC",
"CCCkknlklllllryyAxmmkloCslktCCCC",
"CCCklnollllllryyAxpmnlsCtllnCCCC",
"CCCokntnlklklryyyzvnmmCCColpCCCC",
"CCColnCCmklkllyyyzvnsCCCCeknCCCC",
"CCCnlnCCCCnkllryAxunmCCCCCtnCCCC",
"CCCnloCCCCCnlllrrqkomCCCCCCmCCCC",
"CCCedheCCCCmlllkkoonnCCCCCCCCCCC",
"CCCbchgCCCCskkkkkoonmtCCCCCCCCCC",
"CCedghccCCCtokkkkkonsCCCCCCCCCCC",
"CCbb#bbbCCCCmokkkkomCCCCCCCCCCCC",
"CCee.e.eCCCCCtoklknsCCCCCCCCCCCC",
"CCCCCeCCCCCCCCCnlknCCCCCCCCCCCCC",
"CCCCCCCCCCCCCCCCnktCCCCCCCCCCCCC",
"CCCCCCCCCCCCCCCCCsCCCCCCCCCCCCCC",
"CCCCCCCCCCCCCCCCCCCCCCCCCCCCCCCC",
"CCCCCCCCCCCCCCCCCCCCCCCCCCCCCCCC",
"CCCCCCCCCCCCCCCCCCCCCCCCCCCCCCCC",
"CCCCCCCCCCCCCCCCCCCCCCCCCCCCCCCC"
};
