/* XPM */
static char *t2shb004[] = {
/* width height num_colors chars_per_pixel */
"    32    32       31            1",
/* colors */
". c #ad2929",
"# c #ef3900",
"a c #b53100",
"b c #7b2900",
"c c #311800",
"d c #e79c00",
"e c #a57300",
"f c #cea518",
"g c #d6ce00",
"h c #101008",
"i c #636300",
"j c #a5a500",
"k c #c6ef18",
"l c #52a539",
"m c #394239",
"n c #007352",
"o c #00c68c",
"p c #00946b",
"q c #004231",
"r c #086352",
"s c #104a42",
"t c #189484",
"u c #21bdad",
"v c #109494",
"w c #001010",
"x c #39a5b5",
"y c #5284b5",
"z c #426b94",
"A c #6ba5e7",
"B c #6394ce",
"C c None",
/* pixels */
"CCCCCCCCCCCCCnCCCCCCCCCCCCCCCCCC",
"CCCCCCCCCCCCCoCCCCCCCCCCCCCCCCCC",
"CCCCCCCCCCCCqoqCCCCCCCCCCCCCCCCC",
"CCCCCCCCCCCCqoqCCCCCCCCCCCCCCCCC",
"CCCCCCCCCCCCnoswCCCCCCCCCCCCCCCC",
"CCCCCCCCCCCCronqCCCCCCCCCCCCCCCC",
"CCCCCCCCCCCCpopqqwCCCCqyysCCCCCC",
"CCCCCCCCCCwooopwpqCCCCy..mCCCCCC",
"CCChwCCCCCpooooqpnwCCCsoohCCCCCC",
"CCyBzsCCCCooooonpnwCCwooonCCCCCC",
"CCm.mcwCCCpooooppnqqpoooopCCCCCC",
"CCcuptnqqCpoooooppqpoooooowCCCCC",
"CCCoopoooooooouvtpnooooooonCCCCC",
"CCCpppooooooooBByrrnoooppopCCCCC",
"CCCposooooooouAAyznsoopCwoowCCCC",
"CCCponpoooooouAABzrqpowCwooqCCCC",
"CCCpoqwnooooouAABzssoqCCCposCCCC",
"CCCnonCCqpooouBAAzrnwCCCChklcCCC",
"CCCnonCCCCroooxABzrnqCCCCigggiCC",
"CCCsonwCCCCrooouxtpnqCCCCedfegcC",
"CCCCgjcCCCCqooooopppqwCCCja##bCC",
"CCCidjjCCCCwoooooppnqwCCCCbcCCCC",
"CCcjgeejCCCwpoooopprwCCCCCCCCCCC",
"CCib#aagCCCCqpoooppqCCCCCCCCCCCC",
"CChcbbacCCCCCwnooonwCCCCCCCCCCCC",
"CCCCCCCCCCCCCCCnopsCCCCCCCCCCCCC",
"CCCCCCCCCCCCCCCCsowCCCCCCCCCCCCC",
"CCCCCCCCCCCCCCCCCwCCCCCCCCCCCCCC",
"CCCCCCCCCCCCCCCCCCCCCCCCCCCCCCCC",
"CCCCCCCCCCCCCCCCCCCCCCCCCCCCCCCC",
"CCCCCCCCCCCCCCCCCCCCCCCCCCCCCCCC",
"CCCCCCCCCCCCCCCCCCCCCCCCCCCCCCCC"
};
