/* XPM */
static char *t2stat004[] = {
/* width height num_colors chars_per_pixel */
"    64    64       32            1",
/* colors */
". c #ffffff",
"# c #c62918",
"a c #632910",
"b c #00bd08",
"c c #314a39",
"d c #94c6a5",
"e c #adefc6",
"f c #5a846b",
"g c #005221",
"h c #84bd9c",
"i c #6ba584",
"j c #007b39",
"k c #7bad94",
"l c #214231",
"m c #004221",
"n c #ceffe7",
"o c #183929",
"p c #086339",
"q c #007342",
"r c #10845a",
"s c #00b573",
"t c #00d68c",
"u c #215a52",
"v c #63ffef",
"w c #29bdad",
"x c #52ffef",
"y c #219c9c",
"z c #31e7e7",
"A c #006b84",
"B c #008cb5",
"C c #00adde",
"D c None",
/* pixels */
"DDDDDDDDDDDDDDDDDDDDDDDDDDDDDDDDDDDDDDDDDDDDDDDDDDDDDDDDDDDDDDDD",
"DDDDDDDDDDDDDDDDDDDDDDDDDDDDDmmDmDDDDDDDDDDDDDDDDDDDDDDDDDDDDDDD",
"DDDDDDDDDDDDDDDDDDDDDDDDDmgggggggggggmmmDDDDDDDDDDDDDDDDDDDDDDDD",
"DDDDDDDDDDDDDDDDDDDDDmmgjgggpggggggggggmmmDDDDDDDDDDDDDDDDDDDDDD",
"DDDDDDDDDDDDDDDDDDDggggjggpgggpgpggggggggmgmDDDDDDDDDDDDDDDDDDDD",
"DDDDDDDDDDDDDDDDDgggjgggpgggpgggggggggggggmmgmDDDDDDDDDDDDDDDDDD",
"DDDDDDDDDDDDDDDDgggpggpgggjggggpgggqqCCBAqggmgmmDDDDDDDDDDDDDDDD",
"DDDDDDDDDDDDDDmjggjggjgggpgggpgggqCzCCCCCCCAAgmmmDDDDDDDDDDDDDDD",
"DDDDDDDDDDDDDjgggjggpggjgggpgggggBzCzCCCCCCCBAqmmmDDDDDDDDDDDDDD",
"DDDDDDDDDDDmggpgpgpggjgppjggpgpgqCzCCzCCCCCCCBBAmgmDDDDDDDDDDDDD",
"DDDDDDDDDDDgpgggggggppppppppgpggBzCzzCCCCCCBCCBBAgmmmDDDDDDDDDDD",
"DDDDDDDDDDjgggjgjgjppppqqjppppggBCzzCCCCCCCCCBBBBAgmmDDDDDDDDDDD",
"DDDDDDDDDmggjggpgppredneeeekirppCCzzxzCCCCCCBCBBBBAmmmDDDDDDDDDD",
"DDDDDDDDmgpggpggjreeeenneeddkhifBCCxxzCCCCCCBBCBBBAAmmmDDDDDDDDD",
"DDDDDDDmgggpggpqzeeennnnnedhkiiiwCCzxzzCCCCCCBBBBBBAummDDDDDDDDD",
"DDDDDDDggpgggpqdeeennnnnnedkiifffCCCzxzCCCCBCBBBBABAApmmDDDDDDDD",
"DDDDDDgjgggjggheeennn.nnnedhirfrfBCCCzCCCCCBBBBBBBAAAAmmmDDDDDDD",
"DDDDDDgggpgglfeeeenn.nnneedkifuuquBCCCzCCCCCBBBBBBBAAAmmmDDDDDDD",
"DDDDDmgpgggg#kdeennn.nnenediffqfqurBBCCCCCBBBBBBBAAAAAummmDDDDDD",
"DDDDDgggggpgfeveeennnneeeedkfrfcccrABBBBBBBCBBBABABAAAummmDDDDDD",
"DDDDDgpgggggivveeennnneeedkiffcqcqurABBBBBBBBBBBAAAAAAmmmmDDDDDD",
"DDDDmgggpggfxvxveeeeeddexwifruuqccutqAABBBBBBABABAAAAAAmmmmDDDDD",
"DDDDgggggggwxvvvedeeedixxvtfqfqccpstsqAAAAAAABAAAAAAAmmmmmmDDDDD",
"DDDDggggpbjzxvvveedddiiitttsrplcpstssrqqAAAAAAAAAAAAmmAmmmmDDDDD",
"DDDmggggjbjxxvvvedddhirstitwspppstsssrqmuquAAAAAuuummAmmmmmmDDDD",
"DDDggggggjswxxvvndddkifqrsssssjrtsssrqqpmmumqmumumAmmmAmmmmmDDDD",
"DDDgggggggrtxxvvnedhiifpprrssssttssrqpmmpuAmmmmmAmmmAmmmmmmmDDDD",
"DDDmgggggggrxxdenndhkifuppjrrstsssrqppgpuikeyAmAmmmAmmmmmmmmDDDD",
"DDDggggggggrxdddenedkiifgggjrrtssrqqggpuiikdndfuuummmmmmmmmmDDDD",
"DDDmgggggggqdhhddnedkiifupggjsssrrjgpmgffkkdnndhifmqmmgmmmmmDDDD",
"DDDggmgmggmgiikhheedkkiffpgststtrqmpgpgufikddndhifpmggmgmmmmDDDD",
"DDDgmggggmggfikkhhdehkiiffqtsttsrgpmpqpgfikhdeddkfumgmgmmmmmDDDD",
"DDDgggmgmggmglmfkhhdhkiiiffsttsrjgqrsrqguikhddddkifoggmgmmmmDDDD",
"DDDmmggmgmggmmmfikkhhkkiiiffssspgpqrsssqpfihddddkiflggmmgmmmDDDD",
"DDDmgmmgmgmgmmmfiiihxhiiiifffrqgpmqqrsrsrukdddddkifcggggmmmmDDDD",
"DDDmmmgmgmgmggufiiixzxhiiiiiffupmppqqqsrsrfhdddhkifcmgmmmgmmDDDD",
"DDDDgmmgmmgggggffiwxxxxkiififffuppqruqrrsrrkdddhkffcmgmggmmDDDDD",
"DDDmmmmmgmmmgggufwvxxxzxiiififfffurffrqrrssrddhkkffcmggmgmgDDDDD",
"DDDDmmmmmgmggmggyxzxzxxzxhfiffifffffihiprrrkhkkkifucgmgmgmmmDDDD",
"DDDDmmmmmmmgmgggpzxzxxzxzxwffiffffffiiifqrkkkkkfffucmggggmmDDDDD",
"DDDDmmmmmmgmgggggrzzzzxxxzxhffffffffffffifififfffcclogmgmmmDDDDD",
"DDDDDmmmmmmgmmggggrwzzzzxzzwfffffffffffffffffffffccogggmgmDDDDDD",
"DDDDDDmmmmmmggmgggmswzzzzxxffffffffffffffffffffcccoomgggmmDDDDDD",
"DDDDDDmmmmmmmmgggggsswwzzzyfufufufufufufufufcccccloogggmgDDDDDDD",
"DDDDDDDmmmmmgmgmgmssrqwwwycufcufuufufcfcuucuccccloogggmgmDDDDDDD",
"DDDDDDDDmmmmmmmgmstrpmpwwcuccuccucccfucucucccclooomggggmDDDDDDDD",
"DDDDDDDDmmmmmmgmssrqmggmolccccccccucwwwyfufclooooogggmmmDDDDDDDD",
"DDDDDDDDDmmmmgmqssqmgggggggo##accclfwwwywyyyooooogggggmDDDDDDDDD",
"DDDDDDDDDmmmmmjtsqmmggggggggaaalollyyyyyyyyulooomgggmmDDDDDDDDDD",
"DDDDDDDDDDDmmmjjqmmgmgmggggggmloooryyyyyyyyuoDmgggggmDDDDDDDDDDD",
"DDDDDDDDDDDDmmbbpmmmgmgmgggggggmoruyyyyyyyrmDmggggmgDDDDDDDDDDDD",
"DDDDDDDDDDDDmgbgmmgmmmggmgmggggggmggmpuuqpggggmggggDDDDDDDDDDDDD",
"DDDDDDDDDDDDDmmgmmmmmmmmgmggmgggggggggggggggggggmmDDDDDDDDDDDDDD",
"DDDDDDDDDDDDDDDmmmmmmmmmmgmgmgmgggggggggggggggggmDDDDDDDDDDDDDDD",
"DDDDDDDDDDDDDDDDDmmmmmmgmmgmgmggmggggggggggggmgDDDDDDDDDDDDDDDDD",
"DDDDDDDDDDDDDDDDDDmmmmmmmmmgmggmgggmggggggmgmmDDDDDDDDDDDDDDDDDD",
"DDDDDDDDDDDDDDDDDDDDmmmmmmgmgmmggmgggmgmgmgmDDDDDDDDDDDDDDDDDDDD",
"DDDDDDDDDDDDDDDDDDDDDDmmmmmmmgmmgmgmggmgmmDDDDDDDDDDDDDDDDDDDDDD",
"DDDDDDDDDDDDDDDDDDDDDDDDDDmmmmgmmmmmmmDDDDDDDDDDDDDDDDDDDDDDDDDD",
"DDDDDDDDDDDDDDDDDDDDDDDDDDDDDDDDDDDDDDDDDDDDDDDDDDDDDDDDDDDDDDDD",
"DDDDDDDDDDDDDDDDDDDDDDDDDDDDDDDDDDDDDDDDDDDDDDDDDDDDDDDDDDDDDDDD",
"DDDDDDDDDDDDDDDDDDDDDDDDDDDDDDDDDDDDDDDDDDDDDDDDDDDDDDDDDDDDDDDD",
"DDDDDDDDDDDDDDDDDDDDDDDDDDDDDDDDDDDDDDDDDDDDDDDDDDDDDDDDDDDDDDDD",
"DDDDDDDDDDDDDDDDDDDDDDDDDDDDDDDDDDDDDDDDDDDDDDDDDDDDDDDDDDDDDDDD"
};
