/* XPM */
static char *t2stat010[] = {
/* width height num_colors chars_per_pixel */
"    64    64       32            1",
/* colors */
". c #ffffff",
"# c #ad1808",
"a c #5a3921",
"b c #00de10",
"c c #00a529",
"d c #4a6352",
"e c #425a4a",
"f c #5a846b",
"g c #184229",
"h c #84bd9c",
"i c #003918",
"j c #004a21",
"k c #005a29",
"l c #adefce",
"m c #317352",
"n c #6b9c84",
"o c #315242",
"p c #006b39",
"q c #00a563",
"r c #00945a",
"s c #009c63",
"t c #007b52",
"u c #00a56b",
"v c #00bd7b",
"w c #73e7ce",
"x c #005242",
"y c #31d6c6",
"z c #187373",
"A c #00ceef",
"B c #0084a5",
"C c #009cce",
"D c None",
/* pixels */
"DDDDDDDDDDDDDDDDDDDDDDDDDDDDDDDDDDDDDDDDDDDDDDDDDDDDDDDDDDDDDDDD",
"DDDDDDDDDDDDDDDDDDDDDDDDDDiijijiiiiDDDDDDDDDDDDDDDDDDDDDDDDDDDDD",
"DDDDDDDDDDDDDDDDDDDDDDDijkkkkkjkjjkkkjiiDDDDDDDDDDDDDDDDDDDDDDDD",
"DDDDDDDDDDDDDDDDDDDDijkkkkkkkkkkkkkkjkjjkjjDDDDDDDDDDDDDDDDDDDDD",
"DDDDDDDDDDDDDDDDDDjkkkkkkkkkkkkkjkjkkjjkjjjkiDDDDDDDDDDDDDDDDDDD",
"DDDDDDDDDDDDDDDDDjkkkkkkkkkkkkkkkkkjkkjjjkjjjjiDDDDDDDDDDDDDDDDD",
"DDDDDDDDDDDDDDDjkkkkkkkkkkkkkkkjkjkxuBBzzjjjjjjiDDDDDDDDDDDDDDDD",
"DDDDDDDDDDDDDDjkkkkkkkkkkkkkkkkkktCAAAAAACBtjjjjjiDDDDDDDDDDDDDD",
"DDDDDDDDDDDDikkkkkkkkkkkkkkkkkjkzAAAAAACACCCCtjjjiiDDDDDDDDDDDDD",
"DDDDDDDDDDDikkkkkkkkkkkpkkkkkkkzAAAAAAAACACCCCBjjjiiDDDDDDDDDDDD",
"DDDDDDDDDDikkkkkkkkkpppppppkkkkBAAAAACACACCCCCBBxijiiDDDDDDDDDDD",
"DDDDDDDDDDjkkkkkkkppppmmmmtopkkvAAAAAACACACCCBCBBtjiiiDDDDDDDDDD",
"DDDDDDDDDjkkkkkkkppmhllllhhffppCAAAAAAACCCCCCCBBBBxjjiDDDDDDDDDD",
"DDDDDDDDikkkkkktnhllll.llllwhhfAAAwyAACACACCCBCBBBBxiijDDDDDDDDD",
"DDDDDDDikkkkkkswwllll.l..lllhhhCAAwwAACACCCCCCBBBBBzjjiiDDDDDDDD",
"DDDDDDDjkkkkkrwwllll.l..lllhhnnCAAAwyAACCCCCCBBBBBzBxjiiDDDDDDDD",
"DDDDDDjkkkkkkwwlllll..lllllhhfffCAAyAACACCCBBCBBBBBzxxiiiDDDDDDD",
"DDDDDDkkkkkkywwlhllllllllllhnfmfBCCAAACCCCCCBBBBBBzBxxjiiDDDDDDD",
"DDDDDikkkkknhlhlwllllllllllhnfmmmBCCCCCCCCCBCBBBBBBxBxijiiDDDDDD",
"DDDDDkkkkkmwlhllhlhlllllllwyfmmomzBBCCCCCCBBBBBBzBxBxxjjiiDDDDDD",
"DDDDDkkjkjflhlhhlhlhhhlllwwyfmmoopzBBBBBBBBBBBBBBxBxxxxiiiiDDDDD",
"DDDDikkkkkhhlhlhhhhhhhhhwwyyvmmpoeutBBBBBBBBBBzzBxxBxxxijiiDDDDD",
"DDDDkjkjkjmlhlwlhhhnffnfvyyyyroopuvuxxBzBBBBzBzBxBxxxxxjjiiDDDDD",
"DDDDjkkkjjfhlllhhhnnfsmmfvyvvqmouvvvtxxxzxzzzzxxxxxxxxijijiiDDDD",
"DDDikjjjkjhwhllhhhhnmmmtpmvyvvrrvvvurtxxxzxxxxxxxxxxxxijjiiiDDDD",
"DDDjkkkkjphwllllhhnnfppmgpqvvvvvvvqrtpxxxxxxxxxxxxxxxxijjjiiDDDD",
"DDDjjjjjkmwwhl.lhhnnfokkpkpvvvvvvurtpkkxmzxxxxxxxxxxxjjjjiiiDDDD",
"DDDjjkjkkzwywhlllhhnfmpkkkkrvvvvurtkxjkpzhlfxxxxxxxiijjjijjjDDDD",
"DDDjkjjjjtwwwwl.lhnnfmmqruuqvvvvrtpkkkxrrnhllhdexixjkjjjjiiiDDDD",
"DDDjjjkjjtyywwhllhhnnfmrqqrrrrustppkxkkpkmlllhhndjkjjjjjjjjjDDDD",
"DDDjjjjjjpyywwhllhhhnnfmtpppppptppjjkxjjjfhllhhnfkkjkjjjijijDDDD",
"DDDjjjjjjjzywyhhllhnnnffpkxkkkptpjkxkkkmfhhhllhnfdjkjjjjjjjiDDDD",
"DDDijjjjjjjywywhhhhhnnnfdppxpxppsvupkkpmnhhhlhhhndkjjjjjjijjDDDD",
"DDDijjjjjjjvwywhhhhhhnnnffuurtprvvvspppofnhhhhhnndgkjjjjjjijDDDD",
"DDDijjjjjjkzyyhnnhhnhnnnnfdttpjpvvvutmmtfnhhlhhhnfojjjjjjjjiDDDD",
"DDDijjjjjjjjywnnhnnhnnnnnfffpjkxsvvvqqrcfnhhhhhnnfojjjjjjjjjDDDD",
"DDDDijjjjjjjtffnnnnnnnnnnfnffmjpsuvvvtkpfnhhhhhhnfejjjjjjjiiDDDD",
"DDDDjijjjjjjjmffnnnnnnnnnnfnffmxksvvvuphnnhhhhhnfdogjjjjjjjDDDDD",
"DDDDijjjijkktsmgiffnnnnfnfnfnfffmmuvvvrnhnhhhhnnfdojjkjjjjjDDDDD",
"DDDDDiikqvuurrtiigfffffhfnfnfffffffuvvushnhhhnnffdggjjjjjiiDDDDD",
"DDDDDjcbctppkkkiidfffnhAwhfffffffffffnffnnnnnfffddgjkjjjjjDDDDDD",
"DDDDDikckpkjkjjkgmdfffywAyyffffffffffffnnfnffffddogjjkjjjiDDDDDD",
"DDDDDDijjjjjjkjjkommdyyywywynfffffffffffffffffdeogekjjjjjDDDDDDD",
"DDDDDDiiijijjjjkjjgmnyyyyyyyyyddfdfddffdfdddddeogggjjkjjjDDDDDDD",
"DDDDDDDiiijjjjjjjjkzyyyyyyyywyynddddddddddddeooggggjkjjjiDDDDDDD",
"DDDDDDDDiiijijjjjjkkzyyyyyyyAwAyeddddeeeeeooogggggjkjjjiDDDDDDDD",
"DDDDDDDDiijijjjjjjjjjkByyyyyyyyzeeeoooeooogggggggkjjjjiDDDDDDDDD",
"DDDDDDDDDiijijijjjjkjkjmByByyyBooogooogogggggggggjjkjjDDDDDDDDDD",
"DDDDDDDDDDiiijjjjjjjjjjkpznBBnmggggggggggggggogDjjkjjDDDDDDDDDDD",
"DDDDDDDDDDDiiiijijjjjjjjjkzhBxgggaggggggoozzBziijjjjiDDDDDDDDDDD",
"DDDDDDDDDDDDiijijijjjjjjjjjjjgeg##aggggmBBnBnxjjkjjiDDDDDDDDDDDD",
"DDDDDDDDDDDDDiijijijjjjjjjjjjjrvaaigggmzzmxkkjkkjjiDDDDDDDDDDDDD",
"DDDDDDDDDDDDDDiiiijjijjjjjjjjjkuutggigjkkkkjjkjjiDDDDDDDDDDDDDDD",
"DDDDDDDDDDDDDDDiiiijjijjjjjjjkjsvuxjkjkjjjkjjjjiDDDDDDDDDDDDDDDD",
"DDDDDDDDDDDDDDDDDiiiijjijjjjjjjkusrjkjkjkjjjkiDDDDDDDDDDDDDDDDDD",
"DDDDDDDDDDDDDDDDDDDiijijjjjjjjjjtbbkjjjjjjjjiDDDDDDDDDDDDDDDDDDD",
"DDDDDDDDDDDDDDDDDDDDDijijijjjjjjjckjjjjjjiiDDDDDDDDDDDDDDDDDDDDD",
"DDDDDDDDDDDDDDDDDDDDDDDiiijijjjjiijjjjiiDDDDDDDDDDDDDDDDDDDDDDDD",
"DDDDDDDDDDDDDDDDDDDDDDDDDDDDiiiiiDiDDDDDDDDDDDDDDDDDDDDDDDDDDDDD",
"DDDDDDDDDDDDDDDDDDDDDDDDDDDDDDDDDDDDDDDDDDDDDDDDDDDDDDDDDDDDDDDD",
"DDDDDDDDDDDDDDDDDDDDDDDDDDDDDDDDDDDDDDDDDDDDDDDDDDDDDDDDDDDDDDDD",
"DDDDDDDDDDDDDDDDDDDDDDDDDDDDDDDDDDDDDDDDDDDDDDDDDDDDDDDDDDDDDDDD",
"DDDDDDDDDDDDDDDDDDDDDDDDDDDDDDDDDDDDDDDDDDDDDDDDDDDDDDDDDDDDDDDD",
"DDDDDDDDDDDDDDDDDDDDDDDDDDDDDDDDDDDDDDDDDDDDDDDDDDDDDDDDDDDDDDDD"
};
