/* XPM */
static char *t2stat003[] = {
/* width height num_colors chars_per_pixel */
"    64    64       32            1",
/* colors */
". c #ffffff",
"# c #9c2110",
"a c #632918",
"b c #00d608",
"c c #009421",
"d c #94cea5",
"e c #314a39",
"f c #a5e7bd",
"g c #84c69c",
"h c #7ba58c",
"i c #005221",
"j c #639c7b",
"k c #b5ffd6",
"l c #52846b",
"m c #004221",
"n c #ceffe7",
"o c #183929",
"p c #086339",
"q c #088452",
"r c #006b42",
"s c #294239",
"t c #00ad73",
"u c #00d68c",
"v c #63ffef",
"w c #4affef",
"x c #29a59c",
"y c #005a52",
"z c #10ceef",
"A c #00738c",
"B c #008cb5",
"C c #00a5de",
"D c None",
/* pixels */
"DDDDDDDDDDDDDDDDDDDDDDDDDDDDDDDDDDDDDDDDDDDDDDDDDDDDDDDDDDDDDDDD",
"DDDDDDDDDDDDDDDDDDDDDDDDDDDDDmDmDDDDDDDDDDDDDDDDDDDDDDDDDDDDDDDD",
"DDDDDDDDDDDDDDDDDDDDDDDDDmmriiiiiiiimmDDDDDDDDDDDDDDDDDDDDDDDDDD",
"DDDDDDDDDDDDDDDDDDDDDmmiiiiiipiiiiiimiiimmDDDDDDDDDDDDDDDDDDDDDD",
"DDDDDDDDDDDDDDDDDDDmiiiiriiiiiipiiiiiiiiimiimDDDDDDDDDDDDDDDDDDD",
"DDDDDDDDDDDDDDDDDmiriiriiiriipiipiiiiiiiiimmmmDDDDDDDDDDDDDDDDDD",
"DDDDDDDDDDDDDDDDmiiiriiiriipiiiiiiiyxCCBAAiimmmmDDDDDDDDDDDDDDDD",
"DDDDDDDDDDDDDDmriririiiriiiiipipirCzzzzCCCCAyimmmDDDDDDDDDDDDDDD",
"DDDDDDDDDDDDDmiiiiiiiriiiriipiiiiCzzzzCzzCCCCBymmmmDDDDDDDDDDDDD",
"DDDDDDDDDDDDriririririrriiriiiiptzzzzzzCCCCCBBBAmmmDDDDDDDDDDDDD",
"DDDDDDDDDDDriiiiiriiipipppppipiiCzzzzCzCzCCCCCBBAimiDDDDDDDDDDDD",
"DDDDDDDDDDiiririripppqqljqqpppiiCzzzzzzCCCCCCBBBBBmmmDDDDDDDDDDD",
"DDDDDDDDDmiiiiirippqdkkfffddglqpCzzwzzCzCCCCBCBBBAApmmDDDDDDDDDD",
"DDDDDDDDDiiririiqldkfkkkffdggghjCzzwwzzCCCCCBBBBBBAAmmmDDDDDDDDD",
"DDDDDDDDiriiiiixvkfkknnnnffghjjjxCzzvwCzCCCCCCBBBBBAymmmDDDDDDDD",
"DDDDDDDiriiirixvvfknnnnnnkfghjllACCzwwzCCCBCBBBBBAAAAymmDDDDDDDD",
"DDDDDDmiiiriiivvfkknn.nnkkfgjllqlxCCCzzCCCCBBCBBBBAAAymmmDDDDDDD",
"DDDDDDriiiiiixvvkkknnnnkkkfghlqleqBCCCCCCCCBBBBBAABAAAymmDDDDDDD",
"DDDDDmiiriiiqvfffknnnnkkfkfgjllreeABBBCCCBBCBBBBBAAAAyymmmDDDDDD",
"DDDDDiiiiiipxffffkknnnkkkkdhjlqeeqeABBBBBBBBBBBAAAAAyAymmmDDDDDD",
"DDDDDiiiiipqfffffkkkkkfkfdghlqlerqqqAABBBBBBBBAABAAAAyyymmDDDDDD",
"DDDDmiipiiijddfffffkffdddghjllsetuuuyyAAABBAAAAAAAAyyyymmmmDDDDD",
"DDDDiiiiiiijddfkffffdggdjjlqqsqeuuuuuyyAAAAAAAAAAAyAyyyymmmDDDDD",
"DDDDiiiiira#jdfkffddghjwutqqsppquuutttryyyAyAAAAyyyyyyymmmmmDDDD",
"DDDmiiiiiieaddfkkddgghjtugtcppiquuttqqrpyyyyyyyyyyyyymyymmmDDDDD",
"DDDmiiiiiiijgdfwkfdggjlxqttxbpptutttqriipmyyyyyyyyyyyymmmmmmDDDD",
"DDDiiiiiiiilgvwvvkdggjleqqqtttquuttqrppmplllmymyymymymymmmmmDDDD",
"DDDiicbrqiirdwvvvkdghhjqpqqqqqtuttqrppiilhhfdlyymyyyymmmmmmmDDDD",
"DDDmiccctqrqwwvwwvkghhjlppprqqtttqrriipejhhfnfhjesmmmmmmmmmmDDDD",
"DDDiiiiqqtqtvwwvvwfdghjlqitiprttqqpipmpljhhdnkdhhlmmmmmimmmmmDDD",
"DDDmiiiirrqtwwvwwvvdhhjjlluuqpttqpipippplhhdfkfhhlsiiiimmmmmDDDD",
"DDDiiiiiiirrxwwwvwwfghhjjltutttuuqrmrqtrlhhhdfddhjeiiimimmmmDDDD",
"DDDmmimimiiiqwwwwwwvhhhhjjlttquuutirqqqqqlhdddddhjlimimmmmmmDDDD",
"DDDmimiiimiiixwwwvvhghhjjjjlqquutqpiprqqtqtjddddhjloiiimimmmDDDD",
"DDDmmimmmimmirwwwwghhhhhhjjllquuuqppiiprrqqqldddhhlsiimimmmiDDDD",
"DDDmmmmiiimiiixwwhjjhhhhjjjjllxutqprqqmipryqxddhhjlemimimimmDDDD",
"DDDDmimmmmiimirwxjjjjjjjjjjjjjlltrpqlllqmppqddddhllemiimimmmDDDD",
"DDDDmmimimmmiiixlljjjjjjjjjjljllllqlljjgjrlhddhhhleemimimimmDDDD",
"DDDDmmmmmmiimimislllljjjjjjljljjlljljgggjjhdhhhhjllsiiimimmmDDDD",
"DDDDmmmmmimmiiiiiromsllllllljllllllljjjjhjhhhhhllleoimiimmmDDDDD",
"DDDDmmmmmmmimimiiommDllllldwjlllllllllljljjjjjlleeesmiimimmDDDDD",
"DDDDDmmmmmmmimiiiimmelllljwwwglllllllllllllllllleesoiiiimmDDDDDD",
"DDDDDmmmmmmmmiiiiiiipslelzzwwzwjlllllllllllleleeeeooimimiiDDDDDD",
"DDDDDDDmmmmmiimmiiiiiseexwwwzwzwxlleleleleleleeeeoomiiiiiDDDDDDD",
"DDDDDDDmmmmmmmiiiiiiiiqxzxzxwxwzwzjleleleeeeeeesoooiiimmmDDDDDDD",
"DDDDDDDmmmmmmmmimiiiiiqxxxxzxzxxxwCeeeeeeeeeeosAlmiiiiiimDDDDDDD",
"DDDDDDDDmmmmmimmiimiiitutxxxxxxzxxjeeeesesslAxxxqDiiiimmDDDDDDDD",
"DDDDDDDDDmmmmmmimmiiiiutrmqxxxxxxxyossoooooxxxxxsmiiimmDDDDDDDDD",
"DDDDDDDDDmmmmmmmiiimiqutriiitxxxxqeoooooooyxxxApmiiimiDDDDDDDDDD",
"DDDDDDDDDDDmmmmmmmimiqutiiimmpqlssooa#oooolxApiiiiiimDDDDDDDDDDD",
"DDDDDDDDDDDDmmmmmmmimquqmiiiimpiimoo#aaoolyiiiiiiimiDDDDDDDDDDDD",
"DDDDDDDDDDDDDmmmmmmmmutqimiiiiimiiiiomimiiiiiiiiiiiDDDDDDDDDDDDD",
"DDDDDDDDDDDDDmmmmmmmiutrmiimiimiiiiiiiiiiiiiiiiimimDDDDDDDDDDDDD",
"DDDDDDDDDDDDDDDmmmmmprrmmmmimiiiiiiiiiiiiiiiiiiimDDDDDDDDDDDDDDD",
"DDDDDDDDDDDDDDDDDmmmmbbiimimiimimiiiiiiiiiiiiimmDDDDDDDDDDDDDDDD",
"DDDDDDDDDDDDDDDDDDmmibcmmmmimmiiiiimiiiiiimimmDDDDDDDDDDDDDDDDDD",
"DDDDDDDDDDDDDDDDDDDDmimmmmimmimmimiiiimimiimDDDDDDDDDDDDDDDDDDDD",
"DDDDDDDDDDDDDDDDDDDDDmDimmmmimimimimimimmmDDDDDDDDDDDDDDDDDDDDDD",
"DDDDDDDDDDDDDDDDDDDDDDDDDDmmmmmmmimimmDDDDDDDDDDDDDDDDDDDDDDDDDD",
"DDDDDDDDDDDDDDDDDDDDDDDDDDDDDDDDDDDDDDDDDDDDDDDDDDDDDDDDDDDDDDDD",
"DDDDDDDDDDDDDDDDDDDDDDDDDDDDDDDDDDDDDDDDDDDDDDDDDDDDDDDDDDDDDDDD",
"DDDDDDDDDDDDDDDDDDDDDDDDDDDDDDDDDDDDDDDDDDDDDDDDDDDDDDDDDDDDDDDD",
"DDDDDDDDDDDDDDDDDDDDDDDDDDDDDDDDDDDDDDDDDDDDDDDDDDDDDDDDDDDDDDDD",
"DDDDDDDDDDDDDDDDDDDDDDDDDDDDDDDDDDDDDDDDDDDDDDDDDDDDDDDDDDDDDDDD"
};
