/* XPM */
static char *t2stat000[] = {
/* width height num_colors chars_per_pixel */
"    64    64       32            1",
/* colors */
". c #ffffff",
"# c #ad2910",
"a c #bd5231",
"b c #632910",
"c c #422918",
"d c #5a5239",
"e c #00c608",
"f c #008c10",
"g c #395242",
"h c #5a846b",
"i c #005221",
"j c #73ad8c",
"k c #086331",
"l c #005a29",
"m c #adefce",
"n c #94d6b5",
"o c #294a39",
"p c #214231",
"q c #004221",
"r c #295a42",
"s c #183929",
"t c #006339",
"u c #007342",
"v c #00ad73",
"w c #29cea5",
"x c #086b52",
"y c #63ffde",
"z c #299c9c",
"A c #008494",
"B c #21d6ef",
"C c #00adde",
"D c None",
/* pixels */
"DDDDDDDDDDDDDDDDDDDDDDDDDDDDDDDDDDDDDDDDDDDDDDDDDDDDDDDDDDDDDDDD",
"DDDDDDDDDDDDDDDDDDDDDDDDDDDDDDDDDDDDDDDDDDDDDDDDDDDDDDDDDDDDDDDD",
"DDDDDDDDDDDDDDDDDDDDDDDDDDqqilllllliiqqDDDDDDDDDDDDDDDDDDDDDDDDD",
"DDDDDDDDDDDDDDDDDDDDDDqllllillllllilliiilDDDDDDDDDDDDDDDDDDDDDDD",
"DDDDDDDDDDDDDDDDDDDDilllllllllllililililiiiqDDDDDDDDDDDDDDDDDDDD",
"DDDDDDDDDDDDDDDDDDillllllllllllllililquxqiqiiqqDDDDDDDDDDDDDDDDD",
"DDDDDDDDDDDDDDDDqlllllllllllllllllluCBCCCAAxiqqqDDDDDDDDDDDDDDDD",
"DDDDDDDDDDDDDDDllllllllllllllillluCBCBCCCCCCAxqqqDDDDDDDDDDDDDDD",
"DDDDDDDDDDDDDDllllllllllllllllliuBBBBCCBCCCCCCxtqqDDDDDDDDDDDDDD",
"DDDDDDDDDDDDDlllllllllllllllllllABBCBBCCCCCCACAAxqiqDDDDDDDDDDDD",
"DDDDDDDDDDDqlllllllllkkukkkkklllABBBBCCCCCCCCACCAxqqqDDDDDDDDDDD",
"DDDDDDDDDDDilllllluhjjnnnnjhhkllCBBBBCBCCCCCCCAAAAxqqDDDDDDDDDDD",
"DDDDDDDDDDklllllhjnnnnnnnnjjjjjhBBBBBBCCCCCACACAAAAqqqDDDDDDDDDD",
"DDDDDDDDDlllllljnnnnnnnnnnnjjjhjCCByBBCCCCCCCAACAAAAqqqDDDDDDDDD",
"DDDDDDDDqlllllhnnnnnnnmmnnnjjjhhCCByyBCCCCCCACCAAAAAxqqqDDDDDDDD",
"DDDDDDDDilllihmnnnnnnmmmmmnjjhhhzCCByBBCCCCACAAAAAAAxqqqqDDDDDDD",
"DDDDDDDlllllvyynnnnmmmmmmmnnhhxhxCCCBBCCCCACACAAAAAAAxqqDDDDDDDD",
"DDDDDDqllllzyyynmnnmmmmmmmmnjhhrhAACCCCCCCCACAAAAAAAxxqqqqDDDDDD",
"DDDDDDiilliwyyynnmnmmmmmmmmjjhxrrxAACCCCCACAACAAAAAxAxqqqqDDDDDD",
"DDDDDqlllllyyymnnnmnmmmmmmnjhhghrgxAAAAAACAAAAAAAAxAxxxqqqDDDDDD",
"DDDDDiililxyyyynnnnnnmmmyyyjhhxrugvAAAACAAACAAAAAAAxxxqqqqqDDDDD",
"DDDDDllllivyyymnnnnnnnmyyyywhxhrrrwvxAAAAAAAAAAAxxxxxDxqqqqDDDDD",
"DDDDDliilizyynmmnnnnjjjnyywwwgurxvvvvxxxAAAAAAAxAxxxxxqqqqqDDDDD",
"DDDDqlllliwnnnmmnnnnjhhvwwwwvvkkvwvvvtxxxxxxxxxxxxxxDxqqqqqqDDDD",
"DDDDiiiiliznnnm.nnjjjjxghvwwvvxvwvvvuutqxxxxxxxxDxDxxxqqqqqqDDDD",
"DDDDlllilijjnnmmmnjjjhuuurvvwvwvvvvuultqqgxxqxDxxxxxDqqqqqqqDDDD",
"DDDqqlqliihjjjn.mnnjjhhkkkkvvvvvvvxutltthjnhxxxxxxDxtlqqqqqqDDDD",
"DDDqiililiuaannmmmjjjjhkkkkkvwvvvxutlltrjjmmmjgpsqtqqqqiqqqqqDDD",
"DDDqqiilqld#hjjnmmnjjjhhkiiivvvvvuulltrhjjnmmnjjhqqllqiqqqqqDDDD",
"DDDqiiqiiqichjnnmynjjjhhrllvvwvvukllllxhjjjmmnjjhrllqiiqqqqqqDDD",
"DDDqiqiliiikjjjnyynnjjjhhkvwvvvutltltlkgjjjnmnnjhhlliqiiqqqqqDDD",
"DDDqqliqiqiihjnByyynjjjjhhvvvvullltvvtluhjnjnnjjjhsiqiiqqqqqqDDD",
"DDDDiqiiliqihjByyyyyjjjhjhhvullltxvvvvklhjjnnjnjjdriliqiqqqqqDDD",
"DDDqqqiqqiiqlyyByByyyjjjhhhhrlllluxvvvvkgjjnnnjjjhrqiiqiqiqqDDDD",
"DDDDqiqiiqqiqBByyyyBywjjjjhhhrtllkuvvvvvujjnjnnjjhglliiqqqqqqDDD",
"DDDDiqiqqiiqityyByByyyjhjhhjhhgtlkkuxvvvxhnjnnjjhhglqiqqiiqqDDDD",
"DDDDiqqqiqqiqivByByyByyjhjjhhhhhxruuuvvvvvjnjjjjhhgsiiqiqqqqDDDD",
"DDDDqqiqqiqiiqqwByByyBwjhhhjhjhhhhhhzlvvvvjjjjjhhdplqiiqiqiqDDDD",
"DDDDqqqqqqiqqiqlwByBByhhhjhhhhhhhhhhhhhhjhjjjjjhhgpsiqiiiqqqDDDD",
"DDDDDqqqqqqqiiiitByByjhhhhhhhhhhhhhhhhhhjhjhhhhhdgpiiiliqiqDDDDD",
"DDDDDqqqqqiqiqilitwBzhhhhhhhhhhhhhhhhhhhhhhhhhdggoslqlqqiqqDDDDD",
"DDDDDqqqqqqqiiqqtvwzgghghhhhhhhhhhhhhhhhhhhhdhggossiiiiiqiDDDDDD",
"DDDDDDqqqqqqqqivvvulrgxddgggghghhgghghgghdgggggpprxqlliiqiDDDDDD",
"DDDDDDDqqqqqikvvxtlllpd##rhghggBBwzgggghggggggosAzlliqiqqqDDDDDD",
"DDDDDDDqqqqqvvvuklqiliobcprrrgzBwwBwzhrgrgoopspzzxiqiiiiqDDDDDDD",
"DDDDDDDDqqqfvxtllqiqliilspporrwwwCwwwwzzsppsppAzxillqiqiqDDDDDDD",
"DDDDDDDDDqeeutllqiiiiiiilpppszzzzzzzzzzrssssssztilqiliqqDDDDDDDD",
"DDDDDDDDDqefutqqqqliqllllilqzzzzzzzzzzzopsssprtiliiliqiDDDDDDDDD",
"DDDDDDDDDDqqiqqqqiqqiiqiqiliixvzzzzzzzAsssssstllqlilqiDDDDDDDDDD",
"DDDDDDDDDDqqqqqqqqiqilqiilqliillxvzzzzcsDDqqllqliiqiiqDDDDDDDDDD",
"DDDDDDDDDDDDqqqqqqqiqqiiqiiqliqllqlxvxxqqqqlqlilqliqqDDDDDDDDDDD",
"DDDDDDDDDDDDDqqqqqqqqiiqiqliiqiiqlqltvvuiqiililiiiqqDDDDDDDDDDDD",
"DDDDDDDDDDDDDDqqqqqqqqqiqiqiqiiqiiilluveflililqiiqqDDDDDDDDDDDDD",
"DDDDDDDDDDDDDDDqqqqqqqqqqiqiiqiillqilqfeiiilqliqiDDDDDDDDDDDDDDD",
"DDDDDDDDDDDDDDDDDqqqqqqqqqqiqiqiqqliqlliilqliqiqDDDDDDDDDDDDDDDD",
"DDDDDDDDDDDDDDDDDDDqqqqqqqiqiqiiiiiqliqqiiiiqqDDDDDDDDDDDDDDDDDD",
"DDDDDDDDDDDDDDDDDDDDqqqqqqqqqiqqiqilqiiiiqiqDDDDDDDDDDDDDDDDDDDD",
"DDDDDDDDDDDDDDDDDDDDDDqqqqqiqiiqiiqqiqiqiqDDDDDDDDDDDDDDDDDDDDDD",
"DDDDDDDDDDDDDDDDDDDDDDDDDDqqqqqqqqiqqqqqDDDDDDDDDDDDDDDDDDDDDDDD",
"DDDDDDDDDDDDDDDDDDDDDDDDDDDDDDqDDDDDDDDDDDDDDDDDDDDDDDDDDDDDDDDD",
"DDDDDDDDDDDDDDDDDDDDDDDDDDDDDDDDDDDDDDDDDDDDDDDDDDDDDDDDDDDDDDDD",
"DDDDDDDDDDDDDDDDDDDDDDDDDDDDDDDDDDDDDDDDDDDDDDDDDDDDDDDDDDDDDDDD",
"DDDDDDDDDDDDDDDDDDDDDDDDDDDDDDDDDDDDDDDDDDDDDDDDDDDDDDDDDDDDDDDD",
"DDDDDDDDDDDDDDDDDDDDDDDDDDDDDDDDDDDDDDDDDDDDDDDDDDDDDDDDDDDDDDDD"
};
