/* XPM */
static char *t2stat005[] = {
/* width height num_colors chars_per_pixel */
"    64    64       32            1",
/* colors */
". c #ffffff",
"# c #942910",
"a c #732910",
"b c #00ce10",
"c c #314a39",
"d c #395242",
"e c #008431",
"f c #5a846b",
"g c #8cc6a5",
"h c #215a39",
"i c #a5efc6",
"j c #086331",
"k c #214231",
"l c #107342",
"m c #004221",
"n c #005229",
"o c #6b9c84",
"p c #315242",
"q c #183929",
"r c #006b39",
"s c #18845a",
"t c #00a56b",
"u c #00c684",
"v c #ceffef",
"w c #52ffef",
"x c #29a59c",
"y c #005a52",
"z c #31d6ef",
"A c #007384",
"B c #008cb5",
"C c #00adde",
"D c None",
/* pixels */
"DDDDDDDDDDDDDDDDDDDDDDDDDDDDDDDDDDDDDDDDDDDDDDDDDDDDDDDDDDDDDDDD",
"DDDDDDDDDDDDDDDDDDDDDDDDDDDDmDmDmDmDDDDDDDDDDDDDDDDDDDDDDDDDDDDD",
"DDDDDDDDDDDDDDDDDDDDDDDDmmnnnnnnnnnnmmmDDDDDDDDDDDDDDDDDDDDDDDDD",
"DDDDDDDDDDDDDDDDDDDDmnnrnnnnnnnnnnnnnnmnnmDDDDDDDDDDDDDDDDDDDDDD",
"DDDDDDDDDDDDDDDDDDDrnnnnnnrnnnnnnnnnnnnnnmnnDDDDDDDDDDDDDDDDDDDD",
"DDDDDDDDDDDDDDDDDnrnnrnrnnnnnrnnnnnnnnnnnnmnnmDDDDDDDDDDDDDDDDDD",
"DDDDDDDDDDDDDDDnnnnrnnnnrnrnnnnnnnnnrCBAArnnmnmmDDDDDDDDDDDDDDDD",
"DDDDDDDDDDDDDDmnnrnnrnrnnnnnnnnnnnlCzCCCCCCArmmmmDDDDDDDDDDDDDDD",
"DDDDDDDDDDDDmnrnrnnrnnnnrnrnrnnnnxzCzzCCCCCCBArmmmmDDDDDDDDDDDDD",
"DDDDDDDDDDDmnnnnnrnnrnrjjjnnnnnnnCzzCzCzCCCCCBBymmmDDDDDDDDDDDDD",
"DDDDDDDDDDmnnrnrnnrnjjjjjjjjjjnntzzzzzCCCCCCBCBBAmmnDDDDDDDDDDDD",
"DDDDDDDDDDnnrnrnnrnjjlllllljjjjnBCzzzCCCCCCCBCBBBAmmmDDDDDDDDDDD",
"DDDDDDDDDrnnnnnnrjjssgiiiggofrnjAzzzzzCCCCCCCBBBBAAmmmDDDDDDDDDD",
"DDDDDDDDmnrnrnrnnjsvvvvviiiggofsBCCwwzzCCCCCBCBBBBAAmmmDDDDDDDDD",
"DDDDDDDnnnnnnnndfgivvvvvvigggoooxCCzwwzCCCCCCBBBBBAAymmDDDDDDDDD",
"DDDDDDmnnrnrnrniiivvv..vviggoofffCCCzwzCCCCCBCBBBBBAAmmmDDDDDDDD",
"DDDDDDnnnnnnnnwwivvv..vvviioofsfsBCCzzzCCCCBCBBBBAAAAymmmDDDDDDD",
"DDDDDDnnnnnnrswwvvv..vviviggffssfsBCCCzCCCCBBBBBBBBAAAmmmDDDDDDD",
"DDDDDmnnrnnnnwwiivvv.vvviiioosfdpdABCCCCCCBCCBBBBAAAAyymmmDDDDDD",
"DDDDDnnnnnnntwwwiivvvviiiigoffdplpsABCBCCBCBBBBBBABAAAymmmDDDDDD",
"DDDDDnnnnnnnxwiiiivvviiiiwwxfssplhdsABBBBBBBBBBAAAAAAyymmmDDDDDD",
"DDDDmnnnnnnjiiiiiiiiigggiwwxufdhchhuAAABBBBBBBBABAAAAAyymmmDDDDD",
"DDDDnnnnnnnsgggiiiiigggouwuwulplhhuutyAABABBBAAAAAAAyyymmmmDDDDD",
"DDDmnnnnnnnfggiiiggggofsfuxuutlhhtuuttyyAAAAAAAAAAAyyymymmmDDDDD",
"DDDnnnnnnnnoggiiiiggofslltuuuusjsuuuteyyyyAyAAAAAyyyyyyymmmmDDDD",
"DDDnnnnnnnnmfggvigggofdlhhsuuuueuuutsernyyyyyyyyyyyyymyDmmmmDDDD",
"DDDnnnnnnnmmsggiviggoofjjjetuuuuuutseynnmlyyyyyyyyymyymnmmmmDDDD",
"DDDnnnnnnnnnoggiviggoofhjjnjtuuuuttyrrnnnsofmymymymyymmmmmmmDDDD",
"DDDnnnnnnnnjgggwwiiogofsnnjnluuuttlrjnnnynggvopyyyymmmmmmmmmDDDD",
"DDDnnnnnnnnhogwwwwigoooflnnrtuuttlljnnnnnlggvigofpmmmmnmmmmmDDDD",
"DDDnmnnnnnnnxwwwwwiggooffstutttellnnnnnjfoogivggofjnnnmmmmmmDDDD",
"DDDmnnnmnmnnxwwwwwwigooofstttlryrrnnnjjjfooggiggofpmnnmnmmmmDDDD",
"DDDnnmnnnnnmxwwwwwwwgoooofsjjnnnnrttsrnjdoggggggoofnnmnmmmmmDDDD",
"DDDmnmmnmnmnrwwwwwwwggoooffdjnrrrtutterjlfoggggggofknnmnmmmmDDDD",
"DDDmmnmnmnmnnrwwwwwwwoooooofsrnnnttuutlljfogggggoofdnnmnmnmmDDDD",
"DDDmmnmnmnmnmnzwwwwwwogooofofsjnnrttutsssloggggggofdmmnmnmmmDDDD",
"DDDmmmmmnmnmnnjwwwwwoooooooffffhnnyttutssfogggggoffdmnmnmmmDDDDD",
"DDDmmmnmmmnmnnnxwwwoooooooooofffsssstuttssoogggogffdmnnmnmnDDDDD",
"DDDDmmmmnmmnmnnrzwxofoooofofoffffffxstuttsoggggooffdmmnnnmnDDDDD",
"DDDDmmmmmmmnmnnnxxfffffffoffoffoffffsttutfooooooffdcmnmnmmmDDDDD",
"DDDDDmmmmmnmnmretsfsfffffffoffffffffffffoooooooffddkqnnmnmDDDDDD",
"DDDDDmmmmmmmrtttslhdffdffffffffffffffffffffffffffddqmnnmnnDDDDDD",
"DDDDDDmmmntttterjnnpa##dffffxgfffffffffffffffffdddqqnmnnnDDDDDDD",
"DDDDDDmmnbternnnnnnnc#adfdfswzzxfdfdfffffffffddddcqqnnnmmDDDDDDD",
"DDDDDDmmbblrnnnnmnnnnmkpdddxwzwzzxfddddddddddddckqqnnmnmDDDDDDDD",
"DDDDDDDmbnenmmmmnmnnnnqhpdozzzzzzzzxfddddddddckqqqqmnnmnDDDDDDDD",
"DDDDDDDDmmmmmmmmnnnnnnnnhsxxxxxzxzxzxfdddpcccqqqqqDnnnnDDDDDDDDD",
"DDDDDDDDDmmmmmmnmnmnnnnnjsxxxxxxxxxxxkkkkqqqqqqpskmnnmmDDDDDDDDD",
"DDDDDDDDDmmmmmmmmnmnmnnnnnjsxxxxxxxxxkqqqqqqqpAxjnnnnmDDDDDDDDDD",
"DDDDDDDDDDDmmmmmmmnmnmnnnnnnjsxxxxxxqqqqqqqqsxjmnmnmmDDDDDDDDDDD",
"DDDDDDDDDDDDmmmmmmmnmnmnmnnnnnnsxxAkqqqDqqqphmnnnnnmDDDDDDDDDDDD",
"DDDDDDDDDDDDmmmmmmmmmmnmnnnmnnnnnysslDDmqqmnnnnnnmmDDDDDDDDDDDDD",
"DDDDDDDDDDDDDDmmmmmmnmmnmmnnnmmmnntttrmmnnnnnnnnmmDDDDDDDDDDDDDD",
"DDDDDDDDDDDDDDDmmmmmmmmmnmmmnnnnnnjttbnnnnnnnnmnmDDDDDDDDDDDDDDD",
"DDDDDDDDDDDDDDDDDmmmmmmmmmnnmmnnmnmybbnnnnnnmnmDDDDDDDDDDDDDDDDD",
"DDDDDDDDDDDDDDDDDDmmmmmnmnmmmnnmnnnnnnmnnnnmmDDDDDDDDDDDDDDDDDDD",
"DDDDDDDDDDDDDDDDDDDDmmmmmmmnnmmnnmnnnnnnmmmDDDDDDDDDDDDDDDDDDDDD",
"DDDDDDDDDDDDDDDDDDDDDDmmmmmmmnmmnmnmnmmnmDDDDDDDDDDDDDDDDDDDDDDD",
"DDDDDDDDDDDDDDDDDDDDDDDDDmDmmmmmmmmmmDDDDDDDDDDDDDDDDDDDDDDDDDDD",
"DDDDDDDDDDDDDDDDDDDDDDDDDDDDDDDDDDDDDDDDDDDDDDDDDDDDDDDDDDDDDDDD",
"DDDDDDDDDDDDDDDDDDDDDDDDDDDDDDDDDDDDDDDDDDDDDDDDDDDDDDDDDDDDDDDD",
"DDDDDDDDDDDDDDDDDDDDDDDDDDDDDDDDDDDDDDDDDDDDDDDDDDDDDDDDDDDDDDDD",
"DDDDDDDDDDDDDDDDDDDDDDDDDDDDDDDDDDDDDDDDDDDDDDDDDDDDDDDDDDDDDDDD",
"DDDDDDDDDDDDDDDDDDDDDDDDDDDDDDDDDDDDDDDDDDDDDDDDDDDDDDDDDDDDDDDD"
};
