/* XPM */
static char *urnlrg012[] = {
/* width height num_colors chars_per_pixel */
"    32    32       31            1",
/* colors */
". c #7b8c00",
"# c #b5ce00",
"a c #d6ef00",
"b c #6b7b00",
"c c #a5bd00",
"d c #adc600",
"e c #526300",
"f c #849c00",
"g c #bdde00",
"h c #94bd00",
"i c #314200",
"j c #84c600",
"k c #528c00",
"l c #7bff00",
"m c #5abd00",
"n c #215200",
"o c #42d600",
"p c #4af700",
"q c #21c600",
"r c #107b00",
"s c #18ad00",
"t c #10de00",
"u c #000800",
"v c #003900",
"w c #004200",
"x c #005a00",
"y c #008c00",
"z c #009400",
"A c #00c600",
"B c #00f700",
"C c None",
/* pixels */
"CCCCCCCCCCCCCCCCCCCCCCCCCCCCCCCC",
"CCCCCCCCCCCCCCCCCCCCCCCCCCCCCCCC",
"CCCCCCCCCCnfeCuuwxvCCCCCCCCCCCCC",
"CCCCCCCCCwkcrxzBxxxxvCCCCCCCCCCC",
"CCCCCCCCCosokBByyyxzzxuCCCCCCCCC",
"CCCCCkqAAckABtywxzxyyzxuCCCCCCCC",
"CCCCCBBBpdkxwwwvwszxyzwvCCCCCCCC",
"CCCCCBBBl#rwvvvwvsAyyyxwuCCCCCCC",
"CCCCCBBBpmvwwnnnwxAAxzyyxvCCCCCC",
"CCCCvBBBoneebf.berxwxwwwxwuCCCCC",
"CCCCxpllebfbbbeeefwwwwwnnnvCCCCC",
"CCCCxha.iheebbebb.iwwxebcfvCCCCC",
"CCCuvjeiibbbbbbb#iiwweaa.iwuCCCC",
"CCCCwmiie.bbbf.##iinrfafiivvCCCC",
"CCCuioe.bffffff#gdinncabiiwvCCCC",
"CCCCnlde.hffff#a#dinnh#iivwwuCCC",
"CCCCeacchdffff###bbwnffiivxxvCCC",
"CCCCb#h.b.f..b#h.foqikiiiexwwuCC",
"CCCC.dfeffh.e.ffmottnvniiiwwuCCC",
"CCCCeeeestqfmotttAtAAwvvvwwwuCCC",
"CCCCuikqABtAAAxxxxzyzriiwwwnCuCC",
"CCCCCi#gmAAttAzwxwwwwiiiwwvuCCCC",
"CCCCCifd#mqmjmsieeebiieiwwiCCCCC",
"CCCCCebbhhm##cieeieeeiiwwvnCCCCC",
"CCCCubbbbbmhchfeiiieiiiwwwuCCCCC",
"CCCCCnuuiuieeebbiiCuinxyxuCCCCCC",
"CCCCCCuCCCCCCCCCCiuCCnwuCCCCCCCC",
"CCCCCCCCCCCCCCCCCCCCCCCuCCCCCCCC",
"CCCCCCCCCCCCCCCCCCCCCCCCCCCCCCCC",
"CCCCCCCCCCCCCCCCCCCCCCCCCCCCCCCC",
"CCCCCCCCCCCCCCCCCCCCCCCCCCCCCCCC",
"CCCCCCCCCCCCCCCCCCCCCCCCCCCCCCCC"
};
