/* XPM */
static char *urnlrg007[] = {
/* width height num_colors chars_per_pixel */
"    32    32       31            1",
/* colors */
". c #848c00",
"# c #efff00",
"a c #a5b500",
"b c #bdce00",
"c c #d6ef00",
"d c #394200",
"e c #6b7b00",
"f c #526300",
"g c #8ca500",
"h c #bdde00",
"i c #212900",
"j c #314200",
"k c #8cde00",
"l c #63a500",
"m c #528c00",
"n c #8cef00",
"o c #52de00",
"p c #185a00",
"q c #39c600",
"r c #109c00",
"s c #10ff00",
"t c #000800",
"u c #002900",
"v c #004200",
"w c #005200",
"x c #007b00",
"y c #008c00",
"z c #00bd00",
"A c #00d600",
"B c #00ff00",
"C c None",
/* pixels */
"CCCCCCCCCCCCCCCCCCCCCCCCCCCCCCCC",
"CCCCCCCCCCCCCCCCCCCCCCCCCCCCCCCC",
"CCCCCCCCCCCCCCCCCCCCCCCCCCCCCCCC",
"CCCCCCCCCifgdiCCuzpvCCCCCCCCCCCC",
"CCCCCCibnccbefjzBBByxuCCCCCCCCCC",
"CCCCiccc#cchfffsBBoglriiCCCCCCCC",
"CCCCC.c#c##cfdqBBncagevfiCCCCCCC",
"CCCCCt#c#c#hfdsBs#hagepjjuCCCCCC",
"CCCCtbc#ccchkmsAq#ba.fidvvjCCCCC",
"CCCC.#####c#cgnopjffdfjdjf.iCCCC",
"CCCfc##c###c#afivvvpjmmj..m.tCCC",
"CCig.#######hddjvvvvxAzjfaeffCCC",
"CCifh######h.dddjvvpAAAijgepwtCC",
"CCtCk######bddddjdfpAAAwddlivvCC",
"CCCC######addddfd.edwAAxpjjvuCCC",
"CCCec####c.jddddfadjvzAzvvwvtCCC",
"CCCcbc#beffdddddcddivwBzvvvttCCC",
"CCfaab.eeeef.#cb.dpwvvwvvvvCCCCC",
"CCfgqnheeeddb#ckpppwvvvvvvuCCCCC",
"CCijro#eeddd##nrwwwvvwvvvvuCCCCC",
"CCCCCj#.ddd.#hAwwwxwvwwwvvjtCCCC",
"CCCCCCbfddjahBxwwwvvwwwwvjitCCCC",
"CCCCCCtujipsBwvvvvvvxxwwpitCCCCC",
"CCCCCCCCtvyAwvvvvyzBBxwpitCCCCCC",
"CCCCCCCCCimoyyvvxAAAzzpitCCCCCCC",
"CCCCCCCCCCiosAvvAzzpiitttCCCCCCC",
"CCCCCCCCCCCiBBvpuuCCCCtCCCCCCCCC",
"CCCCCCCCCCCCAzuCCCCCCCCCCCCCCCCC",
"CCCCCCCCCCCCuxCCCCCCCCCCCCCCCCCC",
"CCCCCCCCCCCCCCCCCCCCCCCCCCCCCCCC",
"CCCCCCCCCCCCCCCCCCCCCCCCCCCCCCCC",
"CCCCCCCCCCCCCCCCCCCCCCCCCCCCCCCC"
};
