/* XPM */
static char *urnlrg009[] = {
/* width height num_colors chars_per_pixel */
"    32    32       31            1",
/* colors */
". c #cece00",
"# c #ffff00",
"a c #5a6300",
"b c #def700",
"c c #7b8c00",
"d c #8c9c00",
"e c #313900",
"f c #394200",
"g c #adc600",
"h c #adce00",
"i c #4a5a00",
"j c #394a00",
"k c #adf700",
"l c #94e700",
"m c #73b500",
"n c #4a8c00",
"o c #7bff00",
"p c #398400",
"q c #296300",
"r c #081800",
"s c #52f700",
"t c #29b500",
"u c #29ff00",
"v c #003900",
"w c #004200",
"x c #006300",
"y c #008c00",
"z c #00a500",
"A c #00ce00",
"B c #00f700",
"C c None",
/* pixels */
"CCCCCCCCCCCCCCCCCCCCCCCCCCCCCCCC",
"CCCCCCCCCCCCCCCCCCCCCCCCCCCCCCCC",
"CCCCCCCCCCCCCCCrerrCCCCCCCCCCCCC",
"CCCCCCCCeaacgggefewaervCCCCCCCCC",
"CCCCCCCCe###bgieeeyggcirCCCCCCCC",
"CCCCCCCCC###giffeiypacaeCCCCCCCC",
"CCCCCCCC.b.afffecdaajinmCCCCCCCC",
"CCCCCCC.#cffieffccfifqBBrCCCCCCC",
"CCCCCCg.afefjajfaiajjvBBmCCCCCCC",
"CCCCCg#ajffffajfjpppxwABpeCCCCCC",
"CCCfgb#gfjjffiipyyyyxwxBzcrCCCCC",
"CCrdlk#dfffffimyyxyywvyAyjceCCCC",
"CjcmBk.afffffmvwxxxxwwyqwwqeCCCC",
"CCqzysiajifanxwwwwwwxyyxwwwwvCCC",
"CCrzyyxqwqtyzwwwwwwwyyyywwwwwCCC",
"CCCyyyqqxxAzAwwwwwwwyzyzwwvwwrCC",
"CCCCyytjqABBAvwvwwwwyyyywwwxrCCC",
"CCCCxyzjjuBBAwwwwwwwzyyyyvwwrCCC",
"CCCCrzzAesBBAvwvwwwvByyyywxrCCCC",
"CCCCCzusnsBBzwwwzBBBByxidwwrCCCC",
"CCCCCvk#koBBywvzBBBAxqghawrCCCCC",
"CCCCCCg##oBAvwzBBAxwvcgaffrCCCCC",
"CCCCCCeh#uByvytqepwwwadifeeCCCCC",
"CCCCCCCc#BzwvifecceewadfeeCCCCCC",
"CCCCCCCf#uyeffffgeeeweaeeCCCCCCC",
"CCCCCCCr#qeefffedjfewewrCCCCCCCC",
"CCCCCCCCfereeeeeiejewjrCCCCCCCCC",
"CCCCCCCCCCCCCCCCCCrvvvvCCCCCCCCC",
"CCCCCCCCCCCCCCCCCCCCCCCCCCCCCCCC",
"CCCCCCCCCCCCCCCCCCCCCCCCCCCCCCCC",
"CCCCCCCCCCCCCCCCCCCCCCCCCCCCCCCC",
"CCCCCCCCCCCCCCCCCCCCCCCCCCCCCCCC"
};
