/* XPM */
static char *urnlrg008[] = {
/* width height num_colors chars_per_pixel */
"    32    32       31            1",
/* colors */
". c #080800",
"# c #ffff00",
"a c #bdc600",
"b c #5a6300",
"c c #def700",
"d c #7b8c00",
"e c #c6de00",
"f c #394200",
"g c #6b7b00",
"h c #7b9400",
"i c #8ca500",
"j c #9cbd00",
"k c #425a00",
"l c #94de00",
"m c #6bb500",
"n c #183100",
"o c #397300",
"p c #73ff00",
"q c #6bff00",
"r c #399400",
"s c #4aff00",
"t c #39ce00",
"u c #219400",
"v c #001800",
"w c #004200",
"x c #006300",
"y c #007300",
"z c #009c00",
"A c #00b500",
"B c #00f700",
"C c None",
/* pixels */
"CCCCCCCCCCCCCCCCCCCCCCCCCCCCCCCC",
"CCCCCCCCCCCCCCCCCCCCCCCCCCCCCCCC",
"CCCCCCCCCCCCCCCCCCCwwCCCCCCCCCCC",
"CCCCC.nnkdjjednCCwAsrovCCCCCCCCC",
"CCCCCCn##cc#cjfkABpehgoCCCCCCCCC",
"CCCCCCCa##cceeofyueejdkCCCCCCCCC",
"CCCCCCCb###cccfknxoigbbn.CCCCCCC",
"CCCCC.n#c##ccdfffyxokkhffCCCCCCC",
"CCCCCnc#c##chffffxxfxusxfnCCCCCC",
"CCCCna#####dfffbgkkbfBBugyvCCCCC",
"CCC.ie####dffffbgfgfnBBAkjinCCCC",
"CCChe###ebfffffbkdffnABBfidkCCCC",
"CCCk#ccbffffffffdgfkwyBBnkhnnCCC",
"CCCaccibbkkfkgidikoxwwABxwowwCCC",
"CCdalccbbbbkfe#tyyyxwwxywwwwwvCC",
"CkjlBc#bkkffd#pyyyyxwxxwwwwwvCCC",
"C.ouze#kffff#lAxyyyxxxywwwwnCCCC",
"CCCwxldffffjlAwwwwwxyyyywwvCCCCC",
"CCCvwwfnfkopAwwwwwwwyyyywwvCCCCC",
"CCCCvwwnwwBzywwwwwwwyyyyywvCCCCC",
"CCCCCCzAfyzzzwwwwwwwyyyyynwCCCCC",
"CCCCCCxpmoAAAwwwwxAAAzyuhfnCCCCC",
"CCCCC..e#ltBAxwwzBBBBAihkfnCCCCC",
"CCCCCC.nccqBBxwyBBBAxngffn.CCCCC",
"CCCCCCCCiepBBwxBAtynwnkk..CCCCCC",
"CCCCCCCC.asBAwrkfiffnnn.CCCCCCCC",
"CCCCCCCCCkqBwnv...vnnnnCCCCCCCCC",
"CCCCCCCCC.rACC.CCC.CCCCvCCCCCCCC",
"CCCCCCCCCC.CCCCCCCCCCCCCCCCCCCCC",
"CCCCCCCCCCCCCCCCCCCCCCCCCCCCCCCC",
"CCCCCCCCCCCCCCCCCCCCCCCCCCCCCCCC",
"CCCCCCCCCCCCCCCCCCCCCCCCCCCCCCCC"
};
