/* XPM */
static char *urnmed010[] = {
/* width height num_colors chars_per_pixel */
"    24    24       31            1",
/* colors */
". c #080800",
"# c #ffff00",
"a c #d6de00",
"b c #a5b500",
"c c #738400",
"d c #293100",
"e c #4a5a00",
"f c #5a7300",
"g c #7b9c00",
"h c #314200",
"i c #9cce00",
"j c #b5ff00",
"k c #73ad00",
"l c #314a00",
"m c #5a9c00",
"n c #7be700",
"o c #316300",
"p c #5aff00",
"q c #297b00",
"r c #299c00",
"s c #29bd00",
"t c #18ff00",
"u c #003900",
"v c #005200",
"w c #007b00",
"x c #009400",
"y c #00bd00",
"z c #00c600",
"A c #00de00",
"B c #00ff00",
"C c None",
/* pixels */
"CCCCCCCCCCCCC.CCCCCCCCCC",
"CCCCCCCCCCC.dhdCCCCCCCCC",
"CCCCCCCCC.hhhhvh.CCCCCCC",
"CCCCCCC.leghhbcfl.CCCCCC",
"CCCCCCfeeegclqfohgdCCCCC",
"CCCCCcgeeefqwwwwuAxCCCCC",
"C.hmngcdhoxvvwwvuxzCCCCC",
"CdszAqooyzvvvwwvvwwCCCCC",
"CCxzAmxzBBvvvwvxxxuudCCC",
"CCxzzgqBBAuwvvwwxxvuuCCC",
"CCuyAimtByuvwvwxxxxuuuCC",
"CCCyzpktBvuuvxwzwwxvvuCC",
"CCCyApntxuvvzBAvvoguvuCC",
"CCCrj#pAuvrzwwuufbcxuuCC",
"CCC.c#tvueehmuuvagduuCCC",
"CCCC.#qlllhhbhueifhudCCC",
"CCCChallhhegchhlbhhhCCCC",
"CCCCdfhheehbcedufhd.CCCC",
"CCCC..deeheffhohd.CCCCCC",
"CCCCC.....dloqwvuCCCCCCC",
"CCCCCCCCC.CCCCuuuCCCCCCC",
"CCCCCCCCCCCCCCCCCCCCCCCC",
"CCCCCCCCCCCCCCCCCCCCCCCC",
"CCCCCCCCCCCCCCCCCCCCCCCC"
};
