/* XPM */
static char *urnmed013[] = {
/* width height num_colors chars_per_pixel */
"    24    24       31            1",
/* colors */
". c #e7ff00",
"# c #7b8c00",
"a c #8c9c00",
"b c #637300",
"c c #94ad00",
"d c #9cb500",
"e c #adc600",
"f c #c6e700",
"g c #526300",
"h c #bdde00",
"i c #314200",
"j c #7bb500",
"k c #5a8c00",
"l c #94ef00",
"m c #315a00",
"n c #102100",
"o c #73ef00",
"p c #42b500",
"q c #4ae700",
"r c #299400",
"s c #29e700",
"t c #086300",
"u c #08c600",
"v c #08ef00",
"w c #001800",
"x c #002900",
"y c #004200",
"z c #006300",
"A c #009400",
"B c #00e700",
"C c None",
/* pixels */
"CCCCCCCCCCCCCCCCCCCCCCCC",
"CCCCCCCCwwwwxxCCCCCCCCCC",
"CCCCCCCCtzyyzAzyCCCCCCCC",
"CCCCCmttgkmmttAzAwCCCCCC",
"CCCCzurbc#abbmAzzyCCCCCC",
"CCCCrbgb####bbiyzzwCCCCC",
"CCCCpg##a#a#f#iyymgiCCCC",
"CCCwjhbeaccd.eiykfcmCCCC",
"CCCxl.ehccchfdkydeiiCCCC",
"CCnrf.efd#dedjsmkbiixCCC",
"CCnhdechhjoqsvBungiyxCCC",
"CCC##bqolquAAAuAAyiiyCCC",
"CCCimAuvvBBzAzAtynynzwCC",
"CCCijqBBvsBAtrkiiityyxCC",
"CCC#..qshlg#eabiimzyywCC",
"CCCbdfeo.agb#giiiityyCCC",
"CCibbcdofeamib#igmzynCCC",
"CCiigggggbaima#iitziCCCC",
"CCCCCniiixrbmbggtzznCCCC",
"CCCCCCCnnCCanCCiywwCCCCC",
"CCCCCCCCCCCCnCCCCCCCCCCC",
"CCCCCCCCCCCCCCCCCCCCCCCC",
"CCCCCCCCCCCCCCCCCCCCCCCC",
"CCCCCCCCCCCCCCCCCCCCCCCC"
};
