/* XPM */
static char *urnmed004[] = {
/* width height num_colors chars_per_pixel */
"    24    24       31            1",
/* colors */
". c #4a5200",
"# c #def700",
"a c #7b8c00",
"b c #313900",
"c c #6b7b00",
"d c #9cb500",
"e c #5a6b00",
"f c #b5d600",
"g c #bdde00",
"h c #84a500",
"i c #314200",
"j c #94f700",
"k c #52bd00",
"l c #296b00",
"m c #63ff00",
"n c #42d600",
"o c #42e700",
"p c #219400",
"q c #29bd00",
"r c #31ff00",
"s c #18e700",
"t c #10ce00",
"u c #000800",
"v c #003900",
"w c #004a00",
"x c #006300",
"y c #008400",
"z c #00ad00",
"A c #00ce00",
"B c #00f700",
"C c None",
/* pixels */
"CCCCCCCCCCCCCCCCCCCCCCCC",
"CCCCCCCCCCCCCCCCCCCCCCCC",
"CCCCCCCCbktxvlluCCCCCCCC",
"CCCCCCCe#ozxpkpwvCCCCCCC",
"CCCCCCwgrBxdgdh.xl.CCCCC",
"CCCCCbjoBzk#fddh.ldcauCC",
"CCuxlgfsBBngacd#elpaeuCC",
"CC.ggdfnBBthacd#.vle.bCC",
"CufggjjqBAzqaea.bicliiCC",
"Ccrj##haqAzzzpi.iiaiwwCC",
"Cvm##gae.sBBAywiiih.wvCC",
"Ce##ggccisBBzyxwb.eciuCC",
"Cuhdffdc.nBAxxxvibcbvCCC",
"CCCbahdcbqAApe.iibbiuCCC",
"CCCCcaaebhqqfh.iiiivCCCC",
"CCCCadheiamng.lvvvvvCCCC",
"CCCCb.dfhamrgsyzywxuCCCC",
"CCCCCCdfdggj#jqyvCCCCCCC",
"CCCCCCCcdd#jj#avuCCCCCCC",
"CCCCCCCC.acxBlvuuCCCCCCC",
"CCCCCCCCCCCCCCCCCCCCCCCC",
"CCCCCCCCCCCCCCCCCCCCCCCC",
"CCCCCCCCCCCCCCCCCCCCCCCC",
"CCCCCCCCCCCCCCCCCCCCCCCC"
};
