/* XPM */
static char *urnmed015[] = {
/* width height num_colors chars_per_pixel */
"    24    24       31            1",
/* colors */
". c #d6de00",
"# c #f7ff00",
"a c #738400",
"b c #9cb500",
"c c #c6e700",
"d c #d6f700",
"e c #526300",
"f c #849c00",
"g c #adce00",
"h c #314200",
"i c #73bd00",
"j c #396300",
"k c #84f700",
"l c #398c00",
"m c #52c600",
"n c #215a00",
"o c #081800",
"p c #52ff00",
"q c #39c600",
"r c #186b00",
"s c #29ff00",
"t c #10ff00",
"u c #08d600",
"v c #004200",
"w c #006b00",
"x c #007b00",
"y c #009c00",
"z c #00bd00",
"A c #00d600",
"B c #00f700",
"C c None",
/* pixels */
"CCCCCCCoohjjrCCCCCCCCCCC",
"CCCCCCChaafaevCCCCCCCCCC",
"CCCCCCChbgaafahoCCCCCCCC",
"CCCCCCo.#d.ifiimxCCCCCCC",
"CCCCCCb###dsAAAAAyvCCCCC",
"CCCCoj##cdpBAAAAzwjoCCCC",
"CCChafipttBBAuumxxreoCCC",
"CCChesBBskklpgcferxjoCCC",
"CCChc.kpd.ab.cbhehrwvCCC",
"CCCc##ck#fegcbhhhhnvCCCC",
"Coh..gbigbffbaehhhnvvCCC",
"CChebgbafaghfa.hhhwvvCCC",
"CCCaefgfabchadbhehrvvCCC",
"CCCgaeabecbhgcfhhrwvvvCC",
"CCCodaeefk.ed#cmrwwvhCCC",
"CCCCbdeeqp.jcajvrwwhhCCC",
"CCCCCnlqAk#jjnvvbbjhoCCC",
"CCCCCCoyzpdehhvq#ehCCCCC",
"CCCCCCCvxlbehhrqhCCCCCCC",
"CCCCCCCCCCvvnovCCCCCCCCC",
"CCCCCCCCCCCCCCCCCCCCCCCC",
"CCCCCCCCCCCCCCCCCCCCCCCC",
"CCCCCCCCCCCCCCCCCCCCCCCC",
"CCCCCCCCCCCCCCCCCCCCCCCC"
};
