/* XPM */
static char *urnmed003[] = {
/* width height num_colors chars_per_pixel */
"    24    24       31            1",
/* colors */
". c #5a6300",
"# c #def700",
"a c #424a00",
"b c #738400",
"c c #9cb500",
"d c #849c00",
"e c #adce00",
"f c #4a5a00",
"g c #314200",
"h c #527300",
"i c #84b500",
"j c #94ce00",
"k c #adf700",
"l c #213100",
"m c #84f700",
"n c #081000",
"o c #397300",
"p c #4a9c00",
"q c #52ad00",
"r c #63d600",
"s c #217300",
"t c #42f700",
"u c #21c600",
"v c #084200",
"w c #10e700",
"x c #002100",
"y c #006b00",
"z c #009400",
"A c #00ce00",
"B c #00e700",
"C c None",
/* pixels */
"CCCCCCCCCCCCCCCCCCCCCCCC",
"CCCCCCCCCCCCngnCCCCCCCCC",
"CCCCCCCClyvvlggCCCCCCCCC",
"CCCCCClqkqyyzialnlvyCCCC",
"CCCCCltkruzyzzyoopBtpCCC",
"CCCCCr##tAyzrosyycbdbnCC",
"CCCxim#mBzs##ddhziddhnCC",
"CCyztjqwBzk#ebe.focbanCC",
"CCae#kuAAu#ec.#bassgalCC",
"Cxe#eejABw#cba#casglllCC",
"Cf#ecciwBBdb.f#.ggbvvvCC",
"CCieemtABzzh.a.gggbavxCC",
"CCwk##equzyyssl.ggbfxCCC",
"CCt#ke.fgBBBBzvlggaanCCC",
"CC#ecd.fauBBAyyvgagvCCCC",
"CCn.dddagqAAyyyvggvnCCCC",
"CCCCCab.g.uzvgglvvxCCCCC",
"CCCCCCClalcAj.sszxCCCCCC",
"CCCCCCCCgfeukcmsxCCCCCCC",
"CCCCCCCCCldkj.flCCCCCCCC",
"CCCCCCCCCCgcCCCCCCCCCCCC",
"CCCCCCCCCCClCCCCCCCCCCCC",
"CCCCCCCCCCCCCCCCCCCCCCCC",
"CCCCCCCCCCCCCCCCCCCCCCCC"
};
