/* XPM */
static char *urnmed012[] = {
/* width height num_colors chars_per_pixel */
"    24    24       31            1",
/* colors */
". c #cede00",
"# c #a5b500",
"a c #b5c600",
"b c #bdd600",
"c c #394200",
"d c #637300",
"e c #6b7b00",
"f c #94ad00",
"g c #7b9400",
"h c #8ca500",
"i c #4a6300",
"j c #638400",
"k c #7bc600",
"l c #214200",
"m c #7bff00",
"n c #5abd00",
"o c #215200",
"p c #296b00",
"q c #297b00",
"r c #42ce00",
"s c #29bd00",
"t c #18f700",
"u c #000800",
"v c #003100",
"w c #004200",
"x c #006b00",
"y c #008c00",
"z c #00a500",
"A c #00c600",
"B c #00ef00",
"C c None",
/* pixels */
"CCCCCCCCCCCCCCCCCCCCCCCC",
"CCCCCCCCllCCvvCCCCCCCCCC",
"CCCCCCCqfixAxxxvCCCCCCCC",
"CCCClvxnstByyxyywCCCCCCC",
"CCCvtBmgzxxwwzxyxvCCCCCC",
"CCCxBBmpvvwwwAyyxwuCCCCC",
"CCCxBBmxllipozzxAxxvCCCC",
"CCCyttjeegedipwwwwovCCCC",
"CCCx.aieeeddfiwwodhiuCCC",
"CCCsgccdeeeeaclw#.dlvCCC",
"CCuyiigeggga#ioo.hclvCCC",
"CCCq#ehhghf.bglp.dcvxuCC",
"CCCfafffhgab#gpogccxwvCC",
"CCCe#egfedhggrzlocclvvCC",
"CCCddisrgnrrBABswwllwuCC",
"CCCudrABAAzxxxxylcwwluCC",
"CCCCg.kzrrAlooplccwwlCCC",
"CCCueg#nkagiiiicclwlCCCC",
"CCCceddek#hgcciccwwvCCCC",
"CCCCCuuluvccclCuyxuCCCCC",
"CCCCCCCCCCCCCCCCuCCCCCCC",
"CCCCCCCCCCCCCCCCCCCCCCCC",
"CCCCCCCCCCCCCCCCCCCCCCCC",
"CCCCCCCCCCCCCCCCCCCCCCCC"
};
