/* XPM */
static char *urnsml003[] = {
/* width height num_colors chars_per_pixel */
"    16    16       31            1",
/* colors */
". c #080800",
"# c #b5ce00",
"a c #526300",
"b c #8ca500",
"c c #cef700",
"d c #6b8400",
"e c #314200",
"f c #94c600",
"g c #527300",
"h c #adef00",
"i c #213100",
"j c #5a8c00",
"k c #9cef00",
"l c #315200",
"m c #214200",
"n c #73de00",
"o c #397300",
"p c #52c600",
"q c #399c00",
"r c #52ef00",
"s c #319c00",
"t c #217300",
"u c #29c600",
"v c #108c00",
"w c #003100",
"x c #004a00",
"y c #006b00",
"z c #00ad00",
"A c #00ce00",
"B c #00e700",
"C c None",
/* pixels */
"CCCCCCCCC.CCCCCC",
"CCCCCwxwmiCCCCCC",
"CCCCpkvvsjioymCC",
"CCCqcrvvstydjf.C",
"CwvhkBvhfbgqba.C",
"Ci#kuApcb#dooeiC",
"C##fpBrbabdmliwC",
"CffkuBzjadeegmCC",
"CsccbszzvmaediCC",
"Cf#baeuBzyiee.CC",
"CCadbeuzxxmewCCC",
"CCCCeeaugomyCCCC",
"CCCCC.dn#ktCCCCC",
"CCCCCC.fiCCCCCCC",
"CCCCCCCCCCCCCCCC",
"CCCCCCCCCCCCCCCC"
};
