/* XPM */
static char *urnsml006[] = {
/* width height num_colors chars_per_pixel */
"    16    16       31            1",
/* colors */
". c #9ca500",
"# c #636b00",
"a c #848c00",
"b c #bdd600",
"c c #313900",
"d c #738400",
"e c #a5bd00",
"f c #deff00",
"g c #c6ef00",
"h c #84ad00",
"i c #4a6300",
"j c #395a00",
"k c #396b00",
"l c #7bff00",
"m c #428c00",
"n c #4aad00",
"o c #102900",
"p c #4aef00",
"q c #29b500",
"r c #106b00",
"s c #10ce00",
"t c #000800",
"u c #002100",
"v c #003900",
"w c #005200",
"x c #008400",
"y c #009c00",
"z c #00ce00",
"A c #00ef00",
"B c #00ff00",
"C c None",
/* pixels */
"CCCCCCCCCCCCCCCC",
"CCCCCCvzroCCCCCC",
"CCvka#nAsn#cCCCC",
"CogffhiBBxjjotCC",
"C#eggdmBpekjjdoC",
"C.fbgaqBfhic#jjC",
"Cifgbehsbiic#ivC",
"CCfffffmvwywjjtC",
"CCfffeaccryyvwCC",
"CibffaccacxyvoCC",
"Combec#bacvvvoCC",
"CCCh#cflvvvvvCCC",
"CCCcocBxwyytCCCC",
"CCCCCtrxtCCCCCCC",
"CCCCCCCuCCCCCCCC",
"CCCCCCCCCCCCCCCC"
};
