/* XPM */
static char *vinlrg008[] = {
/* width height num_colors chars_per_pixel */
"    32    32       31            1",
/* colors */
". c #101010",
"# c #292929",
"a c #393939",
"b c #4a4a4a",
"c c #6b6b6b",
"d c #848484",
"e c #ad4a4a",
"f c #bd3131",
"g c #a51010",
"h c #ce0808",
"i c #b50000",
"j c #842921",
"k c #bd4231",
"l c #944229",
"m c #8c736b",
"n c #734a39",
"o c #63524a",
"p c #735242",
"q c #8c5a42",
"r c #94634a",
"s c #7b6352",
"t c #a57b5a",
"u c #9c7352",
"v c #847b73",
"w c #bd946b",
"x c #b58c63",
"y c #ad845a",
"z c #5a4229",
"A c #392918",
"B c #948c7b",
"C c None",
/* pixels */
"CCCCCCCCCCCCCCCCCCCCCCCCCCCCCCCC",
"CCCCCCCCCCC...CCCCCCCCCCCCCCCCCC",
"CCCCCCCCC.cdddva#CCCCCCCCCCCCCCC",
"CCCCCCCCbdddddddvaCCCCCCCCCCCCCC",
"CCCCCCC#ddddddddddbCCCCCCCCCCCCC",
"CCCCCCCddddddddddddaCCCCCCCCCCCC",
"CCCCCC#ddddddddddddvCCCCCCCCCCCC",
"CCCCCCaddddmhfedddddaCCCCCCCCCCC",
"CCCCCC.ddddfhjkmBdddbCCCCCCCCCCC",
"CCCCCC.dddvlnqurxrmvB.CCCCCCCCCC",
"CCCCCCCcddbzrutrrxnxwz.CCCCCCCCC",
"CCCCCCCcdvnzutttxwryurzCCCCCCCCC",
"CCCCCCCCcprruwxrwwwuxuq#CCCCCCCC",
"CCCCCCCC.yuyuyxwsxurqwyaca#CCCCC",
"CCCCCCCCnuxntrupmywwyywpcccaCCCC",
"CCCCCCCCrwqnuxtstwyxxxxklcccbCCC",
"CCCCCCCCnrnrrruvsywwqrxiigcccbCC",
"CCCCCCCCzrnqqprdnuqyuqniiicccc.C",
"CCCCCCCCC.nnrroBznnrrqocppccccaC",
"CCCCCCCCC.nqrncszpnzssccccccccaC",
"CCCCCCCCC.zrxyeoznqtcvcccccccc.C",
"CCCCCCCCCCCAnjBsnqxrxscccccoc.CC",
"CCCCCCCCCCCC.aoCAsutsACC###.CCCC",
"CCCCCCCCCCCCCbbCCzn.CCCCCCCCCCCC",
"CCCCCCCCCCCCCcaCCCCCCCCCCCCCCCCC",
"CCCCCCCCCCCCCdCCCCCCCCCCCCCCCCCC",
"CCCCCCCCCCCC#bCCCCCCCCCCCCCCCCCC",
"CCCCCCCCCCCCb#CCCCCCCCCCCCCCCCCC",
"CCCCCCCCCCCC#CCCCCCCCCCCCCCCCCCC",
"CCCCCCCCCCCCCCCCCCCCCCCCCCCCCCCC",
"CCCCCCCCCCCCCCCCCCCCCCCCCCCCCCCC",
"CCCCCCCCCCCCCCCCCCCCCCCCCCCCCCCC"
};
