/* XPM */
static char *vinlrg017[] = {
/* width height num_colors chars_per_pixel */
"    32    32       30            1",
/* colors */
". c #101010",
"# c #4a4a4a",
"a c #5a5a5a",
"b c #6b6b6b",
"c c #7b7373",
"d c #423939",
"e c #6b4a4a",
"f c #9c2929",
"g c #ad1010",
"h c #8c0000",
"i c #bd0000",
"j c #943929",
"k c #734231",
"l c #7b5242",
"m c #a5634a",
"n c #734a39",
"o c #8c5a42",
"p c #634231",
"q c #8c634a",
"r c #a57352",
"s c #9c6b4a",
"t c #9c7352",
"u c #4a3929",
"v c #b58c63",
"w c #ad845a",
"x c #c69c6b",
"y c #7b6b52",
"z c #292921",
"A c #181810",
"B c None",
/* pixels */
"BBBBBBBBBBBBBBBBBBBBBBBBBBBBBBBB",
"BBBBBBBBBBBBBBBBBBBBBBBBBBBBBBBB",
"BBBBBBBBBBBBBBBBBBBBBBBBBBBBBBBB",
"BBBBBBBBBBBBBBBBBBBBBBBBBBBBBBBB",
"BBBBBBBBBBBBBBBBBBBBBBBBBBBBBBBB",
"BBBBBBBBBBBBB.BBBBBBBBBBBBBBBBBB",
"BBBBBBBB.A.#bbbbdlzBBBBBBBBBBBBB",
"BBBBBAacbbbb#lllooozBBBBBBBBBBBB",
"BBBAabbbbbbbbanqkqytdBBBBBBBBBBB",
"BBzbbbbbbbbbbbalnopnvdBBBBBBBBBB",
"BAbbbbbbbbbboqyqqoslvlApBBBBBBBB",
"BdbbbbbbbbbyoyqwltsqtvluzBBBBBBB",
"BbbbbbbgiijrwoltowlttrrpABBBBBBB",
".bbbbbfiigttrsxoqqstwworBBBBBBBB",
".bbbbbgiijwvstqsolosrwrqBBBBBBBB",
"B#bbbbafitvswoopwmonwwwpBBBBBBBB",
"BAbbbbbbtqklrovssxvppnpuBBBBBBBB",
"BBdbbbbbyktoxorwrwplsqlABBBBBBBB",
"BBBzbbbbbeooqxoynqlcluuBBBBBBBBB",
"BBBBBzzddqpnvrpoppqcqpBBBBBBBBBB",
"BBBBBBBBBAuoqtllloybyABBBBBBBBBB",
"BBBBBBBBBBButqkopjaabBBBBBBBBBBB",
"BBBBBBBBBBBBvwwuhfaaaBBBBBBBBBBB",
"BBBBBBBBBBBB.udaeebacBBBBBBBBBBB",
"BBBBBBBBBBBBBB.baaaacBBBBBBBBBBB",
"BBBBBBBBBBBBBBB#bababBBBBBBBBBBB",
"BBBBBBBBBBBBBBBB#aabzBBBBBBBBBBB",
"BBBBBBBBBBBBBBBB.#a#.BBBBBBBBBBB",
"BBBBBBBBBBBBBBBBBBABBBBBBBBBBBBB",
"BBBBBBBBBBBBBBBBBBBBBBBBBBBBBBBB",
"BBBBBBBBBBBBBBBBBBBBBBBBBBBBBBBB",
"BBBBBBBBBBBBBBBBBBBBBBBBBBBBBBBB"
};
