/* XPM */
static char *vinlrg016[] = {
/* width height num_colors chars_per_pixel */
"    32    32       31            1",
/* colors */
". c #101010",
"# c #212121",
"a c #313131",
"b c #4a4a4a",
"c c #525252",
"d c #6b6b6b",
"e c #634242",
"f c #9c2929",
"g c #7b0000",
"h c #940000",
"i c #941008",
"j c #7b4231",
"k c #7b4a39",
"l c #7b5242",
"m c #9c634a",
"n c #8c5a42",
"o c #5a3929",
"p c #634231",
"q c #8c634a",
"r c #523929",
"s c #a57352",
"t c #846b5a",
"u c #b58463",
"v c #9c7352",
"w c #6b5a4a",
"x c #7b736b",
"y c #bd946b",
"z c #ad845a",
"A c #cea573",
"B c #181810",
"C c None",
/* pixels */
"CCCCCCCCCCCCCCCCCCCCCCCCCCCCCCCC",
"CCCCCCCCCCCCCCCCCCCCCCCCCCCCCCCC",
"CCCCCCCCCCCCCCCCCCCCCCCCCCCCCCCC",
"CCCCCCCCCCCBccxc#CCCCCCCCCCCCCCC",
"CCCCCCCCCCCcxdddxd#CCCCCCCCCCCCC",
"CCCCCCCCCCaxdddddxdbCCCCCCCCCCCC",
"CCCCCCCCCCbddxdnfddxbCCCCCCCCCCC",
"CCCCCCBacbxdtwpfjokkk.CCCCCCCCCC",
"CCCCddddccccdcwvumsqqcCCCCCCCCCC",
"CCBcdbcccccccccclnnzvwBCCCCCCCCC",
"CCccccccccccccwccnnzkt#CCCCCCCCC",
"C#ccccccwecccwlwvnqvlq#CCCCCCCCC",
"CacccccihhgjvnkvvqvqwvkBCCCCCCCC",
"CaccccehhhknvuyqznknwzskpCCCCCCC",
"C.cccccpinknssqnvvnpnsspBCCCCCCC",
"CC#ccccwqmvAuuvzqolppzmrCCCCCCCC",
"CCC.acccezlmsmknlppqqzzvBCCCCCCC",
"CCCCCC##arknnmnnlAnnnqzBCCCCCCCC",
"CCCCCCCCCpkkzmuunAsnkn#CCCCCCCCC",
"CCCCCCCCBkpqvykzqnpwko.CCCCCCCCC",
"CCCCCCCCCBkluqkproxvvaCCCCCCCCCC",
"CCCCCCCCCCpnnplpkwdaCCCCCCCCCCCC",
"CCCCCCCCCCCrwtwidddaCCCCCCCCCCCC",
"CCCCCCCCCCCC.ddddddaCCCCCCCCCCCC",
"CCCCCCCCCCCCCcddddd#CCCCCCCCCCCC",
"CCCCCCCCCCCCCBdddddCCCCCCCCCCCCC",
"CCCCCCCCCCCCCCcddd#CCCCCCCCCCCCC",
"CCCCCCCCCCCCCCCac.CCCCCCCCCCCCCC",
"CCCCCCCCCCCCCCCCCCCCCCCCCCCCCCCC",
"CCCCCCCCCCCCCCCCCCCCCCCCCCCCCCCC",
"CCCCCCCCCCCCCCCCCCCCCCCCCCCCCCCC",
"CCCCCCCCCCCCCCCCCCCCCCCCCCCCCCCC"
};
