/* XPM */
static char *vinmed013[] = {
/* width height num_colors chars_per_pixel */
"    24    24       31            1",
/* colors */
". c #212121",
"# c #313131",
"a c #424242",
"b c #4a4a4a",
"c c #525252",
"d c #636363",
"e c #737373",
"f c #848484",
"g c #631818",
"h c #7b0000",
"i c #7b4a39",
"j c #734231",
"k c #8c7b73",
"l c #392921",
"m c #6b4a39",
"n c #94634a",
"o c #634231",
"p c #845a42",
"q c #ad7b5a",
"r c #7b5239",
"s c #4a3121",
"t c #9c7b63",
"u c #9c7352",
"v c #b5845a",
"w c #4a3929",
"x c #7b6b5a",
"y c #736352",
"z c #5a4a39",
"A c #846342",
"B c #101008",
"C c None",
/* pixels */
"CCCCCCCCCCCCCCCCB.CCCCCC",
"CCCCCCCCCCCCCCCcca#CCCCC",
"CCCCCCCCCCCCCCdbabbBCCCC",
"CCCCCCCCCCCCCccabbaBCCCC",
"CCCCCCCCCCCCCebbgbaCCCCC",
"CCCCCCCCC.lsazcghzaCCCCC",
"CCCCCCCCsjmvxyAhhb.CCCCC",
"CCCB#CC.uvvnxuuoraBCCCCC",
"CCCC#ecppuvvvuuznzCCCCCC",
"CCCCC#feqmnunqmomApCCCCC",
"CCCCCcktkdupnuupAo.CCCCC",
"CCCCCxqjutkdrijprpCCCCCC",
"CCCCCdppvpwpebzpmBCCCCCC",
"CCCCCdrrnqnniozprBCCCCCC",
"CCCCCczunrnqnmnuwCCCCCCC",
"CCCCCBftuprAAmwwCCCCCCCC",
"CCCCCC#fffzwws.BCCCCCCCC",
"CCCCCCC#c.BCCCCCCCCCCCCC",
"CCCCCCCCCCCCCCCCCCCCCCCC",
"CCCCCCCCCCCCCCCCCCCCCCCC",
"CCCCCCCCCCCCCCCCCCCCCCCC",
"CCCCCCCCCCCCCCCCCCCCCCCC",
"CCCCCCCCCCCCCCCCCCCCCCCC",
"CCCCCCCCCCCCCCCCCCCCCCCC"
};
