/* XPM */
static char *vinmed010[] = {
/* width height num_colors chars_per_pixel */
"    24    24       30            1",
/* colors */
". c #080808",
"# c #181818",
"a c #212121",
"b c #393939",
"c c #4a4a4a",
"d c #636363",
"e c #737373",
"f c #8c8c8c",
"g c #736b6b",
"h c #a57373",
"i c #421818",
"j c #310000",
"k c #731008",
"l c #734a39",
"m c #a5948c",
"n c #423129",
"o c #8c5a42",
"p c #312118",
"q c #ad7b5a",
"r c #5a4231",
"s c #9c6b4a",
"t c #735239",
"u c #c6946b",
"v c #9c7352",
"w c #946b4a",
"x c #5a524a",
"y c #8c735a",
"z c #7b634a",
"A c #a58463",
"B c None",
/* pixels */
"BBBBBBBBBBBBBBBBBBBBBBBB",
"BBBBBBBBBBBBBBBBBBBBBBBB",
"BBBBBBB##BBBBBBBBBBBBBBB",
"BBBBB#efffxBBBBBBBBBBBBB",
"BBBB#ffffffe.BBBBBBBBBBB",
"BBBBxffffffez.BBBBBBBBBB",
"BBBBfffhhyvorro#BBBBBBBB",
"BBB#ffmswwqwrrvw.BBBBBBB",
"BBB#ffrrybzuuqowp..abnca",
"BBBBffzoybnwvvzwzlkicbcc",
"BBBBefywmbrtosvuoblxed#B",
"BBBB#xluAxaotAtAheeb#BBB",
"BBBBB#vwzgirloqwqoBBBBBB",
"BBBBBBwlqeakrquuurBBBBBB",
"BBBBBBBntmajvlwqvnBBBBBB",
"BBBBBBBB#ybainpvpBBBBBBB",
"BBBBBBBBBzeaa.BBBBBBBBBB",
"BBBBBBBBB.eba#BBBBBBBBBB",
"BBBBBBBBBB#da.BBBBBBBBBB",
"BBBBBBBBBBBbn.BBBBBBBBBB",
"BBBBBBBBBBBB.BBBBBBBBBBB",
"BBBBBBBBBBBBBBBBBBBBBBBB",
"BBBBBBBBBBBBBBBBBBBBBBBB",
"BBBBBBBBBBBBBBBBBBBBBBBB"
};
