/* XPM */
static char *vinmed001[] = {
/* width height num_colors chars_per_pixel */
"    24    24       31            1",
/* colors */
". c #101010",
"# c #181818",
"a c #292929",
"b c #393939",
"c c #525252",
"d c #636363",
"e c #8c8c8c",
"f c #7b7373",
"g c #9c6b6b",
"h c #ad3131",
"i c #8c2121",
"j c #e70000",
"k c #733929",
"l c #392118",
"m c #6b4231",
"n c #8c5239",
"o c #9c634a",
"p c #8c5a42",
"q c #9c6b52",
"r c #ad7b5a",
"s c #523929",
"t c #7b5239",
"u c #846b5a",
"v c #634a39",
"w c #946b4a",
"x c #947b63",
"y c #423121",
"z c #948c84",
"A c #524a42",
"B c #b58c63",
"C c None",
/* pixels */
"CCCCCCCCCCCCCCCCCCCCCCCC",
"CCCCCCCCCCCCCCCCCCCCCCCC",
"CCCCCCCCCCCCCCCCCCCCCCCC",
"CCCCCCCCCCCCCCCCCCCCCCCC",
"CCCCCCCCCCCCCCCCCCCCCCCC",
"CCCCCCCCCC.psC.#CCCCCCCC",
"CCCC#babypwwopnttCCCCCCC",
"CC#deeezBpwBtrrqpCCCCCCC",
"C#eeeefwrBoqnvtttsCCCCCC",
"CfeeeezqrorBqqqvtyCCCCCC",
"aeeeeghtwwrqwcuwwlCCCCCC",
"beeeqjjqqtBBwBdxpyCCCCCC",
"beeehjjrtrprwqcdp#CCCCCC",
"#eeegjjrpqpBprAcfCCCCCCC",
"CfeeeeeqpqBrqlicd#CCCCCC",
"C#eeeeefuwwyvsmvccCCCCCC",
"CCbeeeeeed.mmvkkdd#CCCCC",
"CCCCbcfc#CCsC.ccccaCCCCC",
"CCCCCCCCCCCCCCbcccbCCCCC",
"CCCCCCCCCCCCCCCacc#CCCCC",
"CCCCCCCCCCCCCCCCC.CCCCCC",
"CCCCCCCCCCCCCCCCCCCCCCCC",
"CCCCCCCCCCCCCCCCCCCCCCCC",
"CCCCCCCCCCCCCCCCCCCCCCCC"
};
