/* XPM */
static char *vinsml004[] = {
/* width height num_colors chars_per_pixel */
"    16    16       31            1",
/* colors */
". c #101010",
"# c #181818",
"a c #313131",
"b c #525252",
"c c #5a5a5a",
"d c #6b6b6b",
"e c #7b7b7b",
"f c #8c8c8c",
"g c #9c6b6b",
"h c #ef0000",
"i c #ce1810",
"j c #bd524a",
"k c #8c2118",
"l c #a55239",
"m c #734231",
"n c #5a3929",
"o c #845239",
"p c #845a42",
"q c #6b5242",
"r c #a57352",
"s c #7b6352",
"t c #ad8463",
"u c #9c7352",
"v c #946b4a",
"w c #8c6342",
"x c #735a42",
"y c #211810",
"z c #7b6b5a",
"A c #8c6b4a",
"B c #5a4a31",
"C c None",
/* pixels */
"CCCCCCCCCCCCCCCC",
"CCCCCCCCCCCCCCCC",
"CCCCCCCCCCCCCCCC",
"CCCCCC.#aaCCCCCC",
"CCCC.Bqcccc#CCCC",
"CCCynwAtcccd#CCC",
"CCCyvrrvmoscd.CC",
"CCC#AvuuuwkccaCC",
"CCafBttwvAxccaCC",
"CCffjlovAnqcc.CC",
"Caefhipszxx#.CCC",
"C#ffggefa.CCCCCC",
"CCdffffBCCCCCCCC",
"CC#bed#CCCCCCCCC",
"CCCCCCCCCCCCCCCC",
"CCCCCCCCCCCCCCCC"
};
