/* XPM */
static char *vinsml007[] = {
/* width height num_colors chars_per_pixel */
"    16    16       30            1",
/* colors */
". c #101010",
"# c #181818",
"a c #292929",
"b c #393939",
"c c #5a5a5a",
"d c #6b6b6b",
"e c #7b7b7b",
"f c #7b5a5a",
"g c #9c4a4a",
"h c #841818",
"i c #bd3121",
"j c #7b4239",
"k c #a53929",
"l c #a54a39",
"m c #8c3929",
"n c #422921",
"o c #945a42",
"p c #6b5a52",
"q c #845a42",
"r c #735a4a",
"s c #8c634a",
"t c #734a31",
"u c #5a4231",
"v c #a57b5a",
"w c #c6946b",
"x c #9c7352",
"y c #ad8c6b",
"z c #b58c63",
"A c #947b5a",
"B c None",
/* pixels */
"BBBBBB#.BBBBBBBB",
"BBBB#ceedaBBBBBB",
"BBBBceeeeebBBBBB",
"BBBBeesgeed.BBBB",
"BBBBeegkleeaBBBB",
"BBBBcrsAxyeaBBBB",
"BBBBnoozvvzq.BBB",
"BBBBvwwvswvsd.BB",
"BBBBqtqxcxzvfcBB",
"BBBBnjqrpvoijd#B",
"BBBBBumcAsddddaB",
"BBBBBaherrfddcBB",
"BBBBBccbBBBa##BB",
"BBBBBccBBBBBBBBB",
"BBBB.b.BBBBBBBBB",
"BBBBBBBBBBBBBBBB"
};
