/* XPM */
static char *vinsml001[] = {
/* width height num_colors chars_per_pixel */
"    16    16       30            1",
/* colors */
". c #101010",
"# c #181818",
"a c #313131",
"b c #525252",
"c c #5a5a5a",
"d c #6b6b6b",
"e c #8c8c8c",
"f c #9c6b6b",
"g c #b55252",
"h c #de1818",
"i c #f70000",
"j c #d63121",
"k c #6b2118",
"l c #d65a42",
"m c #a56352",
"n c #634a42",
"o c #734a39",
"p c #945a42",
"q c #8c5a42",
"r c #291810",
"s c #523929",
"t c #a57352",
"u c #5a4231",
"v c #9c6b4a",
"w c #8c6b52",
"x c #b5845a",
"y c #423121",
"z c #6b635a",
"A c #8c7352",
"B c None",
/* pixels */
"BBBBBBBBBBBBBBBB",
"BBBBBBBBBBBBBBBB",
"BBBBBBBBBBBBBBBB",
"BBBBBBBry.yBBBBB",
"BB#dbAoxxmt.BBBB",
"BdeezwxqqqwuBBBB",
"aeeeeqmxqAsuBBBB",
"beehlpAxtzAuBBBB",
"defijqvxtwzuBBBB",
"beegmqxxAkbcBBBB",
"Bdeeeznuoonc#BBB",
"BBbddd#yybcc#BBB",
"BBBBBBBBB.bc#BBB",
"BBBBBBBBBB.aBBBB",
"BBBBBBBBBBBBBBBB",
"BBBBBBBBBBBBBBBB"
};
