/* XPM */
static char *vinsml006[] = {
/* width height num_colors chars_per_pixel */
"    16    16       29            1",
/* colors */
". c #101010",
"# c #292929",
"a c #393939",
"b c #424242",
"c c #525252",
"d c #5a5a5a",
"e c #636363",
"f c #737373",
"g c #735252",
"h c #845a5a",
"i c #8c2929",
"j c #a52929",
"k c #ad5239",
"l c #8c5a42",
"m c #634231",
"n c #73635a",
"o c #845a42",
"p c #8c634a",
"q c #ad7b5a",
"r c #a57352",
"s c #7b5239",
"t c #9c6b4a",
"u c #a57b5a",
"v c #9c7352",
"w c #211810",
"x c #7b736b",
"y c #6b5239",
"z c #ad845a",
"A c None",
/* pixels */
"AAAAAAAAAAAAAAAA",
"AAAAAAadb#AAAAAA",
"AAAAAdffffbAAAAA",
"AAAA.fxfxffcAAAA",
"AAAAwfnjjhfx.AAA",
"AAAAwsutvkffwAAA",
"AAAAypllyoxfwAAA",
"AAAAoqqzpyvu.AAA",
"AAA.vqmupuzxdAAA",
"AAAAwmoreptqe.AA",
"AAAAapjexosgxAAA",
"AAAAeigedxfxaAAA",
"AAA#eeedA.ab.AAA",
"AAA.eedAAAAAAAAA",
"AAAA#.AAAAAAAAAA",
"AAAAAAAAAAAAAAAA"
};
