<svg width="520" height="520" viewBox="0 0 520 520" xmlns="http://www.w3.org/2000/svg">
  <defs>
    <style>.label{font:12px sans-serif; fill:#2D3748;} .small{font:11px sans-serif; fill:#4A5568;}</style>
    <marker id="arrow-blue"  markerWidth="10" markerHeight="10" refX="5" refY="2.5" orient="auto" markerUnits="strokeWidth">
      <path d="M0,0 L5,2.5 L0,5 z" fill="#2b6cb0"/>
    </marker>
    <marker id="arrow-orange" markerWidth="10" markerHeight="10" refX="5" refY="2.5" orient="auto" markerUnits="strokeWidth">
      <path d="M0,0 L5,2.5 L0,5 z" fill="#dd6b20"/>
    </marker>
    <marker id="arrow-green" markerWidth="10" markerHeight="10" refX="5" refY="2.5" orient="auto" markerUnits="strokeWidth">
      <path d="M0,0 L5,2.5 L0,5 z" fill="#2f855a"/>
    </marker>
    <marker id="arrow-red" markerWidth="10" markerHeight="10" refX="5" refY="2.5" orient="auto" markerUnits="strokeWidth">
      <path d="M0,0 L5,2.5 L0,5 z" fill="#c53030"/>
    </marker>
  </defs>

  <!-- Legend -->
  <g>
    <line x1="24" y1="24" x2="74" y2="24" stroke="#2b6cb0" stroke-width="3" marker-end="url(#arrow-blue)"/>
    <text class="label" x="86" y="28">Current velocity</text>
    <line x1="24" y1="44" x2="74" y2="44" stroke="#dd6b20" stroke-width="3" marker-end="url(#arrow-orange)"/>
    <text class="label" x="86" y="48">O_THRUST</text>
    <text class="small" x="86" y="62">Determines Fuel Cost</text>
    <line x1="24" y1="74" x2="74" y2="74" stroke="#2f855a" stroke-width="4" marker-end="url(#arrow-green)"/>
    <text class="label" x="86" y="78">Final velocity</text>
    <line x1="24" y1="94" x2="74" y2="94" stroke="#c53030" stroke-width="4" marker-end="url(#arrow-red)"/>
    <text class="label" x="86" y="98">Governor penalty</text>
  </g>

  <!-- Velocity circle -->
  <circle cx="260" cy="260" r="150" fill="none" stroke="#CBD5E0" stroke-width="2"/>
  <text class="label" x="110" y="118">Velocity circle (|v| = 30)</text>

  <!-- Ship orientation dashed at 53.13° -->
  <line x1="140" y1="420" x2="380" y2="100" stroke="#718096" stroke-width="2" stroke-dasharray="6,6"/>
  <text class="label" x="318" y="138">Ship orientation</text>

  <!-- Ship "V" (inverted) -->
  <line x1="260" y1="260" x2="250.133" y2="292.538" stroke="#2D3748" stroke-width="3"/>
  <line x1="260" y1="260" x2="231.128" y2="278.584" stroke="#2D3748" stroke-width="3"/>

  <!-- Current velocity: 18 right -->
  <line x1="260" y1="260" x2="350" y2="260" stroke="#2b6cb0" stroke-width="3" marker-end="url(#arrow-blue)"/>
  <text class="label" x="360" y="252">Current velocity</text>

  <!-- O_THRUST = -52.5 along 233.13°, from (350,260) to v_des (192.5,470) -->
  <line x1="350" y1="260" x2="192.5" y2="470" stroke="#dd6b20" stroke-width="3" marker-end="url(#arrow-orange)"/>
  <text class="label" x="248" y="410">O_THRUST = -52.5</text>
  <text class="small" x="248" y="426">Determines Fuel Cost</text>

  <!-- Final velocity: projection to circle (≈ (214.07,402.89)) -->
  <line x1="260" y1="260" x2="214.07" y2="402.89" stroke="#2f855a" stroke-width="4" marker-end="url(#arrow-green)"/>
  <text class="label" x="222" y="396">Final velocity</text>

  <!-- Governor penalty: from v_des tip back to projected tip -->
  <line x1="192.5" y1="470" x2="214.07" y2="402.89" stroke="#c53030" stroke-width="4" marker-end="url(#arrow-red)"/>
  <text class="label" x="206" y="438">Governor Fuel Penalty Applied</text>
</svg>